ISO-10303-21;
HEADER;
/* Generated by software containing ST-Developer
 * from STEP Tools, Inc. (www.steptools.com) 
 */
/* OPTION: using custom renumber hook */

FILE_DESCRIPTION(
/* description */ ('STEP AP242 Edition 2',
'CAx-IF Rec.Pracs.---Representation and Presentation of Product Manufa
cturing Information (PMI)---4.0---2014-10-13',
'CAx-IF Rec.Pracs.---3D Tessellated Geometry---0.4---2014-09-14','2;1',
'CAx-IF Rec.Pracs.---User Defined Attributes---1.5---2016-08-15'),
/* implementation_level */ '2;1');

FILE_NAME(
/* name */ 'Part Studio 1 - Part 1',
/* time_stamp */ '2026-08-31T00:52:19Z',
/* author */ (''),
/* organization */ (''),
/* preprocessor_version */ 'ST-DEVELOPER v20',
/* originating_system */ 'ONSHAPE BY PTC INC, 1.220',
/* authorisation */ '  ');

FILE_SCHEMA (('AP242_MANAGED_MODEL_BASED_3D_ENGINEERING_MIM_LF { 1 0 10303 442 3 1 4 }'));
ENDSEC;

DATA;
#10=SHAPE_REPRESENTATION_RELATIONSHIP('','',#253,#11);
#11=ADVANCED_BREP_SHAPE_REPRESENTATION('',(#251),#417);
#12=CYLINDRICAL_SURFACE('',#264,0.011);
#13=CYLINDRICAL_SURFACE('',#272,0.0071);
#14=CYLINDRICAL_SURFACE('',#276,0.00508);
#15=CYLINDRICAL_SURFACE('',#277,0.00508);
#16=CYLINDRICAL_SURFACE('',#278,0.00225);
#17=CYLINDRICAL_SURFACE('',#279,0.00225);
#18=LINE('',#354,#36);
#19=LINE('',#357,#37);
#20=LINE('',#359,#38);
#21=LINE('',#361,#39);
#22=LINE('',#367,#40);
#23=LINE('',#370,#41);
#24=LINE('',#372,#42);
#25=LINE('',#374,#43);
#26=LINE('',#380,#44);
#27=LINE('',#383,#45);
#28=LINE('',#385,#46);
#29=LINE('',#392,#47);
#30=LINE('',#393,#48);
#31=LINE('',#395,#49);
#32=LINE('',#398,#50);
#33=LINE('',#403,#51);
#34=LINE('',#405,#52);
#35=LINE('',#410,#53);
#36=VECTOR('',#286,1.);
#37=VECTOR('',#287,1.);
#38=VECTOR('',#288,1.);
#39=VECTOR('',#289,1.);
#40=VECTOR('',#296,1.);
#41=VECTOR('',#297,1.);
#42=VECTOR('',#298,1.);
#43=VECTOR('',#299,1.);
#44=VECTOR('',#306,1.);
#45=VECTOR('',#307,1.);
#46=VECTOR('',#308,1.);
#47=VECTOR('',#315,1.);
#48=VECTOR('',#316,1.);
#49=VECTOR('',#319,1.);
#50=VECTOR('',#322,1.);
#51=VECTOR('',#329,1.);
#52=VECTOR('',#332,1.);
#53=VECTOR('',#339,1.);
#54=ORIENTED_EDGE('',*,*,#114,.T.);
#55=ORIENTED_EDGE('',*,*,#115,.T.);
#56=ORIENTED_EDGE('',*,*,#116,.T.);
#57=ORIENTED_EDGE('',*,*,#117,.F.);
#58=ORIENTED_EDGE('',*,*,#118,.T.);
#59=ORIENTED_EDGE('',*,*,#119,.F.);
#60=ORIENTED_EDGE('',*,*,#120,.T.);
#61=ORIENTED_EDGE('',*,*,#121,.T.);
#62=ORIENTED_EDGE('',*,*,#122,.T.);
#63=ORIENTED_EDGE('',*,*,#123,.F.);
#64=ORIENTED_EDGE('',*,*,#124,.T.);
#65=ORIENTED_EDGE('',*,*,#125,.F.);
#66=ORIENTED_EDGE('',*,*,#126,.F.);
#67=ORIENTED_EDGE('',*,*,#127,.T.);
#68=ORIENTED_EDGE('',*,*,#128,.T.);
#69=ORIENTED_EDGE('',*,*,#129,.F.);
#70=ORIENTED_EDGE('',*,*,#130,.T.);
#71=ORIENTED_EDGE('',*,*,#131,.T.);
#72=ORIENTED_EDGE('',*,*,#132,.F.);
#73=ORIENTED_EDGE('',*,*,#130,.F.);
#74=ORIENTED_EDGE('',*,*,#133,.T.);
#75=ORIENTED_EDGE('',*,*,#134,.T.);
#76=ORIENTED_EDGE('',*,*,#135,.T.);
#77=ORIENTED_EDGE('',*,*,#115,.F.);
#78=ORIENTED_EDGE('',*,*,#136,.F.);
#79=ORIENTED_EDGE('',*,*,#123,.T.);
#80=ORIENTED_EDGE('',*,*,#137,.T.);
#81=ORIENTED_EDGE('',*,*,#127,.F.);
#82=ORIENTED_EDGE('',*,*,#132,.T.);
#83=ORIENTED_EDGE('',*,*,#117,.T.);
#84=ORIENTED_EDGE('',*,*,#138,.T.);
#85=ORIENTED_EDGE('',*,*,#139,.F.);
#86=ORIENTED_EDGE('',*,*,#133,.F.);
#87=ORIENTED_EDGE('',*,*,#129,.T.);
#88=ORIENTED_EDGE('',*,*,#140,.T.);
#89=ORIENTED_EDGE('',*,*,#121,.F.);
#90=ORIENTED_EDGE('',*,*,#141,.T.);
#91=ORIENTED_EDGE('',*,*,#126,.T.);
#92=ORIENTED_EDGE('',*,*,#142,.F.);
#93=ORIENTED_EDGE('',*,*,#139,.T.);
#94=ORIENTED_EDGE('',*,*,#143,.T.);
#95=ORIENTED_EDGE('',*,*,#134,.F.);
#96=ORIENTED_EDGE('',*,*,#131,.F.);
#97=ORIENTED_EDGE('',*,*,#142,.T.);
#98=ORIENTED_EDGE('',*,*,#124,.F.);
#99=ORIENTED_EDGE('',*,*,#136,.T.);
#100=ORIENTED_EDGE('',*,*,#118,.F.);
#101=ORIENTED_EDGE('',*,*,#141,.F.);
#102=ORIENTED_EDGE('',*,*,#137,.F.);
#103=ORIENTED_EDGE('',*,*,#122,.F.);
#104=ORIENTED_EDGE('',*,*,#140,.F.);
#105=ORIENTED_EDGE('',*,*,#128,.F.);
#106=ORIENTED_EDGE('',*,*,#138,.F.);
#107=ORIENTED_EDGE('',*,*,#116,.F.);
#108=ORIENTED_EDGE('',*,*,#135,.F.);
#109=ORIENTED_EDGE('',*,*,#143,.F.);
#110=ORIENTED_EDGE('',*,*,#120,.F.);
#111=ORIENTED_EDGE('',*,*,#114,.F.);
#112=ORIENTED_EDGE('',*,*,#125,.T.);
#113=ORIENTED_EDGE('',*,*,#119,.T.);
#114=EDGE_CURVE('',#144,#144,#166,.F.);
#115=EDGE_CURVE('',#145,#146,#18,.T.);
#116=EDGE_CURVE('',#146,#147,#19,.F.);
#117=EDGE_CURVE('',#148,#147,#20,.T.);
#118=EDGE_CURVE('',#148,#145,#21,.T.);
#119=EDGE_CURVE('',#149,#149,#167,.T.);
#120=EDGE_CURVE('',#150,#150,#168,.T.);
#121=EDGE_CURVE('',#151,#152,#22,.T.);
#122=EDGE_CURVE('',#152,#153,#23,.F.);
#123=EDGE_CURVE('',#154,#153,#24,.T.);
#124=EDGE_CURVE('',#154,#151,#25,.T.);
#125=EDGE_CURVE('',#155,#155,#169,.T.);
#126=EDGE_CURVE('',#156,#156,#170,.T.);
#127=EDGE_CURVE('',#157,#158,#26,.T.);
#128=EDGE_CURVE('',#158,#159,#27,.T.);
#129=EDGE_CURVE('',#160,#159,#28,.T.);
#130=EDGE_CURVE('',#160,#157,#171,.T.);
#131=EDGE_CURVE('',#161,#162,#172,.T.);
#132=EDGE_CURVE('',#157,#162,#29,.T.);
#133=EDGE_CURVE('',#160,#161,#30,.T.);
#134=EDGE_CURVE('',#162,#163,#31,.T.);
#135=EDGE_CURVE('',#163,#146,#173,.F.);
#136=EDGE_CURVE('',#154,#145,#32,.T.);
#137=EDGE_CURVE('',#153,#158,#174,.T.);
#138=EDGE_CURVE('',#147,#164,#175,.T.);
#139=EDGE_CURVE('',#161,#164,#33,.T.);
#140=EDGE_CURVE('',#159,#152,#176,.F.);
#141=EDGE_CURVE('',#151,#148,#34,.T.);
#142=EDGE_CURVE('',#165,#165,#177,.T.);
#143=EDGE_CURVE('',#164,#163,#35,.T.);
#144=VERTEX_POINT('',#353);
#145=VERTEX_POINT('',#355);
#146=VERTEX_POINT('',#356);
#147=VERTEX_POINT('',#358);
#148=VERTEX_POINT('',#360);
#149=VERTEX_POINT('',#363);
#150=VERTEX_POINT('',#366);
#151=VERTEX_POINT('',#368);
#152=VERTEX_POINT('',#369);
#153=VERTEX_POINT('',#371);
#154=VERTEX_POINT('',#373);
#155=VERTEX_POINT('',#376);
#156=VERTEX_POINT('',#379);
#157=VERTEX_POINT('',#381);
#158=VERTEX_POINT('',#382);
#159=VERTEX_POINT('',#384);
#160=VERTEX_POINT('',#386);
#161=VERTEX_POINT('',#390);
#162=VERTEX_POINT('',#391);
#163=VERTEX_POINT('',#396);
#164=VERTEX_POINT('',#402);
#165=VERTEX_POINT('',#408);
#166=CIRCLE('',#256,0.00225);
#167=CIRCLE('',#257,0.00225);
#168=CIRCLE('',#259,0.00225);
#169=CIRCLE('',#260,0.00225);
#170=CIRCLE('',#262,0.0071);
#171=CIRCLE('',#263,0.011);
#172=CIRCLE('',#265,0.011);
#173=CIRCLE('',#267,0.00508);
#174=CIRCLE('',#268,0.00508);
#175=CIRCLE('',#270,0.00508);
#176=CIRCLE('',#271,0.00508);
#177=CIRCLE('',#273,0.0071);
#178=EDGE_LOOP('',(#54));
#179=EDGE_LOOP('',(#55,#56,#57,#58));
#180=EDGE_LOOP('',(#59));
#181=EDGE_LOOP('',(#60));
#182=EDGE_LOOP('',(#61,#62,#63,#64));
#183=EDGE_LOOP('',(#65));
#184=EDGE_LOOP('',(#66));
#185=EDGE_LOOP('',(#67,#68,#69,#70));
#186=EDGE_LOOP('',(#71,#72,#73,#74));
#187=EDGE_LOOP('',(#75,#76,#77,#78,#79,#80,#81,#82));
#188=EDGE_LOOP('',(#83,#84,#85,#86,#87,#88,#89,#90));
#189=EDGE_LOOP('',(#91));
#190=EDGE_LOOP('',(#92));
#191=EDGE_LOOP('',(#93,#94,#95,#96));
#192=EDGE_LOOP('',(#97));
#193=EDGE_LOOP('',(#98,#99,#100,#101));
#194=EDGE_LOOP('',(#102,#103,#104,#105));
#195=EDGE_LOOP('',(#106,#107,#108,#109));
#196=EDGE_LOOP('',(#110));
#197=EDGE_LOOP('',(#111));
#198=EDGE_LOOP('',(#112));
#199=EDGE_LOOP('',(#113));
#200=FACE_BOUND('',#178,.T.);
#201=FACE_BOUND('',#179,.T.);
#202=FACE_BOUND('',#180,.T.);
#203=FACE_BOUND('',#181,.T.);
#204=FACE_BOUND('',#182,.T.);
#205=FACE_BOUND('',#183,.T.);
#206=FACE_BOUND('',#184,.T.);
#207=FACE_BOUND('',#185,.T.);
#208=FACE_BOUND('',#186,.T.);
#209=FACE_BOUND('',#187,.T.);
#210=FACE_BOUND('',#188,.T.);
#211=FACE_BOUND('',#189,.T.);
#212=FACE_BOUND('',#190,.T.);
#213=FACE_BOUND('',#191,.T.);
#214=FACE_BOUND('',#192,.T.);
#215=FACE_BOUND('',#193,.T.);
#216=FACE_BOUND('',#194,.T.);
#217=FACE_BOUND('',#195,.T.);
#218=FACE_BOUND('',#196,.T.);
#219=FACE_BOUND('',#197,.T.);
#220=FACE_BOUND('',#198,.T.);
#221=FACE_BOUND('',#199,.T.);
#222=PLANE('',#255);
#223=PLANE('',#258);
#224=PLANE('',#261);
#225=PLANE('',#266);
#226=PLANE('',#269);
#227=PLANE('',#274);
#228=PLANE('',#275);
#229=ADVANCED_FACE('',(#200,#201,#202),#222,.T.);
#230=ADVANCED_FACE('',(#203,#204,#205),#223,.T.);
#231=ADVANCED_FACE('',(#206,#207),#224,.T.);
#232=ADVANCED_FACE('',(#208),#12,.T.);
#233=ADVANCED_FACE('',(#209),#225,.F.);
#234=ADVANCED_FACE('',(#210),#226,.T.);
#235=ADVANCED_FACE('',(#211,#212),#13,.F.);
#236=ADVANCED_FACE('',(#213,#214),#227,.F.);
#237=ADVANCED_FACE('',(#215),#228,.T.);
#238=ADVANCED_FACE('',(#216),#14,.F.);
#239=ADVANCED_FACE('',(#217),#15,.T.);
#240=ADVANCED_FACE('',(#218,#219),#16,.F.);
#241=ADVANCED_FACE('',(#220,#221),#17,.F.);
#242=CLOSED_SHELL('',(#229,#230,#231,#232,#233,#234,#235,#236,#237,#238,
#239,#240,#241));
#243=STYLED_ITEM('',(#244),#251);
#244=PRESENTATION_STYLE_ASSIGNMENT((#245));
#245=SURFACE_STYLE_USAGE(.BOTH.,#246);
#246=SURFACE_SIDE_STYLE('',(#247));
#247=SURFACE_STYLE_FILL_AREA(#248);
#248=FILL_AREA_STYLE('',(#249));
#249=FILL_AREA_STYLE_COLOUR('',#250);
#250=DRAUGHTING_PRE_DEFINED_COLOUR('red');
#251=MANIFOLD_SOLID_BREP('Part 1',#242);
#252=SHAPE_DEFINITION_REPRESENTATION(#422,#253);
#253=SHAPE_REPRESENTATION('Part 1',(#254),#417);
#254=AXIS2_PLACEMENT_3D('',#350,#280,#281);
#255=AXIS2_PLACEMENT_3D('',#351,#282,#283);
#256=AXIS2_PLACEMENT_3D('',#352,#284,#285);
#257=AXIS2_PLACEMENT_3D('',#362,#290,#291);
#258=AXIS2_PLACEMENT_3D('',#364,#292,#293);
#259=AXIS2_PLACEMENT_3D('',#365,#294,#295);
#260=AXIS2_PLACEMENT_3D('',#375,#300,#301);
#261=AXIS2_PLACEMENT_3D('',#377,#302,#303);
#262=AXIS2_PLACEMENT_3D('',#378,#304,#305);
#263=AXIS2_PLACEMENT_3D('',#387,#309,#310);
#264=AXIS2_PLACEMENT_3D('',#388,#311,#312);
#265=AXIS2_PLACEMENT_3D('',#389,#313,#314);
#266=AXIS2_PLACEMENT_3D('',#394,#317,#318);
#267=AXIS2_PLACEMENT_3D('',#397,#320,#321);
#268=AXIS2_PLACEMENT_3D('',#399,#323,#324);
#269=AXIS2_PLACEMENT_3D('',#400,#325,#326);
#270=AXIS2_PLACEMENT_3D('',#401,#327,#328);
#271=AXIS2_PLACEMENT_3D('',#404,#330,#331);
#272=AXIS2_PLACEMENT_3D('',#406,#333,#334);
#273=AXIS2_PLACEMENT_3D('',#407,#335,#336);
#274=AXIS2_PLACEMENT_3D('',#409,#337,#338);
#275=AXIS2_PLACEMENT_3D('',#411,#340,#341);
#276=AXIS2_PLACEMENT_3D('',#412,#342,#343);
#277=AXIS2_PLACEMENT_3D('',#413,#344,#345);
#278=AXIS2_PLACEMENT_3D('',#414,#346,#347);
#279=AXIS2_PLACEMENT_3D('',#415,#348,#349);
#280=DIRECTION('',(0.,0.,1.));
#281=DIRECTION('',(1.,0.,0.));
#282=DIRECTION('',(0.,0.,-1.));
#283=DIRECTION('',(-1.,0.,0.));
#284=DIRECTION('',(0.,0.,-1.));
#285=DIRECTION('',(-1.,0.,0.));
#286=DIRECTION('',(0.,1.,0.));
#287=DIRECTION('',(-1.,0.,0.));
#288=DIRECTION('',(0.,1.,0.));
#289=DIRECTION('',(-1.,0.,0.));
#290=DIRECTION('',(0.,0.,-1.));
#291=DIRECTION('',(-1.,0.,0.));
#292=DIRECTION('',(0.,0.,1.));
#293=DIRECTION('',(1.,0.,0.));
#294=DIRECTION('',(0.,0.,-1.));
#295=DIRECTION('',(1.,0.,0.));
#296=DIRECTION('',(0.,1.,0.));
#297=DIRECTION('',(1.,0.,0.));
#298=DIRECTION('',(0.,1.,0.));
#299=DIRECTION('',(1.,0.,0.));
#300=DIRECTION('',(0.,0.,1.));
#301=DIRECTION('',(1.,0.,0.));
#302=DIRECTION('',(0.,-1.,0.));
#303=DIRECTION('',(1.,0.,0.));
#304=DIRECTION('',(0.,-1.,0.));
#305=DIRECTION('',(0.,0.,-1.));
#306=DIRECTION('',(-9.37688365392869E-17,0.,-1.));
#307=DIRECTION('',(1.,0.,0.));
#308=DIRECTION('',(-9.37688365392869E-17,0.,-1.));
#309=DIRECTION('',(0.,-1.,0.));
#310=DIRECTION('',(0.,0.,-1.));
#311=DIRECTION('',(0.,1.,0.));
#312=DIRECTION('',(0.,0.,1.));
#313=DIRECTION('',(0.,-1.,0.));
#314=DIRECTION('',(0.,0.,-1.));
#315=DIRECTION('',(0.,1.,0.));
#316=DIRECTION('',(0.,1.,0.));
#317=DIRECTION('',(1.,0.,-9.37688365392869E-17));
#318=DIRECTION('',(-9.37688365392869E-17,0.,-1.));
#319=DIRECTION('',(-9.37688365392869E-17,0.,-1.));
#320=DIRECTION('',(1.,0.,-9.37688365392869E-17));
#321=DIRECTION('',(-9.37688365392869E-17,0.,-1.));
#322=DIRECTION('',(-9.37688365392869E-17,0.,-1.));
#323=DIRECTION('',(1.,0.,-9.37688365392869E-17));
#324=DIRECTION('',(-9.37688365392869E-17,0.,-1.));
#325=DIRECTION('',(1.,0.,-9.37688365392869E-17));
#326=DIRECTION('',(-9.37688365392869E-17,0.,-1.));
#327=DIRECTION('',(1.,0.,-9.37688365392869E-17));
#328=DIRECTION('',(-9.37688365392869E-17,0.,-1.));
#329=DIRECTION('',(-9.37688365392869E-17,0.,-1.));
#330=DIRECTION('',(1.,0.,-9.37688365392869E-17));
#331=DIRECTION('',(-9.37688365392869E-17,0.,-1.));
#332=DIRECTION('',(-9.37688365392869E-17,0.,-1.));
#333=DIRECTION('',(0.,1.,0.));
#334=DIRECTION('',(0.,0.,1.));
#335=DIRECTION('',(0.,-1.,0.));
#336=DIRECTION('',(0.,0.,-1.));
#337=DIRECTION('',(0.,-1.,0.));
#338=DIRECTION('',(1.,0.,0.));
#339=DIRECTION('',(-1.,0.,0.));
#340=DIRECTION('',(0.,-1.,0.));
#341=DIRECTION('',(1.,0.,0.));
#342=DIRECTION('',(-1.,0.,0.));
#343=DIRECTION('',(0.,0.,1.));
#344=DIRECTION('',(1.,0.,0.));
#345=DIRECTION('',(0.,0.,-1.));
#346=DIRECTION('',(0.,0.,1.));
#347=DIRECTION('',(1.,0.,0.));
#348=DIRECTION('',(0.,0.,1.));
#349=DIRECTION('',(1.,0.,0.));
#350=CARTESIAN_POINT('',(0.,0.,0.));
#351=CARTESIAN_POINT('',(1.7347234759768E-18,-0.004,-0.00925));
#352=CARTESIAN_POINT('',(-0.0055,-0.01654,-0.00925));
#353=CARTESIAN_POINT('',(-0.00775,-0.01654,-0.00925));
#354=CARTESIAN_POINT('',(-0.011,-0.004,-0.00925));
#355=CARTESIAN_POINT('',(-0.011,-0.024,-0.00925));
#356=CARTESIAN_POINT('',(-0.011,-0.00508,-0.00925));
#357=CARTESIAN_POINT('',(0.011,-0.00508,-0.00925));
#358=CARTESIAN_POINT('',(0.011,-0.00508,-0.00925));
#359=CARTESIAN_POINT('',(0.011,-0.004,-0.00925));
#360=CARTESIAN_POINT('',(0.011,-0.024,-0.00925));
#361=CARTESIAN_POINT('',(1.7347234759768E-18,-0.024,-0.00925));
#362=CARTESIAN_POINT('',(0.0055,-0.01654,-0.00925));
#363=CARTESIAN_POINT('',(0.00325,-0.01654,-0.00925));
#364=CARTESIAN_POINT('',(-3.46944695195361E-18,-0.024,-0.00525));
#365=CARTESIAN_POINT('',(-0.0055,-0.01654,-0.00525));
#366=CARTESIAN_POINT('',(-0.00325,-0.01654,-0.00525));
#367=CARTESIAN_POINT('',(0.011,-0.024,-0.00525));
#368=CARTESIAN_POINT('',(0.011,-0.024,-0.00525));
#369=CARTESIAN_POINT('',(0.011,-0.00908,-0.00525));
#370=CARTESIAN_POINT('',(-0.011,-0.00908,-0.00525));
#371=CARTESIAN_POINT('',(-0.011,-0.00908,-0.00525));
#372=CARTESIAN_POINT('',(-0.011,-0.024,-0.00525));
#373=CARTESIAN_POINT('',(-0.011,-0.024,-0.00525));
#374=CARTESIAN_POINT('',(-3.46944695195361E-18,-0.024,-0.00525));
#375=CARTESIAN_POINT('',(0.0055,-0.01654,-0.00525));
#376=CARTESIAN_POINT('',(0.00775,-0.01654,-0.00525));
#377=CARTESIAN_POINT('',(1.7347234759768E-18,-0.004,0.0055));
#378=CARTESIAN_POINT('',(-1.7347234759768E-18,-0.004,0.00925));
#379=CARTESIAN_POINT('',(-1.7347234759768E-18,-0.004,0.00215));
#380=CARTESIAN_POINT('',(-0.011,-0.004,1.7347234759768E-18));
#381=CARTESIAN_POINT('',(-0.011,-0.004,0.00925));
#382=CARTESIAN_POINT('',(-0.011,-0.004,-0.000169999999999993));
#383=CARTESIAN_POINT('',(0.011,-0.004,-0.000169999999999993));
#384=CARTESIAN_POINT('',(0.011,-0.004,-0.000169999999999993));
#385=CARTESIAN_POINT('',(0.011,-0.004,5.20417042793042E-18));
#386=CARTESIAN_POINT('',(0.011,-0.004,0.00925));
#387=CARTESIAN_POINT('',(-1.7347234759768E-18,-0.004,0.00925));
#388=CARTESIAN_POINT('',(-1.7347234759768E-18,-0.004,0.00925));
#389=CARTESIAN_POINT('',(-1.7347234759768E-18,0.,0.00925));
#390=CARTESIAN_POINT('',(0.011,0.,0.00925));
#391=CARTESIAN_POINT('',(-0.011,0.,0.00925));
#392=CARTESIAN_POINT('',(-0.011,-0.004,0.00925));
#393=CARTESIAN_POINT('',(0.011,-0.004,0.00925));
#394=CARTESIAN_POINT('',(-0.011,-0.004,1.7347234759768E-18));
#395=CARTESIAN_POINT('',(-0.011,0.,1.7347234759768E-18));
#396=CARTESIAN_POINT('',(-0.011,0.,-0.00417));
#397=CARTESIAN_POINT('',(-0.011,-0.00508,-0.00417));
#398=CARTESIAN_POINT('',(-0.011,-0.024,1.7347234759768E-18));
#399=CARTESIAN_POINT('',(-0.011,-0.00908,-0.000169999999999993));
#400=CARTESIAN_POINT('',(0.011,-0.004,5.20417042793042E-18));
#401=CARTESIAN_POINT('',(0.011,-0.00508,-0.00417));
#402=CARTESIAN_POINT('',(0.011,0.,-0.00417));
#403=CARTESIAN_POINT('',(0.011,0.,5.20417042793042E-18));
#404=CARTESIAN_POINT('',(0.011,-0.00908,-0.000169999999999993));
#405=CARTESIAN_POINT('',(0.011,-0.024,5.20417042793042E-18));
#406=CARTESIAN_POINT('',(-1.7347234759768E-18,-0.004,0.00925));
#407=CARTESIAN_POINT('',(-1.7347234759768E-18,0.,0.00925));
#408=CARTESIAN_POINT('',(-1.7347234759768E-18,0.,0.00215));
#409=CARTESIAN_POINT('',(1.7347234759768E-18,0.,0.0055));
#410=CARTESIAN_POINT('',(-0.011,0.,-0.00417));
#411=CARTESIAN_POINT('',(1.7347234759768E-18,-0.024,0.0055));
#412=CARTESIAN_POINT('',(1.7347234759768E-18,-0.00908,-0.000169999999999993));
#413=CARTESIAN_POINT('',(1.7347234759768E-18,-0.00508,-0.00417));
#414=CARTESIAN_POINT('',(-0.0055,-0.01654,-0.03065));
#415=CARTESIAN_POINT('',(0.0055,-0.01654,-0.03065));
#416=MECHANICAL_DESIGN_GEOMETRIC_PRESENTATION_REPRESENTATION('',(#243),
#417);
#417=(
GEOMETRIC_REPRESENTATION_CONTEXT(3)
GLOBAL_UNCERTAINTY_ASSIGNED_CONTEXT((#418))
GLOBAL_UNIT_ASSIGNED_CONTEXT((#421,#420,#419))
REPRESENTATION_CONTEXT('Part 1','TOP_LEVEL_ASSEMBLY_PART')
);
#418=UNCERTAINTY_MEASURE_WITH_UNIT(LENGTH_MEASURE(1.E-8),#421,
'DISTANCE_ACCURACY_VALUE','Maximum Tolerance applied to model');
#419=(
NAMED_UNIT(*)
SI_UNIT($,.STERADIAN.)
SOLID_ANGLE_UNIT()
);
#420=(
NAMED_UNIT(*)
PLANE_ANGLE_UNIT()
SI_UNIT($,.RADIAN.)
);
#421=(
LENGTH_UNIT()
NAMED_UNIT(*)
SI_UNIT($,.METRE.)
);
#422=PRODUCT_DEFINITION_SHAPE('','',#423);
#423=PRODUCT_DEFINITION('','',#425,#424);
#424=PRODUCT_DEFINITION_CONTEXT('',#431,'design');
#425=PRODUCT_DEFINITION_FORMATION_WITH_SPECIFIED_SOURCE('','',#427,
 .NOT_KNOWN.);
#426=PRODUCT_RELATED_PRODUCT_CATEGORY('','',(#427));
#427=PRODUCT('Part 1','Part 1','Part 1',(#429));
#428=PRODUCT_CATEGORY('','');
#429=PRODUCT_CONTEXT('',#431,'mechanical');
#430=APPLICATION_PROTOCOL_DEFINITION('international standard',
'ap242_managed_model_based_3d_engineering',2020,#431);
#431=APPLICATION_CONTEXT('managed model based 3d engineering');
ENDSEC;
END-ISO-10303-21;
