ISO-10303-21;
HEADER;
/* Generated by software containing ST-Developer
 * from STEP Tools, Inc. (www.steptools.com) 
 */
/* OPTION: using custom renumber hook */

FILE_DESCRIPTION(
/* description */ ('STEP AP242 Edition 2',
'CAx-IF Rec.Pracs.---Representation and Presentation of Product Manufa
cturing Information (PMI)---4.0---2014-10-13',
'CAx-IF Rec.Pracs.---3D Tessellated Geometry---0.4---2014-09-14','2;1',
'CAx-IF Rec.Pracs.---User Defined Attributes---1.5---2016-08-15'),
/* implementation_level */ '2;1');

FILE_NAME(
/* name */ 'Part Studio 2 - Part 2',
/* time_stamp */ '2026-08-30T22:28:54Z',
/* author */ (''),
/* organization */ (''),
/* preprocessor_version */ 'ST-DEVELOPER v20',
/* originating_system */ 'ONSHAPE BY PTC INC, 1.220',
/* authorisation */ '  ');

FILE_SCHEMA (('AP242_MANAGED_MODEL_BASED_3D_ENGINEERING_MIM_LF { 1 0 10303 442 3 1 4 }'));
ENDSEC;

DATA;
#10=SHAPE_REPRESENTATION_RELATIONSHIP('','',#899,#11);
#11=ADVANCED_BREP_SHAPE_REPRESENTATION('',(#897),#1463);
#12=CYLINDRICAL_SURFACE('',#928,0.0012);
#13=CYLINDRICAL_SURFACE('',#933,0.0012);
#14=CYLINDRICAL_SURFACE('',#935,0.001);
#15=CYLINDRICAL_SURFACE('',#936,0.001);
#16=CYLINDRICAL_SURFACE('',#948,0.001);
#17=CYLINDRICAL_SURFACE('',#951,0.001);
#18=CYLINDRICAL_SURFACE('',#955,0.001);
#19=CYLINDRICAL_SURFACE('',#958,0.001);
#20=CYLINDRICAL_SURFACE('',#962,0.001);
#21=CYLINDRICAL_SURFACE('',#965,0.001);
#22=ELLIPSE('',#909,0.0018744599222176,0.0012);
#23=ELLIPSE('',#910,0.00156204993518134,0.001);
#24=ELLIPSE('',#920,0.00156204993518134,0.001);
#25=ELLIPSE('',#921,0.0018744599222176,0.0012);
#26=CIRCLE('',#902,0.001);
#27=CIRCLE('',#903,0.001);
#28=CIRCLE('',#904,0.001);
#29=CIRCLE('',#905,0.001);
#30=CIRCLE('',#906,0.001);
#31=CIRCLE('',#907,0.001);
#32=CIRCLE('',#923,0.001);
#33=CIRCLE('',#924,0.0012);
#34=CIRCLE('',#925,0.0012);
#35=CIRCLE('',#926,0.001);
#36=CIRCLE('',#949,0.001);
#37=CIRCLE('',#952,0.001);
#38=CIRCLE('',#956,0.001);
#39=CIRCLE('',#959,0.001);
#40=CIRCLE('',#963,0.001);
#41=CIRCLE('',#966,0.001);
#42=ORIENTED_EDGE('',*,*,#290,.F.);
#43=ORIENTED_EDGE('',*,*,#291,.F.);
#44=ORIENTED_EDGE('',*,*,#292,.T.);
#45=ORIENTED_EDGE('',*,*,#293,.F.);
#46=ORIENTED_EDGE('',*,*,#294,.F.);
#47=ORIENTED_EDGE('',*,*,#295,.T.);
#48=ORIENTED_EDGE('',*,*,#296,.T.);
#49=ORIENTED_EDGE('',*,*,#297,.F.);
#50=ORIENTED_EDGE('',*,*,#298,.F.);
#51=ORIENTED_EDGE('',*,*,#299,.T.);
#52=ORIENTED_EDGE('',*,*,#300,.F.);
#53=ORIENTED_EDGE('',*,*,#301,.F.);
#54=ORIENTED_EDGE('',*,*,#302,.F.);
#55=ORIENTED_EDGE('',*,*,#303,.T.);
#56=ORIENTED_EDGE('',*,*,#304,.F.);
#57=ORIENTED_EDGE('',*,*,#305,.T.);
#58=ORIENTED_EDGE('',*,*,#306,.F.);
#59=ORIENTED_EDGE('',*,*,#307,.T.);
#60=ORIENTED_EDGE('',*,*,#308,.T.);
#61=ORIENTED_EDGE('',*,*,#309,.F.);
#62=ORIENTED_EDGE('',*,*,#310,.F.);
#63=ORIENTED_EDGE('',*,*,#311,.F.);
#64=ORIENTED_EDGE('',*,*,#312,.T.);
#65=ORIENTED_EDGE('',*,*,#313,.F.);
#66=ORIENTED_EDGE('',*,*,#314,.F.);
#67=ORIENTED_EDGE('',*,*,#315,.T.);
#68=ORIENTED_EDGE('',*,*,#316,.T.);
#69=ORIENTED_EDGE('',*,*,#317,.T.);
#70=ORIENTED_EDGE('',*,*,#318,.T.);
#71=ORIENTED_EDGE('',*,*,#316,.F.);
#72=ORIENTED_EDGE('',*,*,#319,.T.);
#73=ORIENTED_EDGE('',*,*,#320,.F.);
#74=ORIENTED_EDGE('',*,*,#321,.F.);
#75=ORIENTED_EDGE('',*,*,#322,.F.);
#76=ORIENTED_EDGE('',*,*,#323,.T.);
#77=ORIENTED_EDGE('',*,*,#324,.T.);
#78=ORIENTED_EDGE('',*,*,#325,.F.);
#79=ORIENTED_EDGE('',*,*,#295,.F.);
#80=ORIENTED_EDGE('',*,*,#326,.T.);
#81=ORIENTED_EDGE('',*,*,#327,.F.);
#82=ORIENTED_EDGE('',*,*,#328,.F.);
#83=ORIENTED_EDGE('',*,*,#329,.T.);
#84=ORIENTED_EDGE('',*,*,#330,.T.);
#85=ORIENTED_EDGE('',*,*,#331,.F.);
#86=ORIENTED_EDGE('',*,*,#332,.F.);
#87=ORIENTED_EDGE('',*,*,#333,.T.);
#88=ORIENTED_EDGE('',*,*,#334,.T.);
#89=ORIENTED_EDGE('',*,*,#335,.F.);
#90=ORIENTED_EDGE('',*,*,#336,.F.);
#91=ORIENTED_EDGE('',*,*,#310,.T.);
#92=ORIENTED_EDGE('',*,*,#337,.F.);
#93=ORIENTED_EDGE('',*,*,#338,.F.);
#94=ORIENTED_EDGE('',*,*,#339,.F.);
#95=ORIENTED_EDGE('',*,*,#340,.T.);
#96=ORIENTED_EDGE('',*,*,#314,.T.);
#97=ORIENTED_EDGE('',*,*,#341,.F.);
#98=ORIENTED_EDGE('',*,*,#326,.F.);
#99=ORIENTED_EDGE('',*,*,#294,.T.);
#100=ORIENTED_EDGE('',*,*,#342,.T.);
#101=ORIENTED_EDGE('',*,*,#308,.F.);
#102=ORIENTED_EDGE('',*,*,#343,.F.);
#103=ORIENTED_EDGE('',*,*,#296,.F.);
#104=ORIENTED_EDGE('',*,*,#325,.T.);
#105=ORIENTED_EDGE('',*,*,#344,.T.);
#106=ORIENTED_EDGE('',*,*,#345,.T.);
#107=ORIENTED_EDGE('',*,*,#346,.F.);
#108=ORIENTED_EDGE('',*,*,#347,.F.);
#109=ORIENTED_EDGE('',*,*,#348,.T.);
#110=ORIENTED_EDGE('',*,*,#349,.F.);
#111=ORIENTED_EDGE('',*,*,#350,.T.);
#112=ORIENTED_EDGE('',*,*,#328,.T.);
#113=ORIENTED_EDGE('',*,*,#351,.F.);
#114=ORIENTED_EDGE('',*,*,#352,.T.);
#115=ORIENTED_EDGE('',*,*,#353,.F.);
#116=ORIENTED_EDGE('',*,*,#335,.T.);
#117=ORIENTED_EDGE('',*,*,#354,.T.);
#118=ORIENTED_EDGE('',*,*,#345,.F.);
#119=ORIENTED_EDGE('',*,*,#355,.T.);
#120=ORIENTED_EDGE('',*,*,#356,.T.);
#121=ORIENTED_EDGE('',*,*,#320,.T.);
#122=ORIENTED_EDGE('',*,*,#357,.T.);
#123=ORIENTED_EDGE('',*,*,#339,.T.);
#124=ORIENTED_EDGE('',*,*,#358,.T.);
#125=ORIENTED_EDGE('',*,*,#359,.F.);
#126=ORIENTED_EDGE('',*,*,#360,.T.);
#127=ORIENTED_EDGE('',*,*,#338,.T.);
#128=ORIENTED_EDGE('',*,*,#361,.T.);
#129=ORIENTED_EDGE('',*,*,#333,.F.);
#130=ORIENTED_EDGE('',*,*,#362,.F.);
#131=ORIENTED_EDGE('',*,*,#363,.T.);
#132=ORIENTED_EDGE('',*,*,#364,.F.);
#133=ORIENTED_EDGE('',*,*,#330,.F.);
#134=ORIENTED_EDGE('',*,*,#365,.T.);
#135=ORIENTED_EDGE('',*,*,#366,.T.);
#136=ORIENTED_EDGE('',*,*,#367,.F.);
#137=ORIENTED_EDGE('',*,*,#368,.T.);
#138=ORIENTED_EDGE('',*,*,#369,.T.);
#139=ORIENTED_EDGE('',*,*,#322,.T.);
#140=ORIENTED_EDGE('',*,*,#370,.F.);
#141=ORIENTED_EDGE('',*,*,#334,.F.);
#142=ORIENTED_EDGE('',*,*,#361,.F.);
#143=ORIENTED_EDGE('',*,*,#337,.T.);
#144=ORIENTED_EDGE('',*,*,#309,.T.);
#145=ORIENTED_EDGE('',*,*,#342,.F.);
#146=ORIENTED_EDGE('',*,*,#297,.T.);
#147=ORIENTED_EDGE('',*,*,#346,.T.);
#148=ORIENTED_EDGE('',*,*,#354,.F.);
#149=ORIENTED_EDGE('',*,*,#371,.F.);
#150=ORIENTED_EDGE('',*,*,#363,.F.);
#151=ORIENTED_EDGE('',*,*,#372,.T.);
#152=ORIENTED_EDGE('',*,*,#352,.F.);
#153=ORIENTED_EDGE('',*,*,#353,.T.);
#154=ORIENTED_EDGE('',*,*,#372,.F.);
#155=ORIENTED_EDGE('',*,*,#362,.T.);
#156=ORIENTED_EDGE('',*,*,#332,.T.);
#157=ORIENTED_EDGE('',*,*,#351,.T.);
#158=ORIENTED_EDGE('',*,*,#331,.T.);
#159=ORIENTED_EDGE('',*,*,#364,.T.);
#160=ORIENTED_EDGE('',*,*,#371,.T.);
#161=ORIENTED_EDGE('',*,*,#373,.F.);
#162=ORIENTED_EDGE('',*,*,#366,.F.);
#163=ORIENTED_EDGE('',*,*,#374,.T.);
#164=ORIENTED_EDGE('',*,*,#349,.T.);
#165=ORIENTED_EDGE('',*,*,#375,.F.);
#166=ORIENTED_EDGE('',*,*,#336,.T.);
#167=ORIENTED_EDGE('',*,*,#360,.F.);
#168=ORIENTED_EDGE('',*,*,#376,.T.);
#169=ORIENTED_EDGE('',*,*,#311,.T.);
#170=ORIENTED_EDGE('',*,*,#376,.F.);
#171=ORIENTED_EDGE('',*,*,#359,.T.);
#172=ORIENTED_EDGE('',*,*,#377,.T.);
#173=ORIENTED_EDGE('',*,*,#312,.F.);
#174=ORIENTED_EDGE('',*,*,#341,.T.);
#175=ORIENTED_EDGE('',*,*,#313,.T.);
#176=ORIENTED_EDGE('',*,*,#377,.F.);
#177=ORIENTED_EDGE('',*,*,#358,.F.);
#178=ORIENTED_EDGE('',*,*,#357,.F.);
#179=ORIENTED_EDGE('',*,*,#319,.F.);
#180=ORIENTED_EDGE('',*,*,#315,.F.);
#181=ORIENTED_EDGE('',*,*,#340,.F.);
#182=ORIENTED_EDGE('',*,*,#365,.F.);
#183=ORIENTED_EDGE('',*,*,#329,.F.);
#184=ORIENTED_EDGE('',*,*,#350,.F.);
#185=ORIENTED_EDGE('',*,*,#374,.F.);
#186=ORIENTED_EDGE('',*,*,#323,.F.);
#187=ORIENTED_EDGE('',*,*,#369,.F.);
#188=ORIENTED_EDGE('',*,*,#378,.T.);
#189=ORIENTED_EDGE('',*,*,#379,.T.);
#190=ORIENTED_EDGE('',*,*,#373,.T.);
#191=ORIENTED_EDGE('',*,*,#380,.F.);
#192=ORIENTED_EDGE('',*,*,#381,.F.);
#193=ORIENTED_EDGE('',*,*,#367,.T.);
#194=ORIENTED_EDGE('',*,*,#375,.T.);
#195=ORIENTED_EDGE('',*,*,#348,.F.);
#196=ORIENTED_EDGE('',*,*,#382,.F.);
#197=ORIENTED_EDGE('',*,*,#380,.T.);
#198=ORIENTED_EDGE('',*,*,#324,.F.);
#199=ORIENTED_EDGE('',*,*,#379,.F.);
#200=ORIENTED_EDGE('',*,*,#383,.T.);
#201=ORIENTED_EDGE('',*,*,#344,.F.);
#202=ORIENTED_EDGE('',*,*,#378,.F.);
#203=ORIENTED_EDGE('',*,*,#368,.F.);
#204=ORIENTED_EDGE('',*,*,#381,.T.);
#205=ORIENTED_EDGE('',*,*,#382,.T.);
#206=ORIENTED_EDGE('',*,*,#347,.T.);
#207=ORIENTED_EDGE('',*,*,#383,.F.);
#208=ORIENTED_EDGE('',*,*,#318,.F.);
#209=ORIENTED_EDGE('',*,*,#384,.F.);
#210=ORIENTED_EDGE('',*,*,#385,.T.);
#211=ORIENTED_EDGE('',*,*,#306,.T.);
#212=ORIENTED_EDGE('',*,*,#317,.F.);
#213=ORIENTED_EDGE('',*,*,#356,.F.);
#214=ORIENTED_EDGE('',*,*,#386,.T.);
#215=ORIENTED_EDGE('',*,*,#384,.T.);
#216=ORIENTED_EDGE('',*,*,#321,.T.);
#217=ORIENTED_EDGE('',*,*,#387,.F.);
#218=ORIENTED_EDGE('',*,*,#388,.F.);
#219=ORIENTED_EDGE('',*,*,#370,.T.);
#220=ORIENTED_EDGE('',*,*,#327,.T.);
#221=ORIENTED_EDGE('',*,*,#343,.T.);
#222=ORIENTED_EDGE('',*,*,#389,.F.);
#223=ORIENTED_EDGE('',*,*,#387,.T.);
#224=ORIENTED_EDGE('',*,*,#385,.F.);
#225=ORIENTED_EDGE('',*,*,#386,.F.);
#226=ORIENTED_EDGE('',*,*,#355,.F.);
#227=ORIENTED_EDGE('',*,*,#388,.T.);
#228=ORIENTED_EDGE('',*,*,#389,.T.);
#229=ORIENTED_EDGE('',*,*,#307,.F.);
#230=ORIENTED_EDGE('',*,*,#290,.T.);
#231=ORIENTED_EDGE('',*,*,#390,.F.);
#232=ORIENTED_EDGE('',*,*,#391,.F.);
#233=ORIENTED_EDGE('',*,*,#392,.T.);
#234=ORIENTED_EDGE('',*,*,#293,.T.);
#235=ORIENTED_EDGE('',*,*,#393,.F.);
#236=ORIENTED_EDGE('',*,*,#394,.F.);
#237=ORIENTED_EDGE('',*,*,#390,.T.);
#238=ORIENTED_EDGE('',*,*,#292,.F.);
#239=ORIENTED_EDGE('',*,*,#395,.F.);
#240=ORIENTED_EDGE('',*,*,#396,.T.);
#241=ORIENTED_EDGE('',*,*,#393,.T.);
#242=ORIENTED_EDGE('',*,*,#291,.T.);
#243=ORIENTED_EDGE('',*,*,#392,.F.);
#244=ORIENTED_EDGE('',*,*,#397,.F.);
#245=ORIENTED_EDGE('',*,*,#395,.T.);
#246=ORIENTED_EDGE('',*,*,#391,.T.);
#247=ORIENTED_EDGE('',*,*,#394,.T.);
#248=ORIENTED_EDGE('',*,*,#396,.F.);
#249=ORIENTED_EDGE('',*,*,#397,.T.);
#250=ORIENTED_EDGE('',*,*,#299,.F.);
#251=ORIENTED_EDGE('',*,*,#398,.F.);
#252=ORIENTED_EDGE('',*,*,#399,.T.);
#253=ORIENTED_EDGE('',*,*,#400,.T.);
#254=ORIENTED_EDGE('',*,*,#298,.T.);
#255=ORIENTED_EDGE('',*,*,#401,.F.);
#256=ORIENTED_EDGE('',*,*,#402,.F.);
#257=ORIENTED_EDGE('',*,*,#398,.T.);
#258=ORIENTED_EDGE('',*,*,#301,.T.);
#259=ORIENTED_EDGE('',*,*,#403,.F.);
#260=ORIENTED_EDGE('',*,*,#404,.F.);
#261=ORIENTED_EDGE('',*,*,#401,.T.);
#262=ORIENTED_EDGE('',*,*,#300,.T.);
#263=ORIENTED_EDGE('',*,*,#400,.F.);
#264=ORIENTED_EDGE('',*,*,#405,.F.);
#265=ORIENTED_EDGE('',*,*,#403,.T.);
#266=ORIENTED_EDGE('',*,*,#399,.F.);
#267=ORIENTED_EDGE('',*,*,#402,.T.);
#268=ORIENTED_EDGE('',*,*,#404,.T.);
#269=ORIENTED_EDGE('',*,*,#405,.T.);
#270=ORIENTED_EDGE('',*,*,#303,.F.);
#271=ORIENTED_EDGE('',*,*,#406,.F.);
#272=ORIENTED_EDGE('',*,*,#407,.T.);
#273=ORIENTED_EDGE('',*,*,#408,.T.);
#274=ORIENTED_EDGE('',*,*,#302,.T.);
#275=ORIENTED_EDGE('',*,*,#409,.F.);
#276=ORIENTED_EDGE('',*,*,#410,.F.);
#277=ORIENTED_EDGE('',*,*,#406,.T.);
#278=ORIENTED_EDGE('',*,*,#305,.F.);
#279=ORIENTED_EDGE('',*,*,#411,.F.);
#280=ORIENTED_EDGE('',*,*,#412,.T.);
#281=ORIENTED_EDGE('',*,*,#409,.T.);
#282=ORIENTED_EDGE('',*,*,#304,.T.);
#283=ORIENTED_EDGE('',*,*,#408,.F.);
#284=ORIENTED_EDGE('',*,*,#413,.F.);
#285=ORIENTED_EDGE('',*,*,#411,.T.);
#286=ORIENTED_EDGE('',*,*,#407,.F.);
#287=ORIENTED_EDGE('',*,*,#410,.T.);
#288=ORIENTED_EDGE('',*,*,#412,.F.);
#289=ORIENTED_EDGE('',*,*,#413,.T.);
#290=EDGE_CURVE('',#414,#415,#496,.T.);
#291=EDGE_CURVE('',#416,#414,#26,.T.);
#292=EDGE_CURVE('',#416,#417,#497,.T.);
#293=EDGE_CURVE('',#415,#417,#27,.T.);
#294=EDGE_CURVE('',#418,#419,#498,.T.);
#295=EDGE_CURVE('',#418,#420,#499,.T.);
#296=EDGE_CURVE('',#420,#421,#500,.T.);
#297=EDGE_CURVE('',#419,#421,#501,.T.);
#298=EDGE_CURVE('',#422,#423,#28,.T.);
#299=EDGE_CURVE('',#422,#424,#502,.T.);
#300=EDGE_CURVE('',#425,#424,#29,.T.);
#301=EDGE_CURVE('',#423,#425,#503,.T.);
#302=EDGE_CURVE('',#426,#427,#30,.T.);
#303=EDGE_CURVE('',#426,#428,#504,.T.);
#304=EDGE_CURVE('',#429,#428,#31,.T.);
#305=EDGE_CURVE('',#429,#427,#505,.T.);
#306=EDGE_CURVE('',#430,#431,#506,.T.);
#307=EDGE_CURVE('',#430,#432,#507,.T.);
#308=EDGE_CURVE('',#432,#433,#508,.T.);
#309=EDGE_CURVE('',#434,#433,#509,.T.);
#310=EDGE_CURVE('',#435,#434,#510,.T.);
#311=EDGE_CURVE('',#436,#435,#511,.T.);
#312=EDGE_CURVE('',#436,#437,#22,.F.);
#313=EDGE_CURVE('',#438,#437,#512,.T.);
#314=EDGE_CURVE('',#439,#438,#513,.T.);
#315=EDGE_CURVE('',#439,#440,#23,.T.);
#316=EDGE_CURVE('',#440,#431,#514,.T.);
#317=EDGE_CURVE('',#441,#442,#515,.T.);
#318=EDGE_CURVE('',#442,#431,#516,.T.);
#319=EDGE_CURVE('',#440,#443,#517,.F.);
#320=EDGE_CURVE('',#441,#443,#518,.T.);
#321=EDGE_CURVE('',#444,#445,#519,.T.);
#322=EDGE_CURVE('',#446,#444,#520,.T.);
#323=EDGE_CURVE('',#446,#447,#521,.T.);
#324=EDGE_CURVE('',#447,#448,#522,.T.);
#325=EDGE_CURVE('',#420,#448,#523,.T.);
#326=EDGE_CURVE('',#418,#449,#524,.T.);
#327=EDGE_CURVE('',#445,#449,#525,.T.);
#328=EDGE_CURVE('',#450,#451,#526,.T.);
#329=EDGE_CURVE('',#450,#452,#527,.F.);
#330=EDGE_CURVE('',#452,#453,#528,.T.);
#331=EDGE_CURVE('',#451,#453,#529,.T.);
#332=EDGE_CURVE('',#454,#455,#530,.T.);
#333=EDGE_CURVE('',#454,#456,#531,.T.);
#334=EDGE_CURVE('',#456,#457,#532,.T.);
#335=EDGE_CURVE('',#455,#457,#533,.T.);
#336=EDGE_CURVE('',#435,#458,#534,.T.);
#337=EDGE_CURVE('',#459,#434,#535,.T.);
#338=EDGE_CURVE('',#458,#459,#536,.T.);
#339=EDGE_CURVE('',#460,#461,#537,.T.);
#340=EDGE_CURVE('',#460,#439,#538,.T.);
#341=EDGE_CURVE('',#461,#438,#539,.T.);
#342=EDGE_CURVE('',#419,#433,#540,.T.);
#343=EDGE_CURVE('',#449,#432,#541,.T.);
#344=EDGE_CURVE('',#448,#462,#542,.T.);
#345=EDGE_CURVE('',#462,#463,#543,.T.);
#346=EDGE_CURVE('',#421,#463,#544,.T.);
#347=EDGE_CURVE('',#464,#462,#545,.T.);
#348=EDGE_CURVE('',#464,#465,#546,.T.);
#349=EDGE_CURVE('',#466,#465,#547,.T.);
#350=EDGE_CURVE('',#466,#450,#24,.F.);
#351=EDGE_CURVE('',#467,#451,#548,.T.);
#352=EDGE_CURVE('',#467,#468,#25,.T.);
#353=EDGE_CURVE('',#455,#468,#549,.T.);
#354=EDGE_CURVE('',#457,#463,#550,.T.);
#355=EDGE_CURVE('',#469,#470,#551,.T.);
#356=EDGE_CURVE('',#470,#441,#552,.T.);
#357=EDGE_CURVE('',#443,#460,#32,.F.);
#358=EDGE_CURVE('',#461,#471,#553,.T.);
#359=EDGE_CURVE('',#472,#471,#33,.T.);
#360=EDGE_CURVE('',#472,#458,#554,.T.);
#361=EDGE_CURVE('',#459,#456,#555,.T.);
#362=EDGE_CURVE('',#473,#454,#556,.T.);
#363=EDGE_CURVE('',#473,#474,#34,.F.);
#364=EDGE_CURVE('',#453,#474,#557,.T.);
#365=EDGE_CURVE('',#452,#475,#35,.F.);
#366=EDGE_CURVE('',#475,#476,#558,.T.);
#367=EDGE_CURVE('',#477,#476,#559,.T.);
#368=EDGE_CURVE('',#477,#478,#560,.T.);
#369=EDGE_CURVE('',#478,#446,#561,.T.);
#370=EDGE_CURVE('',#469,#444,#562,.T.);
#371=EDGE_CURVE('',#474,#467,#563,.T.);
#372=EDGE_CURVE('',#473,#468,#564,.T.);
#373=EDGE_CURVE('',#476,#479,#565,.T.);
#374=EDGE_CURVE('',#475,#466,#566,.T.);
#375=EDGE_CURVE('',#479,#465,#567,.T.);
#376=EDGE_CURVE('',#472,#436,#568,.T.);
#377=EDGE_CURVE('',#471,#437,#569,.T.);
#378=EDGE_CURVE('',#478,#480,#570,.T.);
#379=EDGE_CURVE('',#480,#447,#571,.T.);
#380=EDGE_CURVE('',#481,#479,#572,.T.);
#381=EDGE_CURVE('',#477,#481,#573,.T.);
#382=EDGE_CURVE('',#481,#464,#574,.T.);
#383=EDGE_CURVE('',#480,#462,#575,.T.);
#384=EDGE_CURVE('',#482,#442,#576,.T.);
#385=EDGE_CURVE('',#482,#430,#577,.T.);
#386=EDGE_CURVE('',#470,#482,#578,.T.);
#387=EDGE_CURVE('',#483,#445,#579,.T.);
#388=EDGE_CURVE('',#469,#483,#580,.T.);
#389=EDGE_CURVE('',#483,#432,#581,.T.);
#390=EDGE_CURVE('',#484,#415,#582,.T.);
#391=EDGE_CURVE('',#485,#484,#583,.T.);
#392=EDGE_CURVE('',#485,#414,#584,.T.);
#393=EDGE_CURVE('',#486,#417,#585,.T.);
#394=EDGE_CURVE('',#484,#486,#36,.T.);
#395=EDGE_CURVE('',#487,#416,#586,.T.);
#396=EDGE_CURVE('',#487,#486,#587,.T.);
#397=EDGE_CURVE('',#487,#485,#37,.T.);
#398=EDGE_CURVE('',#488,#422,#588,.T.);
#399=EDGE_CURVE('',#488,#489,#589,.T.);
#400=EDGE_CURVE('',#489,#424,#590,.T.);
#401=EDGE_CURVE('',#490,#423,#591,.T.);
#402=EDGE_CURVE('',#488,#490,#38,.T.);
#403=EDGE_CURVE('',#491,#425,#592,.T.);
#404=EDGE_CURVE('',#490,#491,#593,.T.);
#405=EDGE_CURVE('',#491,#489,#39,.T.);
#406=EDGE_CURVE('',#492,#426,#594,.T.);
#407=EDGE_CURVE('',#492,#493,#595,.T.);
#408=EDGE_CURVE('',#493,#428,#596,.T.);
#409=EDGE_CURVE('',#494,#427,#597,.T.);
#410=EDGE_CURVE('',#492,#494,#40,.T.);
#411=EDGE_CURVE('',#495,#429,#598,.T.);
#412=EDGE_CURVE('',#495,#494,#599,.T.);
#413=EDGE_CURVE('',#495,#493,#41,.T.);
#414=VERTEX_POINT('',#1211);
#415=VERTEX_POINT('',#1212);
#416=VERTEX_POINT('',#1214);
#417=VERTEX_POINT('',#1216);
#418=VERTEX_POINT('',#1219);
#419=VERTEX_POINT('',#1220);
#420=VERTEX_POINT('',#1222);
#421=VERTEX_POINT('',#1224);
#422=VERTEX_POINT('',#1227);
#423=VERTEX_POINT('',#1228);
#424=VERTEX_POINT('',#1230);
#425=VERTEX_POINT('',#1232);
#426=VERTEX_POINT('',#1235);
#427=VERTEX_POINT('',#1236);
#428=VERTEX_POINT('',#1238);
#429=VERTEX_POINT('',#1240);
#430=VERTEX_POINT('',#1244);
#431=VERTEX_POINT('',#1245);
#432=VERTEX_POINT('',#1247);
#433=VERTEX_POINT('',#1249);
#434=VERTEX_POINT('',#1251);
#435=VERTEX_POINT('',#1253);
#436=VERTEX_POINT('',#1255);
#437=VERTEX_POINT('',#1257);
#438=VERTEX_POINT('',#1259);
#439=VERTEX_POINT('',#1261);
#440=VERTEX_POINT('',#1263);
#441=VERTEX_POINT('',#1267);
#442=VERTEX_POINT('',#1268);
#443=VERTEX_POINT('',#1271);
#444=VERTEX_POINT('',#1275);
#445=VERTEX_POINT('',#1276);
#446=VERTEX_POINT('',#1278);
#447=VERTEX_POINT('',#1280);
#448=VERTEX_POINT('',#1282);
#449=VERTEX_POINT('',#1285);
#450=VERTEX_POINT('',#1289);
#451=VERTEX_POINT('',#1290);
#452=VERTEX_POINT('',#1292);
#453=VERTEX_POINT('',#1294);
#454=VERTEX_POINT('',#1298);
#455=VERTEX_POINT('',#1299);
#456=VERTEX_POINT('',#1301);
#457=VERTEX_POINT('',#1303);
#458=VERTEX_POINT('',#1307);
#459=VERTEX_POINT('',#1309);
#460=VERTEX_POINT('',#1313);
#461=VERTEX_POINT('',#1314);
#462=VERTEX_POINT('',#1322);
#463=VERTEX_POINT('',#1324);
#464=VERTEX_POINT('',#1328);
#465=VERTEX_POINT('',#1330);
#466=VERTEX_POINT('',#1332);
#467=VERTEX_POINT('',#1335);
#468=VERTEX_POINT('',#1337);
#469=VERTEX_POINT('',#1342);
#470=VERTEX_POINT('',#1343);
#471=VERTEX_POINT('',#1347);
#472=VERTEX_POINT('',#1349);
#473=VERTEX_POINT('',#1353);
#474=VERTEX_POINT('',#1355);
#475=VERTEX_POINT('',#1358);
#476=VERTEX_POINT('',#1360);
#477=VERTEX_POINT('',#1362);
#478=VERTEX_POINT('',#1364);
#479=VERTEX_POINT('',#1375);
#480=VERTEX_POINT('',#1387);
#481=VERTEX_POINT('',#1391);
#482=VERTEX_POINT('',#1400);
#483=VERTEX_POINT('',#1406);
#484=VERTEX_POINT('',#1413);
#485=VERTEX_POINT('',#1415);
#486=VERTEX_POINT('',#1419);
#487=VERTEX_POINT('',#1423);
#488=VERTEX_POINT('',#1430);
#489=VERTEX_POINT('',#1432);
#490=VERTEX_POINT('',#1436);
#491=VERTEX_POINT('',#1440);
#492=VERTEX_POINT('',#1447);
#493=VERTEX_POINT('',#1449);
#494=VERTEX_POINT('',#1453);
#495=VERTEX_POINT('',#1457);
#496=LINE('',#1210,#600);
#497=LINE('',#1215,#601);
#498=LINE('',#1218,#602);
#499=LINE('',#1221,#603);
#500=LINE('',#1223,#604);
#501=LINE('',#1225,#605);
#502=LINE('',#1229,#606);
#503=LINE('',#1233,#607);
#504=LINE('',#1237,#608);
#505=LINE('',#1241,#609);
#506=LINE('',#1243,#610);
#507=LINE('',#1246,#611);
#508=LINE('',#1248,#612);
#509=LINE('',#1250,#613);
#510=LINE('',#1252,#614);
#511=LINE('',#1254,#615);
#512=LINE('',#1258,#616);
#513=LINE('',#1260,#617);
#514=LINE('',#1264,#618);
#515=LINE('',#1266,#619);
#516=LINE('',#1269,#620);
#517=LINE('',#1270,#621);
#518=LINE('',#1272,#622);
#519=LINE('',#1274,#623);
#520=LINE('',#1277,#624);
#521=LINE('',#1279,#625);
#522=LINE('',#1281,#626);
#523=LINE('',#1283,#627);
#524=LINE('',#1284,#628);
#525=LINE('',#1286,#629);
#526=LINE('',#1288,#630);
#527=LINE('',#1291,#631);
#528=LINE('',#1293,#632);
#529=LINE('',#1295,#633);
#530=LINE('',#1297,#634);
#531=LINE('',#1300,#635);
#532=LINE('',#1302,#636);
#533=LINE('',#1304,#637);
#534=LINE('',#1306,#638);
#535=LINE('',#1308,#639);
#536=LINE('',#1310,#640);
#537=LINE('',#1312,#641);
#538=LINE('',#1315,#642);
#539=LINE('',#1316,#643);
#540=LINE('',#1318,#644);
#541=LINE('',#1319,#645);
#542=LINE('',#1321,#646);
#543=LINE('',#1323,#647);
#544=LINE('',#1325,#648);
#545=LINE('',#1327,#649);
#546=LINE('',#1329,#650);
#547=LINE('',#1331,#651);
#548=LINE('',#1334,#652);
#549=LINE('',#1338,#653);
#550=LINE('',#1339,#654);
#551=LINE('',#1341,#655);
#552=LINE('',#1344,#656);
#553=LINE('',#1346,#657);
#554=LINE('',#1350,#658);
#555=LINE('',#1351,#659);
#556=LINE('',#1352,#660);
#557=LINE('',#1356,#661);
#558=LINE('',#1359,#662);
#559=LINE('',#1361,#663);
#560=LINE('',#1363,#664);
#561=LINE('',#1365,#665);
#562=LINE('',#1366,#666);
#563=LINE('',#1369,#667);
#564=LINE('',#1370,#668);
#565=LINE('',#1374,#669);
#566=LINE('',#1376,#670);
#567=LINE('',#1377,#671);
#568=LINE('',#1379,#672);
#569=LINE('',#1381,#673);
#570=LINE('',#1386,#674);
#571=LINE('',#1388,#675);
#572=LINE('',#1390,#676);
#573=LINE('',#1392,#677);
#574=LINE('',#1394,#678);
#575=LINE('',#1396,#679);
#576=LINE('',#1399,#680);
#577=LINE('',#1401,#681);
#578=LINE('',#1403,#682);
#579=LINE('',#1405,#683);
#580=LINE('',#1407,#684);
#581=LINE('',#1409,#685);
#582=LINE('',#1412,#686);
#583=LINE('',#1414,#687);
#584=LINE('',#1416,#688);
#585=LINE('',#1418,#689);
#586=LINE('',#1422,#690);
#587=LINE('',#1424,#691);
#588=LINE('',#1429,#692);
#589=LINE('',#1431,#693);
#590=LINE('',#1433,#694);
#591=LINE('',#1435,#695);
#592=LINE('',#1439,#696);
#593=LINE('',#1441,#697);
#594=LINE('',#1446,#698);
#595=LINE('',#1448,#699);
#596=LINE('',#1450,#700);
#597=LINE('',#1452,#701);
#598=LINE('',#1456,#702);
#599=LINE('',#1458,#703);
#600=VECTOR('',#972,1.);
#601=VECTOR('',#975,1.);
#602=VECTOR('',#978,1.);
#603=VECTOR('',#979,1.);
#604=VECTOR('',#980,1.);
#605=VECTOR('',#981,1.);
#606=VECTOR('',#984,1.);
#607=VECTOR('',#987,1.);
#608=VECTOR('',#990,1.);
#609=VECTOR('',#993,1.);
#610=VECTOR('',#996,1.);
#611=VECTOR('',#997,1.);
#612=VECTOR('',#998,1.);
#613=VECTOR('',#999,1.);
#614=VECTOR('',#1000,1.);
#615=VECTOR('',#1001,1.);
#616=VECTOR('',#1004,1.);
#617=VECTOR('',#1005,1.);
#618=VECTOR('',#1008,1.);
#619=VECTOR('',#1011,1.);
#620=VECTOR('',#1012,1.);
#621=VECTOR('',#1013,1.);
#622=VECTOR('',#1014,1.);
#623=VECTOR('',#1017,1.);
#624=VECTOR('',#1018,1.);
#625=VECTOR('',#1019,1.);
#626=VECTOR('',#1020,1.);
#627=VECTOR('',#1021,1.);
#628=VECTOR('',#1022,1.);
#629=VECTOR('',#1023,1.);
#630=VECTOR('',#1026,1.);
#631=VECTOR('',#1027,1.);
#632=VECTOR('',#1028,1.);
#633=VECTOR('',#1029,1.);
#634=VECTOR('',#1032,1.);
#635=VECTOR('',#1033,1.);
#636=VECTOR('',#1034,1.);
#637=VECTOR('',#1035,1.);
#638=VECTOR('',#1038,1.);
#639=VECTOR('',#1039,1.);
#640=VECTOR('',#1040,1.);
#641=VECTOR('',#1043,1.);
#642=VECTOR('',#1044,1.);
#643=VECTOR('',#1045,1.);
#644=VECTOR('',#1048,1.);
#645=VECTOR('',#1049,1.);
#646=VECTOR('',#1052,1.);
#647=VECTOR('',#1053,1.);
#648=VECTOR('',#1054,1.);
#649=VECTOR('',#1057,1.);
#650=VECTOR('',#1058,1.);
#651=VECTOR('',#1059,1.);
#652=VECTOR('',#1062,1.);
#653=VECTOR('',#1065,1.);
#654=VECTOR('',#1066,1.);
#655=VECTOR('',#1069,1.);
#656=VECTOR('',#1070,1.);
#657=VECTOR('',#1073,1.);
#658=VECTOR('',#1076,1.);
#659=VECTOR('',#1077,1.);
#660=VECTOR('',#1078,1.);
#661=VECTOR('',#1081,1.);
#662=VECTOR('',#1084,1.);
#663=VECTOR('',#1085,1.);
#664=VECTOR('',#1086,1.);
#665=VECTOR('',#1087,1.);
#666=VECTOR('',#1088,1.);
#667=VECTOR('',#1093,1.);
#668=VECTOR('',#1094,1.);
#669=VECTOR('',#1101,1.);
#670=VECTOR('',#1102,1.);
#671=VECTOR('',#1103,1.);
#672=VECTOR('',#1106,1.);
#673=VECTOR('',#1109,1.);
#674=VECTOR('',#1118,1.);
#675=VECTOR('',#1119,1.);
#676=VECTOR('',#1122,1.);
#677=VECTOR('',#1123,1.);
#678=VECTOR('',#1126,1.);
#679=VECTOR('',#1129,1.);
#680=VECTOR('',#1134,1.);
#681=VECTOR('',#1135,1.);
#682=VECTOR('',#1138,1.);
#683=VECTOR('',#1141,1.);
#684=VECTOR('',#1142,1.);
#685=VECTOR('',#1145,1.);
#686=VECTOR('',#1150,1.);
#687=VECTOR('',#1151,1.);
#688=VECTOR('',#1152,1.);
#689=VECTOR('',#1155,1.);
#690=VECTOR('',#1160,1.);
#691=VECTOR('',#1161,1.);
#692=VECTOR('',#1170,1.);
#693=VECTOR('',#1171,1.);
#694=VECTOR('',#1172,1.);
#695=VECTOR('',#1175,1.);
#696=VECTOR('',#1180,1.);
#697=VECTOR('',#1181,1.);
#698=VECTOR('',#1190,1.);
#699=VECTOR('',#1191,1.);
#700=VECTOR('',#1192,1.);
#701=VECTOR('',#1195,1.);
#702=VECTOR('',#1200,1.);
#703=VECTOR('',#1201,1.);
#704=EDGE_LOOP('',(#42,#43,#44,#45));
#705=EDGE_LOOP('',(#46,#47,#48,#49));
#706=EDGE_LOOP('',(#50,#51,#52,#53));
#707=EDGE_LOOP('',(#54,#55,#56,#57));
#708=EDGE_LOOP('',(#58,#59,#60,#61,#62,#63,#64,#65,#66,#67,#68));
#709=EDGE_LOOP('',(#69,#70,#71,#72,#73));
#710=EDGE_LOOP('',(#74,#75,#76,#77,#78,#79,#80,#81));
#711=EDGE_LOOP('',(#82,#83,#84,#85));
#712=EDGE_LOOP('',(#86,#87,#88,#89));
#713=EDGE_LOOP('',(#90,#91,#92,#93));
#714=EDGE_LOOP('',(#94,#95,#96,#97));
#715=EDGE_LOOP('',(#98,#99,#100,#101,#102));
#716=EDGE_LOOP('',(#103,#104,#105,#106,#107));
#717=EDGE_LOOP('',(#108,#109,#110,#111,#112,#113,#114,#115,#116,#117,#118));
#718=EDGE_LOOP('',(#119,#120,#121,#122,#123,#124,#125,#126,#127,#128,#129,
#130,#131,#132,#133,#134,#135,#136,#137,#138,#139,#140));
#719=EDGE_LOOP('',(#141,#142,#143,#144,#145,#146,#147,#148));
#720=EDGE_LOOP('',(#149,#150,#151,#152));
#721=EDGE_LOOP('',(#153,#154,#155,#156));
#722=EDGE_LOOP('',(#157,#158,#159,#160));
#723=EDGE_LOOP('',(#161,#162,#163,#164,#165));
#724=EDGE_LOOP('',(#166,#167,#168,#169));
#725=EDGE_LOOP('',(#170,#171,#172,#173));
#726=EDGE_LOOP('',(#174,#175,#176,#177));
#727=EDGE_LOOP('',(#178,#179,#180,#181));
#728=EDGE_LOOP('',(#182,#183,#184,#185));
#729=EDGE_LOOP('',(#186,#187,#188,#189));
#730=EDGE_LOOP('',(#190,#191,#192,#193));
#731=EDGE_LOOP('',(#194,#195,#196,#197));
#732=EDGE_LOOP('',(#198,#199,#200,#201));
#733=EDGE_LOOP('',(#202,#203,#204,#205,#206,#207));
#734=EDGE_LOOP('',(#208,#209,#210,#211));
#735=EDGE_LOOP('',(#212,#213,#214,#215));
#736=EDGE_LOOP('',(#216,#217,#218,#219));
#737=EDGE_LOOP('',(#220,#221,#222,#223));
#738=EDGE_LOOP('',(#224,#225,#226,#227,#228,#229));
#739=EDGE_LOOP('',(#230,#231,#232,#233));
#740=EDGE_LOOP('',(#234,#235,#236,#237));
#741=EDGE_LOOP('',(#238,#239,#240,#241));
#742=EDGE_LOOP('',(#242,#243,#244,#245));
#743=EDGE_LOOP('',(#246,#247,#248,#249));
#744=EDGE_LOOP('',(#250,#251,#252,#253));
#745=EDGE_LOOP('',(#254,#255,#256,#257));
#746=EDGE_LOOP('',(#258,#259,#260,#261));
#747=EDGE_LOOP('',(#262,#263,#264,#265));
#748=EDGE_LOOP('',(#266,#267,#268,#269));
#749=EDGE_LOOP('',(#270,#271,#272,#273));
#750=EDGE_LOOP('',(#274,#275,#276,#277));
#751=EDGE_LOOP('',(#278,#279,#280,#281));
#752=EDGE_LOOP('',(#282,#283,#284,#285));
#753=EDGE_LOOP('',(#286,#287,#288,#289));
#754=FACE_BOUND('',#704,.T.);
#755=FACE_BOUND('',#705,.T.);
#756=FACE_BOUND('',#706,.T.);
#757=FACE_BOUND('',#707,.T.);
#758=FACE_BOUND('',#708,.T.);
#759=FACE_BOUND('',#709,.T.);
#760=FACE_BOUND('',#710,.T.);
#761=FACE_BOUND('',#711,.T.);
#762=FACE_BOUND('',#712,.T.);
#763=FACE_BOUND('',#713,.T.);
#764=FACE_BOUND('',#714,.T.);
#765=FACE_BOUND('',#715,.T.);
#766=FACE_BOUND('',#716,.T.);
#767=FACE_BOUND('',#717,.T.);
#768=FACE_BOUND('',#718,.T.);
#769=FACE_BOUND('',#719,.T.);
#770=FACE_BOUND('',#720,.T.);
#771=FACE_BOUND('',#721,.T.);
#772=FACE_BOUND('',#722,.T.);
#773=FACE_BOUND('',#723,.T.);
#774=FACE_BOUND('',#724,.T.);
#775=FACE_BOUND('',#725,.T.);
#776=FACE_BOUND('',#726,.T.);
#777=FACE_BOUND('',#727,.T.);
#778=FACE_BOUND('',#728,.T.);
#779=FACE_BOUND('',#729,.T.);
#780=FACE_BOUND('',#730,.T.);
#781=FACE_BOUND('',#731,.T.);
#782=FACE_BOUND('',#732,.T.);
#783=FACE_BOUND('',#733,.T.);
#784=FACE_BOUND('',#734,.T.);
#785=FACE_BOUND('',#735,.T.);
#786=FACE_BOUND('',#736,.T.);
#787=FACE_BOUND('',#737,.T.);
#788=FACE_BOUND('',#738,.T.);
#789=FACE_BOUND('',#739,.T.);
#790=FACE_BOUND('',#740,.T.);
#791=FACE_BOUND('',#741,.T.);
#792=FACE_BOUND('',#742,.T.);
#793=FACE_BOUND('',#743,.T.);
#794=FACE_BOUND('',#744,.T.);
#795=FACE_BOUND('',#745,.T.);
#796=FACE_BOUND('',#746,.T.);
#797=FACE_BOUND('',#747,.T.);
#798=FACE_BOUND('',#748,.T.);
#799=FACE_BOUND('',#749,.T.);
#800=FACE_BOUND('',#750,.T.);
#801=FACE_BOUND('',#751,.T.);
#802=FACE_BOUND('',#752,.T.);
#803=FACE_BOUND('',#753,.T.);
#804=PLANE('',#901);
#805=PLANE('',#908);
#806=PLANE('',#911);
#807=PLANE('',#912);
#808=PLANE('',#913);
#809=PLANE('',#914);
#810=PLANE('',#915);
#811=PLANE('',#916);
#812=PLANE('',#917);
#813=PLANE('',#918);
#814=PLANE('',#919);
#815=PLANE('',#922);
#816=PLANE('',#927);
#817=PLANE('',#929);
#818=PLANE('',#930);
#819=PLANE('',#931);
#820=PLANE('',#932);
#821=PLANE('',#934);
#822=PLANE('',#937);
#823=PLANE('',#938);
#824=PLANE('',#939);
#825=PLANE('',#940);
#826=PLANE('',#941);
#827=PLANE('',#942);
#828=PLANE('',#943);
#829=PLANE('',#944);
#830=PLANE('',#945);
#831=PLANE('',#946);
#832=PLANE('',#947);
#833=PLANE('',#950);
#834=PLANE('',#953);
#835=PLANE('',#954);
#836=PLANE('',#957);
#837=PLANE('',#960);
#838=PLANE('',#961);
#839=PLANE('',#964);
#840=PLANE('',#967);
#841=ADVANCED_FACE('',(#754,#755,#756,#757),#804,.T.);
#842=ADVANCED_FACE('',(#758),#805,.T.);
#843=ADVANCED_FACE('',(#759),#806,.T.);
#844=ADVANCED_FACE('',(#760),#807,.T.);
#845=ADVANCED_FACE('',(#761),#808,.F.);
#846=ADVANCED_FACE('',(#762),#809,.F.);
#847=ADVANCED_FACE('',(#763),#810,.T.);
#848=ADVANCED_FACE('',(#764),#811,.T.);
#849=ADVANCED_FACE('',(#765),#812,.F.);
#850=ADVANCED_FACE('',(#766),#813,.T.);
#851=ADVANCED_FACE('',(#767),#814,.F.);
#852=ADVANCED_FACE('',(#768),#815,.F.);
#853=ADVANCED_FACE('',(#769),#816,.T.);
#854=ADVANCED_FACE('',(#770),#12,.F.);
#855=ADVANCED_FACE('',(#771),#817,.T.);
#856=ADVANCED_FACE('',(#772),#818,.T.);
#857=ADVANCED_FACE('',(#773),#819,.T.);
#858=ADVANCED_FACE('',(#774),#820,.F.);
#859=ADVANCED_FACE('',(#775),#13,.F.);
#860=ADVANCED_FACE('',(#776),#821,.F.);
#861=ADVANCED_FACE('',(#777),#14,.T.);
#862=ADVANCED_FACE('',(#778),#15,.T.);
#863=ADVANCED_FACE('',(#779),#822,.T.);
#864=ADVANCED_FACE('',(#780),#823,.F.);
#865=ADVANCED_FACE('',(#781),#824,.F.);
#866=ADVANCED_FACE('',(#782),#825,.T.);
#867=ADVANCED_FACE('',(#783),#826,.T.);
#868=ADVANCED_FACE('',(#784),#827,.T.);
#869=ADVANCED_FACE('',(#785),#828,.T.);
#870=ADVANCED_FACE('',(#786),#829,.F.);
#871=ADVANCED_FACE('',(#787),#830,.F.);
#872=ADVANCED_FACE('',(#788),#831,.T.);
#873=ADVANCED_FACE('',(#789),#832,.F.);
#874=ADVANCED_FACE('',(#790),#16,.T.);
#875=ADVANCED_FACE('',(#791),#833,.T.);
#876=ADVANCED_FACE('',(#792),#17,.T.);
#877=ADVANCED_FACE('',(#793),#834,.T.);
#878=ADVANCED_FACE('',(#794),#835,.T.);
#879=ADVANCED_FACE('',(#795),#18,.T.);
#880=ADVANCED_FACE('',(#796),#836,.F.);
#881=ADVANCED_FACE('',(#797),#19,.T.);
#882=ADVANCED_FACE('',(#798),#837,.T.);
#883=ADVANCED_FACE('',(#799),#838,.T.);
#884=ADVANCED_FACE('',(#800),#20,.T.);
#885=ADVANCED_FACE('',(#801),#839,.T.);
#886=ADVANCED_FACE('',(#802),#21,.T.);
#887=ADVANCED_FACE('',(#803),#840,.T.);
#888=CLOSED_SHELL('',(#841,#842,#843,#844,#845,#846,#847,#848,#849,#850,
#851,#852,#853,#854,#855,#856,#857,#858,#859,#860,#861,#862,#863,#864,#865,
#866,#867,#868,#869,#870,#871,#872,#873,#874,#875,#876,#877,#878,#879,#880,
#881,#882,#883,#884,#885,#886,#887));
#889=STYLED_ITEM('',(#890),#897);
#890=PRESENTATION_STYLE_ASSIGNMENT((#891));
#891=SURFACE_STYLE_USAGE(.BOTH.,#892);
#892=SURFACE_SIDE_STYLE('',(#893));
#893=SURFACE_STYLE_FILL_AREA(#894);
#894=FILL_AREA_STYLE('',(#895));
#895=FILL_AREA_STYLE_COLOUR('',#896);
#896=COLOUR_RGB('',0.647058823529412,0.647058823529412,0.647058823529412);
#897=MANIFOLD_SOLID_BREP('Part 2',#888);
#898=SHAPE_DEFINITION_REPRESENTATION(#1468,#899);
#899=SHAPE_REPRESENTATION('Part 2',(#900),#1463);
#900=AXIS2_PLACEMENT_3D('',#1208,#968,#969);
#901=AXIS2_PLACEMENT_3D('',#1209,#970,#971);
#902=AXIS2_PLACEMENT_3D('',#1213,#973,#974);
#903=AXIS2_PLACEMENT_3D('',#1217,#976,#977);
#904=AXIS2_PLACEMENT_3D('',#1226,#982,#983);
#905=AXIS2_PLACEMENT_3D('',#1231,#985,#986);
#906=AXIS2_PLACEMENT_3D('',#1234,#988,#989);
#907=AXIS2_PLACEMENT_3D('',#1239,#991,#992);
#908=AXIS2_PLACEMENT_3D('',#1242,#994,#995);
#909=AXIS2_PLACEMENT_3D('',#1256,#1002,#1003);
#910=AXIS2_PLACEMENT_3D('',#1262,#1006,#1007);
#911=AXIS2_PLACEMENT_3D('',#1265,#1009,#1010);
#912=AXIS2_PLACEMENT_3D('',#1273,#1015,#1016);
#913=AXIS2_PLACEMENT_3D('',#1287,#1024,#1025);
#914=AXIS2_PLACEMENT_3D('',#1296,#1030,#1031);
#915=AXIS2_PLACEMENT_3D('',#1305,#1036,#1037);
#916=AXIS2_PLACEMENT_3D('',#1311,#1041,#1042);
#917=AXIS2_PLACEMENT_3D('',#1317,#1046,#1047);
#918=AXIS2_PLACEMENT_3D('',#1320,#1050,#1051);
#919=AXIS2_PLACEMENT_3D('',#1326,#1055,#1056);
#920=AXIS2_PLACEMENT_3D('',#1333,#1060,#1061);
#921=AXIS2_PLACEMENT_3D('',#1336,#1063,#1064);
#922=AXIS2_PLACEMENT_3D('',#1340,#1067,#1068);
#923=AXIS2_PLACEMENT_3D('',#1345,#1071,#1072);
#924=AXIS2_PLACEMENT_3D('',#1348,#1074,#1075);
#925=AXIS2_PLACEMENT_3D('',#1354,#1079,#1080);
#926=AXIS2_PLACEMENT_3D('',#1357,#1082,#1083);
#927=AXIS2_PLACEMENT_3D('',#1367,#1089,#1090);
#928=AXIS2_PLACEMENT_3D('',#1368,#1091,#1092);
#929=AXIS2_PLACEMENT_3D('',#1371,#1095,#1096);
#930=AXIS2_PLACEMENT_3D('',#1372,#1097,#1098);
#931=AXIS2_PLACEMENT_3D('',#1373,#1099,#1100);
#932=AXIS2_PLACEMENT_3D('',#1378,#1104,#1105);
#933=AXIS2_PLACEMENT_3D('',#1380,#1107,#1108);
#934=AXIS2_PLACEMENT_3D('',#1382,#1110,#1111);
#935=AXIS2_PLACEMENT_3D('',#1383,#1112,#1113);
#936=AXIS2_PLACEMENT_3D('',#1384,#1114,#1115);
#937=AXIS2_PLACEMENT_3D('',#1385,#1116,#1117);
#938=AXIS2_PLACEMENT_3D('',#1389,#1120,#1121);
#939=AXIS2_PLACEMENT_3D('',#1393,#1124,#1125);
#940=AXIS2_PLACEMENT_3D('',#1395,#1127,#1128);
#941=AXIS2_PLACEMENT_3D('',#1397,#1130,#1131);
#942=AXIS2_PLACEMENT_3D('',#1398,#1132,#1133);
#943=AXIS2_PLACEMENT_3D('',#1402,#1136,#1137);
#944=AXIS2_PLACEMENT_3D('',#1404,#1139,#1140);
#945=AXIS2_PLACEMENT_3D('',#1408,#1143,#1144);
#946=AXIS2_PLACEMENT_3D('',#1410,#1146,#1147);
#947=AXIS2_PLACEMENT_3D('',#1411,#1148,#1149);
#948=AXIS2_PLACEMENT_3D('',#1417,#1153,#1154);
#949=AXIS2_PLACEMENT_3D('',#1420,#1156,#1157);
#950=AXIS2_PLACEMENT_3D('',#1421,#1158,#1159);
#951=AXIS2_PLACEMENT_3D('',#1425,#1162,#1163);
#952=AXIS2_PLACEMENT_3D('',#1426,#1164,#1165);
#953=AXIS2_PLACEMENT_3D('',#1427,#1166,#1167);
#954=AXIS2_PLACEMENT_3D('',#1428,#1168,#1169);
#955=AXIS2_PLACEMENT_3D('',#1434,#1173,#1174);
#956=AXIS2_PLACEMENT_3D('',#1437,#1176,#1177);
#957=AXIS2_PLACEMENT_3D('',#1438,#1178,#1179);
#958=AXIS2_PLACEMENT_3D('',#1442,#1182,#1183);
#959=AXIS2_PLACEMENT_3D('',#1443,#1184,#1185);
#960=AXIS2_PLACEMENT_3D('',#1444,#1186,#1187);
#961=AXIS2_PLACEMENT_3D('',#1445,#1188,#1189);
#962=AXIS2_PLACEMENT_3D('',#1451,#1193,#1194);
#963=AXIS2_PLACEMENT_3D('',#1454,#1196,#1197);
#964=AXIS2_PLACEMENT_3D('',#1455,#1198,#1199);
#965=AXIS2_PLACEMENT_3D('',#1459,#1202,#1203);
#966=AXIS2_PLACEMENT_3D('',#1460,#1204,#1205);
#967=AXIS2_PLACEMENT_3D('',#1461,#1206,#1207);
#968=DIRECTION('',(0.,0.,1.));
#969=DIRECTION('',(1.,0.,0.));
#970=DIRECTION('',(0.,0.,1.));
#971=DIRECTION('',(1.,0.,0.));
#972=DIRECTION('',(0.,1.,0.));
#973=DIRECTION('',(0.,0.,1.));
#974=DIRECTION('',(1.,0.,0.));
#975=DIRECTION('',(0.,1.,0.));
#976=DIRECTION('',(0.,0.,1.));
#977=DIRECTION('',(1.,0.,0.));
#978=DIRECTION('',(1.,0.,0.));
#979=DIRECTION('',(-6.57092225748791E-17,-1.,0.));
#980=DIRECTION('',(1.,0.,0.));
#981=DIRECTION('',(0.,-1.,0.));
#982=DIRECTION('',(0.,0.,1.));
#983=DIRECTION('',(1.,0.,0.));
#984=DIRECTION('',(0.,1.,0.));
#985=DIRECTION('',(0.,0.,1.));
#986=DIRECTION('',(1.,0.,0.));
#987=DIRECTION('',(0.,1.,0.));
#988=DIRECTION('',(0.,0.,1.));
#989=DIRECTION('',(1.,0.,0.));
#990=DIRECTION('',(0.,1.,0.));
#991=DIRECTION('',(0.,0.,1.));
#992=DIRECTION('',(1.,0.,0.));
#993=DIRECTION('',(0.,-1.,0.));
#994=DIRECTION('',(0.,0.768221279597378,0.640184399664477));
#995=DIRECTION('',(0.,-0.640184399664477,0.768221279597378));
#996=DIRECTION('',(-1.,6.57092225748791E-17,0.));
#997=DIRECTION('',(-4.20660192065185E-17,-0.640184399664478,0.768221279597377));
#998=DIRECTION('',(1.,0.,0.));
#999=DIRECTION('',(0.,-0.640184399664477,0.768221279597378));
#1000=DIRECTION('',(1.,0.,0.));
#1001=DIRECTION('',(0.539163866017193,0.53916386601719,-0.646996639220631));
#1002=DIRECTION('',(0.,0.768221279597377,0.640184399664478));
#1003=DIRECTION('',(0.,-0.640184399664478,0.768221279597377));
#1004=DIRECTION('',(0.539163866017192,-0.539163866017191,0.646996639220632));
#1005=DIRECTION('',(1.,0.,0.));
#1006=DIRECTION('',(0.,0.768221279597378,0.640184399664477));
#1007=DIRECTION('',(0.,-0.640184399664477,0.768221279597378));
#1008=DIRECTION('',(-4.20660192065185E-17,-0.640184399664478,0.768221279597377));
#1009=DIRECTION('',(-1.,6.57092225748791E-17,0.));
#1010=DIRECTION('',(-6.57092225748791E-17,-1.,0.));
#1011=DIRECTION('',(0.,0.,1.));
#1012=DIRECTION('',(6.57092225748791E-17,1.,0.));
#1013=DIRECTION('',(0.,0.,1.));
#1014=DIRECTION('',(6.57092225748791E-17,1.,0.));
#1015=DIRECTION('',(-1.,6.57092225748791E-17,0.));
#1016=DIRECTION('',(-6.57092225748791E-17,-1.,0.));
#1017=DIRECTION('',(0.,0.,1.));
#1018=DIRECTION('',(6.57092225748791E-17,1.,0.));
#1019=DIRECTION('',(-3.55115939091785E-31,-5.40435459705997E-15,1.));
#1020=DIRECTION('',(-6.57092225748791E-17,-1.,-9.25185853854287E-15));
#1021=DIRECTION('',(0.,0.,-1.));
#1022=DIRECTION('',(0.,0.,-1.));
#1023=DIRECTION('',(6.57092225748791E-17,1.,0.));
#1024=DIRECTION('',(0.,1.,6.61926267334374E-16));
#1025=DIRECTION('',(0.,-6.61926267334374E-16,1.));
#1026=DIRECTION('',(1.,0.,0.));
#1027=DIRECTION('',(-4.34946604284332E-32,-6.61926267334374E-16,1.));
#1028=DIRECTION('',(1.,0.,0.));
#1029=DIRECTION('',(1.08420217248553E-14,1.08420217248552E-14,-1.));
#1030=DIRECTION('',(0.,1.,6.61926267334374E-16));
#1031=DIRECTION('',(0.,-6.61926267334374E-16,1.));
#1032=DIRECTION('',(1.08420217248553E-14,-1.08420217248552E-14,1.));
#1033=DIRECTION('',(1.,0.,0.));
#1034=DIRECTION('',(0.,-6.61926267334374E-16,1.));
#1035=DIRECTION('',(1.,0.,0.));
#1036=DIRECTION('',(0.,1.,0.));
#1037=DIRECTION('',(0.,0.,1.));
#1038=DIRECTION('',(-1.1564823173179E-14,-1.15648231731789E-14,-1.));
#1039=DIRECTION('',(0.,0.,1.));
#1040=DIRECTION('',(1.,0.,0.));
#1041=DIRECTION('',(0.,1.,0.));
#1042=DIRECTION('',(0.,0.,1.));
#1043=DIRECTION('',(1.,0.,0.));
#1044=DIRECTION('',(0.,0.,1.));
#1045=DIRECTION('',(-1.15648231731789E-14,1.15648231731789E-14,1.));
#1046=DIRECTION('',(0.,-1.,0.));
#1047=DIRECTION('',(0.,0.,-1.));
#1048=DIRECTION('',(0.,0.,-1.));
#1049=DIRECTION('',(1.,0.,0.));
#1050=DIRECTION('',(0.,-1.,0.));
#1051=DIRECTION('',(0.,0.,-1.));
#1052=DIRECTION('',(1.,0.,6.07932431940409E-31));
#1053=DIRECTION('',(1.,0.,0.));
#1054=DIRECTION('',(0.,0.,-1.));
#1055=DIRECTION('',(0.,0.768221279597379,-0.640184399664476));
#1056=DIRECTION('',(0.,0.640184399664476,0.768221279597379));
#1057=DIRECTION('',(4.20660192065185E-17,0.640184399664478,0.768221279597378));
#1058=DIRECTION('',(-1.,6.57092225748791E-17,0.));
#1059=DIRECTION('',(4.20660192065185E-17,0.640184399664478,0.768221279597378));
#1060=DIRECTION('',(0.,0.768221279597379,-0.640184399664476));
#1061=DIRECTION('',(5.66173595858066E-32,-0.640184399664476,-0.768221279597379));
#1062=DIRECTION('',(-0.539163866017192,-0.53916386601719,-0.646996639220632));
#1063=DIRECTION('',(0.,0.768221279597378,-0.640184399664478));
#1064=DIRECTION('',(0.,0.640184399664478,0.768221279597378));
#1065=DIRECTION('',(-0.539163866017192,0.53916386601719,0.646996639220632));
#1066=DIRECTION('',(0.,0.640184399664476,0.768221279597379));
#1067=DIRECTION('',(0.,0.,1.));
#1068=DIRECTION('',(1.,0.,0.));
#1069=DIRECTION('',(6.57092225748791E-17,1.,0.));
#1070=DIRECTION('',(-1.,6.57092225748791E-17,0.));
#1071=DIRECTION('',(0.,0.,1.));
#1072=DIRECTION('',(1.,0.,0.));
#1073=DIRECTION('',(0.707106781186549,-0.707106781186547,0.));
#1074=DIRECTION('',(0.,0.,-1.));
#1075=DIRECTION('',(-1.,0.,0.));
#1076=DIRECTION('',(0.707106781186549,0.707106781186546,0.));
#1077=DIRECTION('',(0.,-1.,0.));
#1078=DIRECTION('',(0.707106781186548,-0.707106781186547,0.));
#1079=DIRECTION('',(0.,0.,-1.));
#1080=DIRECTION('',(-1.,0.,0.));
#1081=DIRECTION('',(0.707106781186548,0.707106781186547,0.));
#1082=DIRECTION('',(0.,0.,1.));
#1083=DIRECTION('',(1.,0.,0.));
#1084=DIRECTION('',(6.57092225748791E-17,1.,0.));
#1085=DIRECTION('',(-1.,6.57092225748791E-17,0.));
#1086=DIRECTION('',(6.57092225748791E-17,1.,0.));
#1087=DIRECTION('',(-1.,6.57092225748791E-17,0.));
#1088=DIRECTION('',(-1.,6.57092225748791E-17,0.));
#1089=DIRECTION('',(1.,0.,0.));
#1090=DIRECTION('',(0.,1.,0.));
#1091=DIRECTION('',(0.,0.,1.));
#1092=DIRECTION('',(1.,0.,0.));
#1093=DIRECTION('',(0.,0.,1.));
#1094=DIRECTION('',(0.,0.,1.));
#1095=DIRECTION('',(-0.707106781186547,-0.707106781186548,0.));
#1096=DIRECTION('',(0.707106781186548,-0.707106781186547,0.));
#1097=DIRECTION('',(0.707106781186547,-0.707106781186548,0.));
#1098=DIRECTION('',(0.707106781186548,0.707106781186547,0.));
#1099=DIRECTION('',(-1.,6.57092225748791E-17,0.));
#1100=DIRECTION('',(-6.57092225748791E-17,-1.,0.));
#1101=DIRECTION('',(-3.5511593909179E-31,-5.40435459706005E-15,1.));
#1102=DIRECTION('',(-4.34946604284332E-32,-6.61926267334374E-16,1.));
#1103=DIRECTION('',(-6.57092225748791E-17,-1.,-5.20145176375532E-15));
#1104=DIRECTION('',(0.707106781186546,-0.707106781186549,0.));
#1105=DIRECTION('',(0.707106781186549,0.707106781186546,0.));
#1106=DIRECTION('',(0.,0.,1.));
#1107=DIRECTION('',(0.,0.,1.));
#1108=DIRECTION('',(1.,0.,0.));
#1109=DIRECTION('',(0.,0.,1.));
#1110=DIRECTION('',(-0.707106781186547,-0.707106781186549,0.));
#1111=DIRECTION('',(0.707106781186549,-0.707106781186547,0.));
#1112=DIRECTION('',(0.,0.,1.));
#1113=DIRECTION('',(1.,0.,0.));
#1114=DIRECTION('',(4.34946604284332E-32,6.61926267334374E-16,-1.));
#1115=DIRECTION('',(0.,1.,6.61926267334374E-16));
#1116=DIRECTION('',(-6.57092225748791E-17,-1.,-5.40435459705997E-15));
#1117=DIRECTION('',(0.,5.40435459705997E-15,-1.));
#1118=DIRECTION('',(-3.55115939091785E-31,-5.40435459705997E-15,1.));
#1119=DIRECTION('',(-1.,6.57092225748791E-17,0.));
#1120=DIRECTION('',(-6.57092225748791E-17,-1.,-5.40435459706005E-15));
#1121=DIRECTION('',(0.,5.40435459706005E-15,-1.));
#1122=DIRECTION('',(-1.,6.57092225748791E-17,0.));
#1123=DIRECTION('',(-3.5511593909179E-31,-5.40435459706005E-15,1.));
#1124=DIRECTION('',(3.41783351657096E-31,5.20145176375533E-15,-1.));
#1125=DIRECTION('',(0.,1.,5.20145176375533E-15));
#1126=DIRECTION('',(-6.57092225748791E-17,-1.,-5.20145176375532E-15));
#1127=DIRECTION('',(6.07932431940409E-31,9.25185853854287E-15,-1.));
#1128=DIRECTION('',(0.,1.,9.25185853854287E-15));
#1129=DIRECTION('',(-6.57092225748791E-17,-1.,-9.25185853854287E-15));
#1130=DIRECTION('',(-1.,6.57092225748791E-17,0.));
#1131=DIRECTION('',(-6.57092225748791E-17,-1.,0.));
#1132=DIRECTION('',(0.,0.,1.));
#1133=DIRECTION('',(1.,0.,0.));
#1134=DIRECTION('',(-1.,6.57092225748791E-17,0.));
#1135=DIRECTION('',(6.57092225748791E-17,1.,0.));
#1136=DIRECTION('',(-6.57092225748791E-17,-1.,0.));
#1137=DIRECTION('',(1.,-6.57092225748791E-17,0.));
#1138=DIRECTION('',(0.,0.,1.));
#1139=DIRECTION('',(-6.57092225748791E-17,-1.,0.));
#1140=DIRECTION('',(1.,-6.57092225748791E-17,0.));
#1141=DIRECTION('',(-1.,6.57092225748791E-17,0.));
#1142=DIRECTION('',(0.,0.,1.));
#1143=DIRECTION('',(0.,0.,1.));
#1144=DIRECTION('',(1.,0.,0.));
#1145=DIRECTION('',(6.57092225748791E-17,1.,0.));
#1146=DIRECTION('',(-1.,6.57092225748791E-17,0.));
#1147=DIRECTION('',(-6.57092225748791E-17,-1.,0.));
#1148=DIRECTION('',(-1.,0.,0.));
#1149=DIRECTION('',(0.,0.,1.));
#1150=DIRECTION('',(0.,0.,-1.));
#1151=DIRECTION('',(0.,1.,0.));
#1152=DIRECTION('',(0.,0.,-1.));
#1153=DIRECTION('',(0.,0.,-1.));
#1154=DIRECTION('',(-1.,0.,0.));
#1155=DIRECTION('',(0.,0.,-1.));
#1156=DIRECTION('',(0.,0.,1.));
#1157=DIRECTION('',(1.,0.,0.));
#1158=DIRECTION('',(-1.,0.,0.));
#1159=DIRECTION('',(0.,0.,1.));
#1160=DIRECTION('',(0.,0.,-1.));
#1161=DIRECTION('',(0.,1.,0.));
#1162=DIRECTION('',(0.,0.,-1.));
#1163=DIRECTION('',(-1.,0.,0.));
#1164=DIRECTION('',(0.,0.,1.));
#1165=DIRECTION('',(1.,0.,0.));
#1166=DIRECTION('',(0.,0.,1.));
#1167=DIRECTION('',(1.,0.,0.));
#1168=DIRECTION('',(-1.,0.,0.));
#1169=DIRECTION('',(0.,0.,1.));
#1170=DIRECTION('',(0.,0.,-1.));
#1171=DIRECTION('',(0.,1.,0.));
#1172=DIRECTION('',(0.,0.,-1.));
#1173=DIRECTION('',(0.,0.,-1.));
#1174=DIRECTION('',(-1.,0.,0.));
#1175=DIRECTION('',(0.,0.,-1.));
#1176=DIRECTION('',(0.,0.,1.));
#1177=DIRECTION('',(1.,0.,0.));
#1178=DIRECTION('',(-1.,0.,0.));
#1179=DIRECTION('',(0.,0.,1.));
#1180=DIRECTION('',(0.,0.,-1.));
#1181=DIRECTION('',(0.,1.,0.));
#1182=DIRECTION('',(0.,0.,-1.));
#1183=DIRECTION('',(-1.,0.,0.));
#1184=DIRECTION('',(0.,0.,1.));
#1185=DIRECTION('',(1.,0.,0.));
#1186=DIRECTION('',(0.,0.,1.));
#1187=DIRECTION('',(1.,0.,0.));
#1188=DIRECTION('',(-1.,0.,0.));
#1189=DIRECTION('',(0.,0.,1.));
#1190=DIRECTION('',(0.,0.,-1.));
#1191=DIRECTION('',(0.,1.,0.));
#1192=DIRECTION('',(0.,0.,-1.));
#1193=DIRECTION('',(0.,0.,-1.));
#1194=DIRECTION('',(-1.,0.,0.));
#1195=DIRECTION('',(0.,0.,-1.));
#1196=DIRECTION('',(0.,0.,1.));
#1197=DIRECTION('',(1.,0.,0.));
#1198=DIRECTION('',(1.,0.,0.));
#1199=DIRECTION('',(0.,0.,-1.));
#1200=DIRECTION('',(0.,0.,-1.));
#1201=DIRECTION('',(0.,-1.,0.));
#1202=DIRECTION('',(0.,0.,-1.));
#1203=DIRECTION('',(-1.,0.,0.));
#1204=DIRECTION('',(0.,0.,1.));
#1205=DIRECTION('',(1.,0.,0.));
#1206=DIRECTION('',(0.,0.,1.));
#1207=DIRECTION('',(1.,0.,0.));
#1208=CARTESIAN_POINT('',(0.,0.,0.));
#1209=CARTESIAN_POINT('',(0.00199749111624911,0.0331028280508611,0.1128));
#1210=CARTESIAN_POINT('',(0.037,0.0195,0.1128));
#1211=CARTESIAN_POINT('',(0.037,0.0165,0.1128));
#1212=CARTESIAN_POINT('',(0.037,0.0225,0.1128));
#1213=CARTESIAN_POINT('',(0.036,0.0165,0.1128));
#1214=CARTESIAN_POINT('',(0.035,0.0165,0.1128));
#1215=CARTESIAN_POINT('',(0.035,0.0195,0.1128));
#1216=CARTESIAN_POINT('',(0.035,0.0225,0.1128));
#1217=CARTESIAN_POINT('',(0.036,0.0225,0.1128));
#1218=CARTESIAN_POINT('',(0.00199749111624911,0.035799331090919,0.1128));
#1219=CARTESIAN_POINT('',(0.0022,0.0357996655454595,0.1128));
#1220=CARTESIAN_POINT('',(0.048,0.035799331090919,0.1128));
#1221=CARTESIAN_POINT('',(0.0022,0.0331028280508611,0.1128));
#1222=CARTESIAN_POINT('',(0.0022,0.00320033445454047,0.1128));
#1223=CARTESIAN_POINT('',(0.00199749111624911,0.00320066890908095,0.1128));
#1224=CARTESIAN_POINT('',(0.048,0.00320066890908095,0.1128));
#1225=CARTESIAN_POINT('',(0.048,0.0331028280508611,0.1128));
#1226=CARTESIAN_POINT('',(0.04,0.0135,0.1128));
#1227=CARTESIAN_POINT('',(0.039,0.0135,0.1128));
#1228=CARTESIAN_POINT('',(0.041,0.0135,0.1128));
#1229=CARTESIAN_POINT('',(0.039,0.0195,0.1128));
#1230=CARTESIAN_POINT('',(0.039,0.0255,0.1128));
#1231=CARTESIAN_POINT('',(0.04,0.0255,0.1128));
#1232=CARTESIAN_POINT('',(0.041,0.0255,0.1128));
#1233=CARTESIAN_POINT('',(0.041,0.0195,0.1128));
#1234=CARTESIAN_POINT('',(0.044,0.0105,0.1128));
#1235=CARTESIAN_POINT('',(0.043,0.0105,0.1128));
#1236=CARTESIAN_POINT('',(0.045,0.0105,0.1128));
#1237=CARTESIAN_POINT('',(0.043,0.0195,0.1128));
#1238=CARTESIAN_POINT('',(0.043,0.0285,0.1128));
#1239=CARTESIAN_POINT('',(0.044,0.0285,0.1128));
#1240=CARTESIAN_POINT('',(0.045,0.0285,0.1128));
#1241=CARTESIAN_POINT('',(0.045,0.0195,0.1128));
#1242=CARTESIAN_POINT('',(0.00199749111624911,0.0365732000335822,0.111399749972665));
#1243=CARTESIAN_POINT('',(0.0162,0.0359680604642953,0.112125917455809));
#1244=CARTESIAN_POINT('',(0.0162,0.0359680604642953,0.112125917455809));
#1245=CARTESIAN_POINT('',(0.0022,0.0359680604642953,0.112125917455809));
#1246=CARTESIAN_POINT('',(0.0162,0.0365963557440805,0.111371963120067));
#1247=CARTESIAN_POINT('',(0.01620176187696,0.0358002918633017,0.112325745747521));
#1248=CARTESIAN_POINT('',(0.00199749111624911,0.0358004339893939,0.1123254046449));
#1249=CARTESIAN_POINT('',(0.048,0.0358004339893939,0.1123254046449));
#1250=CARTESIAN_POINT('',(0.048,0.0365732000335822,0.111399749972665));
#1251=CARTESIAN_POINT('',(0.048,0.0373,0.110527590012964));
#1252=CARTESIAN_POINT('',(0.00199749111624911,0.0373,0.110527590012964));
#1253=CARTESIAN_POINT('',(0.0095828427124746,0.0373,0.110527590012964));
#1254=CARTESIAN_POINT('',(0.00687885006802166,0.0345960073555471,0.113772381186307));
#1255=CARTESIAN_POINT('',(0.00884852813742386,0.0365656854249492,0.111408767503025));
#1256=CARTESIAN_POINT('',(0.008,0.0374142135623731,0.110390533738116));
#1257=CARTESIAN_POINT('',(0.00715147186257616,0.0365656854249492,0.111408767503025));
#1258=CARTESIAN_POINT('',(0.0056316150482574,0.038085542239268,0.109584939325842));
#1259=CARTESIAN_POINT('',(0.00641715728752539,0.0373,0.110527590012964));
#1260=CARTESIAN_POINT('',(0.00199749111624911,0.0373,0.110527590012964));
#1261=CARTESIAN_POINT('',(0.0032,0.0373,0.110527590012964));
#1262=CARTESIAN_POINT('',(0.0032,0.0363,0.111727590012964));
#1263=CARTESIAN_POINT('',(0.0022,0.0363,0.111727590012964));
#1264=CARTESIAN_POINT('',(0.0022,0.0365963557440805,0.111371963120067));
#1265=CARTESIAN_POINT('',(0.0022,0.0195,0.113));
#1266=CARTESIAN_POINT('',(0.0022,0.0333,0.111162958727905));
#1267=CARTESIAN_POINT('',(0.0022,0.0333,0.1102));
#1268=CARTESIAN_POINT('',(0.0022,0.0333,0.112125917455809));
#1269=CARTESIAN_POINT('',(0.0022,0.0346340302321476,0.112125917455809));
#1270=CARTESIAN_POINT('',(0.0022,0.0363,0.113));
#1271=CARTESIAN_POINT('',(0.0022,0.0363,0.1102));
#1272=CARTESIAN_POINT('',(0.0022,0.00225,0.1102));
#1273=CARTESIAN_POINT('',(0.0022,0.0195,0.113));
#1274=CARTESIAN_POINT('',(0.0022,0.0318,0.112225917455809));
#1275=CARTESIAN_POINT('',(0.0022,0.0318,0.1102));
#1276=CARTESIAN_POINT('',(0.0022,0.0318,0.112325917455809));
#1277=CARTESIAN_POINT('',(0.0022,0.00225,0.1102));
#1278=CARTESIAN_POINT('',(0.0022,0.0072,0.1102));
#1279=CARTESIAN_POINT('',(0.0022,0.0072,0.111162958727905));
#1280=CARTESIAN_POINT('',(0.0022,0.0072,0.112325917455809));
#1281=CARTESIAN_POINT('',(0.0022,0.00645,0.112325917455809));
#1282=CARTESIAN_POINT('',(0.0022,0.00320066890908095,0.112325917455809));
#1283=CARTESIAN_POINT('',(0.0022,0.00320066890908095,0.11256419635193));
#1284=CARTESIAN_POINT('',(0.0022,0.035799331090919,0.11256419635193));
#1285=CARTESIAN_POINT('',(0.0022,0.035799331090919,0.112325917455809));
#1286=CARTESIAN_POINT('',(0.0022,0.03255,0.112325917455809));
#1287=CARTESIAN_POINT('',(0.00199749111624911,0.00170000000000003,0.110363795006482));
#1288=CARTESIAN_POINT('',(0.00199749111624911,0.00170000000000006,0.110527590012964));
#1289=CARTESIAN_POINT('',(0.0032,0.00170000000000006,0.110527590012964));
#1290=CARTESIAN_POINT('',(0.0064171572875254,0.0017,0.110527590012964));
#1291=CARTESIAN_POINT('',(0.0032,0.00170000000000003,0.1102));
#1292=CARTESIAN_POINT('',(0.0032,0.0017,0.1102));
#1293=CARTESIAN_POINT('',(0.00199749111624911,0.0017,0.1102));
#1294=CARTESIAN_POINT('',(0.0064171572875254,0.0017,0.1102));
#1295=CARTESIAN_POINT('',(0.0064171572875254,0.0017,0.1103));
#1296=CARTESIAN_POINT('',(0.00199749111624911,0.00170000000000003,0.110363795006482));
#1297=CARTESIAN_POINT('',(0.00958284271247461,0.0017,0.1103));
#1298=CARTESIAN_POINT('',(0.00958284271247461,0.0017,0.1102));
#1299=CARTESIAN_POINT('',(0.00958284271247461,0.0017,0.110527590012964));
#1300=CARTESIAN_POINT('',(0.00199749111624911,0.0017,0.1102));
#1301=CARTESIAN_POINT('',(0.048,0.0017,0.1102));
#1302=CARTESIAN_POINT('',(0.048,0.00170000000000003,0.110363795006482));
#1303=CARTESIAN_POINT('',(0.048,0.00170000000000006,0.110527590012964));
#1304=CARTESIAN_POINT('',(0.00199749111624911,0.00170000000000006,0.110527590012964));
#1305=CARTESIAN_POINT('',(0.00199749111624911,0.0373,0.110363795006482));
#1306=CARTESIAN_POINT('',(0.0095828427124746,0.0373,0.1103));
#1307=CARTESIAN_POINT('',(0.0095828427124746,0.0373,0.1102));
#1308=CARTESIAN_POINT('',(0.048,0.0373,0.110363795006482));
#1309=CARTESIAN_POINT('',(0.048,0.0373,0.1102));
#1310=CARTESIAN_POINT('',(0.00199749111624911,0.0373,0.1102));
#1311=CARTESIAN_POINT('',(0.00199749111624911,0.0373,0.110363795006482));
#1312=CARTESIAN_POINT('',(0.00199749111624911,0.0373,0.1102));
#1313=CARTESIAN_POINT('',(0.0032,0.0373,0.1102));
#1314=CARTESIAN_POINT('',(0.00641715728752539,0.0373,0.1102));
#1315=CARTESIAN_POINT('',(0.0032,0.0373,0.110363795006482));
#1316=CARTESIAN_POINT('',(0.00641715728752539,0.0373,0.1103));
#1317=CARTESIAN_POINT('',(0.00199749111624911,0.035799331090919,0.11256419635193));
#1318=CARTESIAN_POINT('',(0.048,0.035799331090919,0.11256419635193));
#1319=CARTESIAN_POINT('',(0.0162,0.035799331090919,0.112325917455809));
#1320=CARTESIAN_POINT('',(0.00199749111624911,0.00320066890908095,0.11256419635193));
#1321=CARTESIAN_POINT('',(0.00199749111624911,0.00320066890908095,0.112325917455809));
#1322=CARTESIAN_POINT('',(0.0162,0.00319970813669827,0.112325745747521));
#1323=CARTESIAN_POINT('',(0.00199749111624911,0.00319956601060616,0.1123254046449));
#1324=CARTESIAN_POINT('',(0.048,0.00319956601060616,0.1123254046449));
#1325=CARTESIAN_POINT('',(0.048,0.00320066890908095,0.11256419635193));
#1326=CARTESIAN_POINT('',(0.00199749111624911,0.00317436011964023,0.112296822156532));
#1327=CARTESIAN_POINT('',(0.0162,0.00240364425591947,0.111371963120067));
#1328=CARTESIAN_POINT('',(0.0162,0.00303193953570474,0.112125917455809));
#1329=CARTESIAN_POINT('',(0.0162,0.00303193953570474,0.112125917455809));
#1330=CARTESIAN_POINT('',(0.0022,0.00303193953570474,0.112125917455809));
#1331=CARTESIAN_POINT('',(0.0022,0.00240364425591947,0.111371963120067));
#1332=CARTESIAN_POINT('',(0.0022,0.0027,0.111727590012964));
#1333=CARTESIAN_POINT('',(0.0032,0.0027,0.111727590012964));
#1334=CARTESIAN_POINT('',(0.00563161504825741,0.00091445776073202,0.109584939325842));
#1335=CARTESIAN_POINT('',(0.00715147186257615,0.00243431457505075,0.111408767503025));
#1336=CARTESIAN_POINT('',(0.008,0.0015857864376269,0.110390533738116));
#1337=CARTESIAN_POINT('',(0.00884852813742386,0.00243431457505076,0.111408767503025));
#1338=CARTESIAN_POINT('',(0.00687885006802168,0.00440399264445294,0.113772381186307));
#1339=CARTESIAN_POINT('',(0.048,0.00317436011964023,0.112296822156532));
#1340=CARTESIAN_POINT('',(0.00199749111624911,0.0195,0.1102));
#1341=CARTESIAN_POINT('',(0.0162,0.00225,0.1102));
#1342=CARTESIAN_POINT('',(0.0162,0.0318,0.1102));
#1343=CARTESIAN_POINT('',(0.0162,0.0333,0.1102));
#1344=CARTESIAN_POINT('',(0.0162,0.0333,0.1102));
#1345=CARTESIAN_POINT('',(0.0032,0.0363,0.1102));
#1346=CARTESIAN_POINT('',(0.00600502525316941,0.037712132034356,0.1102));
#1347=CARTESIAN_POINT('',(0.00715147186257614,0.0365656854249492,0.1102));
#1348=CARTESIAN_POINT('',(0.008,0.0374142135623731,0.1102));
#1349=CARTESIAN_POINT('',(0.00884852813742386,0.0365656854249492,0.1102));
#1350=CARTESIAN_POINT('',(0.00999497474683058,0.037712132034356,0.1102));
#1351=CARTESIAN_POINT('',(0.048,0.0195,0.1102));
#1352=CARTESIAN_POINT('',(0.00999497474683059,0.00128786796564403,0.1102));
#1353=CARTESIAN_POINT('',(0.00884852813742386,0.00243431457505075,0.1102));
#1354=CARTESIAN_POINT('',(0.008,0.0015857864376269,0.1102));
#1355=CARTESIAN_POINT('',(0.00715147186257615,0.00243431457505075,0.1102));
#1356=CARTESIAN_POINT('',(0.00600502525316942,0.00128786796564403,0.1102));
#1357=CARTESIAN_POINT('',(0.0032,0.0027,0.1102));
#1358=CARTESIAN_POINT('',(0.0022,0.0027,0.1102));
#1359=CARTESIAN_POINT('',(0.0022,0.00225,0.1102));
#1360=CARTESIAN_POINT('',(0.0022,0.0057,0.1102));
#1361=CARTESIAN_POINT('',(0.0162,0.0057,0.1102));
#1362=CARTESIAN_POINT('',(0.0162,0.0057,0.1102));
#1363=CARTESIAN_POINT('',(0.0162,0.00225,0.1102));
#1364=CARTESIAN_POINT('',(0.0162,0.0072,0.1102));
#1365=CARTESIAN_POINT('',(0.0162,0.0072,0.1102));
#1366=CARTESIAN_POINT('',(0.0162,0.0318,0.1102));
#1367=CARTESIAN_POINT('',(0.048,0.0195,0.0565));
#1368=CARTESIAN_POINT('',(0.008,0.0015857864376269,0.109998));
#1369=CARTESIAN_POINT('',(0.00715147186257615,0.00243431457505075,0.109998));
#1370=CARTESIAN_POINT('',(0.00884852813742386,0.00243431457505075,0.109998));
#1371=CARTESIAN_POINT('',(0.00999497474683059,0.00128786796564403,0.109998));
#1372=CARTESIAN_POINT('',(0.00600502525316942,0.00128786796564403,0.109998));
#1373=CARTESIAN_POINT('',(0.0022,0.0195,0.113));
#1374=CARTESIAN_POINT('',(0.0022,0.0057,0.111162958727905));
#1375=CARTESIAN_POINT('',(0.0022,0.0057,0.112125917455809));
#1376=CARTESIAN_POINT('',(0.0022,0.0027,0.110527590012964));
#1377=CARTESIAN_POINT('',(0.0022,0.00436596976785237,0.112125917455809));
#1378=CARTESIAN_POINT('',(0.00999497474683058,0.037712132034356,0.109998));
#1379=CARTESIAN_POINT('',(0.00884852813742386,0.0365656854249492,0.109998));
#1380=CARTESIAN_POINT('',(0.008,0.0374142135623731,0.109998));
#1381=CARTESIAN_POINT('',(0.00715147186257614,0.0365656854249492,0.109998));
#1382=CARTESIAN_POINT('',(0.00600502525316941,0.037712132034356,0.109998));
#1383=CARTESIAN_POINT('',(0.0032,0.0363,0.110363795006482));
#1384=CARTESIAN_POINT('',(0.0032,0.0027,0.113));
#1385=CARTESIAN_POINT('',(0.0162,0.0072,0.111162958727905));
#1386=CARTESIAN_POINT('',(0.0162,0.0072,0.111162958727905));
#1387=CARTESIAN_POINT('',(0.0162,0.0072,0.112325917455809));
#1388=CARTESIAN_POINT('',(0.0162,0.0072,0.112325917455809));
#1389=CARTESIAN_POINT('',(0.0162,0.0057,0.111162958727905));
#1390=CARTESIAN_POINT('',(0.0162,0.0057,0.112125917455809));
#1391=CARTESIAN_POINT('',(0.0162,0.0057,0.112125917455809));
#1392=CARTESIAN_POINT('',(0.0162,0.0057,0.111162958727905));
#1393=CARTESIAN_POINT('',(0.0162,0.00436596976785236,0.112125917455809));
#1394=CARTESIAN_POINT('',(0.0162,0.00436596976785236,0.112125917455809));
#1395=CARTESIAN_POINT('',(0.0162,0.00645,0.112325917455809));
#1396=CARTESIAN_POINT('',(0.0162,0.00645,0.112325917455809));
#1397=CARTESIAN_POINT('',(0.0162,0.0195,0.111525836136351));
#1398=CARTESIAN_POINT('',(0.0162,0.0346340302321476,0.112125917455809));
#1399=CARTESIAN_POINT('',(0.0162,0.0333,0.112125917455809));
#1400=CARTESIAN_POINT('',(0.0162,0.0333,0.112125917455809));
#1401=CARTESIAN_POINT('',(0.0162,0.0346340302321476,0.112125917455809));
#1402=CARTESIAN_POINT('',(0.0162,0.0333,0.111162958727905));
#1403=CARTESIAN_POINT('',(0.0162,0.0333,0.111162958727905));
#1404=CARTESIAN_POINT('',(0.0162,0.0318,0.112225917455809));
#1405=CARTESIAN_POINT('',(0.0162,0.0318,0.112325917455809));
#1406=CARTESIAN_POINT('',(0.0162,0.0318,0.112325917455809));
#1407=CARTESIAN_POINT('',(0.0162,0.0318,0.112225917455809));
#1408=CARTESIAN_POINT('',(0.0162,0.03255,0.112325917455809));
#1409=CARTESIAN_POINT('',(0.0162,0.03255,0.112325917455809));
#1410=CARTESIAN_POINT('',(0.0162,0.0195,0.111525836136351));
#1411=CARTESIAN_POINT('',(0.037,0.0195,0.1138));
#1412=CARTESIAN_POINT('',(0.037,0.0225,0.1138));
#1413=CARTESIAN_POINT('',(0.037,0.0225,0.1138));
#1414=CARTESIAN_POINT('',(0.037,0.0195,0.1138));
#1415=CARTESIAN_POINT('',(0.037,0.0165,0.1138));
#1416=CARTESIAN_POINT('',(0.037,0.0165,0.1138));
#1417=CARTESIAN_POINT('',(0.036,0.0225,0.1138));
#1418=CARTESIAN_POINT('',(0.035,0.0225,0.1138));
#1419=CARTESIAN_POINT('',(0.035,0.0225,0.1138));
#1420=CARTESIAN_POINT('',(0.036,0.0225,0.1138));
#1421=CARTESIAN_POINT('',(0.035,0.0195,0.1138));
#1422=CARTESIAN_POINT('',(0.035,0.0165,0.1138));
#1423=CARTESIAN_POINT('',(0.035,0.0165,0.1138));
#1424=CARTESIAN_POINT('',(0.035,0.0195,0.1138));
#1425=CARTESIAN_POINT('',(0.036,0.0165,0.1138));
#1426=CARTESIAN_POINT('',(0.036,0.0165,0.1138));
#1427=CARTESIAN_POINT('',(0.0250991638636488,0.0195,0.1138));
#1428=CARTESIAN_POINT('',(0.039,0.0195,0.1138));
#1429=CARTESIAN_POINT('',(0.039,0.0135,0.1138));
#1430=CARTESIAN_POINT('',(0.039,0.0135,0.1138));
#1431=CARTESIAN_POINT('',(0.039,0.0195,0.1138));
#1432=CARTESIAN_POINT('',(0.039,0.0255,0.1138));
#1433=CARTESIAN_POINT('',(0.039,0.0255,0.1138));
#1434=CARTESIAN_POINT('',(0.04,0.0135,0.1138));
#1435=CARTESIAN_POINT('',(0.041,0.0135,0.1138));
#1436=CARTESIAN_POINT('',(0.041,0.0135,0.1138));
#1437=CARTESIAN_POINT('',(0.04,0.0135,0.1138));
#1438=CARTESIAN_POINT('',(0.041,0.0195,0.1138));
#1439=CARTESIAN_POINT('',(0.041,0.0255,0.1138));
#1440=CARTESIAN_POINT('',(0.041,0.0255,0.1138));
#1441=CARTESIAN_POINT('',(0.041,0.0195,0.1138));
#1442=CARTESIAN_POINT('',(0.04,0.0255,0.1138));
#1443=CARTESIAN_POINT('',(0.04,0.0255,0.1138));
#1444=CARTESIAN_POINT('',(0.0250991638636488,0.0195,0.1138));
#1445=CARTESIAN_POINT('',(0.043,0.0195,0.1138));
#1446=CARTESIAN_POINT('',(0.043,0.0105,0.1138));
#1447=CARTESIAN_POINT('',(0.043,0.0105,0.1138));
#1448=CARTESIAN_POINT('',(0.043,0.0195,0.1138));
#1449=CARTESIAN_POINT('',(0.043,0.0285,0.1138));
#1450=CARTESIAN_POINT('',(0.043,0.0285,0.1138));
#1451=CARTESIAN_POINT('',(0.044,0.0105,0.1138));
#1452=CARTESIAN_POINT('',(0.045,0.0105,0.1138));
#1453=CARTESIAN_POINT('',(0.045,0.0105,0.1138));
#1454=CARTESIAN_POINT('',(0.044,0.0105,0.1138));
#1455=CARTESIAN_POINT('',(0.045,0.0195,0.1138));
#1456=CARTESIAN_POINT('',(0.045,0.0285,0.1138));
#1457=CARTESIAN_POINT('',(0.045,0.0285,0.1138));
#1458=CARTESIAN_POINT('',(0.045,0.0195,0.1138));
#1459=CARTESIAN_POINT('',(0.044,0.0285,0.1138));
#1460=CARTESIAN_POINT('',(0.044,0.0285,0.1138));
#1461=CARTESIAN_POINT('',(0.0250991638636488,0.0195,0.1138));
#1462=MECHANICAL_DESIGN_GEOMETRIC_PRESENTATION_REPRESENTATION('',(#889),
#1463);
#1463=(
GEOMETRIC_REPRESENTATION_CONTEXT(3)
GLOBAL_UNCERTAINTY_ASSIGNED_CONTEXT((#1464))
GLOBAL_UNIT_ASSIGNED_CONTEXT((#1467,#1466,#1465))
REPRESENTATION_CONTEXT('Part 2','TOP_LEVEL_ASSEMBLY_PART')
);
#1464=UNCERTAINTY_MEASURE_WITH_UNIT(LENGTH_MEASURE(2.55628071996541E-5),
#1467,'DISTANCE_ACCURACY_VALUE','Maximum Tolerance applied to model');
#1465=(
NAMED_UNIT(*)
SI_UNIT($,.STERADIAN.)
SOLID_ANGLE_UNIT()
);
#1466=(
NAMED_UNIT(*)
PLANE_ANGLE_UNIT()
SI_UNIT($,.RADIAN.)
);
#1467=(
LENGTH_UNIT()
NAMED_UNIT(*)
SI_UNIT($,.METRE.)
);
#1468=PRODUCT_DEFINITION_SHAPE('','',#1469);
#1469=PRODUCT_DEFINITION('','',#1471,#1470);
#1470=PRODUCT_DEFINITION_CONTEXT('',#1477,'design');
#1471=PRODUCT_DEFINITION_FORMATION_WITH_SPECIFIED_SOURCE('','',#1473,
 .NOT_KNOWN.);
#1472=PRODUCT_RELATED_PRODUCT_CATEGORY('','',(#1473));
#1473=PRODUCT('Part 2','Part 2','Part 2',(#1475));
#1474=PRODUCT_CATEGORY('','');
#1475=PRODUCT_CONTEXT('',#1477,'mechanical');
#1476=APPLICATION_PROTOCOL_DEFINITION('international standard',
'ap242_managed_model_based_3d_engineering',2020,#1477);
#1477=APPLICATION_CONTEXT('managed model based 3d engineering');
ENDSEC;
END-ISO-10303-21;
