ISO-10303-21;
HEADER;
/* Generated by software containing ST-Developer
 * from STEP Tools, Inc. (www.steptools.com) 
 */
/* OPTION: using custom renumber hook */

FILE_DESCRIPTION(
/* description */ ('STEP AP242 Edition 2',
'CAx-IF Rec.Pracs.---Representation and Presentation of Product Manufa
cturing Information (PMI)---4.0---2014-10-13',
'CAx-IF Rec.Pracs.---3D Tessellated Geometry---0.4---2014-09-14','2;1',
'CAx-IF Rec.Pracs.---User Defined Attributes---1.5---2016-08-15'),
/* implementation_level */ '2;1');

FILE_NAME(
/* name */ 'Part Studio 2 - Part 1',
/* time_stamp */ '2026-08-30T22:27:10Z',
/* author */ (''),
/* organization */ (''),
/* preprocessor_version */ 'ST-DEVELOPER v20',
/* originating_system */ 'ONSHAPE BY PTC INC, 1.220',
/* authorisation */ '  ');

FILE_SCHEMA (('AP242_MANAGED_MODEL_BASED_3D_ENGINEERING_MIM_LF { 1 0 10303 442 3 1 4 }'));
ENDSEC;

DATA;
#10=SHAPE_REPRESENTATION_RELATIONSHIP('','',#1509,#11);
#11=ADVANCED_BREP_SHAPE_REPRESENTATION('',(#1507),#2393);
#12=CYLINDRICAL_SURFACE('',#1555,0.001);
#13=CYLINDRICAL_SURFACE('',#1559,0.001);
#14=CYLINDRICAL_SURFACE('',#1573,0.001);
#15=CYLINDRICAL_SURFACE('',#1575,0.00100000000000002);
#16=CYLINDRICAL_SURFACE('',#1585,0.00225);
#17=CYLINDRICAL_SURFACE('',#1587,0.00225);
#18=CYLINDRICAL_SURFACE('',#1593,0.00225);
#19=CYLINDRICAL_SURFACE('',#1595,0.00225);
#20=ELLIPSE('',#1532,0.00156204993518133,0.001);
#21=ELLIPSE('',#1553,0.00156204993518133,0.001);
#22=ELLIPSE('',#1567,0.00156204993518133,0.001);
#23=ELLIPSE('',#1571,0.00156204993518136,0.00100000000000002);
#24=CIRCLE('',#1513,0.00100000000000002);
#25=CIRCLE('',#1514,0.001);
#26=CIRCLE('',#1529,0.001);
#27=CIRCLE('',#1530,0.001);
#28=CIRCLE('',#1540,0.00225);
#29=CIRCLE('',#1541,0.00225);
#30=CIRCLE('',#1542,0.00225);
#31=CIRCLE('',#1543,0.00225);
#32=CIRCLE('',#1586,0.00225);
#33=CIRCLE('',#1588,0.00225);
#34=CIRCLE('',#1594,0.00225);
#35=CIRCLE('',#1596,0.00225);
#36=ORIENTED_EDGE('',*,*,#456,.F.);
#37=ORIENTED_EDGE('',*,*,#457,.F.);
#38=ORIENTED_EDGE('',*,*,#458,.T.);
#39=ORIENTED_EDGE('',*,*,#459,.F.);
#40=ORIENTED_EDGE('',*,*,#460,.T.);
#41=ORIENTED_EDGE('',*,*,#461,.F.);
#42=ORIENTED_EDGE('',*,*,#462,.T.);
#43=ORIENTED_EDGE('',*,*,#463,.T.);
#44=ORIENTED_EDGE('',*,*,#464,.T.);
#45=ORIENTED_EDGE('',*,*,#465,.T.);
#46=ORIENTED_EDGE('',*,*,#466,.F.);
#47=ORIENTED_EDGE('',*,*,#467,.F.);
#48=ORIENTED_EDGE('',*,*,#468,.F.);
#49=ORIENTED_EDGE('',*,*,#469,.T.);
#50=ORIENTED_EDGE('',*,*,#470,.F.);
#51=ORIENTED_EDGE('',*,*,#471,.T.);
#52=ORIENTED_EDGE('',*,*,#472,.F.);
#53=ORIENTED_EDGE('',*,*,#473,.T.);
#54=ORIENTED_EDGE('',*,*,#474,.T.);
#55=ORIENTED_EDGE('',*,*,#475,.T.);
#56=ORIENTED_EDGE('',*,*,#476,.T.);
#57=ORIENTED_EDGE('',*,*,#477,.F.);
#58=ORIENTED_EDGE('',*,*,#478,.F.);
#59=ORIENTED_EDGE('',*,*,#479,.F.);
#60=ORIENTED_EDGE('',*,*,#480,.T.);
#61=ORIENTED_EDGE('',*,*,#481,.F.);
#62=ORIENTED_EDGE('',*,*,#482,.F.);
#63=ORIENTED_EDGE('',*,*,#483,.F.);
#64=ORIENTED_EDGE('',*,*,#484,.F.);
#65=ORIENTED_EDGE('',*,*,#485,.T.);
#66=ORIENTED_EDGE('',*,*,#486,.T.);
#67=ORIENTED_EDGE('',*,*,#487,.F.);
#68=ORIENTED_EDGE('',*,*,#488,.F.);
#69=ORIENTED_EDGE('',*,*,#489,.T.);
#70=ORIENTED_EDGE('',*,*,#468,.T.);
#71=ORIENTED_EDGE('',*,*,#490,.F.);
#72=ORIENTED_EDGE('',*,*,#491,.F.);
#73=ORIENTED_EDGE('',*,*,#492,.T.);
#74=ORIENTED_EDGE('',*,*,#484,.T.);
#75=ORIENTED_EDGE('',*,*,#493,.F.);
#76=ORIENTED_EDGE('',*,*,#494,.F.);
#77=ORIENTED_EDGE('',*,*,#471,.F.);
#78=ORIENTED_EDGE('',*,*,#495,.T.);
#79=ORIENTED_EDGE('',*,*,#496,.T.);
#80=ORIENTED_EDGE('',*,*,#497,.F.);
#81=ORIENTED_EDGE('',*,*,#498,.T.);
#82=ORIENTED_EDGE('',*,*,#477,.T.);
#83=ORIENTED_EDGE('',*,*,#499,.F.);
#84=ORIENTED_EDGE('',*,*,#500,.T.);
#85=ORIENTED_EDGE('',*,*,#501,.F.);
#86=ORIENTED_EDGE('',*,*,#502,.T.);
#87=ORIENTED_EDGE('',*,*,#503,.T.);
#88=ORIENTED_EDGE('',*,*,#504,.F.);
#89=ORIENTED_EDGE('',*,*,#505,.F.);
#90=ORIENTED_EDGE('',*,*,#506,.F.);
#91=ORIENTED_EDGE('',*,*,#507,.T.);
#92=ORIENTED_EDGE('',*,*,#508,.F.);
#93=ORIENTED_EDGE('',*,*,#501,.T.);
#94=ORIENTED_EDGE('',*,*,#509,.F.);
#95=ORIENTED_EDGE('',*,*,#510,.F.);
#96=ORIENTED_EDGE('',*,*,#511,.T.);
#97=ORIENTED_EDGE('',*,*,#512,.F.);
#98=ORIENTED_EDGE('',*,*,#513,.F.);
#99=ORIENTED_EDGE('',*,*,#514,.F.);
#100=ORIENTED_EDGE('',*,*,#515,.T.);
#101=ORIENTED_EDGE('',*,*,#516,.T.);
#102=ORIENTED_EDGE('',*,*,#517,.F.);
#103=ORIENTED_EDGE('',*,*,#518,.F.);
#104=ORIENTED_EDGE('',*,*,#519,.T.);
#105=ORIENTED_EDGE('',*,*,#466,.T.);
#106=ORIENTED_EDGE('',*,*,#520,.F.);
#107=ORIENTED_EDGE('',*,*,#521,.F.);
#108=ORIENTED_EDGE('',*,*,#522,.F.);
#109=ORIENTED_EDGE('',*,*,#505,.T.);
#110=ORIENTED_EDGE('',*,*,#523,.T.);
#111=ORIENTED_EDGE('',*,*,#524,.T.);
#112=ORIENTED_EDGE('',*,*,#499,.T.);
#113=ORIENTED_EDGE('',*,*,#476,.F.);
#114=ORIENTED_EDGE('',*,*,#525,.F.);
#115=ORIENTED_EDGE('',*,*,#526,.F.);
#116=ORIENTED_EDGE('',*,*,#527,.F.);
#117=ORIENTED_EDGE('',*,*,#490,.T.);
#118=ORIENTED_EDGE('',*,*,#487,.T.);
#119=ORIENTED_EDGE('',*,*,#528,.F.);
#120=ORIENTED_EDGE('',*,*,#528,.T.);
#121=ORIENTED_EDGE('',*,*,#486,.F.);
#122=ORIENTED_EDGE('',*,*,#529,.F.);
#123=ORIENTED_EDGE('',*,*,#530,.T.);
#124=ORIENTED_EDGE('',*,*,#527,.T.);
#125=ORIENTED_EDGE('',*,*,#530,.F.);
#126=ORIENTED_EDGE('',*,*,#531,.F.);
#127=ORIENTED_EDGE('',*,*,#491,.T.);
#128=ORIENTED_EDGE('',*,*,#492,.F.);
#129=ORIENTED_EDGE('',*,*,#531,.T.);
#130=ORIENTED_EDGE('',*,*,#529,.T.);
#131=ORIENTED_EDGE('',*,*,#485,.F.);
#132=ORIENTED_EDGE('',*,*,#532,.F.);
#133=ORIENTED_EDGE('',*,*,#533,.T.);
#134=ORIENTED_EDGE('',*,*,#502,.F.);
#135=ORIENTED_EDGE('',*,*,#508,.T.);
#136=ORIENTED_EDGE('',*,*,#534,.F.);
#137=ORIENTED_EDGE('',*,*,#535,.T.);
#138=ORIENTED_EDGE('',*,*,#523,.F.);
#139=ORIENTED_EDGE('',*,*,#504,.T.);
#140=ORIENTED_EDGE('',*,*,#503,.F.);
#141=ORIENTED_EDGE('',*,*,#533,.F.);
#142=ORIENTED_EDGE('',*,*,#536,.F.);
#143=ORIENTED_EDGE('',*,*,#495,.F.);
#144=ORIENTED_EDGE('',*,*,#470,.T.);
#145=ORIENTED_EDGE('',*,*,#537,.T.);
#146=ORIENTED_EDGE('',*,*,#482,.T.);
#147=ORIENTED_EDGE('',*,*,#538,.T.);
#148=ORIENTED_EDGE('',*,*,#539,.T.);
#149=ORIENTED_EDGE('',*,*,#534,.T.);
#150=ORIENTED_EDGE('',*,*,#540,.F.);
#151=ORIENTED_EDGE('',*,*,#541,.T.);
#152=ORIENTED_EDGE('',*,*,#520,.T.);
#153=ORIENTED_EDGE('',*,*,#465,.F.);
#154=ORIENTED_EDGE('',*,*,#542,.T.);
#155=ORIENTED_EDGE('',*,*,#543,.T.);
#156=ORIENTED_EDGE('',*,*,#544,.F.);
#157=ORIENTED_EDGE('',*,*,#545,.T.);
#158=ORIENTED_EDGE('',*,*,#546,.T.);
#159=ORIENTED_EDGE('',*,*,#514,.T.);
#160=ORIENTED_EDGE('',*,*,#547,.F.);
#161=ORIENTED_EDGE('',*,*,#548,.F.);
#162=ORIENTED_EDGE('',*,*,#549,.T.);
#163=ORIENTED_EDGE('',*,*,#550,.F.);
#164=ORIENTED_EDGE('',*,*,#551,.F.);
#165=ORIENTED_EDGE('',*,*,#552,.F.);
#166=ORIENTED_EDGE('',*,*,#553,.T.);
#167=ORIENTED_EDGE('',*,*,#554,.T.);
#168=ORIENTED_EDGE('',*,*,#555,.F.);
#169=ORIENTED_EDGE('',*,*,#556,.F.);
#170=ORIENTED_EDGE('',*,*,#557,.F.);
#171=ORIENTED_EDGE('',*,*,#558,.T.);
#172=ORIENTED_EDGE('',*,*,#559,.F.);
#173=ORIENTED_EDGE('',*,*,#560,.T.);
#174=ORIENTED_EDGE('',*,*,#561,.T.);
#175=ORIENTED_EDGE('',*,*,#516,.F.);
#176=ORIENTED_EDGE('',*,*,#562,.F.);
#177=ORIENTED_EDGE('',*,*,#563,.T.);
#178=ORIENTED_EDGE('',*,*,#559,.T.);
#179=ORIENTED_EDGE('',*,*,#564,.T.);
#180=ORIENTED_EDGE('',*,*,#542,.F.);
#181=ORIENTED_EDGE('',*,*,#565,.T.);
#182=ORIENTED_EDGE('',*,*,#546,.F.);
#183=ORIENTED_EDGE('',*,*,#566,.T.);
#184=ORIENTED_EDGE('',*,*,#562,.T.);
#185=ORIENTED_EDGE('',*,*,#515,.F.);
#186=ORIENTED_EDGE('',*,*,#567,.F.);
#187=ORIENTED_EDGE('',*,*,#568,.T.);
#188=ORIENTED_EDGE('',*,*,#547,.T.);
#189=ORIENTED_EDGE('',*,*,#513,.T.);
#190=ORIENTED_EDGE('',*,*,#561,.F.);
#191=ORIENTED_EDGE('',*,*,#569,.F.);
#192=ORIENTED_EDGE('',*,*,#570,.F.);
#193=ORIENTED_EDGE('',*,*,#517,.T.);
#194=ORIENTED_EDGE('',*,*,#571,.T.);
#195=ORIENTED_EDGE('',*,*,#572,.T.);
#196=ORIENTED_EDGE('',*,*,#511,.F.);
#197=ORIENTED_EDGE('',*,*,#573,.T.);
#198=ORIENTED_EDGE('',*,*,#574,.F.);
#199=ORIENTED_EDGE('',*,*,#575,.F.);
#200=ORIENTED_EDGE('',*,*,#576,.T.);
#201=ORIENTED_EDGE('',*,*,#577,.F.);
#202=ORIENTED_EDGE('',*,*,#578,.T.);
#203=ORIENTED_EDGE('',*,*,#579,.T.);
#204=ORIENTED_EDGE('',*,*,#507,.F.);
#205=ORIENTED_EDGE('',*,*,#580,.T.);
#206=ORIENTED_EDGE('',*,*,#581,.T.);
#207=ORIENTED_EDGE('',*,*,#540,.T.);
#208=ORIENTED_EDGE('',*,*,#464,.F.);
#209=ORIENTED_EDGE('',*,*,#582,.T.);
#210=ORIENTED_EDGE('',*,*,#583,.F.);
#211=ORIENTED_EDGE('',*,*,#584,.F.);
#212=ORIENTED_EDGE('',*,*,#460,.F.);
#213=ORIENTED_EDGE('',*,*,#585,.F.);
#214=ORIENTED_EDGE('',*,*,#586,.F.);
#215=ORIENTED_EDGE('',*,*,#587,.F.);
#216=ORIENTED_EDGE('',*,*,#588,.T.);
#217=ORIENTED_EDGE('',*,*,#589,.T.);
#218=ORIENTED_EDGE('',*,*,#519,.F.);
#219=ORIENTED_EDGE('',*,*,#590,.F.);
#220=ORIENTED_EDGE('',*,*,#577,.T.);
#221=ORIENTED_EDGE('',*,*,#591,.F.);
#222=ORIENTED_EDGE('',*,*,#592,.F.);
#223=ORIENTED_EDGE('',*,*,#593,.F.);
#224=ORIENTED_EDGE('',*,*,#585,.T.);
#225=ORIENTED_EDGE('',*,*,#459,.T.);
#226=ORIENTED_EDGE('',*,*,#594,.F.);
#227=ORIENTED_EDGE('',*,*,#595,.F.);
#228=ORIENTED_EDGE('',*,*,#596,.T.);
#229=ORIENTED_EDGE('',*,*,#467,.T.);
#230=ORIENTED_EDGE('',*,*,#597,.T.);
#231=ORIENTED_EDGE('',*,*,#598,.F.);
#232=ORIENTED_EDGE('',*,*,#599,.T.);
#233=ORIENTED_EDGE('',*,*,#600,.F.);
#234=ORIENTED_EDGE('',*,*,#500,.F.);
#235=ORIENTED_EDGE('',*,*,#579,.F.);
#236=ORIENTED_EDGE('',*,*,#601,.T.);
#237=ORIENTED_EDGE('',*,*,#509,.T.);
#238=ORIENTED_EDGE('',*,*,#554,.F.);
#239=ORIENTED_EDGE('',*,*,#602,.T.);
#240=ORIENTED_EDGE('',*,*,#603,.F.);
#241=ORIENTED_EDGE('',*,*,#604,.F.);
#242=ORIENTED_EDGE('',*,*,#605,.F.);
#243=ORIENTED_EDGE('',*,*,#555,.T.);
#244=ORIENTED_EDGE('',*,*,#604,.T.);
#245=ORIENTED_EDGE('',*,*,#606,.T.);
#246=ORIENTED_EDGE('',*,*,#607,.T.);
#247=ORIENTED_EDGE('',*,*,#608,.T.);
#248=ORIENTED_EDGE('',*,*,#609,.T.);
#249=ORIENTED_EDGE('',*,*,#610,.F.);
#250=ORIENTED_EDGE('',*,*,#611,.T.);
#251=ORIENTED_EDGE('',*,*,#612,.F.);
#252=ORIENTED_EDGE('',*,*,#552,.T.);
#253=ORIENTED_EDGE('',*,*,#613,.T.);
#254=ORIENTED_EDGE('',*,*,#614,.T.);
#255=ORIENTED_EDGE('',*,*,#571,.F.);
#256=ORIENTED_EDGE('',*,*,#615,.F.);
#257=ORIENTED_EDGE('',*,*,#569,.T.);
#258=ORIENTED_EDGE('',*,*,#560,.F.);
#259=ORIENTED_EDGE('',*,*,#565,.F.);
#260=ORIENTED_EDGE('',*,*,#556,.T.);
#261=ORIENTED_EDGE('',*,*,#605,.T.);
#262=ORIENTED_EDGE('',*,*,#553,.F.);
#263=ORIENTED_EDGE('',*,*,#612,.T.);
#264=ORIENTED_EDGE('',*,*,#616,.F.);
#265=ORIENTED_EDGE('',*,*,#602,.F.);
#266=ORIENTED_EDGE('',*,*,#590,.T.);
#267=ORIENTED_EDGE('',*,*,#518,.T.);
#268=ORIENTED_EDGE('',*,*,#570,.T.);
#269=ORIENTED_EDGE('',*,*,#615,.T.);
#270=ORIENTED_EDGE('',*,*,#573,.F.);
#271=ORIENTED_EDGE('',*,*,#510,.T.);
#272=ORIENTED_EDGE('',*,*,#601,.F.);
#273=ORIENTED_EDGE('',*,*,#578,.F.);
#274=ORIENTED_EDGE('',*,*,#617,.F.);
#275=ORIENTED_EDGE('',*,*,#607,.F.);
#276=ORIENTED_EDGE('',*,*,#606,.F.);
#277=ORIENTED_EDGE('',*,*,#603,.T.);
#278=ORIENTED_EDGE('',*,*,#616,.T.);
#279=ORIENTED_EDGE('',*,*,#611,.F.);
#280=ORIENTED_EDGE('',*,*,#618,.T.);
#281=ORIENTED_EDGE('',*,*,#619,.T.);
#282=ORIENTED_EDGE('',*,*,#551,.T.);
#283=ORIENTED_EDGE('',*,*,#620,.T.);
#284=ORIENTED_EDGE('',*,*,#621,.F.);
#285=ORIENTED_EDGE('',*,*,#613,.F.);
#286=ORIENTED_EDGE('',*,*,#622,.F.);
#287=ORIENTED_EDGE('',*,*,#623,.T.);
#288=ORIENTED_EDGE('',*,*,#567,.T.);
#289=ORIENTED_EDGE('',*,*,#512,.T.);
#290=ORIENTED_EDGE('',*,*,#572,.F.);
#291=ORIENTED_EDGE('',*,*,#614,.F.);
#292=ORIENTED_EDGE('',*,*,#621,.T.);
#293=ORIENTED_EDGE('',*,*,#624,.T.);
#294=ORIENTED_EDGE('',*,*,#568,.F.);
#295=ORIENTED_EDGE('',*,*,#623,.F.);
#296=ORIENTED_EDGE('',*,*,#625,.F.);
#297=ORIENTED_EDGE('',*,*,#548,.T.);
#298=ORIENTED_EDGE('',*,*,#625,.T.);
#299=ORIENTED_EDGE('',*,*,#622,.T.);
#300=ORIENTED_EDGE('',*,*,#626,.F.);
#301=ORIENTED_EDGE('',*,*,#549,.F.);
#302=ORIENTED_EDGE('',*,*,#620,.F.);
#303=ORIENTED_EDGE('',*,*,#550,.T.);
#304=ORIENTED_EDGE('',*,*,#626,.T.);
#305=ORIENTED_EDGE('',*,*,#624,.F.);
#306=ORIENTED_EDGE('',*,*,#558,.F.);
#307=ORIENTED_EDGE('',*,*,#627,.F.);
#308=ORIENTED_EDGE('',*,*,#543,.F.);
#309=ORIENTED_EDGE('',*,*,#564,.F.);
#310=ORIENTED_EDGE('',*,*,#563,.F.);
#311=ORIENTED_EDGE('',*,*,#566,.F.);
#312=ORIENTED_EDGE('',*,*,#545,.F.);
#313=ORIENTED_EDGE('',*,*,#628,.T.);
#314=ORIENTED_EDGE('',*,*,#627,.T.);
#315=ORIENTED_EDGE('',*,*,#557,.T.);
#316=ORIENTED_EDGE('',*,*,#628,.F.);
#317=ORIENTED_EDGE('',*,*,#544,.T.);
#318=ORIENTED_EDGE('',*,*,#629,.T.);
#319=ORIENTED_EDGE('',*,*,#583,.T.);
#320=ORIENTED_EDGE('',*,*,#630,.F.);
#321=ORIENTED_EDGE('',*,*,#609,.F.);
#322=ORIENTED_EDGE('',*,*,#617,.T.);
#323=ORIENTED_EDGE('',*,*,#631,.F.);
#324=ORIENTED_EDGE('',*,*,#461,.T.);
#325=ORIENTED_EDGE('',*,*,#584,.T.);
#326=ORIENTED_EDGE('',*,*,#629,.F.);
#327=ORIENTED_EDGE('',*,*,#608,.F.);
#328=ORIENTED_EDGE('',*,*,#610,.T.);
#329=ORIENTED_EDGE('',*,*,#630,.T.);
#330=ORIENTED_EDGE('',*,*,#582,.F.);
#331=ORIENTED_EDGE('',*,*,#463,.F.);
#332=ORIENTED_EDGE('',*,*,#632,.T.);
#333=ORIENTED_EDGE('',*,*,#618,.F.);
#334=ORIENTED_EDGE('',*,*,#632,.F.);
#335=ORIENTED_EDGE('',*,*,#462,.F.);
#336=ORIENTED_EDGE('',*,*,#631,.T.);
#337=ORIENTED_EDGE('',*,*,#619,.F.);
#338=ORIENTED_EDGE('',*,*,#541,.F.);
#339=ORIENTED_EDGE('',*,*,#581,.F.);
#340=ORIENTED_EDGE('',*,*,#633,.T.);
#341=ORIENTED_EDGE('',*,*,#521,.T.);
#342=ORIENTED_EDGE('',*,*,#506,.T.);
#343=ORIENTED_EDGE('',*,*,#522,.T.);
#344=ORIENTED_EDGE('',*,*,#633,.F.);
#345=ORIENTED_EDGE('',*,*,#580,.F.);
#346=ORIENTED_EDGE('',*,*,#634,.F.);
#347=ORIENTED_EDGE('',*,*,#635,.T.);
#348=ORIENTED_EDGE('',*,*,#636,.T.);
#349=ORIENTED_EDGE('',*,*,#497,.T.);
#350=ORIENTED_EDGE('',*,*,#524,.F.);
#351=ORIENTED_EDGE('',*,*,#535,.F.);
#352=ORIENTED_EDGE('',*,*,#539,.F.);
#353=ORIENTED_EDGE('',*,*,#637,.T.);
#354=ORIENTED_EDGE('',*,*,#638,.F.);
#355=ORIENTED_EDGE('',*,*,#637,.F.);
#356=ORIENTED_EDGE('',*,*,#538,.F.);
#357=ORIENTED_EDGE('',*,*,#481,.T.);
#358=ORIENTED_EDGE('',*,*,#475,.F.);
#359=ORIENTED_EDGE('',*,*,#639,.T.);
#360=ORIENTED_EDGE('',*,*,#640,.T.);
#361=ORIENTED_EDGE('',*,*,#525,.T.);
#362=ORIENTED_EDGE('',*,*,#640,.F.);
#363=ORIENTED_EDGE('',*,*,#641,.T.);
#364=ORIENTED_EDGE('',*,*,#642,.T.);
#365=ORIENTED_EDGE('',*,*,#643,.F.);
#366=ORIENTED_EDGE('',*,*,#496,.F.);
#367=ORIENTED_EDGE('',*,*,#536,.T.);
#368=ORIENTED_EDGE('',*,*,#532,.T.);
#369=ORIENTED_EDGE('',*,*,#526,.T.);
#370=ORIENTED_EDGE('',*,*,#498,.F.);
#371=ORIENTED_EDGE('',*,*,#636,.F.);
#372=ORIENTED_EDGE('',*,*,#644,.F.);
#373=ORIENTED_EDGE('',*,*,#478,.T.);
#374=ORIENTED_EDGE('',*,*,#635,.F.);
#375=ORIENTED_EDGE('',*,*,#645,.F.);
#376=ORIENTED_EDGE('',*,*,#479,.T.);
#377=ORIENTED_EDGE('',*,*,#644,.T.);
#378=ORIENTED_EDGE('',*,*,#634,.T.);
#379=ORIENTED_EDGE('',*,*,#638,.T.);
#380=ORIENTED_EDGE('',*,*,#480,.F.);
#381=ORIENTED_EDGE('',*,*,#645,.T.);
#382=ORIENTED_EDGE('',*,*,#642,.F.);
#383=ORIENTED_EDGE('',*,*,#646,.F.);
#384=ORIENTED_EDGE('',*,*,#473,.F.);
#385=ORIENTED_EDGE('',*,*,#647,.T.);
#386=ORIENTED_EDGE('',*,*,#641,.F.);
#387=ORIENTED_EDGE('',*,*,#639,.F.);
#388=ORIENTED_EDGE('',*,*,#474,.F.);
#389=ORIENTED_EDGE('',*,*,#646,.T.);
#390=ORIENTED_EDGE('',*,*,#494,.T.);
#391=ORIENTED_EDGE('',*,*,#643,.T.);
#392=ORIENTED_EDGE('',*,*,#647,.F.);
#393=ORIENTED_EDGE('',*,*,#472,.T.);
#394=ORIENTED_EDGE('',*,*,#648,.T.);
#395=ORIENTED_EDGE('',*,*,#586,.T.);
#396=ORIENTED_EDGE('',*,*,#649,.F.);
#397=ORIENTED_EDGE('',*,*,#537,.F.);
#398=ORIENTED_EDGE('',*,*,#488,.T.);
#399=ORIENTED_EDGE('',*,*,#650,.T.);
#400=ORIENTED_EDGE('',*,*,#588,.F.);
#401=ORIENTED_EDGE('',*,*,#651,.F.);
#402=ORIENTED_EDGE('',*,*,#651,.T.);
#403=ORIENTED_EDGE('',*,*,#587,.T.);
#404=ORIENTED_EDGE('',*,*,#648,.F.);
#405=ORIENTED_EDGE('',*,*,#469,.F.);
#406=ORIENTED_EDGE('',*,*,#489,.F.);
#407=ORIENTED_EDGE('',*,*,#493,.T.);
#408=ORIENTED_EDGE('',*,*,#483,.T.);
#409=ORIENTED_EDGE('',*,*,#649,.T.);
#410=ORIENTED_EDGE('',*,*,#589,.F.);
#411=ORIENTED_EDGE('',*,*,#650,.F.);
#412=ORIENTED_EDGE('',*,*,#594,.T.);
#413=ORIENTED_EDGE('',*,*,#458,.F.);
#414=ORIENTED_EDGE('',*,*,#652,.F.);
#415=ORIENTED_EDGE('',*,*,#653,.T.);
#416=ORIENTED_EDGE('',*,*,#595,.T.);
#417=ORIENTED_EDGE('',*,*,#653,.F.);
#418=ORIENTED_EDGE('',*,*,#654,.F.);
#419=ORIENTED_EDGE('',*,*,#655,.T.);
#420=ORIENTED_EDGE('',*,*,#596,.F.);
#421=ORIENTED_EDGE('',*,*,#655,.F.);
#422=ORIENTED_EDGE('',*,*,#656,.T.);
#423=ORIENTED_EDGE('',*,*,#456,.T.);
#424=ORIENTED_EDGE('',*,*,#657,.T.);
#425=ORIENTED_EDGE('',*,*,#597,.F.);
#426=ORIENTED_EDGE('',*,*,#658,.F.);
#427=ORIENTED_EDGE('',*,*,#598,.T.);
#428=ORIENTED_EDGE('',*,*,#652,.T.);
#429=ORIENTED_EDGE('',*,*,#457,.T.);
#430=ORIENTED_EDGE('',*,*,#656,.F.);
#431=ORIENTED_EDGE('',*,*,#654,.T.);
#432=ORIENTED_EDGE('',*,*,#657,.F.);
#433=ORIENTED_EDGE('',*,*,#658,.T.);
#434=ORIENTED_EDGE('',*,*,#591,.T.);
#435=ORIENTED_EDGE('',*,*,#576,.F.);
#436=ORIENTED_EDGE('',*,*,#659,.F.);
#437=ORIENTED_EDGE('',*,*,#660,.T.);
#438=ORIENTED_EDGE('',*,*,#592,.T.);
#439=ORIENTED_EDGE('',*,*,#660,.F.);
#440=ORIENTED_EDGE('',*,*,#661,.F.);
#441=ORIENTED_EDGE('',*,*,#662,.T.);
#442=ORIENTED_EDGE('',*,*,#593,.T.);
#443=ORIENTED_EDGE('',*,*,#662,.F.);
#444=ORIENTED_EDGE('',*,*,#663,.F.);
#445=ORIENTED_EDGE('',*,*,#574,.T.);
#446=ORIENTED_EDGE('',*,*,#664,.T.);
#447=ORIENTED_EDGE('',*,*,#599,.F.);
#448=ORIENTED_EDGE('',*,*,#665,.F.);
#449=ORIENTED_EDGE('',*,*,#600,.T.);
#450=ORIENTED_EDGE('',*,*,#659,.T.);
#451=ORIENTED_EDGE('',*,*,#575,.T.);
#452=ORIENTED_EDGE('',*,*,#663,.T.);
#453=ORIENTED_EDGE('',*,*,#661,.T.);
#454=ORIENTED_EDGE('',*,*,#664,.F.);
#455=ORIENTED_EDGE('',*,*,#665,.T.);
#456=EDGE_CURVE('',#666,#667,#808,.T.);
#457=EDGE_CURVE('',#668,#666,#809,.T.);
#458=EDGE_CURVE('',#668,#669,#810,.T.);
#459=EDGE_CURVE('',#670,#669,#811,.T.);
#460=EDGE_CURVE('',#670,#671,#812,.T.);
#461=EDGE_CURVE('',#672,#671,#813,.T.);
#462=EDGE_CURVE('',#672,#673,#814,.T.);
#463=EDGE_CURVE('',#673,#674,#815,.T.);
#464=EDGE_CURVE('',#674,#675,#816,.T.);
#465=EDGE_CURVE('',#675,#676,#817,.T.);
#466=EDGE_CURVE('',#677,#676,#818,.T.);
#467=EDGE_CURVE('',#667,#677,#819,.T.);
#468=EDGE_CURVE('',#678,#679,#820,.T.);
#469=EDGE_CURVE('',#678,#680,#821,.T.);
#470=EDGE_CURVE('',#681,#680,#822,.T.);
#471=EDGE_CURVE('',#681,#682,#823,.T.);
#472=EDGE_CURVE('',#683,#682,#824,.T.);
#473=EDGE_CURVE('',#683,#684,#24,.F.);
#474=EDGE_CURVE('',#684,#685,#825,.T.);
#475=EDGE_CURVE('',#685,#686,#826,.T.);
#476=EDGE_CURVE('',#686,#687,#827,.T.);
#477=EDGE_CURVE('',#688,#687,#828,.T.);
#478=EDGE_CURVE('',#689,#688,#829,.T.);
#479=EDGE_CURVE('',#690,#689,#25,.T.);
#480=EDGE_CURVE('',#690,#691,#830,.T.);
#481=EDGE_CURVE('',#692,#691,#831,.T.);
#482=EDGE_CURVE('',#693,#692,#832,.T.);
#483=EDGE_CURVE('',#694,#693,#833,.T.);
#484=EDGE_CURVE('',#695,#694,#834,.T.);
#485=EDGE_CURVE('',#695,#696,#835,.T.);
#486=EDGE_CURVE('',#696,#697,#836,.T.);
#487=EDGE_CURVE('',#679,#697,#837,.T.);
#488=EDGE_CURVE('',#698,#699,#838,.T.);
#489=EDGE_CURVE('',#698,#678,#839,.T.);
#490=EDGE_CURVE('',#700,#679,#840,.T.);
#491=EDGE_CURVE('',#701,#700,#841,.T.);
#492=EDGE_CURVE('',#701,#695,#842,.T.);
#493=EDGE_CURVE('',#699,#694,#843,.T.);
#494=EDGE_CURVE('',#682,#702,#844,.T.);
#495=EDGE_CURVE('',#681,#703,#845,.T.);
#496=EDGE_CURVE('',#703,#702,#846,.T.);
#497=EDGE_CURVE('',#704,#705,#847,.T.);
#498=EDGE_CURVE('',#704,#688,#848,.T.);
#499=EDGE_CURVE('',#705,#687,#849,.T.);
#500=EDGE_CURVE('',#706,#707,#850,.T.);
#501=EDGE_CURVE('',#708,#707,#851,.T.);
#502=EDGE_CURVE('',#708,#709,#852,.T.);
#503=EDGE_CURVE('',#709,#710,#853,.T.);
#504=EDGE_CURVE('',#711,#710,#854,.T.);
#505=EDGE_CURVE('',#712,#711,#855,.T.);
#506=EDGE_CURVE('',#713,#712,#856,.T.);
#507=EDGE_CURVE('',#713,#706,#857,.T.);
#508=EDGE_CURVE('',#708,#714,#858,.T.);
#509=EDGE_CURVE('',#715,#707,#859,.T.);
#510=EDGE_CURVE('',#716,#715,#860,.T.);
#511=EDGE_CURVE('',#716,#717,#861,.T.);
#512=EDGE_CURVE('',#718,#717,#862,.T.);
#513=EDGE_CURVE('',#719,#718,#863,.T.);
#514=EDGE_CURVE('',#720,#719,#864,.T.);
#515=EDGE_CURVE('',#720,#721,#865,.T.);
#516=EDGE_CURVE('',#721,#722,#866,.T.);
#517=EDGE_CURVE('',#723,#722,#867,.T.);
#518=EDGE_CURVE('',#724,#723,#868,.T.);
#519=EDGE_CURVE('',#724,#677,#869,.T.);
#520=EDGE_CURVE('',#725,#676,#870,.T.);
#521=EDGE_CURVE('',#726,#725,#871,.T.);
#522=EDGE_CURVE('',#712,#726,#872,.T.);
#523=EDGE_CURVE('',#711,#727,#873,.T.);
#524=EDGE_CURVE('',#727,#705,#874,.T.);
#525=EDGE_CURVE('',#728,#686,#875,.T.);
#526=EDGE_CURVE('',#714,#728,#876,.T.);
#527=EDGE_CURVE('',#700,#729,#877,.T.);
#528=EDGE_CURVE('',#729,#697,#878,.T.);
#529=EDGE_CURVE('',#730,#696,#879,.T.);
#530=EDGE_CURVE('',#730,#729,#880,.T.);
#531=EDGE_CURVE('',#701,#730,#881,.T.);
#532=EDGE_CURVE('',#731,#714,#882,.T.);
#533=EDGE_CURVE('',#731,#709,#883,.T.);
#534=EDGE_CURVE('',#732,#710,#884,.T.);
#535=EDGE_CURVE('',#732,#727,#885,.T.);
#536=EDGE_CURVE('',#703,#731,#886,.T.);
#537=EDGE_CURVE('',#680,#693,#887,.T.);
#538=EDGE_CURVE('',#692,#733,#888,.T.);
#539=EDGE_CURVE('',#733,#732,#889,.T.);
#540=EDGE_CURVE('',#734,#675,#890,.T.);
#541=EDGE_CURVE('',#734,#725,#891,.T.);
#542=EDGE_CURVE('',#735,#736,#892,.T.);
#543=EDGE_CURVE('',#736,#737,#893,.T.);
#544=EDGE_CURVE('',#738,#737,#26,.F.);
#545=EDGE_CURVE('',#738,#739,#894,.T.);
#546=EDGE_CURVE('',#739,#720,#895,.T.);
#547=EDGE_CURVE('',#740,#719,#896,.T.);
#548=EDGE_CURVE('',#741,#740,#897,.T.);
#549=EDGE_CURVE('',#741,#742,#27,.T.);
#550=EDGE_CURVE('',#743,#742,#898,.T.);
#551=EDGE_CURVE('',#744,#743,#899,.T.);
#552=EDGE_CURVE('',#745,#744,#900,.T.);
#553=EDGE_CURVE('',#745,#746,#901,.T.);
#554=EDGE_CURVE('',#746,#747,#902,.T.);
#555=EDGE_CURVE('',#748,#747,#903,.T.);
#556=EDGE_CURVE('',#735,#748,#904,.T.);
#557=EDGE_CURVE('',#749,#750,#20,.T.);
#558=EDGE_CURVE('',#749,#751,#905,.T.);
#559=EDGE_CURVE('',#752,#751,#906,.T.);
#560=EDGE_CURVE('',#752,#753,#907,.T.);
#561=EDGE_CURVE('',#753,#722,#908,.T.);
#562=EDGE_CURVE('',#754,#721,#909,.T.);
#563=EDGE_CURVE('',#754,#750,#910,.T.);
#564=EDGE_CURVE('',#751,#736,#911,.T.);
#565=EDGE_CURVE('',#735,#752,#912,.T.);
#566=EDGE_CURVE('',#739,#754,#913,.T.);
#567=EDGE_CURVE('',#755,#718,#914,.T.);
#568=EDGE_CURVE('',#755,#740,#915,.T.);
#569=EDGE_CURVE('',#756,#753,#916,.T.);
#570=EDGE_CURVE('',#723,#756,#917,.T.);
#571=EDGE_CURVE('',#757,#758,#918,.T.);
#572=EDGE_CURVE('',#758,#717,#919,.T.);
#573=EDGE_CURVE('',#716,#757,#920,.T.);
#574=EDGE_CURVE('',#759,#760,#921,.T.);
#575=EDGE_CURVE('',#761,#759,#922,.T.);
#576=EDGE_CURVE('',#761,#762,#923,.T.);
#577=EDGE_CURVE('',#763,#762,#924,.T.);
#578=EDGE_CURVE('',#763,#764,#925,.T.);
#579=EDGE_CURVE('',#764,#706,#926,.T.);
#580=EDGE_CURVE('',#713,#765,#927,.T.);
#581=EDGE_CURVE('',#765,#734,#928,.T.);
#582=EDGE_CURVE('',#674,#766,#929,.T.);
#583=EDGE_CURVE('',#767,#766,#930,.T.);
#584=EDGE_CURVE('',#671,#767,#931,.T.);
#585=EDGE_CURVE('',#760,#670,#932,.T.);
#586=EDGE_CURVE('',#768,#769,#933,.T.);
#587=EDGE_CURVE('',#770,#768,#934,.T.);
#588=EDGE_CURVE('',#770,#771,#935,.T.);
#589=EDGE_CURVE('',#771,#769,#936,.T.);
#590=EDGE_CURVE('',#763,#724,#937,.T.);
#591=EDGE_CURVE('',#772,#762,#938,.T.);
#592=EDGE_CURVE('',#773,#772,#939,.T.);
#593=EDGE_CURVE('',#760,#773,#940,.T.);
#594=EDGE_CURVE('',#774,#669,#941,.T.);
#595=EDGE_CURVE('',#775,#774,#942,.T.);
#596=EDGE_CURVE('',#775,#667,#943,.T.);
#597=EDGE_CURVE('',#776,#776,#28,.T.);
#598=EDGE_CURVE('',#777,#777,#29,.T.);
#599=EDGE_CURVE('',#778,#778,#30,.T.);
#600=EDGE_CURVE('',#779,#779,#31,.T.);
#601=EDGE_CURVE('',#764,#715,#944,.T.);
#602=EDGE_CURVE('',#746,#780,#945,.T.);
#603=EDGE_CURVE('',#781,#780,#946,.T.);
#604=EDGE_CURVE('',#747,#781,#947,.T.);
#605=EDGE_CURVE('',#748,#782,#948,.T.);
#606=EDGE_CURVE('',#781,#782,#949,.T.);
#607=EDGE_CURVE('',#782,#783,#950,.T.);
#608=EDGE_CURVE('',#783,#784,#951,.T.);
#609=EDGE_CURVE('',#784,#785,#952,.T.);
#610=EDGE_CURVE('',#786,#785,#953,.T.);
#611=EDGE_CURVE('',#786,#787,#954,.T.);
#612=EDGE_CURVE('',#745,#787,#955,.T.);
#613=EDGE_CURVE('',#744,#788,#956,.T.);
#614=EDGE_CURVE('',#788,#758,#957,.T.);
#615=EDGE_CURVE('',#756,#757,#958,.T.);
#616=EDGE_CURVE('',#780,#787,#959,.T.);
#617=EDGE_CURVE('',#783,#789,#960,.T.);
#618=EDGE_CURVE('',#786,#790,#961,.T.);
#619=EDGE_CURVE('',#790,#789,#962,.T.);
#620=EDGE_CURVE('',#743,#791,#963,.T.);
#621=EDGE_CURVE('',#788,#791,#964,.T.);
#622=EDGE_CURVE('',#792,#793,#21,.F.);
#623=EDGE_CURVE('',#792,#755,#965,.T.);
#624=EDGE_CURVE('',#791,#793,#966,.T.);
#625=EDGE_CURVE('',#741,#792,#967,.T.);
#626=EDGE_CURVE('',#742,#793,#968,.T.);
#627=EDGE_CURVE('',#737,#749,#969,.T.);
#628=EDGE_CURVE('',#738,#750,#970,.T.);
#629=EDGE_CURVE('',#784,#767,#971,.T.);
#630=EDGE_CURVE('',#785,#766,#972,.T.);
#631=EDGE_CURVE('',#672,#789,#973,.T.);
#632=EDGE_CURVE('',#673,#790,#974,.T.);
#633=EDGE_CURVE('',#765,#726,#975,.T.);
#634=EDGE_CURVE('',#794,#795,#976,.T.);
#635=EDGE_CURVE('',#794,#796,#22,.F.);
#636=EDGE_CURVE('',#796,#704,#977,.T.);
#637=EDGE_CURVE('',#733,#795,#978,.T.);
#638=EDGE_CURVE('',#795,#691,#979,.T.);
#639=EDGE_CURVE('',#685,#797,#980,.T.);
#640=EDGE_CURVE('',#797,#728,#981,.T.);
#641=EDGE_CURVE('',#797,#798,#982,.T.);
#642=EDGE_CURVE('',#798,#799,#23,.T.);
#643=EDGE_CURVE('',#702,#799,#983,.T.);
#644=EDGE_CURVE('',#689,#796,#984,.T.);
#645=EDGE_CURVE('',#690,#794,#985,.T.);
#646=EDGE_CURVE('',#684,#798,#986,.T.);
#647=EDGE_CURVE('',#683,#799,#987,.T.);
#648=EDGE_CURVE('',#680,#768,#988,.T.);
#649=EDGE_CURVE('',#693,#769,#989,.T.);
#650=EDGE_CURVE('',#699,#771,#990,.T.);
#651=EDGE_CURVE('',#698,#770,#991,.T.);
#652=EDGE_CURVE('',#800,#668,#992,.T.);
#653=EDGE_CURVE('',#800,#774,#993,.T.);
#654=EDGE_CURVE('',#801,#800,#994,.T.);
#655=EDGE_CURVE('',#801,#775,#995,.T.);
#656=EDGE_CURVE('',#801,#666,#996,.T.);
#657=EDGE_CURVE('',#802,#802,#32,.T.);
#658=EDGE_CURVE('',#803,#803,#33,.T.);
#659=EDGE_CURVE('',#804,#761,#997,.T.);
#660=EDGE_CURVE('',#804,#772,#998,.T.);
#661=EDGE_CURVE('',#805,#804,#999,.T.);
#662=EDGE_CURVE('',#805,#773,#1000,.T.);
#663=EDGE_CURVE('',#759,#805,#1001,.T.);
#664=EDGE_CURVE('',#806,#806,#34,.T.);
#665=EDGE_CURVE('',#807,#807,#35,.T.);
#666=VERTEX_POINT('',#1971);
#667=VERTEX_POINT('',#1972);
#668=VERTEX_POINT('',#1974);
#669=VERTEX_POINT('',#1976);
#670=VERTEX_POINT('',#1978);
#671=VERTEX_POINT('',#1980);
#672=VERTEX_POINT('',#1982);
#673=VERTEX_POINT('',#1984);
#674=VERTEX_POINT('',#1986);
#675=VERTEX_POINT('',#1988);
#676=VERTEX_POINT('',#1990);
#677=VERTEX_POINT('',#1992);
#678=VERTEX_POINT('',#1996);
#679=VERTEX_POINT('',#1997);
#680=VERTEX_POINT('',#1999);
#681=VERTEX_POINT('',#2001);
#682=VERTEX_POINT('',#2003);
#683=VERTEX_POINT('',#2005);
#684=VERTEX_POINT('',#2007);
#685=VERTEX_POINT('',#2009);
#686=VERTEX_POINT('',#2011);
#687=VERTEX_POINT('',#2013);
#688=VERTEX_POINT('',#2015);
#689=VERTEX_POINT('',#2017);
#690=VERTEX_POINT('',#2019);
#691=VERTEX_POINT('',#2021);
#692=VERTEX_POINT('',#2023);
#693=VERTEX_POINT('',#2025);
#694=VERTEX_POINT('',#2027);
#695=VERTEX_POINT('',#2029);
#696=VERTEX_POINT('',#2031);
#697=VERTEX_POINT('',#2033);
#698=VERTEX_POINT('',#2037);
#699=VERTEX_POINT('',#2038);
#700=VERTEX_POINT('',#2041);
#701=VERTEX_POINT('',#2043);
#702=VERTEX_POINT('',#2048);
#703=VERTEX_POINT('',#2050);
#704=VERTEX_POINT('',#2054);
#705=VERTEX_POINT('',#2055);
#706=VERTEX_POINT('',#2060);
#707=VERTEX_POINT('',#2061);
#708=VERTEX_POINT('',#2063);
#709=VERTEX_POINT('',#2065);
#710=VERTEX_POINT('',#2067);
#711=VERTEX_POINT('',#2069);
#712=VERTEX_POINT('',#2071);
#713=VERTEX_POINT('',#2073);
#714=VERTEX_POINT('',#2077);
#715=VERTEX_POINT('',#2079);
#716=VERTEX_POINT('',#2081);
#717=VERTEX_POINT('',#2083);
#718=VERTEX_POINT('',#2085);
#719=VERTEX_POINT('',#2087);
#720=VERTEX_POINT('',#2089);
#721=VERTEX_POINT('',#2091);
#722=VERTEX_POINT('',#2093);
#723=VERTEX_POINT('',#2095);
#724=VERTEX_POINT('',#2097);
#725=VERTEX_POINT('',#2100);
#726=VERTEX_POINT('',#2102);
#727=VERTEX_POINT('',#2105);
#728=VERTEX_POINT('',#2108);
#729=VERTEX_POINT('',#2112);
#730=VERTEX_POINT('',#2116);
#731=VERTEX_POINT('',#2123);
#732=VERTEX_POINT('',#2127);
#733=VERTEX_POINT('',#2133);
#734=VERTEX_POINT('',#2137);
#735=VERTEX_POINT('',#2141);
#736=VERTEX_POINT('',#2142);
#737=VERTEX_POINT('',#2144);
#738=VERTEX_POINT('',#2146);
#739=VERTEX_POINT('',#2148);
#740=VERTEX_POINT('',#2151);
#741=VERTEX_POINT('',#2153);
#742=VERTEX_POINT('',#2155);
#743=VERTEX_POINT('',#2157);
#744=VERTEX_POINT('',#2159);
#745=VERTEX_POINT('',#2161);
#746=VERTEX_POINT('',#2163);
#747=VERTEX_POINT('',#2165);
#748=VERTEX_POINT('',#2167);
#749=VERTEX_POINT('',#2171);
#750=VERTEX_POINT('',#2172);
#751=VERTEX_POINT('',#2174);
#752=VERTEX_POINT('',#2176);
#753=VERTEX_POINT('',#2178);
#754=VERTEX_POINT('',#2181);
#755=VERTEX_POINT('',#2190);
#756=VERTEX_POINT('',#2194);
#757=VERTEX_POINT('',#2198);
#758=VERTEX_POINT('',#2199);
#759=VERTEX_POINT('',#2204);
#760=VERTEX_POINT('',#2205);
#761=VERTEX_POINT('',#2207);
#762=VERTEX_POINT('',#2209);
#763=VERTEX_POINT('',#2211);
#764=VERTEX_POINT('',#2213);
#765=VERTEX_POINT('',#2216);
#766=VERTEX_POINT('',#2219);
#767=VERTEX_POINT('',#2221);
#768=VERTEX_POINT('',#2225);
#769=VERTEX_POINT('',#2226);
#770=VERTEX_POINT('',#2228);
#771=VERTEX_POINT('',#2230);
#772=VERTEX_POINT('',#2235);
#773=VERTEX_POINT('',#2237);
#774=VERTEX_POINT('',#2240);
#775=VERTEX_POINT('',#2242);
#776=VERTEX_POINT('',#2245);
#777=VERTEX_POINT('',#2247);
#778=VERTEX_POINT('',#2249);
#779=VERTEX_POINT('',#2251);
#780=VERTEX_POINT('',#2256);
#781=VERTEX_POINT('',#2258);
#782=VERTEX_POINT('',#2262);
#783=VERTEX_POINT('',#2266);
#784=VERTEX_POINT('',#2268);
#785=VERTEX_POINT('',#2270);
#786=VERTEX_POINT('',#2272);
#787=VERTEX_POINT('',#2274);
#788=VERTEX_POINT('',#2277);
#789=VERTEX_POINT('',#2285);
#790=VERTEX_POINT('',#2287);
#791=VERTEX_POINT('',#2291);
#792=VERTEX_POINT('',#2295);
#793=VERTEX_POINT('',#2296);
#794=VERTEX_POINT('',#2322);
#795=VERTEX_POINT('',#2323);
#796=VERTEX_POINT('',#2325);
#797=VERTEX_POINT('',#2332);
#798=VERTEX_POINT('',#2336);
#799=VERTEX_POINT('',#2338);
#800=VERTEX_POINT('',#2360);
#801=VERTEX_POINT('',#2364);
#802=VERTEX_POINT('',#2370);
#803=VERTEX_POINT('',#2373);
#804=VERTEX_POINT('',#2377);
#805=VERTEX_POINT('',#2381);
#806=VERTEX_POINT('',#2387);
#807=VERTEX_POINT('',#2390);
#808=LINE('',#1970,#1002);
#809=LINE('',#1973,#1003);
#810=LINE('',#1975,#1004);
#811=LINE('',#1977,#1005);
#812=LINE('',#1979,#1006);
#813=LINE('',#1981,#1007);
#814=LINE('',#1983,#1008);
#815=LINE('',#1985,#1009);
#816=LINE('',#1987,#1010);
#817=LINE('',#1989,#1011);
#818=LINE('',#1991,#1012);
#819=LINE('',#1993,#1013);
#820=LINE('',#1995,#1014);
#821=LINE('',#1998,#1015);
#822=LINE('',#2000,#1016);
#823=LINE('',#2002,#1017);
#824=LINE('',#2004,#1018);
#825=LINE('',#2008,#1019);
#826=LINE('',#2010,#1020);
#827=LINE('',#2012,#1021);
#828=LINE('',#2014,#1022);
#829=LINE('',#2016,#1023);
#830=LINE('',#2020,#1024);
#831=LINE('',#2022,#1025);
#832=LINE('',#2024,#1026);
#833=LINE('',#2026,#1027);
#834=LINE('',#2028,#1028);
#835=LINE('',#2030,#1029);
#836=LINE('',#2032,#1030);
#837=LINE('',#2034,#1031);
#838=LINE('',#2036,#1032);
#839=LINE('',#2039,#1033);
#840=LINE('',#2040,#1034);
#841=LINE('',#2042,#1035);
#842=LINE('',#2044,#1036);
#843=LINE('',#2045,#1037);
#844=LINE('',#2047,#1038);
#845=LINE('',#2049,#1039);
#846=LINE('',#2051,#1040);
#847=LINE('',#2053,#1041);
#848=LINE('',#2056,#1042);
#849=LINE('',#2057,#1043);
#850=LINE('',#2059,#1044);
#851=LINE('',#2062,#1045);
#852=LINE('',#2064,#1046);
#853=LINE('',#2066,#1047);
#854=LINE('',#2068,#1048);
#855=LINE('',#2070,#1049);
#856=LINE('',#2072,#1050);
#857=LINE('',#2074,#1051);
#858=LINE('',#2076,#1052);
#859=LINE('',#2078,#1053);
#860=LINE('',#2080,#1054);
#861=LINE('',#2082,#1055);
#862=LINE('',#2084,#1056);
#863=LINE('',#2086,#1057);
#864=LINE('',#2088,#1058);
#865=LINE('',#2090,#1059);
#866=LINE('',#2092,#1060);
#867=LINE('',#2094,#1061);
#868=LINE('',#2096,#1062);
#869=LINE('',#2098,#1063);
#870=LINE('',#2099,#1064);
#871=LINE('',#2101,#1065);
#872=LINE('',#2103,#1066);
#873=LINE('',#2104,#1067);
#874=LINE('',#2106,#1068);
#875=LINE('',#2107,#1069);
#876=LINE('',#2109,#1070);
#877=LINE('',#2111,#1071);
#878=LINE('',#2113,#1072);
#879=LINE('',#2115,#1073);
#880=LINE('',#2117,#1074);
#881=LINE('',#2119,#1075);
#882=LINE('',#2122,#1076);
#883=LINE('',#2124,#1077);
#884=LINE('',#2126,#1078);
#885=LINE('',#2128,#1079);
#886=LINE('',#2130,#1080);
#887=LINE('',#2131,#1081);
#888=LINE('',#2132,#1082);
#889=LINE('',#2134,#1083);
#890=LINE('',#2136,#1084);
#891=LINE('',#2138,#1085);
#892=LINE('',#2140,#1086);
#893=LINE('',#2143,#1087);
#894=LINE('',#2147,#1088);
#895=LINE('',#2149,#1089);
#896=LINE('',#2150,#1090);
#897=LINE('',#2152,#1091);
#898=LINE('',#2156,#1092);
#899=LINE('',#2158,#1093);
#900=LINE('',#2160,#1094);
#901=LINE('',#2162,#1095);
#902=LINE('',#2164,#1096);
#903=LINE('',#2166,#1097);
#904=LINE('',#2168,#1098);
#905=LINE('',#2173,#1099);
#906=LINE('',#2175,#1100);
#907=LINE('',#2177,#1101);
#908=LINE('',#2179,#1102);
#909=LINE('',#2180,#1103);
#910=LINE('',#2182,#1104);
#911=LINE('',#2184,#1105);
#912=LINE('',#2185,#1106);
#913=LINE('',#2187,#1107);
#914=LINE('',#2189,#1108);
#915=LINE('',#2191,#1109);
#916=LINE('',#2193,#1110);
#917=LINE('',#2195,#1111);
#918=LINE('',#2197,#1112);
#919=LINE('',#2200,#1113);
#920=LINE('',#2201,#1114);
#921=LINE('',#2203,#1115);
#922=LINE('',#2206,#1116);
#923=LINE('',#2208,#1117);
#924=LINE('',#2210,#1118);
#925=LINE('',#2212,#1119);
#926=LINE('',#2214,#1120);
#927=LINE('',#2215,#1121);
#928=LINE('',#2217,#1122);
#929=LINE('',#2218,#1123);
#930=LINE('',#2220,#1124);
#931=LINE('',#2222,#1125);
#932=LINE('',#2223,#1126);
#933=LINE('',#2224,#1127);
#934=LINE('',#2227,#1128);
#935=LINE('',#2229,#1129);
#936=LINE('',#2231,#1130);
#937=LINE('',#2233,#1131);
#938=LINE('',#2234,#1132);
#939=LINE('',#2236,#1133);
#940=LINE('',#2238,#1134);
#941=LINE('',#2239,#1135);
#942=LINE('',#2241,#1136);
#943=LINE('',#2243,#1137);
#944=LINE('',#2253,#1138);
#945=LINE('',#2255,#1139);
#946=LINE('',#2257,#1140);
#947=LINE('',#2259,#1141);
#948=LINE('',#2261,#1142);
#949=LINE('',#2263,#1143);
#950=LINE('',#2265,#1144);
#951=LINE('',#2267,#1145);
#952=LINE('',#2269,#1146);
#953=LINE('',#2271,#1147);
#954=LINE('',#2273,#1148);
#955=LINE('',#2275,#1149);
#956=LINE('',#2276,#1150);
#957=LINE('',#2278,#1151);
#958=LINE('',#2279,#1152);
#959=LINE('',#2281,#1153);
#960=LINE('',#2284,#1154);
#961=LINE('',#2286,#1155);
#962=LINE('',#2288,#1156);
#963=LINE('',#2290,#1157);
#964=LINE('',#2292,#1158);
#965=LINE('',#2297,#1159);
#966=LINE('',#2298,#1160);
#967=LINE('',#2300,#1161);
#968=LINE('',#2302,#1162);
#969=LINE('',#2305,#1163);
#970=LINE('',#2307,#1164);
#971=LINE('',#2310,#1165);
#972=LINE('',#2311,#1166);
#973=LINE('',#2313,#1167);
#974=LINE('',#2315,#1168);
#975=LINE('',#2318,#1169);
#976=LINE('',#2321,#1170);
#977=LINE('',#2326,#1171);
#978=LINE('',#2327,#1172);
#979=LINE('',#2329,#1173);
#980=LINE('',#2331,#1174);
#981=LINE('',#2333,#1175);
#982=LINE('',#2335,#1176);
#983=LINE('',#2339,#1177);
#984=LINE('',#2341,#1178);
#985=LINE('',#2343,#1179);
#986=LINE('',#2346,#1180);
#987=LINE('',#2347,#1181);
#988=LINE('',#2351,#1182);
#989=LINE('',#2352,#1183);
#990=LINE('',#2354,#1184);
#991=LINE('',#2355,#1185);
#992=LINE('',#2359,#1186);
#993=LINE('',#2361,#1187);
#994=LINE('',#2363,#1188);
#995=LINE('',#2365,#1189);
#996=LINE('',#2367,#1190);
#997=LINE('',#2376,#1191);
#998=LINE('',#2378,#1192);
#999=LINE('',#2380,#1193);
#1000=LINE('',#2382,#1194);
#1001=LINE('',#2384,#1195);
#1002=VECTOR('',#1602,1.);
#1003=VECTOR('',#1603,1.);
#1004=VECTOR('',#1604,1.);
#1005=VECTOR('',#1605,1.);
#1006=VECTOR('',#1606,1.);
#1007=VECTOR('',#1607,1.);
#1008=VECTOR('',#1608,1.);
#1009=VECTOR('',#1609,1.);
#1010=VECTOR('',#1610,1.);
#1011=VECTOR('',#1611,1.);
#1012=VECTOR('',#1612,1.);
#1013=VECTOR('',#1613,1.);
#1014=VECTOR('',#1616,1.);
#1015=VECTOR('',#1617,1.);
#1016=VECTOR('',#1618,1.);
#1017=VECTOR('',#1619,1.);
#1018=VECTOR('',#1620,1.);
#1019=VECTOR('',#1623,1.);
#1020=VECTOR('',#1624,1.);
#1021=VECTOR('',#1625,1.);
#1022=VECTOR('',#1626,1.);
#1023=VECTOR('',#1627,1.);
#1024=VECTOR('',#1630,1.);
#1025=VECTOR('',#1631,1.);
#1026=VECTOR('',#1632,1.);
#1027=VECTOR('',#1633,1.);
#1028=VECTOR('',#1634,1.);
#1029=VECTOR('',#1635,1.);
#1030=VECTOR('',#1636,1.);
#1031=VECTOR('',#1637,1.);
#1032=VECTOR('',#1640,1.);
#1033=VECTOR('',#1641,1.);
#1034=VECTOR('',#1642,1.);
#1035=VECTOR('',#1643,1.);
#1036=VECTOR('',#1644,1.);
#1037=VECTOR('',#1645,1.);
#1038=VECTOR('',#1648,1.);
#1039=VECTOR('',#1649,1.);
#1040=VECTOR('',#1650,1.);
#1041=VECTOR('',#1653,1.);
#1042=VECTOR('',#1654,1.);
#1043=VECTOR('',#1655,1.);
#1044=VECTOR('',#1658,1.);
#1045=VECTOR('',#1659,1.);
#1046=VECTOR('',#1660,1.);
#1047=VECTOR('',#1661,1.);
#1048=VECTOR('',#1662,1.);
#1049=VECTOR('',#1663,1.);
#1050=VECTOR('',#1664,1.);
#1051=VECTOR('',#1665,1.);
#1052=VECTOR('',#1668,1.);
#1053=VECTOR('',#1669,1.);
#1054=VECTOR('',#1670,1.);
#1055=VECTOR('',#1671,1.);
#1056=VECTOR('',#1672,1.);
#1057=VECTOR('',#1673,1.);
#1058=VECTOR('',#1674,1.);
#1059=VECTOR('',#1675,1.);
#1060=VECTOR('',#1676,1.);
#1061=VECTOR('',#1677,1.);
#1062=VECTOR('',#1678,1.);
#1063=VECTOR('',#1679,1.);
#1064=VECTOR('',#1680,1.);
#1065=VECTOR('',#1681,1.);
#1066=VECTOR('',#1682,1.);
#1067=VECTOR('',#1683,1.);
#1068=VECTOR('',#1684,1.);
#1069=VECTOR('',#1685,1.);
#1070=VECTOR('',#1686,1.);
#1071=VECTOR('',#1689,1.);
#1072=VECTOR('',#1690,1.);
#1073=VECTOR('',#1693,1.);
#1074=VECTOR('',#1694,1.);
#1075=VECTOR('',#1697,1.);
#1076=VECTOR('',#1702,1.);
#1077=VECTOR('',#1703,1.);
#1078=VECTOR('',#1706,1.);
#1079=VECTOR('',#1707,1.);
#1080=VECTOR('',#1710,1.);
#1081=VECTOR('',#1711,1.);
#1082=VECTOR('',#1712,1.);
#1083=VECTOR('',#1713,1.);
#1084=VECTOR('',#1716,1.);
#1085=VECTOR('',#1717,1.);
#1086=VECTOR('',#1720,1.);
#1087=VECTOR('',#1721,1.);
#1088=VECTOR('',#1724,1.);
#1089=VECTOR('',#1725,1.);
#1090=VECTOR('',#1726,1.);
#1091=VECTOR('',#1727,1.);
#1092=VECTOR('',#1730,1.);
#1093=VECTOR('',#1731,1.);
#1094=VECTOR('',#1732,1.);
#1095=VECTOR('',#1733,1.);
#1096=VECTOR('',#1734,1.);
#1097=VECTOR('',#1735,1.);
#1098=VECTOR('',#1736,1.);
#1099=VECTOR('',#1741,1.);
#1100=VECTOR('',#1742,1.);
#1101=VECTOR('',#1743,1.);
#1102=VECTOR('',#1744,1.);
#1103=VECTOR('',#1745,1.);
#1104=VECTOR('',#1746,1.);
#1105=VECTOR('',#1749,1.);
#1106=VECTOR('',#1750,1.);
#1107=VECTOR('',#1753,1.);
#1108=VECTOR('',#1756,1.);
#1109=VECTOR('',#1757,1.);
#1110=VECTOR('',#1760,1.);
#1111=VECTOR('',#1761,1.);
#1112=VECTOR('',#1764,1.);
#1113=VECTOR('',#1765,1.);
#1114=VECTOR('',#1766,1.);
#1115=VECTOR('',#1769,1.);
#1116=VECTOR('',#1770,1.);
#1117=VECTOR('',#1771,1.);
#1118=VECTOR('',#1772,1.);
#1119=VECTOR('',#1773,1.);
#1120=VECTOR('',#1774,1.);
#1121=VECTOR('',#1775,1.);
#1122=VECTOR('',#1776,1.);
#1123=VECTOR('',#1777,1.);
#1124=VECTOR('',#1778,1.);
#1125=VECTOR('',#1779,1.);
#1126=VECTOR('',#1780,1.);
#1127=VECTOR('',#1781,1.);
#1128=VECTOR('',#1782,1.);
#1129=VECTOR('',#1783,1.);
#1130=VECTOR('',#1784,1.);
#1131=VECTOR('',#1787,1.);
#1132=VECTOR('',#1788,1.);
#1133=VECTOR('',#1789,1.);
#1134=VECTOR('',#1790,1.);
#1135=VECTOR('',#1791,1.);
#1136=VECTOR('',#1792,1.);
#1137=VECTOR('',#1793,1.);
#1138=VECTOR('',#1804,1.);
#1139=VECTOR('',#1807,1.);
#1140=VECTOR('',#1808,1.);
#1141=VECTOR('',#1809,1.);
#1142=VECTOR('',#1812,1.);
#1143=VECTOR('',#1813,1.);
#1144=VECTOR('',#1816,1.);
#1145=VECTOR('',#1817,1.);
#1146=VECTOR('',#1818,1.);
#1147=VECTOR('',#1819,1.);
#1148=VECTOR('',#1820,1.);
#1149=VECTOR('',#1821,1.);
#1150=VECTOR('',#1822,1.);
#1151=VECTOR('',#1823,1.);
#1152=VECTOR('',#1824,1.);
#1153=VECTOR('',#1827,1.);
#1154=VECTOR('',#1832,1.);
#1155=VECTOR('',#1833,1.);
#1156=VECTOR('',#1834,1.);
#1157=VECTOR('',#1837,1.);
#1158=VECTOR('',#1838,1.);
#1159=VECTOR('',#1843,1.);
#1160=VECTOR('',#1844,1.);
#1161=VECTOR('',#1847,1.);
#1162=VECTOR('',#1850,1.);
#1163=VECTOR('',#1855,1.);
#1164=VECTOR('',#1858,1.);
#1165=VECTOR('',#1863,1.);
#1166=VECTOR('',#1864,1.);
#1167=VECTOR('',#1867,1.);
#1168=VECTOR('',#1870,1.);
#1169=VECTOR('',#1875,1.);
#1170=VECTOR('',#1880,1.);
#1171=VECTOR('',#1883,1.);
#1172=VECTOR('',#1884,1.);
#1173=VECTOR('',#1887,1.);
#1174=VECTOR('',#1890,1.);
#1175=VECTOR('',#1891,1.);
#1176=VECTOR('',#1894,1.);
#1177=VECTOR('',#1897,1.);
#1178=VECTOR('',#1900,1.);
#1179=VECTOR('',#1903,1.);
#1180=VECTOR('',#1908,1.);
#1181=VECTOR('',#1909,1.);
#1182=VECTOR('',#1916,1.);
#1183=VECTOR('',#1917,1.);
#1184=VECTOR('',#1920,1.);
#1185=VECTOR('',#1921,1.);
#1186=VECTOR('',#1928,1.);
#1187=VECTOR('',#1929,1.);
#1188=VECTOR('',#1932,1.);
#1189=VECTOR('',#1933,1.);
#1190=VECTOR('',#1936,1.);
#1191=VECTOR('',#1949,1.);
#1192=VECTOR('',#1950,1.);
#1193=VECTOR('',#1953,1.);
#1194=VECTOR('',#1954,1.);
#1195=VECTOR('',#1957,1.);
#1196=EDGE_LOOP('',(#36,#37,#38,#39,#40,#41,#42,#43,#44,#45,#46,#47));
#1197=EDGE_LOOP('',(#48,#49,#50,#51,#52,#53,#54,#55,#56,#57,#58,#59,#60,
#61,#62,#63,#64,#65,#66,#67));
#1198=EDGE_LOOP('',(#68,#69,#70,#71,#72,#73,#74,#75));
#1199=EDGE_LOOP('',(#76,#77,#78,#79));
#1200=EDGE_LOOP('',(#80,#81,#82,#83));
#1201=EDGE_LOOP('',(#84,#85,#86,#87,#88,#89,#90,#91));
#1202=EDGE_LOOP('',(#92,#93,#94,#95,#96,#97,#98,#99,#100,#101,#102,#103,
#104,#105,#106,#107,#108,#109,#110,#111,#112,#113,#114,#115));
#1203=EDGE_LOOP('',(#116,#117,#118,#119));
#1204=EDGE_LOOP('',(#120,#121,#122,#123));
#1205=EDGE_LOOP('',(#124,#125,#126,#127));
#1206=EDGE_LOOP('',(#128,#129,#130,#131));
#1207=EDGE_LOOP('',(#132,#133,#134,#135));
#1208=EDGE_LOOP('',(#136,#137,#138,#139));
#1209=EDGE_LOOP('',(#140,#141,#142,#143,#144,#145,#146,#147,#148,#149));
#1210=EDGE_LOOP('',(#150,#151,#152,#153));
#1211=EDGE_LOOP('',(#154,#155,#156,#157,#158,#159,#160,#161,#162,#163,#164,
#165,#166,#167,#168,#169));
#1212=EDGE_LOOP('',(#170,#171,#172,#173,#174,#175,#176,#177));
#1213=EDGE_LOOP('',(#178,#179,#180,#181));
#1214=EDGE_LOOP('',(#182,#183,#184,#185));
#1215=EDGE_LOOP('',(#186,#187,#188,#189));
#1216=EDGE_LOOP('',(#190,#191,#192,#193));
#1217=EDGE_LOOP('',(#194,#195,#196,#197));
#1218=EDGE_LOOP('',(#198,#199,#200,#201,#202,#203,#204,#205,#206,#207,#208,
#209,#210,#211,#212,#213));
#1219=EDGE_LOOP('',(#214,#215,#216,#217));
#1220=EDGE_LOOP('',(#218,#219,#220,#221,#222,#223,#224,#225,#226,#227,#228,
#229));
#1221=EDGE_LOOP('',(#230));
#1222=EDGE_LOOP('',(#231));
#1223=EDGE_LOOP('',(#232));
#1224=EDGE_LOOP('',(#233));
#1225=EDGE_LOOP('',(#234,#235,#236,#237));
#1226=EDGE_LOOP('',(#238,#239,#240,#241));
#1227=EDGE_LOOP('',(#242,#243,#244,#245));
#1228=EDGE_LOOP('',(#246,#247,#248,#249,#250,#251,#252,#253,#254,#255,#256,
#257,#258,#259,#260,#261));
#1229=EDGE_LOOP('',(#262,#263,#264,#265));
#1230=EDGE_LOOP('',(#266,#267,#268,#269,#270,#271,#272,#273));
#1231=EDGE_LOOP('',(#274,#275,#276,#277,#278,#279,#280,#281));
#1232=EDGE_LOOP('',(#282,#283,#284,#285));
#1233=EDGE_LOOP('',(#286,#287,#288,#289,#290,#291,#292,#293));
#1234=EDGE_LOOP('',(#294,#295,#296,#297));
#1235=EDGE_LOOP('',(#298,#299,#300,#301));
#1236=EDGE_LOOP('',(#302,#303,#304,#305));
#1237=EDGE_LOOP('',(#306,#307,#308,#309));
#1238=EDGE_LOOP('',(#310,#311,#312,#313));
#1239=EDGE_LOOP('',(#314,#315,#316,#317));
#1240=EDGE_LOOP('',(#318,#319,#320,#321));
#1241=EDGE_LOOP('',(#322,#323,#324,#325,#326,#327));
#1242=EDGE_LOOP('',(#328,#329,#330,#331,#332,#333));
#1243=EDGE_LOOP('',(#334,#335,#336,#337));
#1244=EDGE_LOOP('',(#338,#339,#340,#341));
#1245=EDGE_LOOP('',(#342,#343,#344,#345));
#1246=EDGE_LOOP('',(#346,#347,#348,#349,#350,#351,#352,#353));
#1247=EDGE_LOOP('',(#354,#355,#356,#357));
#1248=EDGE_LOOP('',(#358,#359,#360,#361));
#1249=EDGE_LOOP('',(#362,#363,#364,#365,#366,#367,#368,#369));
#1250=EDGE_LOOP('',(#370,#371,#372,#373));
#1251=EDGE_LOOP('',(#374,#375,#376,#377));
#1252=EDGE_LOOP('',(#378,#379,#380,#381));
#1253=EDGE_LOOP('',(#382,#383,#384,#385));
#1254=EDGE_LOOP('',(#386,#387,#388,#389));
#1255=EDGE_LOOP('',(#390,#391,#392,#393));
#1256=EDGE_LOOP('',(#394,#395,#396,#397));
#1257=EDGE_LOOP('',(#398,#399,#400,#401));
#1258=EDGE_LOOP('',(#402,#403,#404,#405,#406));
#1259=EDGE_LOOP('',(#407,#408,#409,#410,#411));
#1260=EDGE_LOOP('',(#412,#413,#414,#415));
#1261=EDGE_LOOP('',(#416,#417,#418,#419));
#1262=EDGE_LOOP('',(#420,#421,#422,#423));
#1263=EDGE_LOOP('',(#424));
#1264=EDGE_LOOP('',(#425));
#1265=EDGE_LOOP('',(#426));
#1266=EDGE_LOOP('',(#427));
#1267=EDGE_LOOP('',(#428,#429,#430,#431));
#1268=EDGE_LOOP('',(#432));
#1269=EDGE_LOOP('',(#433));
#1270=EDGE_LOOP('',(#434,#435,#436,#437));
#1271=EDGE_LOOP('',(#438,#439,#440,#441));
#1272=EDGE_LOOP('',(#442,#443,#444,#445));
#1273=EDGE_LOOP('',(#446));
#1274=EDGE_LOOP('',(#447));
#1275=EDGE_LOOP('',(#448));
#1276=EDGE_LOOP('',(#449));
#1277=EDGE_LOOP('',(#450,#451,#452,#453));
#1278=EDGE_LOOP('',(#454));
#1279=EDGE_LOOP('',(#455));
#1280=FACE_BOUND('',#1196,.T.);
#1281=FACE_BOUND('',#1197,.T.);
#1282=FACE_BOUND('',#1198,.T.);
#1283=FACE_BOUND('',#1199,.T.);
#1284=FACE_BOUND('',#1200,.T.);
#1285=FACE_BOUND('',#1201,.T.);
#1286=FACE_BOUND('',#1202,.T.);
#1287=FACE_BOUND('',#1203,.T.);
#1288=FACE_BOUND('',#1204,.T.);
#1289=FACE_BOUND('',#1205,.T.);
#1290=FACE_BOUND('',#1206,.T.);
#1291=FACE_BOUND('',#1207,.T.);
#1292=FACE_BOUND('',#1208,.T.);
#1293=FACE_BOUND('',#1209,.T.);
#1294=FACE_BOUND('',#1210,.T.);
#1295=FACE_BOUND('',#1211,.T.);
#1296=FACE_BOUND('',#1212,.T.);
#1297=FACE_BOUND('',#1213,.T.);
#1298=FACE_BOUND('',#1214,.T.);
#1299=FACE_BOUND('',#1215,.T.);
#1300=FACE_BOUND('',#1216,.T.);
#1301=FACE_BOUND('',#1217,.T.);
#1302=FACE_BOUND('',#1218,.T.);
#1303=FACE_BOUND('',#1219,.T.);
#1304=FACE_BOUND('',#1220,.T.);
#1305=FACE_BOUND('',#1221,.T.);
#1306=FACE_BOUND('',#1222,.T.);
#1307=FACE_BOUND('',#1223,.T.);
#1308=FACE_BOUND('',#1224,.T.);
#1309=FACE_BOUND('',#1225,.T.);
#1310=FACE_BOUND('',#1226,.T.);
#1311=FACE_BOUND('',#1227,.T.);
#1312=FACE_BOUND('',#1228,.T.);
#1313=FACE_BOUND('',#1229,.T.);
#1314=FACE_BOUND('',#1230,.T.);
#1315=FACE_BOUND('',#1231,.T.);
#1316=FACE_BOUND('',#1232,.T.);
#1317=FACE_BOUND('',#1233,.T.);
#1318=FACE_BOUND('',#1234,.T.);
#1319=FACE_BOUND('',#1235,.T.);
#1320=FACE_BOUND('',#1236,.T.);
#1321=FACE_BOUND('',#1237,.T.);
#1322=FACE_BOUND('',#1238,.T.);
#1323=FACE_BOUND('',#1239,.T.);
#1324=FACE_BOUND('',#1240,.T.);
#1325=FACE_BOUND('',#1241,.T.);
#1326=FACE_BOUND('',#1242,.T.);
#1327=FACE_BOUND('',#1243,.T.);
#1328=FACE_BOUND('',#1244,.T.);
#1329=FACE_BOUND('',#1245,.T.);
#1330=FACE_BOUND('',#1246,.T.);
#1331=FACE_BOUND('',#1247,.T.);
#1332=FACE_BOUND('',#1248,.T.);
#1333=FACE_BOUND('',#1249,.T.);
#1334=FACE_BOUND('',#1250,.T.);
#1335=FACE_BOUND('',#1251,.T.);
#1336=FACE_BOUND('',#1252,.T.);
#1337=FACE_BOUND('',#1253,.T.);
#1338=FACE_BOUND('',#1254,.T.);
#1339=FACE_BOUND('',#1255,.T.);
#1340=FACE_BOUND('',#1256,.T.);
#1341=FACE_BOUND('',#1257,.T.);
#1342=FACE_BOUND('',#1258,.T.);
#1343=FACE_BOUND('',#1259,.T.);
#1344=FACE_BOUND('',#1260,.T.);
#1345=FACE_BOUND('',#1261,.T.);
#1346=FACE_BOUND('',#1262,.T.);
#1347=FACE_BOUND('',#1263,.T.);
#1348=FACE_BOUND('',#1264,.T.);
#1349=FACE_BOUND('',#1265,.T.);
#1350=FACE_BOUND('',#1266,.T.);
#1351=FACE_BOUND('',#1267,.T.);
#1352=FACE_BOUND('',#1268,.T.);
#1353=FACE_BOUND('',#1269,.T.);
#1354=FACE_BOUND('',#1270,.T.);
#1355=FACE_BOUND('',#1271,.T.);
#1356=FACE_BOUND('',#1272,.T.);
#1357=FACE_BOUND('',#1273,.T.);
#1358=FACE_BOUND('',#1274,.T.);
#1359=FACE_BOUND('',#1275,.T.);
#1360=FACE_BOUND('',#1276,.T.);
#1361=FACE_BOUND('',#1277,.T.);
#1362=FACE_BOUND('',#1278,.T.);
#1363=FACE_BOUND('',#1279,.T.);
#1364=PLANE('',#1511);
#1365=PLANE('',#1512);
#1366=PLANE('',#1515);
#1367=PLANE('',#1516);
#1368=PLANE('',#1517);
#1369=PLANE('',#1518);
#1370=PLANE('',#1519);
#1371=PLANE('',#1520);
#1372=PLANE('',#1521);
#1373=PLANE('',#1522);
#1374=PLANE('',#1523);
#1375=PLANE('',#1524);
#1376=PLANE('',#1525);
#1377=PLANE('',#1526);
#1378=PLANE('',#1527);
#1379=PLANE('',#1528);
#1380=PLANE('',#1531);
#1381=PLANE('',#1533);
#1382=PLANE('',#1534);
#1383=PLANE('',#1535);
#1384=PLANE('',#1536);
#1385=PLANE('',#1537);
#1386=PLANE('',#1538);
#1387=PLANE('',#1539);
#1388=PLANE('',#1544);
#1389=PLANE('',#1545);
#1390=PLANE('',#1546);
#1391=PLANE('',#1547);
#1392=PLANE('',#1548);
#1393=PLANE('',#1549);
#1394=PLANE('',#1550);
#1395=PLANE('',#1551);
#1396=PLANE('',#1552);
#1397=PLANE('',#1554);
#1398=PLANE('',#1556);
#1399=PLANE('',#1557);
#1400=PLANE('',#1558);
#1401=PLANE('',#1560);
#1402=PLANE('',#1561);
#1403=PLANE('',#1562);
#1404=PLANE('',#1563);
#1405=PLANE('',#1564);
#1406=PLANE('',#1565);
#1407=PLANE('',#1566);
#1408=PLANE('',#1568);
#1409=PLANE('',#1569);
#1410=PLANE('',#1570);
#1411=PLANE('',#1572);
#1412=PLANE('',#1574);
#1413=PLANE('',#1576);
#1414=PLANE('',#1577);
#1415=PLANE('',#1578);
#1416=PLANE('',#1579);
#1417=PLANE('',#1580);
#1418=PLANE('',#1581);
#1419=PLANE('',#1582);
#1420=PLANE('',#1583);
#1421=PLANE('',#1584);
#1422=PLANE('',#1589);
#1423=PLANE('',#1590);
#1424=PLANE('',#1591);
#1425=PLANE('',#1592);
#1426=PLANE('',#1597);
#1427=ADVANCED_FACE('',(#1280),#1364,.F.);
#1428=ADVANCED_FACE('',(#1281),#1365,.T.);
#1429=ADVANCED_FACE('',(#1282),#1366,.T.);
#1430=ADVANCED_FACE('',(#1283),#1367,.F.);
#1431=ADVANCED_FACE('',(#1284),#1368,.T.);
#1432=ADVANCED_FACE('',(#1285),#1369,.F.);
#1433=ADVANCED_FACE('',(#1286),#1370,.F.);
#1434=ADVANCED_FACE('',(#1287),#1371,.T.);
#1435=ADVANCED_FACE('',(#1288),#1372,.F.);
#1436=ADVANCED_FACE('',(#1289),#1373,.F.);
#1437=ADVANCED_FACE('',(#1290),#1374,.F.);
#1438=ADVANCED_FACE('',(#1291),#1375,.T.);
#1439=ADVANCED_FACE('',(#1292),#1376,.F.);
#1440=ADVANCED_FACE('',(#1293),#1377,.T.);
#1441=ADVANCED_FACE('',(#1294),#1378,.T.);
#1442=ADVANCED_FACE('',(#1295),#1379,.F.);
#1443=ADVANCED_FACE('',(#1296),#1380,.T.);
#1444=ADVANCED_FACE('',(#1297),#1381,.T.);
#1445=ADVANCED_FACE('',(#1298),#1382,.T.);
#1446=ADVANCED_FACE('',(#1299),#1383,.F.);
#1447=ADVANCED_FACE('',(#1300),#1384,.F.);
#1448=ADVANCED_FACE('',(#1301),#1385,.T.);
#1449=ADVANCED_FACE('',(#1302,#1303),#1386,.T.);
#1450=ADVANCED_FACE('',(#1304,#1305,#1306,#1307,#1308),#1387,.F.);
#1451=ADVANCED_FACE('',(#1309),#1388,.T.);
#1452=ADVANCED_FACE('',(#1310),#1389,.T.);
#1453=ADVANCED_FACE('',(#1311),#1390,.F.);
#1454=ADVANCED_FACE('',(#1312),#1391,.F.);
#1455=ADVANCED_FACE('',(#1313),#1392,.T.);
#1456=ADVANCED_FACE('',(#1314),#1393,.T.);
#1457=ADVANCED_FACE('',(#1315),#1394,.T.);
#1458=ADVANCED_FACE('',(#1316),#1395,.F.);
#1459=ADVANCED_FACE('',(#1317),#1396,.F.);
#1460=ADVANCED_FACE('',(#1318),#1397,.T.);
#1461=ADVANCED_FACE('',(#1319),#12,.T.);
#1462=ADVANCED_FACE('',(#1320),#1398,.T.);
#1463=ADVANCED_FACE('',(#1321),#1399,.F.);
#1464=ADVANCED_FACE('',(#1322),#1400,.F.);
#1465=ADVANCED_FACE('',(#1323),#13,.T.);
#1466=ADVANCED_FACE('',(#1324),#1401,.F.);
#1467=ADVANCED_FACE('',(#1325),#1402,.F.);
#1468=ADVANCED_FACE('',(#1326),#1403,.T.);
#1469=ADVANCED_FACE('',(#1327),#1404,.T.);
#1470=ADVANCED_FACE('',(#1328),#1405,.T.);
#1471=ADVANCED_FACE('',(#1329),#1406,.T.);
#1472=ADVANCED_FACE('',(#1330),#1407,.T.);
#1473=ADVANCED_FACE('',(#1331),#1408,.T.);
#1474=ADVANCED_FACE('',(#1332),#1409,.F.);
#1475=ADVANCED_FACE('',(#1333),#1410,.F.);
#1476=ADVANCED_FACE('',(#1334),#1411,.F.);
#1477=ADVANCED_FACE('',(#1335),#14,.T.);
#1478=ADVANCED_FACE('',(#1336),#1412,.T.);
#1479=ADVANCED_FACE('',(#1337),#15,.T.);
#1480=ADVANCED_FACE('',(#1338),#1413,.T.);
#1481=ADVANCED_FACE('',(#1339),#1414,.F.);
#1482=ADVANCED_FACE('',(#1340),#1415,.F.);
#1483=ADVANCED_FACE('',(#1341),#1416,.T.);
#1484=ADVANCED_FACE('',(#1342),#1417,.F.);
#1485=ADVANCED_FACE('',(#1343),#1418,.T.);
#1486=ADVANCED_FACE('',(#1344),#1419,.F.);
#1487=ADVANCED_FACE('',(#1345),#1420,.F.);
#1488=ADVANCED_FACE('',(#1346),#1421,.T.);
#1489=ADVANCED_FACE('',(#1347,#1348),#16,.F.);
#1490=ADVANCED_FACE('',(#1349,#1350),#17,.F.);
#1491=ADVANCED_FACE('',(#1351,#1352,#1353),#1422,.F.);
#1492=ADVANCED_FACE('',(#1354),#1423,.F.);
#1493=ADVANCED_FACE('',(#1355),#1424,.F.);
#1494=ADVANCED_FACE('',(#1356),#1425,.F.);
#1495=ADVANCED_FACE('',(#1357,#1358),#18,.F.);
#1496=ADVANCED_FACE('',(#1359,#1360),#19,.F.);
#1497=ADVANCED_FACE('',(#1361,#1362,#1363),#1426,.F.);
#1498=CLOSED_SHELL('',(#1427,#1428,#1429,#1430,#1431,#1432,#1433,#1434,
#1435,#1436,#1437,#1438,#1439,#1440,#1441,#1442,#1443,#1444,#1445,#1446,
#1447,#1448,#1449,#1450,#1451,#1452,#1453,#1454,#1455,#1456,#1457,#1458,
#1459,#1460,#1461,#1462,#1463,#1464,#1465,#1466,#1467,#1468,#1469,#1470,
#1471,#1472,#1473,#1474,#1475,#1476,#1477,#1478,#1479,#1480,#1481,#1482,
#1483,#1484,#1485,#1486,#1487,#1488,#1489,#1490,#1491,#1492,#1493,#1494,
#1495,#1496,#1497));
#1499=STYLED_ITEM('',(#1500),#1507);
#1500=PRESENTATION_STYLE_ASSIGNMENT((#1501));
#1501=SURFACE_STYLE_USAGE(.BOTH.,#1502);
#1502=SURFACE_SIDE_STYLE('',(#1503));
#1503=SURFACE_STYLE_FILL_AREA(#1504);
#1504=FILL_AREA_STYLE('',(#1505));
#1505=FILL_AREA_STYLE_COLOUR('',#1506);
#1506=COLOUR_RGB('',0.615686274509804,0.811764705882353,0.929411764705882);
#1507=MANIFOLD_SOLID_BREP('Part 1',#1498);
#1508=SHAPE_DEFINITION_REPRESENTATION(#2398,#1509);
#1509=SHAPE_REPRESENTATION('Part 1',(#1510),#2393);
#1510=AXIS2_PLACEMENT_3D('',#1968,#1598,#1599);
#1511=AXIS2_PLACEMENT_3D('',#1969,#1600,#1601);
#1512=AXIS2_PLACEMENT_3D('',#1994,#1614,#1615);
#1513=AXIS2_PLACEMENT_3D('',#2006,#1621,#1622);
#1514=AXIS2_PLACEMENT_3D('',#2018,#1628,#1629);
#1515=AXIS2_PLACEMENT_3D('',#2035,#1638,#1639);
#1516=AXIS2_PLACEMENT_3D('',#2046,#1646,#1647);
#1517=AXIS2_PLACEMENT_3D('',#2052,#1651,#1652);
#1518=AXIS2_PLACEMENT_3D('',#2058,#1656,#1657);
#1519=AXIS2_PLACEMENT_3D('',#2075,#1666,#1667);
#1520=AXIS2_PLACEMENT_3D('',#2110,#1687,#1688);
#1521=AXIS2_PLACEMENT_3D('',#2114,#1691,#1692);
#1522=AXIS2_PLACEMENT_3D('',#2118,#1695,#1696);
#1523=AXIS2_PLACEMENT_3D('',#2120,#1698,#1699);
#1524=AXIS2_PLACEMENT_3D('',#2121,#1700,#1701);
#1525=AXIS2_PLACEMENT_3D('',#2125,#1704,#1705);
#1526=AXIS2_PLACEMENT_3D('',#2129,#1708,#1709);
#1527=AXIS2_PLACEMENT_3D('',#2135,#1714,#1715);
#1528=AXIS2_PLACEMENT_3D('',#2139,#1718,#1719);
#1529=AXIS2_PLACEMENT_3D('',#2145,#1722,#1723);
#1530=AXIS2_PLACEMENT_3D('',#2154,#1728,#1729);
#1531=AXIS2_PLACEMENT_3D('',#2169,#1737,#1738);
#1532=AXIS2_PLACEMENT_3D('',#2170,#1739,#1740);
#1533=AXIS2_PLACEMENT_3D('',#2183,#1747,#1748);
#1534=AXIS2_PLACEMENT_3D('',#2186,#1751,#1752);
#1535=AXIS2_PLACEMENT_3D('',#2188,#1754,#1755);
#1536=AXIS2_PLACEMENT_3D('',#2192,#1758,#1759);
#1537=AXIS2_PLACEMENT_3D('',#2196,#1762,#1763);
#1538=AXIS2_PLACEMENT_3D('',#2202,#1767,#1768);
#1539=AXIS2_PLACEMENT_3D('',#2232,#1785,#1786);
#1540=AXIS2_PLACEMENT_3D('',#2244,#1794,#1795);
#1541=AXIS2_PLACEMENT_3D('',#2246,#1796,#1797);
#1542=AXIS2_PLACEMENT_3D('',#2248,#1798,#1799);
#1543=AXIS2_PLACEMENT_3D('',#2250,#1800,#1801);
#1544=AXIS2_PLACEMENT_3D('',#2252,#1802,#1803);
#1545=AXIS2_PLACEMENT_3D('',#2254,#1805,#1806);
#1546=AXIS2_PLACEMENT_3D('',#2260,#1810,#1811);
#1547=AXIS2_PLACEMENT_3D('',#2264,#1814,#1815);
#1548=AXIS2_PLACEMENT_3D('',#2280,#1825,#1826);
#1549=AXIS2_PLACEMENT_3D('',#2282,#1828,#1829);
#1550=AXIS2_PLACEMENT_3D('',#2283,#1830,#1831);
#1551=AXIS2_PLACEMENT_3D('',#2289,#1835,#1836);
#1552=AXIS2_PLACEMENT_3D('',#2293,#1839,#1840);
#1553=AXIS2_PLACEMENT_3D('',#2294,#1841,#1842);
#1554=AXIS2_PLACEMENT_3D('',#2299,#1845,#1846);
#1555=AXIS2_PLACEMENT_3D('',#2301,#1848,#1849);
#1556=AXIS2_PLACEMENT_3D('',#2303,#1851,#1852);
#1557=AXIS2_PLACEMENT_3D('',#2304,#1853,#1854);
#1558=AXIS2_PLACEMENT_3D('',#2306,#1856,#1857);
#1559=AXIS2_PLACEMENT_3D('',#2308,#1859,#1860);
#1560=AXIS2_PLACEMENT_3D('',#2309,#1861,#1862);
#1561=AXIS2_PLACEMENT_3D('',#2312,#1865,#1866);
#1562=AXIS2_PLACEMENT_3D('',#2314,#1868,#1869);
#1563=AXIS2_PLACEMENT_3D('',#2316,#1871,#1872);
#1564=AXIS2_PLACEMENT_3D('',#2317,#1873,#1874);
#1565=AXIS2_PLACEMENT_3D('',#2319,#1876,#1877);
#1566=AXIS2_PLACEMENT_3D('',#2320,#1878,#1879);
#1567=AXIS2_PLACEMENT_3D('',#2324,#1881,#1882);
#1568=AXIS2_PLACEMENT_3D('',#2328,#1885,#1886);
#1569=AXIS2_PLACEMENT_3D('',#2330,#1888,#1889);
#1570=AXIS2_PLACEMENT_3D('',#2334,#1892,#1893);
#1571=AXIS2_PLACEMENT_3D('',#2337,#1895,#1896);
#1572=AXIS2_PLACEMENT_3D('',#2340,#1898,#1899);
#1573=AXIS2_PLACEMENT_3D('',#2342,#1901,#1902);
#1574=AXIS2_PLACEMENT_3D('',#2344,#1904,#1905);
#1575=AXIS2_PLACEMENT_3D('',#2345,#1906,#1907);
#1576=AXIS2_PLACEMENT_3D('',#2348,#1910,#1911);
#1577=AXIS2_PLACEMENT_3D('',#2349,#1912,#1913);
#1578=AXIS2_PLACEMENT_3D('',#2350,#1914,#1915);
#1579=AXIS2_PLACEMENT_3D('',#2353,#1918,#1919);
#1580=AXIS2_PLACEMENT_3D('',#2356,#1922,#1923);
#1581=AXIS2_PLACEMENT_3D('',#2357,#1924,#1925);
#1582=AXIS2_PLACEMENT_3D('',#2358,#1926,#1927);
#1583=AXIS2_PLACEMENT_3D('',#2362,#1930,#1931);
#1584=AXIS2_PLACEMENT_3D('',#2366,#1934,#1935);
#1585=AXIS2_PLACEMENT_3D('',#2368,#1937,#1938);
#1586=AXIS2_PLACEMENT_3D('',#2369,#1939,#1940);
#1587=AXIS2_PLACEMENT_3D('',#2371,#1941,#1942);
#1588=AXIS2_PLACEMENT_3D('',#2372,#1943,#1944);
#1589=AXIS2_PLACEMENT_3D('',#2374,#1945,#1946);
#1590=AXIS2_PLACEMENT_3D('',#2375,#1947,#1948);
#1591=AXIS2_PLACEMENT_3D('',#2379,#1951,#1952);
#1592=AXIS2_PLACEMENT_3D('',#2383,#1955,#1956);
#1593=AXIS2_PLACEMENT_3D('',#2385,#1958,#1959);
#1594=AXIS2_PLACEMENT_3D('',#2386,#1960,#1961);
#1595=AXIS2_PLACEMENT_3D('',#2388,#1962,#1963);
#1596=AXIS2_PLACEMENT_3D('',#2389,#1964,#1965);
#1597=AXIS2_PLACEMENT_3D('',#2391,#1966,#1967);
#1598=DIRECTION('',(0.,0.,1.));
#1599=DIRECTION('',(1.,0.,0.));
#1600=DIRECTION('',(0.,0.,1.));
#1601=DIRECTION('',(1.,0.,0.));
#1602=DIRECTION('',(0.,-1.,0.));
#1603=DIRECTION('',(1.,0.,0.));
#1604=DIRECTION('',(0.,-1.,0.));
#1605=DIRECTION('',(1.,0.,0.));
#1606=DIRECTION('',(0.,1.,0.));
#1607=DIRECTION('',(-1.,0.,0.));
#1608=DIRECTION('',(0.,1.,0.));
#1609=DIRECTION('',(-1.,0.,0.));
#1610=DIRECTION('',(0.,1.,0.));
#1611=DIRECTION('',(1.,-2.89120579329468E-16,0.));
#1612=DIRECTION('',(0.,1.,0.));
#1613=DIRECTION('',(1.,0.,0.));
#1614=DIRECTION('',(0.,0.,1.));
#1615=DIRECTION('',(1.,0.,0.));
#1616=DIRECTION('',(-2.89120579329468E-16,-1.,0.));
#1617=DIRECTION('',(-1.,0.,0.));
#1618=DIRECTION('',(-1.83985823209661E-16,1.,0.));
#1619=DIRECTION('',(1.,0.,0.));
#1620=DIRECTION('',(-0.707106781186548,-0.707106781186547,0.));
#1621=DIRECTION('',(0.,0.,1.));
#1622=DIRECTION('',(1.,0.,0.));
#1623=DIRECTION('',(0.707106781186548,-0.707106781186547,0.));
#1624=DIRECTION('',(1.,0.,0.));
#1625=DIRECTION('',(0.,1.,0.));
#1626=DIRECTION('',(1.,0.,0.));
#1627=DIRECTION('',(0.707106781186548,0.707106781186548,0.));
#1628=DIRECTION('',(0.,0.,1.));
#1629=DIRECTION('',(1.,0.,0.));
#1630=DIRECTION('',(-0.707106781186548,0.707106781186547,0.));
#1631=DIRECTION('',(1.,0.,0.));
#1632=DIRECTION('',(-1.83985823209661E-16,1.,0.));
#1633=DIRECTION('',(-1.,0.,0.));
#1634=DIRECTION('',(-2.89120579329468E-16,-1.,0.));
#1635=DIRECTION('',(1.,-2.89120579329468E-16,0.));
#1636=DIRECTION('',(-2.89120579329468E-16,-1.,0.));
#1637=DIRECTION('',(1.,-2.89120579329468E-16,0.));
#1638=DIRECTION('',(1.,-2.89120579329468E-16,0.));
#1639=DIRECTION('',(2.89120579329468E-16,1.,0.));
#1640=DIRECTION('',(2.89120579329468E-16,1.,0.));
#1641=DIRECTION('',(0.,0.,1.));
#1642=DIRECTION('',(0.,0.,1.));
#1643=DIRECTION('',(-2.89120579329468E-16,-1.,0.));
#1644=DIRECTION('',(0.,0.,1.));
#1645=DIRECTION('',(0.,0.,1.));
#1646=DIRECTION('',(0.,-1.,0.));
#1647=DIRECTION('',(0.,0.,-1.));
#1648=DIRECTION('',(0.,0.,1.));
#1649=DIRECTION('',(0.,0.,1.));
#1650=DIRECTION('',(1.,0.,0.));
#1651=DIRECTION('',(0.,-1.,0.));
#1652=DIRECTION('',(0.,0.,-1.));
#1653=DIRECTION('',(1.,0.,0.));
#1654=DIRECTION('',(0.,0.,-1.));
#1655=DIRECTION('',(0.,0.,-1.));
#1656=DIRECTION('',(0.,0.,-1.));
#1657=DIRECTION('',(-1.,0.,0.));
#1658=DIRECTION('',(1.,-2.89120579329468E-16,0.));
#1659=DIRECTION('',(-2.89120579329468E-16,-1.,0.));
#1660=DIRECTION('',(-1.,0.,0.));
#1661=DIRECTION('',(-1.83985823209661E-16,1.,0.));
#1662=DIRECTION('',(-1.,0.,0.));
#1663=DIRECTION('',(-2.89120579329468E-16,-1.,0.));
#1664=DIRECTION('',(1.,-2.89120579329468E-16,0.));
#1665=DIRECTION('',(-2.89120579329468E-16,-1.,0.));
#1666=DIRECTION('',(-1.,0.,0.));
#1667=DIRECTION('',(0.,0.,1.));
#1668=DIRECTION('',(0.,0.,-1.));
#1669=DIRECTION('',(0.,0.,-1.));
#1670=DIRECTION('',(0.,1.,0.));
#1671=DIRECTION('',(0.,0.,-1.));
#1672=DIRECTION('',(0.,-0.640184399664478,0.768221279597377));
#1673=DIRECTION('',(0.,1.15648231731789E-14,1.));
#1674=DIRECTION('',(0.,1.,0.));
#1675=DIRECTION('',(0.,-1.08420217248552E-14,1.));
#1676=DIRECTION('',(0.,0.640184399664478,0.768221279597378));
#1677=DIRECTION('',(0.,0.,-1.));
#1678=DIRECTION('',(0.,1.,0.));
#1679=DIRECTION('',(0.,0.,-1.));
#1680=DIRECTION('',(0.,0.,-1.));
#1681=DIRECTION('',(-2.89120579329468E-16,-1.,0.));
#1682=DIRECTION('',(0.,0.,-1.));
#1683=DIRECTION('',(0.,0.,-1.));
#1684=DIRECTION('',(0.,0.640184399664481,-0.768221279597375));
#1685=DIRECTION('',(0.,0.,-1.));
#1686=DIRECTION('',(0.,-0.640184399664481,-0.768221279597375));
#1687=DIRECTION('',(2.89120579329468E-16,1.,0.));
#1688=DIRECTION('',(-1.,2.89120579329468E-16,0.));
#1689=DIRECTION('',(1.,-2.89120579329468E-16,0.));
#1690=DIRECTION('',(0.,0.,1.));
#1691=DIRECTION('',(1.,-2.89120579329468E-16,0.));
#1692=DIRECTION('',(2.89120579329468E-16,1.,0.));
#1693=DIRECTION('',(0.,0.,1.));
#1694=DIRECTION('',(-2.89120579329468E-16,-1.,0.));
#1695=DIRECTION('',(0.,0.,-1.));
#1696=DIRECTION('',(-1.,0.,0.));
#1697=DIRECTION('',(1.,-2.89120579329468E-16,0.));
#1698=DIRECTION('',(2.89120579329468E-16,1.,0.));
#1699=DIRECTION('',(-1.,2.89120579329468E-16,0.));
#1700=DIRECTION('',(0.,1.,0.));
#1701=DIRECTION('',(0.,0.,1.));
#1702=DIRECTION('',(1.,0.,0.));
#1703=DIRECTION('',(0.,0.,1.));
#1704=DIRECTION('',(0.,1.,0.));
#1705=DIRECTION('',(0.,0.,1.));
#1706=DIRECTION('',(0.,0.,1.));
#1707=DIRECTION('',(1.,0.,0.));
#1708=DIRECTION('',(1.,1.83985823209661E-16,0.));
#1709=DIRECTION('',(-1.83985823209661E-16,1.,0.));
#1710=DIRECTION('',(-1.17784853778252E-16,0.640184399664481,0.768221279597375));
#1711=DIRECTION('',(-1.83985823209661E-16,1.,0.));
#1712=DIRECTION('',(0.,0.,1.));
#1713=DIRECTION('',(1.17784853778252E-16,-0.640184399664481,0.768221279597375));
#1714=DIRECTION('',(2.89120579329468E-16,1.,0.));
#1715=DIRECTION('',(-1.,2.89120579329468E-16,0.));
#1716=DIRECTION('',(0.,0.,-1.));
#1717=DIRECTION('',(1.,-2.89120579329468E-16,0.));
#1718=DIRECTION('',(0.,0.,-1.));
#1719=DIRECTION('',(-1.,0.,0.));
#1720=DIRECTION('',(1.,0.,0.));
#1721=DIRECTION('',(0.707106781186548,0.707106781186547,0.));
#1722=DIRECTION('',(0.,0.,-1.));
#1723=DIRECTION('',(-1.,0.,0.));
#1724=DIRECTION('',(0.707106781186548,-0.707106781186547,0.));
#1725=DIRECTION('',(1.,0.,0.));
#1726=DIRECTION('',(1.,0.,0.));
#1727=DIRECTION('',(0.707106781186549,0.707106781186546,0.));
#1728=DIRECTION('',(0.,0.,-1.));
#1729=DIRECTION('',(-1.,0.,0.));
#1730=DIRECTION('',(0.707106781186549,-0.707106781186547,0.));
#1731=DIRECTION('',(1.,0.,0.));
#1732=DIRECTION('',(6.57092225748791E-17,1.,0.));
#1733=DIRECTION('',(1.,0.,0.));
#1734=DIRECTION('',(0.,-1.,0.));
#1735=DIRECTION('',(1.,1.18276600634782E-16,0.));
#1736=DIRECTION('',(6.57092225748791E-17,1.,0.));
#1737=DIRECTION('',(0.,0.768221279597378,-0.640184399664478));
#1738=DIRECTION('',(0.,0.640184399664478,0.768221279597378));
#1739=DIRECTION('',(0.,0.768221279597378,-0.640184399664478));
#1740=DIRECTION('',(0.,0.640184399664478,0.768221279597378));
#1741=DIRECTION('',(-0.539163866017192,-0.53916386601719,-0.646996639220632));
#1742=DIRECTION('',(1.,0.,0.));
#1743=DIRECTION('',(4.20660192065185E-17,0.640184399664478,0.768221279597378));
#1744=DIRECTION('',(1.,0.,0.));
#1745=DIRECTION('',(1.,0.,0.));
#1746=DIRECTION('',(-0.539163866017192,0.53916386601719,0.646996639220632));
#1747=DIRECTION('',(0.,1.,1.08420217248552E-14));
#1748=DIRECTION('',(0.,-1.08420217248552E-14,1.));
#1749=DIRECTION('',(1.08420217248553E-14,1.08420217248552E-14,-1.));
#1750=DIRECTION('',(-7.12420818680187E-31,-1.08420217248552E-14,1.));
#1751=DIRECTION('',(0.,1.,1.08420217248552E-14));
#1752=DIRECTION('',(0.,-1.08420217248552E-14,1.));
#1753=DIRECTION('',(1.08420217248553E-14,-1.08420217248552E-14,1.));
#1754=DIRECTION('',(0.,1.,-1.15648231731789E-14));
#1755=DIRECTION('',(0.,1.15648231731789E-14,1.));
#1756=DIRECTION('',(1.,0.,0.));
#1757=DIRECTION('',(-1.1564823173179E-14,-1.15648231731789E-14,-1.));
#1758=DIRECTION('',(1.18276600634782E-16,-1.,0.));
#1759=DIRECTION('',(1.,1.18276600634782E-16,0.));
#1760=DIRECTION('',(0.,0.,-1.));
#1761=DIRECTION('',(-1.,-1.18276600634782E-16,0.));
#1762=DIRECTION('',(0.,-1.,0.));
#1763=DIRECTION('',(0.,0.,-1.));
#1764=DIRECTION('',(0.,0.,-1.));
#1765=DIRECTION('',(1.,0.,0.));
#1766=DIRECTION('',(-1.,0.,0.));
#1767=DIRECTION('',(-1.,0.,0.));
#1768=DIRECTION('',(0.,0.,1.));
#1769=DIRECTION('',(0.,-1.,0.));
#1770=DIRECTION('',(0.,0.,-1.));
#1771=DIRECTION('',(0.,-1.,0.));
#1772=DIRECTION('',(0.,0.,-1.));
#1773=DIRECTION('',(0.,1.,0.));
#1774=DIRECTION('',(0.,0.,-1.));
#1775=DIRECTION('',(0.,0.,-1.));
#1776=DIRECTION('',(-2.89120579329468E-16,-1.,0.));
#1777=DIRECTION('',(0.,0.,1.));
#1778=DIRECTION('',(0.,1.,0.));
#1779=DIRECTION('',(0.,-4.56506177888634E-17,1.));
#1780=DIRECTION('',(0.,0.,-1.));
#1781=DIRECTION('',(0.,1.,0.));
#1782=DIRECTION('',(0.,0.,1.));
#1783=DIRECTION('',(0.,1.,0.));
#1784=DIRECTION('',(0.,0.,1.));
#1785=DIRECTION('',(0.,1.,0.));
#1786=DIRECTION('',(0.,0.,1.));
#1787=DIRECTION('',(1.,0.,0.));
#1788=DIRECTION('',(1.,0.,0.));
#1789=DIRECTION('',(0.,0.,1.));
#1790=DIRECTION('',(-1.,0.,0.));
#1791=DIRECTION('',(-1.8080903584517E-16,0.,1.));
#1792=DIRECTION('',(-1.,0.,0.));
#1793=DIRECTION('',(0.,0.,1.));
#1794=DIRECTION('',(0.,1.,0.));
#1795=DIRECTION('',(0.,0.,-1.));
#1796=DIRECTION('',(0.,-1.,0.));
#1797=DIRECTION('',(0.,0.,-1.));
#1798=DIRECTION('',(0.,1.,0.));
#1799=DIRECTION('',(0.,0.,-1.));
#1800=DIRECTION('',(0.,-1.,0.));
#1801=DIRECTION('',(0.,0.,-1.));
#1802=DIRECTION('',(2.89120579329468E-16,1.,0.));
#1803=DIRECTION('',(-1.,2.89120579329468E-16,0.));
#1804=DIRECTION('',(1.,-2.89120579329468E-16,0.));
#1805=DIRECTION('',(-1.,0.,0.));
#1806=DIRECTION('',(0.,0.,1.));
#1807=DIRECTION('',(0.,0.,-1.));
#1808=DIRECTION('',(0.,1.,0.));
#1809=DIRECTION('',(0.,0.,-1.));
#1810=DIRECTION('',(1.18276600634782E-16,-1.,0.));
#1811=DIRECTION('',(1.,1.18276600634782E-16,0.));
#1812=DIRECTION('',(0.,0.,-1.));
#1813=DIRECTION('',(-1.,-1.18276600634782E-16,0.));
#1814=DIRECTION('',(-1.,6.57092225748791E-17,0.));
#1815=DIRECTION('',(-6.57092225748791E-17,-1.,0.));
#1816=DIRECTION('',(6.57092225748791E-17,1.,0.));
#1817=DIRECTION('',(-2.99966660496915E-33,-4.56506177888634E-17,1.));
#1818=DIRECTION('',(6.57092225748791E-17,1.,0.));
#1819=DIRECTION('',(0.,0.,1.));
#1820=DIRECTION('',(6.57092225748791E-17,1.,0.));
#1821=DIRECTION('',(0.,0.,-1.));
#1822=DIRECTION('',(7.59915539925533E-31,1.15648231731789E-14,1.));
#1823=DIRECTION('',(-4.20660192065185E-17,-0.640184399664478,0.768221279597377));
#1824=DIRECTION('',(6.57092225748791E-17,1.,0.));
#1825=DIRECTION('',(0.,-1.,0.));
#1826=DIRECTION('',(0.,0.,-1.));
#1827=DIRECTION('',(-1.,0.,0.));
#1828=DIRECTION('',(0.,0.,1.));
#1829=DIRECTION('',(1.,0.,0.));
#1830=DIRECTION('',(0.,0.,1.));
#1831=DIRECTION('',(1.,0.,0.));
#1832=DIRECTION('',(1.,0.,0.));
#1833=DIRECTION('',(1.,0.,0.));
#1834=DIRECTION('',(0.,-1.,0.));
#1835=DIRECTION('',(0.,1.,-1.15648231731789E-14));
#1836=DIRECTION('',(0.,1.15648231731789E-14,1.));
#1837=DIRECTION('',(-1.15648231731789E-14,1.15648231731789E-14,1.));
#1838=DIRECTION('',(1.,0.,0.));
#1839=DIRECTION('',(0.,0.768221279597377,0.640184399664478));
#1840=DIRECTION('',(0.,-0.640184399664478,0.768221279597377));
#1841=DIRECTION('',(0.,0.768221279597377,0.640184399664478));
#1842=DIRECTION('',(0.,-0.640184399664478,0.768221279597377));
#1843=DIRECTION('',(0.539163866017193,0.53916386601719,-0.646996639220631));
#1844=DIRECTION('',(0.539163866017192,-0.539163866017191,0.646996639220632));
#1845=DIRECTION('',(0.707106781186546,-0.707106781186549,0.));
#1846=DIRECTION('',(0.707106781186549,0.707106781186546,0.));
#1847=DIRECTION('',(0.,0.,1.));
#1848=DIRECTION('',(0.,0.,1.));
#1849=DIRECTION('',(1.,0.,0.));
#1850=DIRECTION('',(0.,0.,1.));
#1851=DIRECTION('',(-0.707106781186547,-0.707106781186549,0.));
#1852=DIRECTION('',(0.707106781186549,-0.707106781186547,0.));
#1853=DIRECTION('',(0.707106781186547,-0.707106781186548,0.));
#1854=DIRECTION('',(0.707106781186548,0.707106781186547,0.));
#1855=DIRECTION('',(0.,0.,1.));
#1856=DIRECTION('',(-0.707106781186547,-0.707106781186548,0.));
#1857=DIRECTION('',(0.707106781186548,-0.707106781186547,0.));
#1858=DIRECTION('',(0.,0.,1.));
#1859=DIRECTION('',(0.,0.,1.));
#1860=DIRECTION('',(1.,0.,0.));
#1861=DIRECTION('',(0.,0.,1.));
#1862=DIRECTION('',(1.,0.,0.));
#1863=DIRECTION('',(-1.,0.,0.));
#1864=DIRECTION('',(-1.,0.,0.));
#1865=DIRECTION('',(0.,-1.,-4.56506177888634E-17));
#1866=DIRECTION('',(0.,4.56506177888634E-17,-1.));
#1867=DIRECTION('',(0.,-4.56506177888634E-17,1.));
#1868=DIRECTION('',(0.,-1.,0.));
#1869=DIRECTION('',(0.,0.,-1.));
#1870=DIRECTION('',(0.,0.,1.));
#1871=DIRECTION('',(-1.,0.,0.));
#1872=DIRECTION('',(0.,-1.,0.));
#1873=DIRECTION('',(0.,0.,-1.));
#1874=DIRECTION('',(-1.,0.,0.));
#1875=DIRECTION('',(1.,-2.89120579329468E-16,0.));
#1876=DIRECTION('',(2.89120579329468E-16,1.,0.));
#1877=DIRECTION('',(-1.,2.89120579329468E-16,0.));
#1878=DIRECTION('',(0.,-0.768221279597375,-0.640184399664481));
#1879=DIRECTION('',(0.,0.640184399664481,-0.768221279597375));
#1880=DIRECTION('',(-0.539163866017193,0.539163866017193,-0.646996639220629));
#1881=DIRECTION('',(0.,-0.768221279597375,-0.640184399664481));
#1882=DIRECTION('',(0.,-0.640184399664481,0.768221279597375));
#1883=DIRECTION('',(0.539163866017193,0.539163866017193,-0.646996639220629));
#1884=DIRECTION('',(1.,0.,0.));
#1885=DIRECTION('',(0.,-1.,0.));
#1886=DIRECTION('',(0.,0.,-1.));
#1887=DIRECTION('',(0.,0.,-1.));
#1888=DIRECTION('',(0.,-1.,0.));
#1889=DIRECTION('',(0.,0.,-1.));
#1890=DIRECTION('',(0.,0.,1.));
#1891=DIRECTION('',(1.,0.,0.));
#1892=DIRECTION('',(0.,-0.768221279597375,0.640184399664481));
#1893=DIRECTION('',(0.,-0.640184399664481,-0.768221279597375));
#1894=DIRECTION('',(-0.539163866017193,0.539163866017193,0.646996639220629));
#1895=DIRECTION('',(0.,-0.768221279597375,0.640184399664481));
#1896=DIRECTION('',(0.,0.640184399664481,0.768221279597375));
#1897=DIRECTION('',(0.539163866017194,0.539163866017193,0.646996639220629));
#1898=DIRECTION('',(-0.707106781186548,0.707106781186548,0.));
#1899=DIRECTION('',(-0.707106781186548,-0.707106781186548,0.));
#1900=DIRECTION('',(0.,0.,1.));
#1901=DIRECTION('',(0.,0.,1.));
#1902=DIRECTION('',(1.,0.,0.));
#1903=DIRECTION('',(0.,0.,1.));
#1904=DIRECTION('',(-0.707106781186547,-0.707106781186548,0.));
#1905=DIRECTION('',(0.707106781186548,-0.707106781186547,0.));
#1906=DIRECTION('',(0.,0.,1.));
#1907=DIRECTION('',(1.,0.,0.));
#1908=DIRECTION('',(0.,0.,1.));
#1909=DIRECTION('',(0.,0.,1.));
#1910=DIRECTION('',(0.707106781186547,0.707106781186548,0.));
#1911=DIRECTION('',(-0.707106781186548,0.707106781186547,0.));
#1912=DIRECTION('',(0.707106781186547,-0.707106781186548,0.));
#1913=DIRECTION('',(0.707106781186548,0.707106781186547,0.));
#1914=DIRECTION('',(0.,0.,1.));
#1915=DIRECTION('',(1.,0.,0.));
#1916=DIRECTION('',(-1.,0.,0.));
#1917=DIRECTION('',(-1.,0.,0.));
#1918=DIRECTION('',(0.,0.,1.));
#1919=DIRECTION('',(1.,0.,0.));
#1920=DIRECTION('',(-1.,0.,0.));
#1921=DIRECTION('',(-1.,0.,0.));
#1922=DIRECTION('',(0.,-1.,0.));
#1923=DIRECTION('',(0.,0.,-1.));
#1924=DIRECTION('',(0.,-1.,0.));
#1925=DIRECTION('',(0.,0.,-1.));
#1926=DIRECTION('',(1.,0.,1.8080903584517E-16));
#1927=DIRECTION('',(1.8080903584517E-16,0.,-1.));
#1928=DIRECTION('',(-1.8080903584517E-16,0.,1.));
#1929=DIRECTION('',(0.,-1.,0.));
#1930=DIRECTION('',(0.,0.,1.));
#1931=DIRECTION('',(1.,0.,0.));
#1932=DIRECTION('',(-1.,0.,0.));
#1933=DIRECTION('',(0.,-1.,0.));
#1934=DIRECTION('',(1.,0.,0.));
#1935=DIRECTION('',(0.,0.,-1.));
#1936=DIRECTION('',(0.,0.,1.));
#1937=DIRECTION('',(0.,-1.,0.));
#1938=DIRECTION('',(0.,0.,-1.));
#1939=DIRECTION('',(0.,1.,0.));
#1940=DIRECTION('',(0.,0.,-1.));
#1941=DIRECTION('',(0.,-1.,0.));
#1942=DIRECTION('',(0.,0.,-1.));
#1943=DIRECTION('',(0.,-1.,0.));
#1944=DIRECTION('',(0.,0.,-1.));
#1945=DIRECTION('',(0.,-1.,0.));
#1946=DIRECTION('',(1.,0.,0.));
#1947=DIRECTION('',(0.,0.,-1.));
#1948=DIRECTION('',(-1.,0.,0.));
#1949=DIRECTION('',(1.,0.,0.));
#1950=DIRECTION('',(0.,-1.,0.));
#1951=DIRECTION('',(1.,0.,0.));
#1952=DIRECTION('',(0.,0.,-1.));
#1953=DIRECTION('',(0.,0.,1.));
#1954=DIRECTION('',(0.,-1.,0.));
#1955=DIRECTION('',(0.,0.,1.));
#1956=DIRECTION('',(1.,0.,0.));
#1957=DIRECTION('',(-1.,0.,0.));
#1958=DIRECTION('',(0.,-1.,0.));
#1959=DIRECTION('',(0.,0.,-1.));
#1960=DIRECTION('',(0.,1.,0.));
#1961=DIRECTION('',(0.,0.,-1.));
#1962=DIRECTION('',(0.,-1.,0.));
#1963=DIRECTION('',(0.,0.,-1.));
#1964=DIRECTION('',(0.,-1.,0.));
#1965=DIRECTION('',(0.,0.,-1.));
#1966=DIRECTION('',(0.,-1.,0.));
#1967=DIRECTION('',(1.,0.,0.));
#1968=CARTESIAN_POINT('',(0.,0.,0.));
#1969=CARTESIAN_POINT('',(0.024,0.0195,0.));
#1970=CARTESIAN_POINT('',(0.036,0.005,0.));
#1971=CARTESIAN_POINT('',(0.036,0.005,0.));
#1972=CARTESIAN_POINT('',(0.036,0.,0.));
#1973=CARTESIAN_POINT('',(0.024,0.005,0.));
#1974=CARTESIAN_POINT('',(0.006,0.005,0.));
#1975=CARTESIAN_POINT('',(0.006,0.005,0.));
#1976=CARTESIAN_POINT('',(0.006,0.,0.));
#1977=CARTESIAN_POINT('',(0.024,0.,0.));
#1978=CARTESIAN_POINT('',(0.,0.,0.));
#1979=CARTESIAN_POINT('',(0.,0.0195,0.));
#1980=CARTESIAN_POINT('',(0.,0.00648712930161452,0.));
#1981=CARTESIAN_POINT('',(0.018,0.00648712930161452,0.));
#1982=CARTESIAN_POINT('',(0.018,0.00648712930161452,0.));
#1983=CARTESIAN_POINT('',(0.018,0.0195,0.));
#1984=CARTESIAN_POINT('',(0.018,0.0254871293016145,0.));
#1985=CARTESIAN_POINT('',(0.018,0.0254871293016145,0.));
#1986=CARTESIAN_POINT('',(0.,0.0254871293016145,0.));
#1987=CARTESIAN_POINT('',(0.,0.0195,0.));
#1988=CARTESIAN_POINT('',(3.46944695195361E-18,0.039,0.));
#1989=CARTESIAN_POINT('',(0.024,0.039,0.));
#1990=CARTESIAN_POINT('',(0.048,0.039,0.));
#1991=CARTESIAN_POINT('',(0.048,0.0195,0.));
#1992=CARTESIAN_POINT('',(0.048,6.93889390390723E-18,0.));
#1993=CARTESIAN_POINT('',(0.024,0.,0.));
#1994=CARTESIAN_POINT('',(0.024,0.0585,0.103419691067137));
#1995=CARTESIAN_POINT('',(0.0035,0.0735,0.103419691067137));
#1996=CARTESIAN_POINT('',(0.0035,0.051,0.103419691067137));
#1997=CARTESIAN_POINT('',(0.0035,0.0435,0.103419691067137));
#1998=CARTESIAN_POINT('',(0.048002,0.051,0.103419691067137));
#1999=CARTESIAN_POINT('',(0.00200000000000003,0.051,0.103419691067137));
#2000=CARTESIAN_POINT('',(0.002,0.0585,0.103419691067137));
#2001=CARTESIAN_POINT('',(0.002,0.0405,0.103419691067137));
#2002=CARTESIAN_POINT('',(0.001998,0.0405,0.103419691067137));
#2003=CARTESIAN_POINT('',(0.0065,0.0405,0.103419691067137));
#2004=CARTESIAN_POINT('',(0.00614644660940674,0.0401464466094067,0.103419691067137));
#2005=CARTESIAN_POINT('',(0.00729289321881346,0.0412928932188135,0.103419691067137));
#2006=CARTESIAN_POINT('',(0.008,0.0405857864376269,0.103419691067137));
#2007=CARTESIAN_POINT('',(0.00870710678118656,0.0412928932188135,0.103419691067137));
#2008=CARTESIAN_POINT('',(0.00985355339059328,0.0401464466094067,0.103419691067137));
#2009=CARTESIAN_POINT('',(0.0095,0.0405,0.103419691067137));
#2010=CARTESIAN_POINT('',(0.001998,0.0405,0.103419691067137));
#2011=CARTESIAN_POINT('',(0.048,0.0405,0.103419691067137));
#2012=CARTESIAN_POINT('',(0.048,0.04125,0.103419691067137));
#2013=CARTESIAN_POINT('',(0.048,0.0765,0.103419691067137));
#2014=CARTESIAN_POINT('',(0.001998,0.0765,0.103419691067137));
#2015=CARTESIAN_POINT('',(0.0095,0.0765,0.103419691067137));
#2016=CARTESIAN_POINT('',(0.00985355339059328,0.0768535533905933,0.103419691067137));
#2017=CARTESIAN_POINT('',(0.00870710678118655,0.0757071067811865,0.103419691067137));
#2018=CARTESIAN_POINT('',(0.008,0.0764142135623731,0.103419691067137));
#2019=CARTESIAN_POINT('',(0.00729289321881346,0.0757071067811865,0.103419691067137));
#2020=CARTESIAN_POINT('',(0.00614644660940673,0.0768535533905933,0.103419691067137));
#2021=CARTESIAN_POINT('',(0.0065,0.0765,0.103419691067137));
#2022=CARTESIAN_POINT('',(0.001998,0.0765,0.103419691067137));
#2023=CARTESIAN_POINT('',(0.002,0.0765,0.103419691067137));
#2024=CARTESIAN_POINT('',(0.002,0.0585,0.103419691067137));
#2025=CARTESIAN_POINT('',(0.00200000000000003,0.066,0.103419691067137));
#2026=CARTESIAN_POINT('',(0.048002,0.066,0.103419691067137));
#2027=CARTESIAN_POINT('',(0.0035,0.066,0.103419691067137));
#2028=CARTESIAN_POINT('',(0.0035,0.0735,0.103419691067137));
#2029=CARTESIAN_POINT('',(0.0035,0.0735,0.103419691067137));
#2030=CARTESIAN_POINT('',(0.024,0.0735,0.103419691067137));
#2031=CARTESIAN_POINT('',(0.0445,0.0735,0.103419691067137));
#2032=CARTESIAN_POINT('',(0.0445,0.0735,0.103419691067137));
#2033=CARTESIAN_POINT('',(0.0445,0.0435,0.103419691067137));
#2034=CARTESIAN_POINT('',(0.024,0.0435,0.103419691067137));
#2035=CARTESIAN_POINT('',(0.0035,0.0735,0.0565));
#2036=CARTESIAN_POINT('',(0.0035,0.0585,0.0914196910671372));
#2037=CARTESIAN_POINT('',(0.0035,0.051,0.0914196910671372));
#2038=CARTESIAN_POINT('',(0.0035,0.066,0.0914196910671372));
#2039=CARTESIAN_POINT('',(0.0035,0.051,0.0974196910671372));
#2040=CARTESIAN_POINT('',(0.0035,0.0435,0.0565));
#2041=CARTESIAN_POINT('',(0.0035,0.0435,0.00958030893286281));
#2042=CARTESIAN_POINT('',(0.0035,0.0735,0.00958030893286281));
#2043=CARTESIAN_POINT('',(0.0035,0.0735,0.00958030893286281));
#2044=CARTESIAN_POINT('',(0.0035,0.0735,0.0565));
#2045=CARTESIAN_POINT('',(0.0035,0.066,0.0974196910671372));
#2046=CARTESIAN_POINT('',(0.001998,0.0405,0.103719691067137));
#2047=CARTESIAN_POINT('',(0.0065,0.0405,0.103719691067137));
#2048=CARTESIAN_POINT('',(0.0065,0.0405,0.104019691067137));
#2049=CARTESIAN_POINT('',(0.002,0.0405,0.103719691067137));
#2050=CARTESIAN_POINT('',(0.002,0.0405,0.104019691067137));
#2051=CARTESIAN_POINT('',(0.001998,0.0405,0.104019691067137));
#2052=CARTESIAN_POINT('',(0.001998,0.0765,0.103719691067137));
#2053=CARTESIAN_POINT('',(0.001998,0.0765,0.104019691067137));
#2054=CARTESIAN_POINT('',(0.0095,0.0765,0.104019691067137));
#2055=CARTESIAN_POINT('',(0.048,0.0765,0.104019691067137));
#2056=CARTESIAN_POINT('',(0.0095,0.0765,0.103719691067137));
#2057=CARTESIAN_POINT('',(0.048,0.0765,0.103719691067137));
#2058=CARTESIAN_POINT('',(0.024,0.0435,0.106419691067137));
#2059=CARTESIAN_POINT('',(0.024,0.039,0.106419691067137));
#2060=CARTESIAN_POINT('',(3.46944695195361E-18,0.039,0.106419691067137));
#2061=CARTESIAN_POINT('',(0.048,0.039,0.106419691067137));
#2062=CARTESIAN_POINT('',(0.048,0.0435,0.106419691067137));
#2063=CARTESIAN_POINT('',(0.048,0.042,0.106419691067137));
#2064=CARTESIAN_POINT('',(0.024,0.042,0.106419691067137));
#2065=CARTESIAN_POINT('',(0.002,0.042,0.106419691067137));
#2066=CARTESIAN_POINT('',(0.002,0.0585,0.106419691067137));
#2067=CARTESIAN_POINT('',(0.002,0.075,0.106419691067137));
#2068=CARTESIAN_POINT('',(0.024,0.075,0.106419691067137));
#2069=CARTESIAN_POINT('',(0.048,0.075,0.106419691067137));
#2070=CARTESIAN_POINT('',(0.048,0.0435,0.106419691067137));
#2071=CARTESIAN_POINT('',(0.048,0.078,0.106419691067137));
#2072=CARTESIAN_POINT('',(0.024,0.078,0.106419691067137));
#2073=CARTESIAN_POINT('',(1.47451495458029E-17,0.078,0.106419691067137));
#2074=CARTESIAN_POINT('',(4.77048955893622E-18,0.0435,0.106419691067137));
#2075=CARTESIAN_POINT('',(0.048,0.0195,0.003));
#2076=CARTESIAN_POINT('',(0.048,0.042,0.106119691067137));
#2077=CARTESIAN_POINT('',(0.048,0.042,0.105819691067137));
#2078=CARTESIAN_POINT('',(0.048,0.039,0.003));
#2079=CARTESIAN_POINT('',(0.048,0.039,0.113));
#2080=CARTESIAN_POINT('',(0.048,0.0195,0.113));
#2081=CARTESIAN_POINT('',(0.048,0.036,0.113));
#2082=CARTESIAN_POINT('',(0.048,0.036,0.1127));
#2083=CARTESIAN_POINT('',(0.048,0.036,0.1124));
#2084=CARTESIAN_POINT('',(0.048,0.03675,0.1115));
#2085=CARTESIAN_POINT('',(0.048,0.0375,0.1106));
#2086=CARTESIAN_POINT('',(0.048,0.0375,0.1103));
#2087=CARTESIAN_POINT('',(0.048,0.0375,0.11));
#2088=CARTESIAN_POINT('',(0.048,0.00225,0.11));
#2089=CARTESIAN_POINT('',(0.048,0.0015,0.11));
#2090=CARTESIAN_POINT('',(0.048,0.0015,0.1103));
#2091=CARTESIAN_POINT('',(0.048,0.0015,0.1106));
#2092=CARTESIAN_POINT('',(0.048,0.00225,0.1115));
#2093=CARTESIAN_POINT('',(0.048,0.003,0.1124));
#2094=CARTESIAN_POINT('',(0.048,0.003,0.1127));
#2095=CARTESIAN_POINT('',(0.048,0.003,0.113));
#2096=CARTESIAN_POINT('',(0.048,0.0195,0.113));
#2097=CARTESIAN_POINT('',(0.048,6.93889390390723E-18,0.113));
#2098=CARTESIAN_POINT('',(0.048,6.93889390390723E-18,0.003));
#2099=CARTESIAN_POINT('',(0.048,0.039,0.003));
#2100=CARTESIAN_POINT('',(0.048,0.039,0.00658030893286281));
#2101=CARTESIAN_POINT('',(0.048,0.0435,0.00658030893286281));
#2102=CARTESIAN_POINT('',(0.048,0.078,0.00658030893286281));
#2103=CARTESIAN_POINT('',(0.048,0.078,0.003));
#2104=CARTESIAN_POINT('',(0.048,0.075,0.106119691067137));
#2105=CARTESIAN_POINT('',(0.048,0.075,0.105819691067137));
#2106=CARTESIAN_POINT('',(0.048,0.07575,0.104919691067137));
#2107=CARTESIAN_POINT('',(0.048,0.0405,0.103719691067137));
#2108=CARTESIAN_POINT('',(0.048,0.0405,0.104019691067137));
#2109=CARTESIAN_POINT('',(0.048,0.04125,0.104919691067137));
#2110=CARTESIAN_POINT('',(0.024,0.0435,0.0565));
#2111=CARTESIAN_POINT('',(0.024,0.0435,0.00958030893286281));
#2112=CARTESIAN_POINT('',(0.0445,0.0435,0.00958030893286281));
#2113=CARTESIAN_POINT('',(0.0445,0.0435,0.0565));
#2114=CARTESIAN_POINT('',(0.0445,0.0735,0.0565));
#2115=CARTESIAN_POINT('',(0.0445,0.0735,0.0565));
#2116=CARTESIAN_POINT('',(0.0445,0.0735,0.00958030893286281));
#2117=CARTESIAN_POINT('',(0.0445,0.0735,0.00958030893286281));
#2118=CARTESIAN_POINT('',(0.024,0.0735,0.00958030893286281));
#2119=CARTESIAN_POINT('',(0.024,0.0735,0.00958030893286281));
#2120=CARTESIAN_POINT('',(0.024,0.0735,0.0565));
#2121=CARTESIAN_POINT('',(0.024,0.042,0.103419691067137));
#2122=CARTESIAN_POINT('',(0.001998,0.042,0.105819691067137));
#2123=CARTESIAN_POINT('',(0.002,0.042,0.105819691067137));
#2124=CARTESIAN_POINT('',(0.002,0.042,0.103419691067137));
#2125=CARTESIAN_POINT('',(0.024,0.075,0.103419691067137));
#2126=CARTESIAN_POINT('',(0.002,0.075,0.103419691067137));
#2127=CARTESIAN_POINT('',(0.002,0.075,0.105819691067137));
#2128=CARTESIAN_POINT('',(0.001998,0.075,0.105819691067137));
#2129=CARTESIAN_POINT('',(0.002,0.0585,0.103419691067137));
#2130=CARTESIAN_POINT('',(0.002,0.04125,0.104919691067137));
#2131=CARTESIAN_POINT('',(0.002,0.0585,0.103419691067137));
#2132=CARTESIAN_POINT('',(0.002,0.0765,0.103719691067137));
#2133=CARTESIAN_POINT('',(0.002,0.0765,0.104019691067137));
#2134=CARTESIAN_POINT('',(0.002,0.07575,0.104919691067137));
#2135=CARTESIAN_POINT('',(0.024,0.039,0.003));
#2136=CARTESIAN_POINT('',(3.46944695195361E-18,0.039,0.003));
#2137=CARTESIAN_POINT('',(3.46944695195361E-18,0.039,0.00658030893286281));
#2138=CARTESIAN_POINT('',(0.024,0.039,0.00658030893286281));
#2139=CARTESIAN_POINT('',(0.001998,0.00225,0.11));
#2140=CARTESIAN_POINT('',(0.001998,0.0015,0.11));
#2141=CARTESIAN_POINT('',(0.002,0.0015,0.11));
#2142=CARTESIAN_POINT('',(0.0065,0.0015,0.11));
#2143=CARTESIAN_POINT('',(0.00614644660940673,0.00114644660940672,0.11));
#2144=CARTESIAN_POINT('',(0.00729289321881346,0.00229289321881345,0.11));
#2145=CARTESIAN_POINT('',(0.008,0.0015857864376269,0.11));
#2146=CARTESIAN_POINT('',(0.00870710678118655,0.00229289321881345,0.11));
#2147=CARTESIAN_POINT('',(0.00985355339059328,0.00114644660940672,0.11));
#2148=CARTESIAN_POINT('',(0.0095,0.0015,0.11));
#2149=CARTESIAN_POINT('',(0.001998,0.0015,0.11));
#2150=CARTESIAN_POINT('',(0.001998,0.0375,0.11));
#2151=CARTESIAN_POINT('',(0.0095,0.0375,0.11));
#2152=CARTESIAN_POINT('',(0.00985355339059327,0.0378535533905933,0.11));
#2153=CARTESIAN_POINT('',(0.00870710678118655,0.0367071067811865,0.11));
#2154=CARTESIAN_POINT('',(0.008,0.0374142135623731,0.11));
#2155=CARTESIAN_POINT('',(0.00729289321881345,0.0367071067811865,0.11));
#2156=CARTESIAN_POINT('',(0.00614644660940672,0.0378535533905933,0.11));
#2157=CARTESIAN_POINT('',(0.0065,0.0375,0.11));
#2158=CARTESIAN_POINT('',(0.001998,0.0375,0.11));
#2159=CARTESIAN_POINT('',(0.002,0.0375,0.11));
#2160=CARTESIAN_POINT('',(0.002,0.00225,0.11));
#2161=CARTESIAN_POINT('',(0.002,0.036,0.11));
#2162=CARTESIAN_POINT('',(0.024,0.036,0.11));
#2163=CARTESIAN_POINT('',(0.046,0.036,0.11));
#2164=CARTESIAN_POINT('',(0.046,0.0195,0.11));
#2165=CARTESIAN_POINT('',(0.046,0.003,0.11));
#2166=CARTESIAN_POINT('',(0.024,0.003,0.11));
#2167=CARTESIAN_POINT('',(0.002,0.003,0.11));
#2168=CARTESIAN_POINT('',(0.002,0.00225,0.11));
#2169=CARTESIAN_POINT('',(0.001998,0.00225,0.1115));
#2170=CARTESIAN_POINT('',(0.008,0.0015857864376269,0.110702943725152));
#2171=CARTESIAN_POINT('',(0.00729289321881346,0.00229289321881345,0.111551471862576));
#2172=CARTESIAN_POINT('',(0.00870710678118655,0.00229289321881345,0.111551471862576));
#2173=CARTESIAN_POINT('',(0.0057232558139535,0.000723255813953491,0.109667906976744));
#2174=CARTESIAN_POINT('',(0.0065,0.0015,0.1106));
#2175=CARTESIAN_POINT('',(0.001998,0.0015,0.1106));
#2176=CARTESIAN_POINT('',(0.002,0.0015,0.1106));
#2177=CARTESIAN_POINT('',(0.002,0.00225,0.1115));
#2178=CARTESIAN_POINT('',(0.002,0.003,0.1124));
#2179=CARTESIAN_POINT('',(0.001998,0.003,0.1124));
#2180=CARTESIAN_POINT('',(0.001998,0.0015,0.1106));
#2181=CARTESIAN_POINT('',(0.0095,0.0015,0.1106));
#2182=CARTESIAN_POINT('',(0.00678720930232559,0.00421279069767441,0.113855348837209));
#2183=CARTESIAN_POINT('',(0.001998,0.0015,0.1103));
#2184=CARTESIAN_POINT('',(0.0065,0.0015,0.1103));
#2185=CARTESIAN_POINT('',(0.002,0.0015,0.1103));
#2186=CARTESIAN_POINT('',(0.001998,0.0015,0.1103));
#2187=CARTESIAN_POINT('',(0.0095,0.0015,0.1103));
#2188=CARTESIAN_POINT('',(0.001998,0.0375,0.1103));
#2189=CARTESIAN_POINT('',(0.001998,0.0375,0.1106));
#2190=CARTESIAN_POINT('',(0.0095,0.0375,0.1106));
#2191=CARTESIAN_POINT('',(0.0095,0.0375,0.1103));
#2192=CARTESIAN_POINT('',(0.024,0.003,0.113));
#2193=CARTESIAN_POINT('',(0.002,0.003,0.113));
#2194=CARTESIAN_POINT('',(0.002,0.003,0.113));
#2195=CARTESIAN_POINT('',(0.024,0.003,0.113));
#2196=CARTESIAN_POINT('',(0.024,0.036,0.113));
#2197=CARTESIAN_POINT('',(0.002,0.036,0.113));
#2198=CARTESIAN_POINT('',(0.002,0.036,0.113));
#2199=CARTESIAN_POINT('',(0.002,0.036,0.1124));
#2200=CARTESIAN_POINT('',(0.001998,0.036,0.1124));
#2201=CARTESIAN_POINT('',(0.024,0.036,0.113));
#2202=CARTESIAN_POINT('',(0.,0.0195,0.003));
#2203=CARTESIAN_POINT('',(0.,0.005,0.0480621043026467));
#2204=CARTESIAN_POINT('',(0.,0.005,0.0480621043026467));
#2205=CARTESIAN_POINT('',(0.,0.,0.0480621043026467));
#2206=CARTESIAN_POINT('',(0.,0.005,0.003));
#2207=CARTESIAN_POINT('',(0.,0.005,0.0780621043026467));
#2208=CARTESIAN_POINT('',(0.,0.005,0.0780621043026467));
#2209=CARTESIAN_POINT('',(0.,0.,0.0780621043026467));
#2210=CARTESIAN_POINT('',(0.,0.,0.003));
#2211=CARTESIAN_POINT('',(0.,0.,0.113));
#2212=CARTESIAN_POINT('',(0.,0.0195,0.113));
#2213=CARTESIAN_POINT('',(3.46944695195361E-18,0.039,0.113));
#2214=CARTESIAN_POINT('',(3.46944695195361E-18,0.039,0.003));
#2215=CARTESIAN_POINT('',(1.47451495458029E-17,0.078,0.003));
#2216=CARTESIAN_POINT('',(1.47451495458029E-17,0.078,0.00658030893286281));
#2217=CARTESIAN_POINT('',(4.77048955893622E-18,0.0435,0.00658030893286281));
#2218=CARTESIAN_POINT('',(0.,0.0254871293016145,0.0095));
#2219=CARTESIAN_POINT('',(0.,0.0254871293016145,0.019));
#2220=CARTESIAN_POINT('',(0.,0.0159871293016145,0.019));
#2221=CARTESIAN_POINT('',(0.,0.00648712930161454,0.019));
#2222=CARTESIAN_POINT('',(0.,0.00648712930161452,0.0095));
#2223=CARTESIAN_POINT('',(0.,0.,0.003));
#2224=CARTESIAN_POINT('',(0.,0.05475,0.103419691067137));
#2225=CARTESIAN_POINT('',(0.,0.051,0.103419691067137));
#2226=CARTESIAN_POINT('',(0.,0.066,0.103419691067137));
#2227=CARTESIAN_POINT('',(0.,0.051,0.0974196910671372));
#2228=CARTESIAN_POINT('',(0.,0.051,0.0914196910671372));
#2229=CARTESIAN_POINT('',(0.,0.0585,0.0914196910671372));
#2230=CARTESIAN_POINT('',(0.,0.066,0.0914196910671372));
#2231=CARTESIAN_POINT('',(0.,0.066,0.0974196910671372));
#2232=CARTESIAN_POINT('',(0.024,0.,0.003));
#2233=CARTESIAN_POINT('',(0.024,0.,0.113));
#2234=CARTESIAN_POINT('',(-0.00479711700380578,0.,0.0780621043026467));
#2235=CARTESIAN_POINT('',(-0.00959423400761156,0.,0.0780621043026467));
#2236=CARTESIAN_POINT('',(-0.00959423400761156,0.,0.0630621043026467));
#2237=CARTESIAN_POINT('',(-0.00959423400761156,0.,0.0480621043026467));
#2238=CARTESIAN_POINT('',(-0.00479711700380578,0.,0.0480621043026467));
#2239=CARTESIAN_POINT('',(0.006,0.,-0.004797115));
#2240=CARTESIAN_POINT('',(0.006,0.,-0.00959423));
#2241=CARTESIAN_POINT('',(0.0135,0.,-0.00959423));
#2242=CARTESIAN_POINT('',(0.036,0.,-0.00959423));
#2243=CARTESIAN_POINT('',(0.036,0.,-0.004797115));
#2244=CARTESIAN_POINT('',(0.0285,0.,-0.004797115));
#2245=CARTESIAN_POINT('',(0.0285,0.,-0.007047115));
#2246=CARTESIAN_POINT('',(0.0135,0.,-0.004797115));
#2247=CARTESIAN_POINT('',(0.0135,0.,-0.007047115));
#2248=CARTESIAN_POINT('',(-0.00479711700380578,0.,0.0705621043026467));
#2249=CARTESIAN_POINT('',(-0.00479711700380578,0.,0.0683121043026467));
#2250=CARTESIAN_POINT('',(-0.00479711700380578,0.,0.0555621043026467));
#2251=CARTESIAN_POINT('',(-0.00479711700380578,0.,0.0533121043026467));
#2252=CARTESIAN_POINT('',(0.024,0.039,0.003));
#2253=CARTESIAN_POINT('',(0.024,0.039,0.113));
#2254=CARTESIAN_POINT('',(0.046,0.0195,0.113));
#2255=CARTESIAN_POINT('',(0.046,0.036,0.113));
#2256=CARTESIAN_POINT('',(0.046,0.036,0.003));
#2257=CARTESIAN_POINT('',(0.046,0.0195,0.003));
#2258=CARTESIAN_POINT('',(0.046,0.003,0.003));
#2259=CARTESIAN_POINT('',(0.046,0.003,0.113));
#2260=CARTESIAN_POINT('',(0.024,0.003,0.113));
#2261=CARTESIAN_POINT('',(0.002,0.003,0.113));
#2262=CARTESIAN_POINT('',(0.002,0.003,0.003));
#2263=CARTESIAN_POINT('',(0.024,0.003,0.003));
#2264=CARTESIAN_POINT('',(0.002,0.0195,0.113));
#2265=CARTESIAN_POINT('',(0.002,0.0195,0.003));
#2266=CARTESIAN_POINT('',(0.002,0.00648712930161452,0.003));
#2267=CARTESIAN_POINT('',(0.002,0.00648712930161452,0.113));
#2268=CARTESIAN_POINT('',(0.002,0.00648712930161454,0.019));
#2269=CARTESIAN_POINT('',(0.002,0.0195,0.019));
#2270=CARTESIAN_POINT('',(0.002,0.0254871293016145,0.019));
#2271=CARTESIAN_POINT('',(0.002,0.0254871293016145,0.113));
#2272=CARTESIAN_POINT('',(0.002,0.0254871293016145,0.003));
#2273=CARTESIAN_POINT('',(0.002,0.0195,0.003));
#2274=CARTESIAN_POINT('',(0.002,0.036,0.003));
#2275=CARTESIAN_POINT('',(0.002,0.036,0.113));
#2276=CARTESIAN_POINT('',(0.002,0.0375,0.1103));
#2277=CARTESIAN_POINT('',(0.002,0.0375,0.1106));
#2278=CARTESIAN_POINT('',(0.002,0.03675,0.1115));
#2279=CARTESIAN_POINT('',(0.002,0.0195,0.113));
#2280=CARTESIAN_POINT('',(0.024,0.036,0.113));
#2281=CARTESIAN_POINT('',(0.024,0.036,0.003));
#2282=CARTESIAN_POINT('',(0.024,0.0195,0.113));
#2283=CARTESIAN_POINT('',(0.024,0.0195,0.003));
#2284=CARTESIAN_POINT('',(0.024,0.00648712930161452,0.003));
#2285=CARTESIAN_POINT('',(0.018,0.00648712930161452,0.003));
#2286=CARTESIAN_POINT('',(0.024,0.0254871293016145,0.003));
#2287=CARTESIAN_POINT('',(0.018,0.0254871293016145,0.003));
#2288=CARTESIAN_POINT('',(0.018,0.0195,0.003));
#2289=CARTESIAN_POINT('',(0.001998,0.0375,0.1103));
#2290=CARTESIAN_POINT('',(0.0065,0.0375,0.1103));
#2291=CARTESIAN_POINT('',(0.0065,0.0375,0.1106));
#2292=CARTESIAN_POINT('',(0.001998,0.0375,0.1106));
#2293=CARTESIAN_POINT('',(0.001998,0.03675,0.1115));
#2294=CARTESIAN_POINT('',(0.008,0.0374142135623731,0.110702943725152));
#2295=CARTESIAN_POINT('',(0.00870710678118655,0.0367071067811865,0.111551471862576));
#2296=CARTESIAN_POINT('',(0.00729289321881345,0.0367071067811865,0.111551471862576));
#2297=CARTESIAN_POINT('',(0.00678720930232557,0.0347872093023256,0.113855348837209));
#2298=CARTESIAN_POINT('',(0.00572325581395349,0.0382767441860465,0.109667906976744));
#2299=CARTESIAN_POINT('',(0.00985355339059327,0.0378535533905933,0.109998));
#2300=CARTESIAN_POINT('',(0.00870710678118655,0.0367071067811865,0.109998));
#2301=CARTESIAN_POINT('',(0.008,0.0374142135623731,0.109998));
#2302=CARTESIAN_POINT('',(0.00729289321881345,0.0367071067811865,0.109998));
#2303=CARTESIAN_POINT('',(0.00614644660940672,0.0378535533905933,0.109998));
#2304=CARTESIAN_POINT('',(0.00614644660940673,0.00114644660940672,0.109998));
#2305=CARTESIAN_POINT('',(0.00729289321881346,0.00229289321881345,0.109998));
#2306=CARTESIAN_POINT('',(0.00985355339059328,0.00114644660940672,0.109998));
#2307=CARTESIAN_POINT('',(0.00870710678118655,0.00229289321881345,0.109998));
#2308=CARTESIAN_POINT('',(0.008,0.0015857864376269,0.109998));
#2309=CARTESIAN_POINT('',(0.018,0.0159871293016145,0.019));
#2310=CARTESIAN_POINT('',(0.018,0.00648712930161454,0.019));
#2311=CARTESIAN_POINT('',(0.018,0.0254871293016145,0.019));
#2312=CARTESIAN_POINT('',(0.018,0.00648712930161452,0.0095));
#2313=CARTESIAN_POINT('',(0.018,0.00648712930161452,0.0095));
#2314=CARTESIAN_POINT('',(0.018,0.0254871293016145,0.0095));
#2315=CARTESIAN_POINT('',(0.018,0.0254871293016145,0.0095));
#2316=CARTESIAN_POINT('',(0.018,0.0195,0.0565));
#2317=CARTESIAN_POINT('',(0.024,0.0435,0.00658030893286281));
#2318=CARTESIAN_POINT('',(0.024,0.078,0.00658030893286281));
#2319=CARTESIAN_POINT('',(0.024,0.078,0.0565));
#2320=CARTESIAN_POINT('',(0.001998,0.07575,0.104919691067137));
#2321=CARTESIAN_POINT('',(0.00572325581395348,0.0772767441860465,0.103087598043881));
#2322=CARTESIAN_POINT('',(0.00729289321881346,0.0757071067811865,0.104971162929713));
#2323=CARTESIAN_POINT('',(0.0065,0.0765,0.104019691067137));
#2324=CARTESIAN_POINT('',(0.008,0.0764142135623731,0.104122634792289));
#2325=CARTESIAN_POINT('',(0.00870710678118655,0.0757071067811865,0.104971162929713));
#2326=CARTESIAN_POINT('',(0.00678720930232559,0.0737872093023256,0.107275039904346));
#2327=CARTESIAN_POINT('',(0.001998,0.0765,0.104019691067137));
#2328=CARTESIAN_POINT('',(0.001998,0.0765,0.103719691067137));
#2329=CARTESIAN_POINT('',(0.0065,0.0765,0.103719691067137));
#2330=CARTESIAN_POINT('',(0.001998,0.0405,0.103719691067137));
#2331=CARTESIAN_POINT('',(0.0095,0.0405,0.103719691067137));
#2332=CARTESIAN_POINT('',(0.0095,0.0405,0.104019691067137));
#2333=CARTESIAN_POINT('',(0.001998,0.0405,0.104019691067137));
#2334=CARTESIAN_POINT('',(0.001998,0.04125,0.104919691067137));
#2335=CARTESIAN_POINT('',(0.00678720930232559,0.0432127906976744,0.107275039904346));
#2336=CARTESIAN_POINT('',(0.00870710678118656,0.0412928932188135,0.104971162929713));
#2337=CARTESIAN_POINT('',(0.008,0.0405857864376269,0.104122634792289));
#2338=CARTESIAN_POINT('',(0.00729289321881346,0.0412928932188135,0.104971162929713));
#2339=CARTESIAN_POINT('',(0.00572325581395348,0.0397232558139535,0.103087598043881));
#2340=CARTESIAN_POINT('',(0.00985355339059328,0.0768535533905933,0.103417691067137));
#2341=CARTESIAN_POINT('',(0.00870710678118655,0.0757071067811865,0.103417691067137));
#2342=CARTESIAN_POINT('',(0.008,0.0764142135623731,0.103417691067137));
#2343=CARTESIAN_POINT('',(0.00729289321881346,0.0757071067811865,0.103417691067137));
#2344=CARTESIAN_POINT('',(0.00614644660940673,0.0768535533905933,0.103417691067137));
#2345=CARTESIAN_POINT('',(0.008,0.0405857864376269,0.103417691067137));
#2346=CARTESIAN_POINT('',(0.00870710678118656,0.0412928932188135,0.103417691067137));
#2347=CARTESIAN_POINT('',(0.00729289321881346,0.0412928932188135,0.103417691067137));
#2348=CARTESIAN_POINT('',(0.00985355339059328,0.0401464466094067,0.103417691067137));
#2349=CARTESIAN_POINT('',(0.00614644660940674,0.0401464466094067,0.103417691067137));
#2350=CARTESIAN_POINT('',(0.048002,0.05475,0.103419691067137));
#2351=CARTESIAN_POINT('',(0.048002,0.051,0.103419691067137));
#2352=CARTESIAN_POINT('',(0.048002,0.066,0.103419691067137));
#2353=CARTESIAN_POINT('',(0.048002,0.0585,0.0914196910671372));
#2354=CARTESIAN_POINT('',(0.048002,0.066,0.0914196910671372));
#2355=CARTESIAN_POINT('',(0.048002,0.051,0.0914196910671372));
#2356=CARTESIAN_POINT('',(0.048002,0.051,0.0974196910671372));
#2357=CARTESIAN_POINT('',(0.048002,0.066,0.0974196910671372));
#2358=CARTESIAN_POINT('',(0.006,0.005,-0.004797115));
#2359=CARTESIAN_POINT('',(0.006,0.005,-0.004797115));
#2360=CARTESIAN_POINT('',(0.006,0.005,-0.00959423));
#2361=CARTESIAN_POINT('',(0.006,0.005,-0.00959423));
#2362=CARTESIAN_POINT('',(0.0135,0.005,-0.00959423));
#2363=CARTESIAN_POINT('',(0.0135,0.005,-0.00959423));
#2364=CARTESIAN_POINT('',(0.036,0.005,-0.00959423));
#2365=CARTESIAN_POINT('',(0.036,0.005,-0.00959423));
#2366=CARTESIAN_POINT('',(0.036,0.005,-0.004797115));
#2367=CARTESIAN_POINT('',(0.036,0.005,-0.004797115));
#2368=CARTESIAN_POINT('',(0.0285,0.005,-0.004797115));
#2369=CARTESIAN_POINT('',(0.0285,0.005,-0.004797115));
#2370=CARTESIAN_POINT('',(0.0285,0.005,-0.007047115));
#2371=CARTESIAN_POINT('',(0.0135,0.005,-0.004797115));
#2372=CARTESIAN_POINT('',(0.0135,0.005,-0.004797115));
#2373=CARTESIAN_POINT('',(0.0135,0.005,-0.007047115));
#2374=CARTESIAN_POINT('',(0.0185778829961942,0.005,0.051702885));
#2375=CARTESIAN_POINT('',(-0.00479711700380578,0.005,0.0780621043026467));
#2376=CARTESIAN_POINT('',(-0.00479711700380578,0.005,0.0780621043026467));
#2377=CARTESIAN_POINT('',(-0.00959423400761156,0.005,0.0780621043026467));
#2378=CARTESIAN_POINT('',(-0.00959423400761156,0.005,0.0780621043026467));
#2379=CARTESIAN_POINT('',(-0.00959423400761156,0.005,0.0630621043026467));
#2380=CARTESIAN_POINT('',(-0.00959423400761156,0.005,0.0630621043026467));
#2381=CARTESIAN_POINT('',(-0.00959423400761156,0.005,0.0480621043026467));
#2382=CARTESIAN_POINT('',(-0.00959423400761156,0.005,0.0480621043026467));
#2383=CARTESIAN_POINT('',(-0.00479711700380578,0.005,0.0480621043026467));
#2384=CARTESIAN_POINT('',(-0.00479711700380578,0.005,0.0480621043026467));
#2385=CARTESIAN_POINT('',(-0.00479711700380578,0.005,0.0705621043026467));
#2386=CARTESIAN_POINT('',(-0.00479711700380578,0.005,0.0705621043026467));
#2387=CARTESIAN_POINT('',(-0.00479711700380578,0.005,0.0683121043026467));
#2388=CARTESIAN_POINT('',(-0.00479711700380578,0.005,0.0555621043026467));
#2389=CARTESIAN_POINT('',(-0.00479711700380578,0.005,0.0555621043026467));
#2390=CARTESIAN_POINT('',(-0.00479711700380578,0.005,0.0533121043026467));
#2391=CARTESIAN_POINT('',(0.0185778829961942,0.005,0.051702885));
#2392=MECHANICAL_DESIGN_GEOMETRIC_PRESENTATION_REPRESENTATION('',(#1499),
#2393);
#2393=(
GEOMETRIC_REPRESENTATION_CONTEXT(3)
GLOBAL_UNCERTAINTY_ASSIGNED_CONTEXT((#2394))
GLOBAL_UNIT_ASSIGNED_CONTEXT((#2397,#2396,#2395))
REPRESENTATION_CONTEXT('Part 1','TOP_LEVEL_ASSEMBLY_PART')
);
#2394=UNCERTAINTY_MEASURE_WITH_UNIT(LENGTH_MEASURE(1.E-8),#2397,
'DISTANCE_ACCURACY_VALUE','Maximum Tolerance applied to model');
#2395=(
NAMED_UNIT(*)
SI_UNIT($,.STERADIAN.)
SOLID_ANGLE_UNIT()
);
#2396=(
NAMED_UNIT(*)
PLANE_ANGLE_UNIT()
SI_UNIT($,.RADIAN.)
);
#2397=(
LENGTH_UNIT()
NAMED_UNIT(*)
SI_UNIT($,.METRE.)
);
#2398=PRODUCT_DEFINITION_SHAPE('','',#2399);
#2399=PRODUCT_DEFINITION('','',#2401,#2400);
#2400=PRODUCT_DEFINITION_CONTEXT('',#2407,'design');
#2401=PRODUCT_DEFINITION_FORMATION_WITH_SPECIFIED_SOURCE('','',#2403,
 .NOT_KNOWN.);
#2402=PRODUCT_RELATED_PRODUCT_CATEGORY('','',(#2403));
#2403=PRODUCT('Part 1','Part 1','Part 1',(#2405));
#2404=PRODUCT_CATEGORY('','');
#2405=PRODUCT_CONTEXT('',#2407,'mechanical');
#2406=APPLICATION_PROTOCOL_DEFINITION('international standard',
'ap242_managed_model_based_3d_engineering',2020,#2407);
#2407=APPLICATION_CONTEXT('managed model based 3d engineering');
ENDSEC;
END-ISO-10303-21;
