ISO-10303-21;
HEADER;
/* Generated by software containing ST-Developer
 * from STEP Tools, Inc. (www.steptools.com) 
 */
/* OPTION: using custom renumber hook */

FILE_DESCRIPTION(
/* description */ ('STEP AP242 Edition 2',
'CAx-IF Rec.Pracs.---Representation and Presentation of Product Manufa
cturing Information (PMI)---4.0---2014-10-13',
'CAx-IF Rec.Pracs.---3D Tessellated Geometry---0.4---2014-09-14','2;1',
'CAx-IF Rec.Pracs.---User Defined Attributes---1.5---2016-08-15'),
/* implementation_level */ '2;1');

FILE_NAME(
/* name */ 'Part Studio 3 - Part 3',
/* time_stamp */ '2026-08-30T22:56:03Z',
/* author */ (''),
/* organization */ (''),
/* preprocessor_version */ 'ST-DEVELOPER v20',
/* originating_system */ 'ONSHAPE BY PTC INC, 1.220',
/* authorisation */ '  ');

FILE_SCHEMA (('AP242_MANAGED_MODEL_BASED_3D_ENGINEERING_MIM_LF { 1 0 10303 442 3 1 4 }'));
ENDSEC;

DATA;
#10=SHAPE_REPRESENTATION_RELATIONSHIP('','',#291,#11);
#11=ADVANCED_BREP_SHAPE_REPRESENTATION('',(#289),#487);
#12=PLANE('',#296);
#13=PLANE('',#300);
#14=PLANE('',#304);
#15=PLANE('',#308);
#16=PLANE('',#312);
#17=PLANE('',#319);
#18=PLANE('',#320);
#19=PLANE('',#321);
#20=LINE('',#411,#44);
#21=LINE('',#415,#45);
#22=LINE('',#417,#46);
#23=LINE('',#419,#47);
#24=LINE('',#421,#48);
#25=LINE('',#427,#49);
#26=LINE('',#429,#50);
#27=LINE('',#431,#51);
#28=LINE('',#433,#52);
#29=LINE('',#439,#53);
#30=LINE('',#441,#54);
#31=LINE('',#443,#55);
#32=LINE('',#445,#56);
#33=LINE('',#451,#57);
#34=LINE('',#453,#58);
#35=LINE('',#455,#59);
#36=LINE('',#457,#60);
#37=LINE('',#463,#61);
#38=LINE('',#465,#62);
#39=LINE('',#467,#63);
#40=LINE('',#469,#64);
#41=LINE('',#475,#65);
#42=LINE('',#482,#66);
#43=LINE('',#483,#67);
#44=VECTOR('',#328,1.);
#45=VECTOR('',#331,1.);
#46=VECTOR('',#334,1.);
#47=VECTOR('',#335,1.);
#48=VECTOR('',#336,1.);
#49=VECTOR('',#343,1.);
#50=VECTOR('',#346,1.);
#51=VECTOR('',#347,1.);
#52=VECTOR('',#348,1.);
#53=VECTOR('',#355,1.);
#54=VECTOR('',#358,1.);
#55=VECTOR('',#359,1.);
#56=VECTOR('',#360,1.);
#57=VECTOR('',#367,1.);
#58=VECTOR('',#370,1.);
#59=VECTOR('',#371,1.);
#60=VECTOR('',#372,1.);
#61=VECTOR('',#379,1.);
#62=VECTOR('',#382,1.);
#63=VECTOR('',#383,1.);
#64=VECTOR('',#384,1.);
#65=VECTOR('',#391,1.);
#66=VECTOR('',#400,1.);
#67=VECTOR('',#401,1.);
#68=ORIENTED_EDGE('',*,*,#144,.F.);
#69=ORIENTED_EDGE('',*,*,#145,.T.);
#70=ORIENTED_EDGE('',*,*,#146,.T.);
#71=ORIENTED_EDGE('',*,*,#147,.F.);
#72=ORIENTED_EDGE('',*,*,#148,.F.);
#73=ORIENTED_EDGE('',*,*,#147,.T.);
#74=ORIENTED_EDGE('',*,*,#149,.T.);
#75=ORIENTED_EDGE('',*,*,#150,.F.);
#76=ORIENTED_EDGE('',*,*,#151,.F.);
#77=ORIENTED_EDGE('',*,*,#150,.T.);
#78=ORIENTED_EDGE('',*,*,#152,.T.);
#79=ORIENTED_EDGE('',*,*,#153,.F.);
#80=ORIENTED_EDGE('',*,*,#154,.F.);
#81=ORIENTED_EDGE('',*,*,#153,.T.);
#82=ORIENTED_EDGE('',*,*,#155,.T.);
#83=ORIENTED_EDGE('',*,*,#156,.F.);
#84=ORIENTED_EDGE('',*,*,#157,.F.);
#85=ORIENTED_EDGE('',*,*,#156,.T.);
#86=ORIENTED_EDGE('',*,*,#158,.T.);
#87=ORIENTED_EDGE('',*,*,#159,.F.);
#88=ORIENTED_EDGE('',*,*,#160,.F.);
#89=ORIENTED_EDGE('',*,*,#159,.T.);
#90=ORIENTED_EDGE('',*,*,#161,.T.);
#91=ORIENTED_EDGE('',*,*,#162,.F.);
#92=ORIENTED_EDGE('',*,*,#163,.F.);
#93=ORIENTED_EDGE('',*,*,#162,.T.);
#94=ORIENTED_EDGE('',*,*,#164,.T.);
#95=ORIENTED_EDGE('',*,*,#165,.F.);
#96=ORIENTED_EDGE('',*,*,#166,.F.);
#97=ORIENTED_EDGE('',*,*,#165,.T.);
#98=ORIENTED_EDGE('',*,*,#167,.T.);
#99=ORIENTED_EDGE('',*,*,#168,.F.);
#100=ORIENTED_EDGE('',*,*,#169,.F.);
#101=ORIENTED_EDGE('',*,*,#168,.T.);
#102=ORIENTED_EDGE('',*,*,#170,.T.);
#103=ORIENTED_EDGE('',*,*,#171,.F.);
#104=ORIENTED_EDGE('',*,*,#172,.F.);
#105=ORIENTED_EDGE('',*,*,#171,.T.);
#106=ORIENTED_EDGE('',*,*,#173,.T.);
#107=ORIENTED_EDGE('',*,*,#174,.F.);
#108=ORIENTED_EDGE('',*,*,#175,.F.);
#109=ORIENTED_EDGE('',*,*,#174,.T.);
#110=ORIENTED_EDGE('',*,*,#176,.T.);
#111=ORIENTED_EDGE('',*,*,#177,.F.);
#112=ORIENTED_EDGE('',*,*,#178,.F.);
#113=ORIENTED_EDGE('',*,*,#179,.T.);
#114=ORIENTED_EDGE('',*,*,#180,.F.);
#115=ORIENTED_EDGE('',*,*,#177,.T.);
#116=ORIENTED_EDGE('',*,*,#181,.T.);
#117=ORIENTED_EDGE('',*,*,#145,.F.);
#118=ORIENTED_EDGE('',*,*,#178,.T.);
#119=ORIENTED_EDGE('',*,*,#146,.F.);
#120=ORIENTED_EDGE('',*,*,#181,.F.);
#121=ORIENTED_EDGE('',*,*,#176,.F.);
#122=ORIENTED_EDGE('',*,*,#173,.F.);
#123=ORIENTED_EDGE('',*,*,#170,.F.);
#124=ORIENTED_EDGE('',*,*,#167,.F.);
#125=ORIENTED_EDGE('',*,*,#164,.F.);
#126=ORIENTED_EDGE('',*,*,#161,.F.);
#127=ORIENTED_EDGE('',*,*,#158,.F.);
#128=ORIENTED_EDGE('',*,*,#155,.F.);
#129=ORIENTED_EDGE('',*,*,#152,.F.);
#130=ORIENTED_EDGE('',*,*,#149,.F.);
#131=ORIENTED_EDGE('',*,*,#180,.T.);
#132=ORIENTED_EDGE('',*,*,#144,.T.);
#133=ORIENTED_EDGE('',*,*,#148,.T.);
#134=ORIENTED_EDGE('',*,*,#151,.T.);
#135=ORIENTED_EDGE('',*,*,#154,.T.);
#136=ORIENTED_EDGE('',*,*,#157,.T.);
#137=ORIENTED_EDGE('',*,*,#160,.T.);
#138=ORIENTED_EDGE('',*,*,#163,.T.);
#139=ORIENTED_EDGE('',*,*,#166,.T.);
#140=ORIENTED_EDGE('',*,*,#169,.T.);
#141=ORIENTED_EDGE('',*,*,#172,.T.);
#142=ORIENTED_EDGE('',*,*,#175,.T.);
#143=ORIENTED_EDGE('',*,*,#179,.F.);
#144=EDGE_CURVE('',#182,#183,#208,.T.);
#145=EDGE_CURVE('',#182,#184,#20,.T.);
#146=EDGE_CURVE('',#184,#185,#209,.T.);
#147=EDGE_CURVE('',#183,#185,#21,.T.);
#148=EDGE_CURVE('',#183,#186,#22,.T.);
#149=EDGE_CURVE('',#185,#187,#23,.T.);
#150=EDGE_CURVE('',#186,#187,#24,.T.);
#151=EDGE_CURVE('',#186,#188,#210,.T.);
#152=EDGE_CURVE('',#187,#189,#211,.T.);
#153=EDGE_CURVE('',#188,#189,#25,.T.);
#154=EDGE_CURVE('',#188,#190,#26,.T.);
#155=EDGE_CURVE('',#189,#191,#27,.T.);
#156=EDGE_CURVE('',#190,#191,#28,.T.);
#157=EDGE_CURVE('',#190,#192,#212,.T.);
#158=EDGE_CURVE('',#191,#193,#213,.T.);
#159=EDGE_CURVE('',#192,#193,#29,.T.);
#160=EDGE_CURVE('',#192,#194,#30,.T.);
#161=EDGE_CURVE('',#193,#195,#31,.T.);
#162=EDGE_CURVE('',#194,#195,#32,.T.);
#163=EDGE_CURVE('',#194,#196,#214,.T.);
#164=EDGE_CURVE('',#195,#197,#215,.T.);
#165=EDGE_CURVE('',#196,#197,#33,.T.);
#166=EDGE_CURVE('',#196,#198,#34,.T.);
#167=EDGE_CURVE('',#197,#199,#35,.T.);
#168=EDGE_CURVE('',#198,#199,#36,.T.);
#169=EDGE_CURVE('',#198,#200,#216,.T.);
#170=EDGE_CURVE('',#199,#201,#217,.T.);
#171=EDGE_CURVE('',#200,#201,#37,.T.);
#172=EDGE_CURVE('',#200,#202,#38,.T.);
#173=EDGE_CURVE('',#201,#203,#39,.T.);
#174=EDGE_CURVE('',#202,#203,#40,.T.);
#175=EDGE_CURVE('',#202,#204,#218,.T.);
#176=EDGE_CURVE('',#203,#205,#219,.T.);
#177=EDGE_CURVE('',#204,#205,#41,.T.);
#178=EDGE_CURVE('',#206,#206,#220,.T.);
#179=EDGE_CURVE('',#207,#207,#221,.T.);
#180=EDGE_CURVE('',#204,#182,#42,.T.);
#181=EDGE_CURVE('',#205,#184,#43,.T.);
#182=VERTEX_POINT('',#409);
#183=VERTEX_POINT('',#410);
#184=VERTEX_POINT('',#412);
#185=VERTEX_POINT('',#414);
#186=VERTEX_POINT('',#418);
#187=VERTEX_POINT('',#420);
#188=VERTEX_POINT('',#424);
#189=VERTEX_POINT('',#426);
#190=VERTEX_POINT('',#430);
#191=VERTEX_POINT('',#432);
#192=VERTEX_POINT('',#436);
#193=VERTEX_POINT('',#438);
#194=VERTEX_POINT('',#442);
#195=VERTEX_POINT('',#444);
#196=VERTEX_POINT('',#448);
#197=VERTEX_POINT('',#450);
#198=VERTEX_POINT('',#454);
#199=VERTEX_POINT('',#456);
#200=VERTEX_POINT('',#460);
#201=VERTEX_POINT('',#462);
#202=VERTEX_POINT('',#466);
#203=VERTEX_POINT('',#468);
#204=VERTEX_POINT('',#472);
#205=VERTEX_POINT('',#474);
#206=VERTEX_POINT('',#478);
#207=VERTEX_POINT('',#480);
#208=CIRCLE('',#294,0.0004);
#209=CIRCLE('',#295,0.0004);
#210=CIRCLE('',#298,0.0004);
#211=CIRCLE('',#299,0.0004);
#212=CIRCLE('',#302,0.0004);
#213=CIRCLE('',#303,0.0004);
#214=CIRCLE('',#306,0.0004);
#215=CIRCLE('',#307,0.0004);
#216=CIRCLE('',#310,0.0004);
#217=CIRCLE('',#311,0.0004);
#218=CIRCLE('',#314,0.0004);
#219=CIRCLE('',#315,0.0004);
#220=CIRCLE('',#317,0.00555);
#221=CIRCLE('',#318,0.00555);
#222=EDGE_LOOP('',(#68,#69,#70,#71));
#223=EDGE_LOOP('',(#72,#73,#74,#75));
#224=EDGE_LOOP('',(#76,#77,#78,#79));
#225=EDGE_LOOP('',(#80,#81,#82,#83));
#226=EDGE_LOOP('',(#84,#85,#86,#87));
#227=EDGE_LOOP('',(#88,#89,#90,#91));
#228=EDGE_LOOP('',(#92,#93,#94,#95));
#229=EDGE_LOOP('',(#96,#97,#98,#99));
#230=EDGE_LOOP('',(#100,#101,#102,#103));
#231=EDGE_LOOP('',(#104,#105,#106,#107));
#232=EDGE_LOOP('',(#108,#109,#110,#111));
#233=EDGE_LOOP('',(#112));
#234=EDGE_LOOP('',(#113));
#235=EDGE_LOOP('',(#114,#115,#116,#117));
#236=EDGE_LOOP('',(#118));
#237=EDGE_LOOP('',(#119,#120,#121,#122,#123,#124,#125,#126,#127,#128,#129,
#130));
#238=EDGE_LOOP('',(#131,#132,#133,#134,#135,#136,#137,#138,#139,#140,#141,
#142));
#239=EDGE_LOOP('',(#143));
#240=FACE_BOUND('',#222,.T.);
#241=FACE_BOUND('',#223,.T.);
#242=FACE_BOUND('',#224,.T.);
#243=FACE_BOUND('',#225,.T.);
#244=FACE_BOUND('',#226,.T.);
#245=FACE_BOUND('',#227,.T.);
#246=FACE_BOUND('',#228,.T.);
#247=FACE_BOUND('',#229,.T.);
#248=FACE_BOUND('',#230,.T.);
#249=FACE_BOUND('',#231,.T.);
#250=FACE_BOUND('',#232,.T.);
#251=FACE_BOUND('',#233,.T.);
#252=FACE_BOUND('',#234,.T.);
#253=FACE_BOUND('',#235,.T.);
#254=FACE_BOUND('',#236,.T.);
#255=FACE_BOUND('',#237,.T.);
#256=FACE_BOUND('',#238,.T.);
#257=FACE_BOUND('',#239,.T.);
#258=CYLINDRICAL_SURFACE('',#293,0.0004);
#259=CYLINDRICAL_SURFACE('',#297,0.0004);
#260=CYLINDRICAL_SURFACE('',#301,0.0004);
#261=CYLINDRICAL_SURFACE('',#305,0.0004);
#262=CYLINDRICAL_SURFACE('',#309,0.0004);
#263=CYLINDRICAL_SURFACE('',#313,0.0004);
#264=CYLINDRICAL_SURFACE('',#316,0.00555);
#265=ADVANCED_FACE('',(#240),#258,.T.);
#266=ADVANCED_FACE('',(#241),#12,.F.);
#267=ADVANCED_FACE('',(#242),#259,.T.);
#268=ADVANCED_FACE('',(#243),#13,.F.);
#269=ADVANCED_FACE('',(#244),#260,.T.);
#270=ADVANCED_FACE('',(#245),#14,.F.);
#271=ADVANCED_FACE('',(#246),#261,.T.);
#272=ADVANCED_FACE('',(#247),#15,.F.);
#273=ADVANCED_FACE('',(#248),#262,.T.);
#274=ADVANCED_FACE('',(#249),#16,.F.);
#275=ADVANCED_FACE('',(#250),#263,.T.);
#276=ADVANCED_FACE('',(#251,#252),#264,.F.);
#277=ADVANCED_FACE('',(#253),#17,.F.);
#278=ADVANCED_FACE('',(#254,#255),#18,.F.);
#279=ADVANCED_FACE('',(#256,#257),#19,.T.);
#280=CLOSED_SHELL('',(#265,#266,#267,#268,#269,#270,#271,#272,#273,#274,
#275,#276,#277,#278,#279));
#281=STYLED_ITEM('',(#282),#289);
#282=PRESENTATION_STYLE_ASSIGNMENT((#283));
#283=SURFACE_STYLE_USAGE(.BOTH.,#284);
#284=SURFACE_SIDE_STYLE('',(#285));
#285=SURFACE_STYLE_FILL_AREA(#286);
#286=FILL_AREA_STYLE('',(#287));
#287=FILL_AREA_STYLE_COLOUR('',#288);
#288=COLOUR_RGB('',0.231372549019608,0.380392156862745,0.705882352941177);
#289=MANIFOLD_SOLID_BREP('Part 3',#280);
#290=SHAPE_DEFINITION_REPRESENTATION(#492,#291);
#291=SHAPE_REPRESENTATION('Part 3',(#292),#487);
#292=AXIS2_PLACEMENT_3D('',#406,#322,#323);
#293=AXIS2_PLACEMENT_3D('',#407,#324,#325);
#294=AXIS2_PLACEMENT_3D('',#408,#326,#327);
#295=AXIS2_PLACEMENT_3D('',#413,#329,#330);
#296=AXIS2_PLACEMENT_3D('',#416,#332,#333);
#297=AXIS2_PLACEMENT_3D('',#422,#337,#338);
#298=AXIS2_PLACEMENT_3D('',#423,#339,#340);
#299=AXIS2_PLACEMENT_3D('',#425,#341,#342);
#300=AXIS2_PLACEMENT_3D('',#428,#344,#345);
#301=AXIS2_PLACEMENT_3D('',#434,#349,#350);
#302=AXIS2_PLACEMENT_3D('',#435,#351,#352);
#303=AXIS2_PLACEMENT_3D('',#437,#353,#354);
#304=AXIS2_PLACEMENT_3D('',#440,#356,#357);
#305=AXIS2_PLACEMENT_3D('',#446,#361,#362);
#306=AXIS2_PLACEMENT_3D('',#447,#363,#364);
#307=AXIS2_PLACEMENT_3D('',#449,#365,#366);
#308=AXIS2_PLACEMENT_3D('',#452,#368,#369);
#309=AXIS2_PLACEMENT_3D('',#458,#373,#374);
#310=AXIS2_PLACEMENT_3D('',#459,#375,#376);
#311=AXIS2_PLACEMENT_3D('',#461,#377,#378);
#312=AXIS2_PLACEMENT_3D('',#464,#380,#381);
#313=AXIS2_PLACEMENT_3D('',#470,#385,#386);
#314=AXIS2_PLACEMENT_3D('',#471,#387,#388);
#315=AXIS2_PLACEMENT_3D('',#473,#389,#390);
#316=AXIS2_PLACEMENT_3D('',#476,#392,#393);
#317=AXIS2_PLACEMENT_3D('',#477,#394,#395);
#318=AXIS2_PLACEMENT_3D('',#479,#396,#397);
#319=AXIS2_PLACEMENT_3D('',#481,#398,#399);
#320=AXIS2_PLACEMENT_3D('',#484,#402,#403);
#321=AXIS2_PLACEMENT_3D('',#485,#404,#405);
#322=DIRECTION('',(0.,0.,1.));
#323=DIRECTION('',(1.,0.,0.));
#324=DIRECTION('',(1.,0.,0.));
#325=DIRECTION('',(0.,0.,-1.));
#326=DIRECTION('',(-1.,0.,0.));
#327=DIRECTION('',(0.,0.,1.));
#328=DIRECTION('',(1.,0.,0.));
#329=DIRECTION('',(-1.,0.,0.));
#330=DIRECTION('',(0.,0.,1.));
#331=DIRECTION('',(1.,0.,0.));
#332=DIRECTION('',(0.,0.406499485482692,0.913651010124931));
#333=DIRECTION('',(0.,-0.913651010124931,0.406499485482692));
#334=DIRECTION('',(0.,-0.913651010124931,0.406499485482692));
#335=DIRECTION('',(0.,-0.913651010124931,0.406499485482692));
#336=DIRECTION('',(1.,0.,0.));
#337=DIRECTION('',(1.,0.,0.));
#338=DIRECTION('',(0.,0.,-1.));
#339=DIRECTION('',(-1.,0.,0.));
#340=DIRECTION('',(0.,0.,1.));
#341=DIRECTION('',(-1.,0.,0.));
#342=DIRECTION('',(0.,0.,1.));
#343=DIRECTION('',(1.,0.,0.));
#344=DIRECTION('',(0.,0.99449472770285,0.10478662400915));
#345=DIRECTION('',(0.,-0.10478662400915,0.99449472770285));
#346=DIRECTION('',(0.,-0.10478662400915,0.99449472770285));
#347=DIRECTION('',(0.,-0.10478662400915,0.99449472770285));
#348=DIRECTION('',(1.,0.,0.));
#349=DIRECTION('',(1.,0.,0.));
#350=DIRECTION('',(0.,0.,-1.));
#351=DIRECTION('',(-1.,0.,0.));
#352=DIRECTION('',(0.,0.,1.));
#353=DIRECTION('',(-1.,0.,0.));
#354=DIRECTION('',(0.,0.,1.));
#355=DIRECTION('',(1.,0.,0.));
#356=DIRECTION('',(0.,0.587995242220157,-0.808864386115781));
#357=DIRECTION('',(0.,0.808864386115781,0.587995242220157));
#358=DIRECTION('',(0.,0.808864386115781,0.587995242220157));
#359=DIRECTION('',(0.,0.808864386115781,0.587995242220157));
#360=DIRECTION('',(1.,0.,0.));
#361=DIRECTION('',(1.,0.,0.));
#362=DIRECTION('',(0.,0.,-1.));
#363=DIRECTION('',(-1.,0.,0.));
#364=DIRECTION('',(0.,0.,1.));
#365=DIRECTION('',(-1.,0.,0.));
#366=DIRECTION('',(0.,0.,1.));
#367=DIRECTION('',(1.,0.,0.));
#368=DIRECTION('',(0.,-0.406499485482692,-0.913651010124931));
#369=DIRECTION('',(0.,0.913651010124931,-0.406499485482692));
#370=DIRECTION('',(0.,0.913651010124931,-0.406499485482692));
#371=DIRECTION('',(0.,0.913651010124931,-0.406499485482692));
#372=DIRECTION('',(1.,0.,0.));
#373=DIRECTION('',(1.,0.,0.));
#374=DIRECTION('',(0.,0.,-1.));
#375=DIRECTION('',(-1.,0.,0.));
#376=DIRECTION('',(0.,0.,1.));
#377=DIRECTION('',(-1.,0.,0.));
#378=DIRECTION('',(0.,0.,1.));
#379=DIRECTION('',(1.,0.,0.));
#380=DIRECTION('',(0.,-0.994494727702849,-0.104786624009151));
#381=DIRECTION('',(0.,0.104786624009151,-0.99449472770285));
#382=DIRECTION('',(0.,0.104786624009151,-0.99449472770285));
#383=DIRECTION('',(0.,0.104786624009151,-0.99449472770285));
#384=DIRECTION('',(1.,0.,0.));
#385=DIRECTION('',(1.,0.,0.));
#386=DIRECTION('',(0.,0.,-1.));
#387=DIRECTION('',(-1.,0.,0.));
#388=DIRECTION('',(0.,0.,1.));
#389=DIRECTION('',(-1.,0.,0.));
#390=DIRECTION('',(0.,0.,1.));
#391=DIRECTION('',(1.,0.,0.));
#392=DIRECTION('',(1.,0.,0.));
#393=DIRECTION('',(0.,0.,-1.));
#394=DIRECTION('',(-1.,0.,0.));
#395=DIRECTION('',(0.,0.,1.));
#396=DIRECTION('',(-1.,0.,0.));
#397=DIRECTION('',(0.,0.,1.));
#398=DIRECTION('',(0.,-0.587995242220157,0.808864386115781));
#399=DIRECTION('',(0.,-0.808864386115781,-0.587995242220157));
#400=DIRECTION('',(0.,-0.808864386115781,-0.587995242220157));
#401=DIRECTION('',(0.,-0.808864386115781,-0.587995242220157));
#402=DIRECTION('',(-1.,0.,0.));
#403=DIRECTION('',(0.,-1.,0.));
#404=DIRECTION('',(-1.,0.,0.));
#405=DIRECTION('',(0.,0.80886438611578,0.587995242220158));
#406=CARTESIAN_POINT('',(0.,0.,0.));
#407=CARTESIAN_POINT('',(-0.004002,0.000671534299928625,-0.00637330696609063));
#408=CARTESIAN_POINT('',(-0.004,0.000671534299928625,-0.00637330696609063));
#409=CARTESIAN_POINT('',(-0.004,0.000906732396816687,-0.00669685272053694));
#410=CARTESIAN_POINT('',(-0.004,0.000508934505735547,-0.0067387673701406));
#411=CARTESIAN_POINT('',(-0.004002,0.000906732396816687,-0.00669685272053694));
#412=CARTESIAN_POINT('',(4.17417836406919E-18,0.000906732396816687,-0.00669685272053694));
#413=CARTESIAN_POINT('',(4.17417836406919E-18,0.000671534299928625,-0.00637330696609063));
#414=CARTESIAN_POINT('',(4.17417836406919E-18,0.000508934505735547,-0.0067387673701406));
#415=CARTESIAN_POINT('',(-0.004002,0.000508934505735547,-0.0067387673701406));
#416=CARTESIAN_POINT('',(-0.004002,-0.00241867193862202,-0.00543622351024333));
#417=CARTESIAN_POINT('',(-0.004,-0.00241867193862202,-0.00543622351024333));
#418=CARTESIAN_POINT('',(-0.004,-0.00534627838297958,-0.00413367965034608));
#419=CARTESIAN_POINT('',(4.17417836406919E-18,-0.00241867193862202,-0.00543622351024333));
#420=CARTESIAN_POINT('',(4.17417836406919E-18,-0.00534627838297958,-0.00413367965034608));
#421=CARTESIAN_POINT('',(-0.004002,-0.00534627838297958,-0.00413367965034608));
#422=CARTESIAN_POINT('',(-0.004002,-0.0051836785887865,-0.0037682192462961));
#423=CARTESIAN_POINT('',(-0.004,-0.0051836785887865,-0.0037682192462961));
#424=CARTESIAN_POINT('',(-0.004,-0.00558147647986764,-0.00381013389589976));
#425=CARTESIAN_POINT('',(4.17417836406919E-18,-0.0051836785887865,-0.0037682192462961));
#426=CARTESIAN_POINT('',(4.17417836406919E-18,-0.00558147647986764,-0.00381013389589976));
#427=CARTESIAN_POINT('',(-0.004002,-0.00558147647986764,-0.00381013389589976));
#428=CARTESIAN_POINT('',(-0.004002,-0.00591724362983195,-0.000623480412854439));
#429=CARTESIAN_POINT('',(-0.004,-0.00591724362983195,-0.000623480412854439));
#430=CARTESIAN_POINT('',(-0.004,-0.00625301077979626,0.00256317307019088));
#431=CARTESIAN_POINT('',(4.17417836406919E-18,-0.00591724362983195,-0.000623480412854439));
#432=CARTESIAN_POINT('',(4.17417836406919E-18,-0.00625301077979626,0.00256317307019088));
#433=CARTESIAN_POINT('',(-0.004002,-0.00625301077979626,0.00256317307019088));
#434=CARTESIAN_POINT('',(-0.004002,-0.00585521288871512,0.00260508771979454));
#435=CARTESIAN_POINT('',(-0.004,-0.00585521288871512,0.00260508771979454));
#436=CARTESIAN_POINT('',(-0.004,-0.00609041098560318,0.00292863347424085));
#437=CARTESIAN_POINT('',(4.17417836406919E-18,-0.00585521288871512,0.00260508771979454));
#438=CARTESIAN_POINT('',(4.17417836406919E-18,-0.00609041098560318,0.00292863347424085));
#439=CARTESIAN_POINT('',(-0.004002,-0.00609041098560318,0.00292863347424085));
#440=CARTESIAN_POINT('',(-0.004002,-0.00349857169120994,0.0048127430973889));
#441=CARTESIAN_POINT('',(-0.004,-0.00349857169120994,0.0048127430973889));
#442=CARTESIAN_POINT('',(-0.004,-0.000906732396816685,0.00669685272053694));
#443=CARTESIAN_POINT('',(4.17417836406919E-18,-0.00349857169120994,0.0048127430973889));
#444=CARTESIAN_POINT('',(4.17417836406919E-18,-0.000906732396816685,0.00669685272053694));
#445=CARTESIAN_POINT('',(-0.004002,-0.000906732396816685,0.00669685272053694));
#446=CARTESIAN_POINT('',(-0.004002,-0.000671534299928622,0.00637330696609063));
#447=CARTESIAN_POINT('',(-0.004,-0.000671534299928622,0.00637330696609063));
#448=CARTESIAN_POINT('',(-0.004,-0.000508934505735544,0.00673876737014061));
#449=CARTESIAN_POINT('',(4.17417836406919E-18,-0.000671534299928622,0.00637330696609063));
#450=CARTESIAN_POINT('',(4.17417836406919E-18,-0.000508934505735544,0.00673876737014061));
#451=CARTESIAN_POINT('',(-0.004002,-0.000508934505735544,0.00673876737014061));
#452=CARTESIAN_POINT('',(-0.004002,0.00241867193862202,0.00543622351024334));
#453=CARTESIAN_POINT('',(-0.004,0.00241867193862202,0.00543622351024334));
#454=CARTESIAN_POINT('',(-0.004,0.00534627838297959,0.00413367965034608));
#455=CARTESIAN_POINT('',(4.17417836406919E-18,0.00241867193862202,0.00543622351024334));
#456=CARTESIAN_POINT('',(4.17417836406919E-18,0.00534627838297959,0.00413367965034608));
#457=CARTESIAN_POINT('',(-0.004002,0.00534627838297959,0.00413367965034608));
#458=CARTESIAN_POINT('',(-0.004002,0.00518367858878651,0.0037682192462961));
#459=CARTESIAN_POINT('',(-0.004,0.00518367858878651,0.0037682192462961));
#460=CARTESIAN_POINT('',(-0.004,0.00558147647986765,0.00381013389589976));
#461=CARTESIAN_POINT('',(4.17417836406919E-18,0.00518367858878651,0.0037682192462961));
#462=CARTESIAN_POINT('',(4.17417836406919E-18,0.00558147647986765,0.00381013389589976));
#463=CARTESIAN_POINT('',(-0.004002,0.00558147647986765,0.00381013389589976));
#464=CARTESIAN_POINT('',(-0.004002,0.00591724362983196,0.000623480412854444));
#465=CARTESIAN_POINT('',(-0.004,0.00591724362983196,0.000623480412854444));
#466=CARTESIAN_POINT('',(-0.004,0.00625301077979627,-0.00256317307019087));
#467=CARTESIAN_POINT('',(4.17417836406919E-18,0.00591724362983196,0.000623480412854444));
#468=CARTESIAN_POINT('',(4.17417836406919E-18,0.00625301077979627,-0.00256317307019087));
#469=CARTESIAN_POINT('',(-0.004002,0.00625301077979627,-0.00256317307019087));
#470=CARTESIAN_POINT('',(-0.004002,0.00585521288871513,-0.00260508771979453));
#471=CARTESIAN_POINT('',(-0.004,0.00585521288871513,-0.00260508771979453));
#472=CARTESIAN_POINT('',(-0.004,0.00609041098560319,-0.00292863347424084));
#473=CARTESIAN_POINT('',(4.17417836406919E-18,0.00585521288871513,-0.00260508771979453));
#474=CARTESIAN_POINT('',(4.17417836406919E-18,0.00609041098560319,-0.00292863347424084));
#475=CARTESIAN_POINT('',(-0.004002,0.00609041098560319,-0.00292863347424084));
#476=CARTESIAN_POINT('',(-0.004002,0.,3.3983948676339E-19));
#477=CARTESIAN_POINT('',(4.17417836406919E-18,0.,3.3983948676339E-19));
#478=CARTESIAN_POINT('',(4.17417836406919E-18,0.,0.00555));
#479=CARTESIAN_POINT('',(-0.004,0.,3.3983948676339E-19));
#480=CARTESIAN_POINT('',(-0.004,0.,0.00555));
#481=CARTESIAN_POINT('',(-0.004002,0.00349857169120994,-0.00481274309738889));
#482=CARTESIAN_POINT('',(-0.004,0.00349857169120994,-0.00481274309738889));
#483=CARTESIAN_POINT('',(4.17417836406919E-18,0.00349857169120994,-0.00481274309738889));
#484=CARTESIAN_POINT('',(4.17417836406919E-18,3.46944695195361E-18,0.));
#485=CARTESIAN_POINT('',(-0.004,0.00470396193776126,-0.00647091508892624));
#486=MECHANICAL_DESIGN_GEOMETRIC_PRESENTATION_REPRESENTATION('',(#281),
#487);
#487=(
GEOMETRIC_REPRESENTATION_CONTEXT(3)
GLOBAL_UNCERTAINTY_ASSIGNED_CONTEXT((#488))
GLOBAL_UNIT_ASSIGNED_CONTEXT((#491,#490,#489))
REPRESENTATION_CONTEXT('Part 3','TOP_LEVEL_ASSEMBLY_PART')
);
#488=UNCERTAINTY_MEASURE_WITH_UNIT(LENGTH_MEASURE(1.E-8),#491,
'DISTANCE_ACCURACY_VALUE','Maximum Tolerance applied to model');
#489=(
NAMED_UNIT(*)
SI_UNIT($,.STERADIAN.)
SOLID_ANGLE_UNIT()
);
#490=(
NAMED_UNIT(*)
PLANE_ANGLE_UNIT()
SI_UNIT($,.RADIAN.)
);
#491=(
LENGTH_UNIT()
NAMED_UNIT(*)
SI_UNIT($,.METRE.)
);
#492=PRODUCT_DEFINITION_SHAPE('','',#493);
#493=PRODUCT_DEFINITION('','',#495,#494);
#494=PRODUCT_DEFINITION_CONTEXT('',#501,'design');
#495=PRODUCT_DEFINITION_FORMATION_WITH_SPECIFIED_SOURCE('','',#497,
 .NOT_KNOWN.);
#496=PRODUCT_RELATED_PRODUCT_CATEGORY('','',(#497));
#497=PRODUCT('Part 3','Part 3','Part 3',(#499));
#498=PRODUCT_CATEGORY('','');
#499=PRODUCT_CONTEXT('',#501,'mechanical');
#500=APPLICATION_PROTOCOL_DEFINITION('international standard',
'ap242_managed_model_based_3d_engineering',2020,#501);
#501=APPLICATION_CONTEXT('managed model based 3d engineering');
ENDSEC;
END-ISO-10303-21;
