ISO-10303-21;
HEADER;
/* Generated by software containing ST-Developer
 * from STEP Tools, Inc. (www.steptools.com) 
 */
/* OPTION: using custom renumber hook */

FILE_DESCRIPTION(
/* description */ ('STEP AP242 Edition 2',
'CAx-IF Rec.Pracs.---Representation and Presentation of Product Manufa
cturing Information (PMI)---4.0---2014-10-13',
'CAx-IF Rec.Pracs.---3D Tessellated Geometry---0.4---2014-09-14','2;1',
'CAx-IF Rec.Pracs.---User Defined Attributes---1.5---2016-08-15'),
/* implementation_level */ '2;1');

FILE_NAME(
/* name */ 'Part Studio 1 - Part 1',
/* time_stamp */ '2026-08-30T22:36:24Z',
/* author */ (''),
/* organization */ (''),
/* preprocessor_version */ 'ST-DEVELOPER v20',
/* originating_system */ 'ONSHAPE BY PTC INC, 1.220',
/* authorisation */ '  ');

FILE_SCHEMA (('AP242_MANAGED_MODEL_BASED_3D_ENGINEERING_MIM_LF { 1 0 10303 442 3 1 4 }'));
ENDSEC;

DATA;
#10=SHAPE_REPRESENTATION_RELATIONSHIP('','',#808,#11);
#11=ADVANCED_BREP_SHAPE_REPRESENTATION('',(#806),#1344);
#12=CYLINDRICAL_SURFACE('',#839,0.002);
#13=CYLINDRICAL_SURFACE('',#840,0.002);
#14=CYLINDRICAL_SURFACE('',#841,0.002);
#15=CYLINDRICAL_SURFACE('',#842,0.002);
#16=CYLINDRICAL_SURFACE('',#857,0.0035);
#17=CYLINDRICAL_SURFACE('',#861,0.0025);
#18=CYLINDRICAL_SURFACE('',#867,0.0025);
#19=CYLINDRICAL_SURFACE('',#870,0.0035);
#20=CYLINDRICAL_SURFACE('',#875,0.0045);
#21=CYLINDRICAL_SURFACE('',#881,0.003);
#22=CYLINDRICAL_SURFACE('',#882,0.003);
#23=CYLINDRICAL_SURFACE('',#883,0.00175);
#24=CYLINDRICAL_SURFACE('',#884,0.00175);
#25=CYLINDRICAL_SURFACE('',#885,0.00175);
#26=CYLINDRICAL_SURFACE('',#886,0.00175);
#27=CIRCLE('',#811,0.002);
#28=CIRCLE('',#812,0.002);
#29=CIRCLE('',#813,0.00175);
#30=CIRCLE('',#814,0.00175);
#31=CIRCLE('',#816,0.002);
#32=CIRCLE('',#817,0.002);
#33=CIRCLE('',#818,0.00175);
#34=CIRCLE('',#819,0.00175);
#35=CIRCLE('',#821,0.00175);
#36=CIRCLE('',#822,0.00175);
#37=CIRCLE('',#823,0.002);
#38=CIRCLE('',#824,0.002);
#39=CIRCLE('',#825,0.002);
#40=CIRCLE('',#826,0.002);
#41=CIRCLE('',#827,0.00175);
#42=CIRCLE('',#828,0.00175);
#43=CIRCLE('',#832,0.003);
#44=CIRCLE('',#833,0.003);
#45=CIRCLE('',#836,0.003);
#46=CIRCLE('',#837,0.003);
#47=CIRCLE('',#844,0.0035);
#48=CIRCLE('',#845,0.0025);
#49=CIRCLE('',#847,0.0025);
#50=CIRCLE('',#849,0.0025);
#51=CIRCLE('',#852,0.0025);
#52=CIRCLE('',#854,0.0025);
#53=CIRCLE('',#858,0.0035);
#54=CIRCLE('',#859,0.0035);
#55=CIRCLE('',#862,0.0025);
#56=CIRCLE('',#863,0.0025);
#57=CIRCLE('',#864,0.0025);
#58=CIRCLE('',#866,0.0045);
#59=CIRCLE('',#868,0.0025);
#60=CIRCLE('',#869,0.0025);
#61=CIRCLE('',#871,0.0035);
#62=CIRCLE('',#873,0.0045);
#63=ORIENTED_EDGE('',*,*,#281,.T.);
#64=ORIENTED_EDGE('',*,*,#282,.T.);
#65=ORIENTED_EDGE('',*,*,#283,.F.);
#66=ORIENTED_EDGE('',*,*,#284,.T.);
#67=ORIENTED_EDGE('',*,*,#285,.T.);
#68=ORIENTED_EDGE('',*,*,#286,.T.);
#69=ORIENTED_EDGE('',*,*,#287,.F.);
#70=ORIENTED_EDGE('',*,*,#288,.T.);
#71=ORIENTED_EDGE('',*,*,#289,.F.);
#72=ORIENTED_EDGE('',*,*,#290,.T.);
#73=ORIENTED_EDGE('',*,*,#291,.T.);
#74=ORIENTED_EDGE('',*,*,#292,.T.);
#75=ORIENTED_EDGE('',*,*,#293,.F.);
#76=ORIENTED_EDGE('',*,*,#294,.T.);
#77=ORIENTED_EDGE('',*,*,#295,.F.);
#78=ORIENTED_EDGE('',*,*,#296,.T.);
#79=ORIENTED_EDGE('',*,*,#297,.F.);
#80=ORIENTED_EDGE('',*,*,#298,.F.);
#81=ORIENTED_EDGE('',*,*,#299,.T.);
#82=ORIENTED_EDGE('',*,*,#300,.T.);
#83=ORIENTED_EDGE('',*,*,#301,.T.);
#84=ORIENTED_EDGE('',*,*,#302,.T.);
#85=ORIENTED_EDGE('',*,*,#303,.F.);
#86=ORIENTED_EDGE('',*,*,#304,.T.);
#87=ORIENTED_EDGE('',*,*,#305,.F.);
#88=ORIENTED_EDGE('',*,*,#306,.T.);
#89=ORIENTED_EDGE('',*,*,#307,.T.);
#90=ORIENTED_EDGE('',*,*,#308,.T.);
#91=ORIENTED_EDGE('',*,*,#309,.T.);
#92=ORIENTED_EDGE('',*,*,#310,.T.);
#93=ORIENTED_EDGE('',*,*,#311,.F.);
#94=ORIENTED_EDGE('',*,*,#312,.T.);
#95=ORIENTED_EDGE('',*,*,#313,.T.);
#96=ORIENTED_EDGE('',*,*,#314,.T.);
#97=ORIENTED_EDGE('',*,*,#315,.F.);
#98=ORIENTED_EDGE('',*,*,#316,.F.);
#99=ORIENTED_EDGE('',*,*,#317,.F.);
#100=ORIENTED_EDGE('',*,*,#318,.T.);
#101=ORIENTED_EDGE('',*,*,#319,.T.);
#102=ORIENTED_EDGE('',*,*,#315,.T.);
#103=ORIENTED_EDGE('',*,*,#320,.T.);
#104=ORIENTED_EDGE('',*,*,#289,.T.);
#105=ORIENTED_EDGE('',*,*,#321,.T.);
#106=ORIENTED_EDGE('',*,*,#299,.F.);
#107=ORIENTED_EDGE('',*,*,#322,.T.);
#108=ORIENTED_EDGE('',*,*,#283,.T.);
#109=ORIENTED_EDGE('',*,*,#323,.T.);
#110=ORIENTED_EDGE('',*,*,#309,.F.);
#111=ORIENTED_EDGE('',*,*,#324,.F.);
#112=ORIENTED_EDGE('',*,*,#325,.T.);
#113=ORIENTED_EDGE('',*,*,#326,.F.);
#114=ORIENTED_EDGE('',*,*,#327,.T.);
#115=ORIENTED_EDGE('',*,*,#328,.T.);
#116=ORIENTED_EDGE('',*,*,#329,.T.);
#117=ORIENTED_EDGE('',*,*,#330,.F.);
#118=ORIENTED_EDGE('',*,*,#331,.T.);
#119=ORIENTED_EDGE('',*,*,#285,.F.);
#120=ORIENTED_EDGE('',*,*,#332,.T.);
#121=ORIENTED_EDGE('',*,*,#305,.T.);
#122=ORIENTED_EDGE('',*,*,#333,.T.);
#123=ORIENTED_EDGE('',*,*,#334,.T.);
#124=ORIENTED_EDGE('',*,*,#335,.T.);
#125=ORIENTED_EDGE('',*,*,#336,.F.);
#126=ORIENTED_EDGE('',*,*,#337,.T.);
#127=ORIENTED_EDGE('',*,*,#338,.T.);
#128=ORIENTED_EDGE('',*,*,#339,.T.);
#129=ORIENTED_EDGE('',*,*,#340,.F.);
#130=ORIENTED_EDGE('',*,*,#311,.T.);
#131=ORIENTED_EDGE('',*,*,#341,.T.);
#132=ORIENTED_EDGE('',*,*,#281,.F.);
#133=ORIENTED_EDGE('',*,*,#342,.T.);
#134=ORIENTED_EDGE('',*,*,#303,.T.);
#135=ORIENTED_EDGE('',*,*,#343,.T.);
#136=ORIENTED_EDGE('',*,*,#291,.F.);
#137=ORIENTED_EDGE('',*,*,#344,.T.);
#138=ORIENTED_EDGE('',*,*,#313,.F.);
#139=ORIENTED_EDGE('',*,*,#301,.F.);
#140=ORIENTED_EDGE('',*,*,#345,.T.);
#141=ORIENTED_EDGE('',*,*,#293,.T.);
#142=ORIENTED_EDGE('',*,*,#346,.T.);
#143=ORIENTED_EDGE('',*,*,#294,.F.);
#144=ORIENTED_EDGE('',*,*,#345,.F.);
#145=ORIENTED_EDGE('',*,*,#300,.F.);
#146=ORIENTED_EDGE('',*,*,#321,.F.);
#147=ORIENTED_EDGE('',*,*,#292,.F.);
#148=ORIENTED_EDGE('',*,*,#343,.F.);
#149=ORIENTED_EDGE('',*,*,#302,.F.);
#150=ORIENTED_EDGE('',*,*,#346,.F.);
#151=ORIENTED_EDGE('',*,*,#284,.F.);
#152=ORIENTED_EDGE('',*,*,#322,.F.);
#153=ORIENTED_EDGE('',*,*,#306,.F.);
#154=ORIENTED_EDGE('',*,*,#332,.F.);
#155=ORIENTED_EDGE('',*,*,#286,.F.);
#156=ORIENTED_EDGE('',*,*,#333,.F.);
#157=ORIENTED_EDGE('',*,*,#304,.F.);
#158=ORIENTED_EDGE('',*,*,#342,.F.);
#159=ORIENTED_EDGE('',*,*,#326,.T.);
#160=ORIENTED_EDGE('',*,*,#347,.T.);
#161=ORIENTED_EDGE('',*,*,#338,.F.);
#162=ORIENTED_EDGE('',*,*,#348,.T.);
#163=ORIENTED_EDGE('',*,*,#349,.F.);
#164=ORIENTED_EDGE('',*,*,#350,.F.);
#165=ORIENTED_EDGE('',*,*,#351,.F.);
#166=ORIENTED_EDGE('',*,*,#352,.F.);
#167=ORIENTED_EDGE('',*,*,#353,.F.);
#168=ORIENTED_EDGE('',*,*,#354,.F.);
#169=ORIENTED_EDGE('',*,*,#352,.T.);
#170=ORIENTED_EDGE('',*,*,#355,.F.);
#171=ORIENTED_EDGE('',*,*,#356,.T.);
#172=ORIENTED_EDGE('',*,*,#357,.T.);
#173=ORIENTED_EDGE('',*,*,#358,.F.);
#174=ORIENTED_EDGE('',*,*,#359,.F.);
#175=ORIENTED_EDGE('',*,*,#360,.F.);
#176=ORIENTED_EDGE('',*,*,#361,.F.);
#177=ORIENTED_EDGE('',*,*,#358,.T.);
#178=ORIENTED_EDGE('',*,*,#362,.T.);
#179=ORIENTED_EDGE('',*,*,#363,.F.);
#180=ORIENTED_EDGE('',*,*,#364,.F.);
#181=ORIENTED_EDGE('',*,*,#360,.T.);
#182=ORIENTED_EDGE('',*,*,#365,.T.);
#183=ORIENTED_EDGE('',*,*,#366,.F.);
#184=ORIENTED_EDGE('',*,*,#367,.F.);
#185=ORIENTED_EDGE('',*,*,#331,.F.);
#186=ORIENTED_EDGE('',*,*,#368,.T.);
#187=ORIENTED_EDGE('',*,*,#369,.T.);
#188=ORIENTED_EDGE('',*,*,#370,.F.);
#189=ORIENTED_EDGE('',*,*,#354,.T.);
#190=ORIENTED_EDGE('',*,*,#371,.F.);
#191=ORIENTED_EDGE('',*,*,#372,.T.);
#192=ORIENTED_EDGE('',*,*,#373,.T.);
#193=ORIENTED_EDGE('',*,*,#373,.F.);
#194=ORIENTED_EDGE('',*,*,#374,.T.);
#195=ORIENTED_EDGE('',*,*,#355,.T.);
#196=ORIENTED_EDGE('',*,*,#351,.T.);
#197=ORIENTED_EDGE('',*,*,#357,.F.);
#198=ORIENTED_EDGE('',*,*,#375,.T.);
#199=ORIENTED_EDGE('',*,*,#371,.T.);
#200=ORIENTED_EDGE('',*,*,#353,.T.);
#201=ORIENTED_EDGE('',*,*,#376,.F.);
#202=ORIENTED_EDGE('',*,*,#377,.F.);
#203=ORIENTED_EDGE('',*,*,#378,.T.);
#204=ORIENTED_EDGE('',*,*,#368,.F.);
#205=ORIENTED_EDGE('',*,*,#330,.T.);
#206=ORIENTED_EDGE('',*,*,#374,.F.);
#207=ORIENTED_EDGE('',*,*,#372,.F.);
#208=ORIENTED_EDGE('',*,*,#375,.F.);
#209=ORIENTED_EDGE('',*,*,#356,.F.);
#210=ORIENTED_EDGE('',*,*,#350,.T.);
#211=ORIENTED_EDGE('',*,*,#364,.T.);
#212=ORIENTED_EDGE('',*,*,#379,.F.);
#213=ORIENTED_EDGE('',*,*,#365,.F.);
#214=ORIENTED_EDGE('',*,*,#361,.T.);
#215=ORIENTED_EDGE('',*,*,#367,.T.);
#216=ORIENTED_EDGE('',*,*,#380,.F.);
#217=ORIENTED_EDGE('',*,*,#362,.F.);
#218=ORIENTED_EDGE('',*,*,#359,.T.);
#219=ORIENTED_EDGE('',*,*,#381,.T.);
#220=ORIENTED_EDGE('',*,*,#382,.F.);
#221=ORIENTED_EDGE('',*,*,#327,.F.);
#222=ORIENTED_EDGE('',*,*,#349,.T.);
#223=ORIENTED_EDGE('',*,*,#382,.T.);
#224=ORIENTED_EDGE('',*,*,#383,.T.);
#225=ORIENTED_EDGE('',*,*,#384,.F.);
#226=ORIENTED_EDGE('',*,*,#328,.F.);
#227=ORIENTED_EDGE('',*,*,#363,.T.);
#228=ORIENTED_EDGE('',*,*,#380,.T.);
#229=ORIENTED_EDGE('',*,*,#366,.T.);
#230=ORIENTED_EDGE('',*,*,#379,.T.);
#231=ORIENTED_EDGE('',*,*,#348,.F.);
#232=ORIENTED_EDGE('',*,*,#337,.F.);
#233=ORIENTED_EDGE('',*,*,#385,.F.);
#234=ORIENTED_EDGE('',*,*,#369,.F.);
#235=ORIENTED_EDGE('',*,*,#378,.F.);
#236=ORIENTED_EDGE('',*,*,#386,.F.);
#237=ORIENTED_EDGE('',*,*,#383,.F.);
#238=ORIENTED_EDGE('',*,*,#381,.F.);
#239=ORIENTED_EDGE('',*,*,#377,.T.);
#240=ORIENTED_EDGE('',*,*,#329,.F.);
#241=ORIENTED_EDGE('',*,*,#384,.T.);
#242=ORIENTED_EDGE('',*,*,#386,.T.);
#243=ORIENTED_EDGE('',*,*,#336,.T.);
#244=ORIENTED_EDGE('',*,*,#387,.T.);
#245=ORIENTED_EDGE('',*,*,#317,.T.);
#246=ORIENTED_EDGE('',*,*,#370,.T.);
#247=ORIENTED_EDGE('',*,*,#385,.T.);
#248=ORIENTED_EDGE('',*,*,#376,.T.);
#249=ORIENTED_EDGE('',*,*,#319,.F.);
#250=ORIENTED_EDGE('',*,*,#388,.T.);
#251=ORIENTED_EDGE('',*,*,#334,.F.);
#252=ORIENTED_EDGE('',*,*,#316,.T.);
#253=ORIENTED_EDGE('',*,*,#340,.T.);
#254=ORIENTED_EDGE('',*,*,#389,.T.);
#255=ORIENTED_EDGE('',*,*,#324,.T.);
#256=ORIENTED_EDGE('',*,*,#312,.F.);
#257=ORIENTED_EDGE('',*,*,#344,.F.);
#258=ORIENTED_EDGE('',*,*,#290,.F.);
#259=ORIENTED_EDGE('',*,*,#320,.F.);
#260=ORIENTED_EDGE('',*,*,#314,.F.);
#261=ORIENTED_EDGE('',*,*,#341,.F.);
#262=ORIENTED_EDGE('',*,*,#310,.F.);
#263=ORIENTED_EDGE('',*,*,#323,.F.);
#264=ORIENTED_EDGE('',*,*,#282,.F.);
#265=ORIENTED_EDGE('',*,*,#335,.F.);
#266=ORIENTED_EDGE('',*,*,#388,.F.);
#267=ORIENTED_EDGE('',*,*,#318,.F.);
#268=ORIENTED_EDGE('',*,*,#387,.F.);
#269=ORIENTED_EDGE('',*,*,#339,.F.);
#270=ORIENTED_EDGE('',*,*,#347,.F.);
#271=ORIENTED_EDGE('',*,*,#325,.F.);
#272=ORIENTED_EDGE('',*,*,#389,.F.);
#273=ORIENTED_EDGE('',*,*,#298,.T.);
#274=ORIENTED_EDGE('',*,*,#295,.T.);
#275=ORIENTED_EDGE('',*,*,#307,.F.);
#276=ORIENTED_EDGE('',*,*,#296,.F.);
#277=ORIENTED_EDGE('',*,*,#297,.T.);
#278=ORIENTED_EDGE('',*,*,#287,.T.);
#279=ORIENTED_EDGE('',*,*,#308,.F.);
#280=ORIENTED_EDGE('',*,*,#288,.F.);
#281=EDGE_CURVE('',#390,#391,#466,.T.);
#282=EDGE_CURVE('',#391,#392,#467,.T.);
#283=EDGE_CURVE('',#393,#392,#468,.T.);
#284=EDGE_CURVE('',#393,#394,#27,.T.);
#285=EDGE_CURVE('',#394,#395,#469,.T.);
#286=EDGE_CURVE('',#395,#390,#28,.T.);
#287=EDGE_CURVE('',#396,#396,#29,.T.);
#288=EDGE_CURVE('',#397,#397,#30,.T.);
#289=EDGE_CURVE('',#398,#399,#470,.T.);
#290=EDGE_CURVE('',#398,#400,#471,.T.);
#291=EDGE_CURVE('',#400,#401,#472,.T.);
#292=EDGE_CURVE('',#401,#402,#31,.T.);
#293=EDGE_CURVE('',#403,#402,#473,.T.);
#294=EDGE_CURVE('',#403,#399,#32,.T.);
#295=EDGE_CURVE('',#404,#404,#33,.T.);
#296=EDGE_CURVE('',#405,#405,#34,.T.);
#297=EDGE_CURVE('',#406,#406,#35,.F.);
#298=EDGE_CURVE('',#407,#407,#36,.F.);
#299=EDGE_CURVE('',#408,#409,#474,.T.);
#300=EDGE_CURVE('',#409,#410,#37,.F.);
#301=EDGE_CURVE('',#410,#411,#475,.T.);
#302=EDGE_CURVE('',#411,#412,#38,.F.);
#303=EDGE_CURVE('',#413,#412,#476,.T.);
#304=EDGE_CURVE('',#413,#414,#39,.F.);
#305=EDGE_CURVE('',#415,#414,#477,.T.);
#306=EDGE_CURVE('',#415,#408,#40,.F.);
#307=EDGE_CURVE('',#416,#416,#41,.T.);
#308=EDGE_CURVE('',#417,#417,#42,.T.);
#309=EDGE_CURVE('',#418,#419,#478,.T.);
#310=EDGE_CURVE('',#419,#420,#479,.T.);
#311=EDGE_CURVE('',#421,#420,#480,.T.);
#312=EDGE_CURVE('',#421,#418,#481,.T.);
#313=EDGE_CURVE('',#422,#423,#482,.T.);
#314=EDGE_CURVE('',#423,#424,#483,.T.);
#315=EDGE_CURVE('',#425,#424,#484,.T.);
#316=EDGE_CURVE('',#422,#425,#485,.T.);
#317=EDGE_CURVE('',#426,#427,#486,.F.);
#318=EDGE_CURVE('',#426,#428,#43,.T.);
#319=EDGE_CURVE('',#428,#425,#487,.T.);
#320=EDGE_CURVE('',#424,#398,#488,.T.);
#321=EDGE_CURVE('',#399,#409,#489,.T.);
#322=EDGE_CURVE('',#408,#393,#490,.F.);
#323=EDGE_CURVE('',#392,#419,#491,.F.);
#324=EDGE_CURVE('',#429,#418,#492,.T.);
#325=EDGE_CURVE('',#429,#430,#44,.T.);
#326=EDGE_CURVE('',#431,#430,#493,.T.);
#327=EDGE_CURVE('',#431,#432,#494,.T.);
#328=EDGE_CURVE('',#432,#433,#495,.F.);
#329=EDGE_CURVE('',#433,#434,#496,.T.);
#330=EDGE_CURVE('',#435,#434,#497,.T.);
#331=EDGE_CURVE('',#435,#427,#498,.T.);
#332=EDGE_CURVE('',#394,#415,#499,.T.);
#333=EDGE_CURVE('',#414,#395,#500,.F.);
#334=EDGE_CURVE('',#422,#436,#501,.T.);
#335=EDGE_CURVE('',#436,#437,#45,.F.);
#336=EDGE_CURVE('',#438,#437,#502,.T.);
#337=EDGE_CURVE('',#438,#439,#503,.T.);
#338=EDGE_CURVE('',#439,#440,#504,.T.);
#339=EDGE_CURVE('',#440,#441,#46,.F.);
#340=EDGE_CURVE('',#421,#441,#505,.T.);
#341=EDGE_CURVE('',#420,#391,#506,.F.);
#342=EDGE_CURVE('',#390,#413,#507,.T.);
#343=EDGE_CURVE('',#412,#401,#508,.F.);
#344=EDGE_CURVE('',#400,#423,#509,.T.);
#345=EDGE_CURVE('',#410,#403,#510,.F.);
#346=EDGE_CURVE('',#402,#411,#511,.T.);
#347=EDGE_CURVE('',#430,#440,#512,.F.);
#348=EDGE_CURVE('',#439,#442,#513,.T.);
#349=EDGE_CURVE('',#431,#442,#47,.T.);
#350=EDGE_CURVE('',#443,#443,#48,.F.);
#351=EDGE_CURVE('',#444,#445,#49,.F.);
#352=EDGE_CURVE('',#445,#444,#514,.F.);
#353=EDGE_CURVE('',#446,#447,#50,.F.);
#354=EDGE_CURVE('',#447,#446,#515,.F.);
#355=EDGE_CURVE('',#448,#444,#516,.T.);
#356=EDGE_CURVE('',#448,#449,#517,.T.);
#357=EDGE_CURVE('',#449,#445,#518,.T.);
#358=EDGE_CURVE('',#450,#451,#519,.T.);
#359=EDGE_CURVE('',#451,#450,#51,.T.);
#360=EDGE_CURVE('',#452,#453,#520,.T.);
#361=EDGE_CURVE('',#453,#452,#52,.T.);
#362=EDGE_CURVE('',#451,#454,#521,.T.);
#363=EDGE_CURVE('',#455,#454,#522,.F.);
#364=EDGE_CURVE('',#450,#455,#523,.T.);
#365=EDGE_CURVE('',#453,#456,#524,.T.);
#366=EDGE_CURVE('',#457,#456,#525,.T.);
#367=EDGE_CURVE('',#452,#457,#526,.T.);
#368=EDGE_CURVE('',#435,#458,#53,.T.);
#369=EDGE_CURVE('',#458,#459,#527,.T.);
#370=EDGE_CURVE('',#427,#459,#54,.T.);
#371=EDGE_CURVE('',#460,#446,#528,.T.);
#372=EDGE_CURVE('',#460,#461,#529,.T.);
#373=EDGE_CURVE('',#461,#447,#530,.T.);
#374=EDGE_CURVE('',#461,#448,#55,.F.);
#375=EDGE_CURVE('',#449,#460,#56,.F.);
#376=EDGE_CURVE('',#462,#462,#57,.F.);
#377=EDGE_CURVE('',#463,#434,#58,.T.);
#378=EDGE_CURVE('',#463,#458,#531,.T.);
#379=EDGE_CURVE('',#456,#455,#59,.F.);
#380=EDGE_CURVE('',#454,#457,#60,.F.);
#381=EDGE_CURVE('',#442,#464,#532,.T.);
#382=EDGE_CURVE('',#432,#464,#61,.T.);
#383=EDGE_CURVE('',#464,#465,#533,.T.);
#384=EDGE_CURVE('',#433,#465,#62,.F.);
#385=EDGE_CURVE('',#459,#438,#534,.T.);
#386=EDGE_CURVE('',#465,#463,#535,.T.);
#387=EDGE_CURVE('',#437,#426,#536,.T.);
#388=EDGE_CURVE('',#428,#436,#537,.F.);
#389=EDGE_CURVE('',#441,#429,#538,.T.);
#390=VERTEX_POINT('',#1119);
#391=VERTEX_POINT('',#1120);
#392=VERTEX_POINT('',#1122);
#393=VERTEX_POINT('',#1124);
#394=VERTEX_POINT('',#1126);
#395=VERTEX_POINT('',#1128);
#396=VERTEX_POINT('',#1131);
#397=VERTEX_POINT('',#1133);
#398=VERTEX_POINT('',#1136);
#399=VERTEX_POINT('',#1137);
#400=VERTEX_POINT('',#1139);
#401=VERTEX_POINT('',#1141);
#402=VERTEX_POINT('',#1143);
#403=VERTEX_POINT('',#1145);
#404=VERTEX_POINT('',#1148);
#405=VERTEX_POINT('',#1150);
#406=VERTEX_POINT('',#1153);
#407=VERTEX_POINT('',#1155);
#408=VERTEX_POINT('',#1157);
#409=VERTEX_POINT('',#1158);
#410=VERTEX_POINT('',#1160);
#411=VERTEX_POINT('',#1162);
#412=VERTEX_POINT('',#1164);
#413=VERTEX_POINT('',#1166);
#414=VERTEX_POINT('',#1168);
#415=VERTEX_POINT('',#1170);
#416=VERTEX_POINT('',#1173);
#417=VERTEX_POINT('',#1175);
#418=VERTEX_POINT('',#1178);
#419=VERTEX_POINT('',#1179);
#420=VERTEX_POINT('',#1181);
#421=VERTEX_POINT('',#1183);
#422=VERTEX_POINT('',#1187);
#423=VERTEX_POINT('',#1188);
#424=VERTEX_POINT('',#1190);
#425=VERTEX_POINT('',#1192);
#426=VERTEX_POINT('',#1196);
#427=VERTEX_POINT('',#1197);
#428=VERTEX_POINT('',#1199);
#429=VERTEX_POINT('',#1206);
#430=VERTEX_POINT('',#1208);
#431=VERTEX_POINT('',#1210);
#432=VERTEX_POINT('',#1212);
#433=VERTEX_POINT('',#1214);
#434=VERTEX_POINT('',#1216);
#435=VERTEX_POINT('',#1218);
#436=VERTEX_POINT('',#1225);
#437=VERTEX_POINT('',#1227);
#438=VERTEX_POINT('',#1229);
#439=VERTEX_POINT('',#1231);
#440=VERTEX_POINT('',#1233);
#441=VERTEX_POINT('',#1235);
#442=VERTEX_POINT('',#1251);
#443=VERTEX_POINT('',#1254);
#444=VERTEX_POINT('',#1257);
#445=VERTEX_POINT('',#1258);
#446=VERTEX_POINT('',#1262);
#447=VERTEX_POINT('',#1263);
#448=VERTEX_POINT('',#1267);
#449=VERTEX_POINT('',#1269);
#450=VERTEX_POINT('',#1273);
#451=VERTEX_POINT('',#1274);
#452=VERTEX_POINT('',#1278);
#453=VERTEX_POINT('',#1279);
#454=VERTEX_POINT('',#1283);
#455=VERTEX_POINT('',#1285);
#456=VERTEX_POINT('',#1289);
#457=VERTEX_POINT('',#1291);
#458=VERTEX_POINT('',#1295);
#459=VERTEX_POINT('',#1297);
#460=VERTEX_POINT('',#1301);
#461=VERTEX_POINT('',#1303);
#462=VERTEX_POINT('',#1309);
#463=VERTEX_POINT('',#1312);
#464=VERTEX_POINT('',#1319);
#465=VERTEX_POINT('',#1323);
#466=LINE('',#1118,#539);
#467=LINE('',#1121,#540);
#468=LINE('',#1123,#541);
#469=LINE('',#1127,#542);
#470=LINE('',#1135,#543);
#471=LINE('',#1138,#544);
#472=LINE('',#1140,#545);
#473=LINE('',#1144,#546);
#474=LINE('',#1156,#547);
#475=LINE('',#1161,#548);
#476=LINE('',#1165,#549);
#477=LINE('',#1169,#550);
#478=LINE('',#1177,#551);
#479=LINE('',#1180,#552);
#480=LINE('',#1182,#553);
#481=LINE('',#1184,#554);
#482=LINE('',#1186,#555);
#483=LINE('',#1189,#556);
#484=LINE('',#1191,#557);
#485=LINE('',#1193,#558);
#486=LINE('',#1195,#559);
#487=LINE('',#1200,#560);
#488=LINE('',#1201,#561);
#489=LINE('',#1202,#562);
#490=LINE('',#1203,#563);
#491=LINE('',#1204,#564);
#492=LINE('',#1205,#565);
#493=LINE('',#1209,#566);
#494=LINE('',#1211,#567);
#495=LINE('',#1213,#568);
#496=LINE('',#1215,#569);
#497=LINE('',#1217,#570);
#498=LINE('',#1219,#571);
#499=LINE('',#1221,#572);
#500=LINE('',#1222,#573);
#501=LINE('',#1224,#574);
#502=LINE('',#1228,#575);
#503=LINE('',#1230,#576);
#504=LINE('',#1232,#577);
#505=LINE('',#1236,#578);
#506=LINE('',#1237,#579);
#507=LINE('',#1238,#580);
#508=LINE('',#1239,#581);
#509=LINE('',#1240,#582);
#510=LINE('',#1242,#583);
#511=LINE('',#1243,#584);
#512=LINE('',#1249,#585);
#513=LINE('',#1250,#586);
#514=LINE('',#1259,#587);
#515=LINE('',#1264,#588);
#516=LINE('',#1266,#589);
#517=LINE('',#1268,#590);
#518=LINE('',#1270,#591);
#519=LINE('',#1272,#592);
#520=LINE('',#1277,#593);
#521=LINE('',#1282,#594);
#522=LINE('',#1284,#595);
#523=LINE('',#1286,#596);
#524=LINE('',#1288,#597);
#525=LINE('',#1290,#598);
#526=LINE('',#1292,#599);
#527=LINE('',#1296,#600);
#528=LINE('',#1300,#601);
#529=LINE('',#1302,#602);
#530=LINE('',#1304,#603);
#531=LINE('',#1313,#604);
#532=LINE('',#1318,#605);
#533=LINE('',#1322,#606);
#534=LINE('',#1326,#607);
#535=LINE('',#1327,#608);
#536=LINE('',#1330,#609);
#537=LINE('',#1332,#610);
#538=LINE('',#1334,#611);
#539=VECTOR('',#891,1.);
#540=VECTOR('',#892,1.);
#541=VECTOR('',#893,1.);
#542=VECTOR('',#896,1.);
#543=VECTOR('',#905,1.);
#544=VECTOR('',#906,1.);
#545=VECTOR('',#907,1.);
#546=VECTOR('',#910,1.);
#547=VECTOR('',#923,1.);
#548=VECTOR('',#926,1.);
#549=VECTOR('',#929,1.);
#550=VECTOR('',#932,1.);
#551=VECTOR('',#941,1.);
#552=VECTOR('',#942,1.);
#553=VECTOR('',#943,1.);
#554=VECTOR('',#944,1.);
#555=VECTOR('',#947,1.);
#556=VECTOR('',#948,1.);
#557=VECTOR('',#949,1.);
#558=VECTOR('',#950,1.);
#559=VECTOR('',#953,1.);
#560=VECTOR('',#956,1.);
#561=VECTOR('',#957,1.);
#562=VECTOR('',#958,1.);
#563=VECTOR('',#959,1.);
#564=VECTOR('',#960,1.);
#565=VECTOR('',#961,1.);
#566=VECTOR('',#964,1.);
#567=VECTOR('',#965,1.);
#568=VECTOR('',#966,1.);
#569=VECTOR('',#967,1.);
#570=VECTOR('',#968,1.);
#571=VECTOR('',#969,1.);
#572=VECTOR('',#972,1.);
#573=VECTOR('',#973,1.);
#574=VECTOR('',#976,1.);
#575=VECTOR('',#979,1.);
#576=VECTOR('',#980,1.);
#577=VECTOR('',#981,1.);
#578=VECTOR('',#984,1.);
#579=VECTOR('',#985,1.);
#580=VECTOR('',#986,1.);
#581=VECTOR('',#987,1.);
#582=VECTOR('',#988,1.);
#583=VECTOR('',#991,1.);
#584=VECTOR('',#992,1.);
#585=VECTOR('',#1003,1.);
#586=VECTOR('',#1004,1.);
#587=VECTOR('',#1013,1.);
#588=VECTOR('',#1018,1.);
#589=VECTOR('',#1021,1.);
#590=VECTOR('',#1022,1.);
#591=VECTOR('',#1023,1.);
#592=VECTOR('',#1026,1.);
#593=VECTOR('',#1031,1.);
#594=VECTOR('',#1036,1.);
#595=VECTOR('',#1037,1.);
#596=VECTOR('',#1038,1.);
#597=VECTOR('',#1041,1.);
#598=VECTOR('',#1042,1.);
#599=VECTOR('',#1043,1.);
#600=VECTOR('',#1048,1.);
#601=VECTOR('',#1053,1.);
#602=VECTOR('',#1054,1.);
#603=VECTOR('',#1055,1.);
#604=VECTOR('',#1068,1.);
#605=VECTOR('',#1077,1.);
#606=VECTOR('',#1082,1.);
#607=VECTOR('',#1087,1.);
#608=VECTOR('',#1088,1.);
#609=VECTOR('',#1093,1.);
#610=VECTOR('',#1096,1.);
#611=VECTOR('',#1099,1.);
#612=EDGE_LOOP('',(#63,#64,#65,#66,#67,#68));
#613=EDGE_LOOP('',(#69));
#614=EDGE_LOOP('',(#70));
#615=EDGE_LOOP('',(#71,#72,#73,#74,#75,#76));
#616=EDGE_LOOP('',(#77));
#617=EDGE_LOOP('',(#78));
#618=EDGE_LOOP('',(#79));
#619=EDGE_LOOP('',(#80));
#620=EDGE_LOOP('',(#81,#82,#83,#84,#85,#86,#87,#88));
#621=EDGE_LOOP('',(#89));
#622=EDGE_LOOP('',(#90));
#623=EDGE_LOOP('',(#91,#92,#93,#94));
#624=EDGE_LOOP('',(#95,#96,#97,#98));
#625=EDGE_LOOP('',(#99,#100,#101,#102,#103,#104,#105,#106,#107,#108,#109,
#110,#111,#112,#113,#114,#115,#116,#117,#118));
#626=EDGE_LOOP('',(#119,#120,#121,#122));
#627=EDGE_LOOP('',(#123,#124,#125,#126,#127,#128,#129,#130,#131,#132,#133,
#134,#135,#136,#137,#138));
#628=EDGE_LOOP('',(#139,#140,#141,#142));
#629=EDGE_LOOP('',(#143,#144,#145,#146));
#630=EDGE_LOOP('',(#147,#148,#149,#150));
#631=EDGE_LOOP('',(#151,#152,#153,#154));
#632=EDGE_LOOP('',(#155,#156,#157,#158));
#633=EDGE_LOOP('',(#159,#160,#161,#162,#163));
#634=EDGE_LOOP('',(#164));
#635=EDGE_LOOP('',(#165,#166));
#636=EDGE_LOOP('',(#167,#168));
#637=EDGE_LOOP('',(#169,#170,#171,#172));
#638=EDGE_LOOP('',(#173,#174));
#639=EDGE_LOOP('',(#175,#176));
#640=EDGE_LOOP('',(#177,#178,#179,#180));
#641=EDGE_LOOP('',(#181,#182,#183,#184));
#642=EDGE_LOOP('',(#185,#186,#187,#188));
#643=EDGE_LOOP('',(#189,#190,#191,#192));
#644=EDGE_LOOP('',(#193,#194,#195,#196,#197,#198,#199,#200));
#645=EDGE_LOOP('',(#201));
#646=EDGE_LOOP('',(#202,#203,#204,#205));
#647=EDGE_LOOP('',(#206,#207,#208,#209));
#648=EDGE_LOOP('',(#210));
#649=EDGE_LOOP('',(#211,#212,#213,#214,#215,#216,#217,#218));
#650=EDGE_LOOP('',(#219,#220,#221,#222));
#651=EDGE_LOOP('',(#223,#224,#225,#226));
#652=EDGE_LOOP('',(#227,#228,#229,#230));
#653=EDGE_LOOP('',(#231,#232,#233,#234,#235,#236,#237,#238));
#654=EDGE_LOOP('',(#239,#240,#241,#242));
#655=EDGE_LOOP('',(#243,#244,#245,#246,#247));
#656=EDGE_LOOP('',(#248));
#657=EDGE_LOOP('',(#249,#250,#251,#252));
#658=EDGE_LOOP('',(#253,#254,#255,#256));
#659=EDGE_LOOP('',(#257,#258,#259,#260));
#660=EDGE_LOOP('',(#261,#262,#263,#264));
#661=EDGE_LOOP('',(#265,#266,#267,#268));
#662=EDGE_LOOP('',(#269,#270,#271,#272));
#663=EDGE_LOOP('',(#273));
#664=EDGE_LOOP('',(#274));
#665=EDGE_LOOP('',(#275));
#666=EDGE_LOOP('',(#276));
#667=EDGE_LOOP('',(#277));
#668=EDGE_LOOP('',(#278));
#669=EDGE_LOOP('',(#279));
#670=EDGE_LOOP('',(#280));
#671=FACE_BOUND('',#612,.T.);
#672=FACE_BOUND('',#613,.T.);
#673=FACE_BOUND('',#614,.T.);
#674=FACE_BOUND('',#615,.T.);
#675=FACE_BOUND('',#616,.T.);
#676=FACE_BOUND('',#617,.T.);
#677=FACE_BOUND('',#618,.T.);
#678=FACE_BOUND('',#619,.T.);
#679=FACE_BOUND('',#620,.T.);
#680=FACE_BOUND('',#621,.T.);
#681=FACE_BOUND('',#622,.T.);
#682=FACE_BOUND('',#623,.T.);
#683=FACE_BOUND('',#624,.T.);
#684=FACE_BOUND('',#625,.T.);
#685=FACE_BOUND('',#626,.T.);
#686=FACE_BOUND('',#627,.T.);
#687=FACE_BOUND('',#628,.T.);
#688=FACE_BOUND('',#629,.T.);
#689=FACE_BOUND('',#630,.T.);
#690=FACE_BOUND('',#631,.T.);
#691=FACE_BOUND('',#632,.T.);
#692=FACE_BOUND('',#633,.T.);
#693=FACE_BOUND('',#634,.T.);
#694=FACE_BOUND('',#635,.T.);
#695=FACE_BOUND('',#636,.T.);
#696=FACE_BOUND('',#637,.T.);
#697=FACE_BOUND('',#638,.T.);
#698=FACE_BOUND('',#639,.T.);
#699=FACE_BOUND('',#640,.T.);
#700=FACE_BOUND('',#641,.T.);
#701=FACE_BOUND('',#642,.T.);
#702=FACE_BOUND('',#643,.T.);
#703=FACE_BOUND('',#644,.T.);
#704=FACE_BOUND('',#645,.T.);
#705=FACE_BOUND('',#646,.T.);
#706=FACE_BOUND('',#647,.T.);
#707=FACE_BOUND('',#648,.T.);
#708=FACE_BOUND('',#649,.T.);
#709=FACE_BOUND('',#650,.T.);
#710=FACE_BOUND('',#651,.T.);
#711=FACE_BOUND('',#652,.T.);
#712=FACE_BOUND('',#653,.T.);
#713=FACE_BOUND('',#654,.T.);
#714=FACE_BOUND('',#655,.T.);
#715=FACE_BOUND('',#656,.T.);
#716=FACE_BOUND('',#657,.T.);
#717=FACE_BOUND('',#658,.T.);
#718=FACE_BOUND('',#659,.T.);
#719=FACE_BOUND('',#660,.T.);
#720=FACE_BOUND('',#661,.T.);
#721=FACE_BOUND('',#662,.T.);
#722=FACE_BOUND('',#663,.T.);
#723=FACE_BOUND('',#664,.T.);
#724=FACE_BOUND('',#665,.T.);
#725=FACE_BOUND('',#666,.T.);
#726=FACE_BOUND('',#667,.T.);
#727=FACE_BOUND('',#668,.T.);
#728=FACE_BOUND('',#669,.T.);
#729=FACE_BOUND('',#670,.T.);
#730=PLANE('',#810);
#731=PLANE('',#815);
#732=PLANE('',#820);
#733=PLANE('',#829);
#734=PLANE('',#830);
#735=PLANE('',#831);
#736=PLANE('',#834);
#737=PLANE('',#835);
#738=PLANE('',#838);
#739=PLANE('',#843);
#740=PLANE('',#846);
#741=PLANE('',#848);
#742=PLANE('',#850);
#743=PLANE('',#851);
#744=PLANE('',#853);
#745=PLANE('',#855);
#746=PLANE('',#856);
#747=PLANE('',#860);
#748=PLANE('',#865);
#749=PLANE('',#872);
#750=PLANE('',#874);
#751=PLANE('',#876);
#752=PLANE('',#877);
#753=PLANE('',#878);
#754=PLANE('',#879);
#755=PLANE('',#880);
#756=ADVANCED_FACE('',(#671,#672,#673),#730,.T.);
#757=ADVANCED_FACE('',(#674,#675,#676),#731,.T.);
#758=ADVANCED_FACE('',(#677,#678,#679,#680,#681),#732,.F.);
#759=ADVANCED_FACE('',(#682),#733,.T.);
#760=ADVANCED_FACE('',(#683),#734,.F.);
#761=ADVANCED_FACE('',(#684),#735,.T.);
#762=ADVANCED_FACE('',(#685),#736,.F.);
#763=ADVANCED_FACE('',(#686),#737,.F.);
#764=ADVANCED_FACE('',(#687),#738,.T.);
#765=ADVANCED_FACE('',(#688),#12,.T.);
#766=ADVANCED_FACE('',(#689),#13,.T.);
#767=ADVANCED_FACE('',(#690),#14,.T.);
#768=ADVANCED_FACE('',(#691),#15,.T.);
#769=ADVANCED_FACE('',(#692,#693),#739,.F.);
#770=ADVANCED_FACE('',(#694),#740,.T.);
#771=ADVANCED_FACE('',(#695),#741,.T.);
#772=ADVANCED_FACE('',(#696),#742,.T.);
#773=ADVANCED_FACE('',(#697),#743,.F.);
#774=ADVANCED_FACE('',(#698),#744,.F.);
#775=ADVANCED_FACE('',(#699),#745,.T.);
#776=ADVANCED_FACE('',(#700),#746,.T.);
#777=ADVANCED_FACE('',(#701),#16,.T.);
#778=ADVANCED_FACE('',(#702),#747,.T.);
#779=ADVANCED_FACE('',(#703,#704),#17,.F.);
#780=ADVANCED_FACE('',(#705,#706),#748,.F.);
#781=ADVANCED_FACE('',(#707,#708),#18,.F.);
#782=ADVANCED_FACE('',(#709),#19,.T.);
#783=ADVANCED_FACE('',(#710,#711),#749,.T.);
#784=ADVANCED_FACE('',(#712),#750,.T.);
#785=ADVANCED_FACE('',(#713),#20,.F.);
#786=ADVANCED_FACE('',(#714,#715),#751,.T.);
#787=ADVANCED_FACE('',(#716),#752,.T.);
#788=ADVANCED_FACE('',(#717),#753,.F.);
#789=ADVANCED_FACE('',(#718),#754,.F.);
#790=ADVANCED_FACE('',(#719),#755,.T.);
#791=ADVANCED_FACE('',(#720),#21,.T.);
#792=ADVANCED_FACE('',(#721),#22,.T.);
#793=ADVANCED_FACE('',(#722,#723),#23,.F.);
#794=ADVANCED_FACE('',(#724,#725),#24,.F.);
#795=ADVANCED_FACE('',(#726,#727),#25,.F.);
#796=ADVANCED_FACE('',(#728,#729),#26,.F.);
#797=CLOSED_SHELL('',(#756,#757,#758,#759,#760,#761,#762,#763,#764,#765,
#766,#767,#768,#769,#770,#771,#772,#773,#774,#775,#776,#777,#778,#779,#780,
#781,#782,#783,#784,#785,#786,#787,#788,#789,#790,#791,#792,#793,#794,#795,
#796));
#798=STYLED_ITEM('',(#799),#806);
#799=PRESENTATION_STYLE_ASSIGNMENT((#800));
#800=SURFACE_STYLE_USAGE(.BOTH.,#801);
#801=SURFACE_SIDE_STYLE('',(#802));
#802=SURFACE_STYLE_FILL_AREA(#803);
#803=FILL_AREA_STYLE('',(#804));
#804=FILL_AREA_STYLE_COLOUR('',#805);
#805=COLOUR_RGB('',0.615686274509804,0.811764705882353,0.929411764705882);
#806=MANIFOLD_SOLID_BREP('Part 1',#797);
#807=SHAPE_DEFINITION_REPRESENTATION(#1349,#808);
#808=SHAPE_REPRESENTATION('Part 1',(#809),#1344);
#809=AXIS2_PLACEMENT_3D('',#1116,#887,#888);
#810=AXIS2_PLACEMENT_3D('',#1117,#889,#890);
#811=AXIS2_PLACEMENT_3D('',#1125,#894,#895);
#812=AXIS2_PLACEMENT_3D('',#1129,#897,#898);
#813=AXIS2_PLACEMENT_3D('',#1130,#899,#900);
#814=AXIS2_PLACEMENT_3D('',#1132,#901,#902);
#815=AXIS2_PLACEMENT_3D('',#1134,#903,#904);
#816=AXIS2_PLACEMENT_3D('',#1142,#908,#909);
#817=AXIS2_PLACEMENT_3D('',#1146,#911,#912);
#818=AXIS2_PLACEMENT_3D('',#1147,#913,#914);
#819=AXIS2_PLACEMENT_3D('',#1149,#915,#916);
#820=AXIS2_PLACEMENT_3D('',#1151,#917,#918);
#821=AXIS2_PLACEMENT_3D('',#1152,#919,#920);
#822=AXIS2_PLACEMENT_3D('',#1154,#921,#922);
#823=AXIS2_PLACEMENT_3D('',#1159,#924,#925);
#824=AXIS2_PLACEMENT_3D('',#1163,#927,#928);
#825=AXIS2_PLACEMENT_3D('',#1167,#930,#931);
#826=AXIS2_PLACEMENT_3D('',#1171,#933,#934);
#827=AXIS2_PLACEMENT_3D('',#1172,#935,#936);
#828=AXIS2_PLACEMENT_3D('',#1174,#937,#938);
#829=AXIS2_PLACEMENT_3D('',#1176,#939,#940);
#830=AXIS2_PLACEMENT_3D('',#1185,#945,#946);
#831=AXIS2_PLACEMENT_3D('',#1194,#951,#952);
#832=AXIS2_PLACEMENT_3D('',#1198,#954,#955);
#833=AXIS2_PLACEMENT_3D('',#1207,#962,#963);
#834=AXIS2_PLACEMENT_3D('',#1220,#970,#971);
#835=AXIS2_PLACEMENT_3D('',#1223,#974,#975);
#836=AXIS2_PLACEMENT_3D('',#1226,#977,#978);
#837=AXIS2_PLACEMENT_3D('',#1234,#982,#983);
#838=AXIS2_PLACEMENT_3D('',#1241,#989,#990);
#839=AXIS2_PLACEMENT_3D('',#1244,#993,#994);
#840=AXIS2_PLACEMENT_3D('',#1245,#995,#996);
#841=AXIS2_PLACEMENT_3D('',#1246,#997,#998);
#842=AXIS2_PLACEMENT_3D('',#1247,#999,#1000);
#843=AXIS2_PLACEMENT_3D('',#1248,#1001,#1002);
#844=AXIS2_PLACEMENT_3D('',#1252,#1005,#1006);
#845=AXIS2_PLACEMENT_3D('',#1253,#1007,#1008);
#846=AXIS2_PLACEMENT_3D('',#1255,#1009,#1010);
#847=AXIS2_PLACEMENT_3D('',#1256,#1011,#1012);
#848=AXIS2_PLACEMENT_3D('',#1260,#1014,#1015);
#849=AXIS2_PLACEMENT_3D('',#1261,#1016,#1017);
#850=AXIS2_PLACEMENT_3D('',#1265,#1019,#1020);
#851=AXIS2_PLACEMENT_3D('',#1271,#1024,#1025);
#852=AXIS2_PLACEMENT_3D('',#1275,#1027,#1028);
#853=AXIS2_PLACEMENT_3D('',#1276,#1029,#1030);
#854=AXIS2_PLACEMENT_3D('',#1280,#1032,#1033);
#855=AXIS2_PLACEMENT_3D('',#1281,#1034,#1035);
#856=AXIS2_PLACEMENT_3D('',#1287,#1039,#1040);
#857=AXIS2_PLACEMENT_3D('',#1293,#1044,#1045);
#858=AXIS2_PLACEMENT_3D('',#1294,#1046,#1047);
#859=AXIS2_PLACEMENT_3D('',#1298,#1049,#1050);
#860=AXIS2_PLACEMENT_3D('',#1299,#1051,#1052);
#861=AXIS2_PLACEMENT_3D('',#1305,#1056,#1057);
#862=AXIS2_PLACEMENT_3D('',#1306,#1058,#1059);
#863=AXIS2_PLACEMENT_3D('',#1307,#1060,#1061);
#864=AXIS2_PLACEMENT_3D('',#1308,#1062,#1063);
#865=AXIS2_PLACEMENT_3D('',#1310,#1064,#1065);
#866=AXIS2_PLACEMENT_3D('',#1311,#1066,#1067);
#867=AXIS2_PLACEMENT_3D('',#1314,#1069,#1070);
#868=AXIS2_PLACEMENT_3D('',#1315,#1071,#1072);
#869=AXIS2_PLACEMENT_3D('',#1316,#1073,#1074);
#870=AXIS2_PLACEMENT_3D('',#1317,#1075,#1076);
#871=AXIS2_PLACEMENT_3D('',#1320,#1078,#1079);
#872=AXIS2_PLACEMENT_3D('',#1321,#1080,#1081);
#873=AXIS2_PLACEMENT_3D('',#1324,#1083,#1084);
#874=AXIS2_PLACEMENT_3D('',#1325,#1085,#1086);
#875=AXIS2_PLACEMENT_3D('',#1328,#1089,#1090);
#876=AXIS2_PLACEMENT_3D('',#1329,#1091,#1092);
#877=AXIS2_PLACEMENT_3D('',#1331,#1094,#1095);
#878=AXIS2_PLACEMENT_3D('',#1333,#1097,#1098);
#879=AXIS2_PLACEMENT_3D('',#1335,#1100,#1101);
#880=AXIS2_PLACEMENT_3D('',#1336,#1102,#1103);
#881=AXIS2_PLACEMENT_3D('',#1337,#1104,#1105);
#882=AXIS2_PLACEMENT_3D('',#1338,#1106,#1107);
#883=AXIS2_PLACEMENT_3D('',#1339,#1108,#1109);
#884=AXIS2_PLACEMENT_3D('',#1340,#1110,#1111);
#885=AXIS2_PLACEMENT_3D('',#1341,#1112,#1113);
#886=AXIS2_PLACEMENT_3D('',#1342,#1114,#1115);
#887=DIRECTION('',(0.,0.,1.));
#888=DIRECTION('',(1.,0.,0.));
#889=DIRECTION('',(0.,0.,1.));
#890=DIRECTION('',(1.,0.,0.));
#891=DIRECTION('',(-1.38777878078145E-16,1.,0.));
#892=DIRECTION('',(-1.,-1.50845519650157E-16,0.));
#893=DIRECTION('',(0.,1.,0.));
#894=DIRECTION('',(0.,0.,1.));
#895=DIRECTION('',(1.,0.,0.));
#896=DIRECTION('',(1.,0.,0.));
#897=DIRECTION('',(0.,0.,1.));
#898=DIRECTION('',(1.,0.,0.));
#899=DIRECTION('',(0.,0.,1.));
#900=DIRECTION('',(1.,0.,0.));
#901=DIRECTION('',(0.,0.,-1.));
#902=DIRECTION('',(1.,0.,0.));
#903=DIRECTION('',(0.,0.,1.));
#904=DIRECTION('',(1.,0.,0.));
#905=DIRECTION('',(0.,1.,0.));
#906=DIRECTION('',(1.,0.,0.));
#907=DIRECTION('',(-1.38777878078145E-16,1.,0.));
#908=DIRECTION('',(0.,0.,1.));
#909=DIRECTION('',(1.,0.,0.));
#910=DIRECTION('',(1.,0.,0.));
#911=DIRECTION('',(0.,0.,1.));
#912=DIRECTION('',(1.,0.,0.));
#913=DIRECTION('',(0.,0.,1.));
#914=DIRECTION('',(1.,0.,0.));
#915=DIRECTION('',(0.,0.,-1.));
#916=DIRECTION('',(1.,0.,0.));
#917=DIRECTION('',(0.,0.,1.));
#918=DIRECTION('',(1.,0.,0.));
#919=DIRECTION('',(0.,0.,1.));
#920=DIRECTION('',(1.,0.,0.));
#921=DIRECTION('',(0.,0.,1.));
#922=DIRECTION('',(1.,0.,0.));
#923=DIRECTION('',(0.,1.,0.));
#924=DIRECTION('',(0.,0.,1.));
#925=DIRECTION('',(1.,0.,0.));
#926=DIRECTION('',(1.,0.,0.));
#927=DIRECTION('',(0.,0.,1.));
#928=DIRECTION('',(1.,0.,0.));
#929=DIRECTION('',(-1.38777878078145E-16,1.,0.));
#930=DIRECTION('',(0.,0.,1.));
#931=DIRECTION('',(1.,0.,0.));
#932=DIRECTION('',(1.,0.,0.));
#933=DIRECTION('',(0.,0.,1.));
#934=DIRECTION('',(1.,0.,0.));
#935=DIRECTION('',(0.,0.,1.));
#936=DIRECTION('',(1.,0.,0.));
#937=DIRECTION('',(0.,0.,1.));
#938=DIRECTION('',(1.,0.,0.));
#939=DIRECTION('',(1.50845519650157E-16,-1.,0.));
#940=DIRECTION('',(1.,1.50845519650157E-16,0.));
#941=DIRECTION('',(0.,0.,-1.));
#942=DIRECTION('',(1.,1.50845519650157E-16,0.));
#943=DIRECTION('',(0.,0.,-1.));
#944=DIRECTION('',(-1.,0.,0.));
#945=DIRECTION('',(0.,-1.,0.));
#946=DIRECTION('',(0.,0.,-1.));
#947=DIRECTION('',(0.,0.,-1.));
#948=DIRECTION('',(-1.,0.,0.));
#949=DIRECTION('',(0.,0.,-1.));
#950=DIRECTION('',(-1.,0.,0.));
#951=DIRECTION('',(-1.,0.,0.));
#952=DIRECTION('',(0.,0.,1.));
#953=DIRECTION('',(0.,0.,-1.));
#954=DIRECTION('',(-1.,0.,0.));
#955=DIRECTION('',(0.,0.,1.));
#956=DIRECTION('',(0.,-0.707106781186548,-0.707106781186548));
#957=DIRECTION('',(0.,0.707106781186547,-0.707106781186548));
#958=DIRECTION('',(0.,0.,-1.));
#959=DIRECTION('',(0.,0.,-1.));
#960=DIRECTION('',(0.,-0.707106781186547,-0.707106781186549));
#961=DIRECTION('',(0.,0.707106781186547,-0.707106781186548));
#962=DIRECTION('',(-1.,0.,0.));
#963=DIRECTION('',(0.,0.,1.));
#964=DIRECTION('',(0.,0.,-1.));
#965=DIRECTION('',(1.73472347597681E-17,1.,0.));
#966=DIRECTION('',(0.,0.,1.));
#967=DIRECTION('',(1.73472347597681E-17,1.,0.));
#968=DIRECTION('',(0.,0.,-1.));
#969=DIRECTION('',(1.73472347597681E-17,1.,0.));
#970=DIRECTION('',(0.,1.,0.));
#971=DIRECTION('',(0.,0.,1.));
#972=DIRECTION('',(0.,0.,-1.));
#973=DIRECTION('',(0.,0.,-1.));
#974=DIRECTION('',(-1.,-1.38777878078145E-16,0.));
#975=DIRECTION('',(1.38777878078145E-16,-1.,0.));
#976=DIRECTION('',(-9.81307786677359E-17,0.707106781186548,0.707106781186548));
#977=DIRECTION('',(-1.,-1.38777878078145E-16,0.));
#978=DIRECTION('',(1.38777878078145E-16,-1.,0.));
#979=DIRECTION('',(0.,0.,-1.));
#980=DIRECTION('',(-1.73472347597681E-17,-1.,0.));
#981=DIRECTION('',(0.,0.,-1.));
#982=DIRECTION('',(-1.,-1.38777878078145E-16,0.));
#983=DIRECTION('',(1.38777878078145E-16,-1.,0.));
#984=DIRECTION('',(9.81307786677359E-17,-0.707106781186547,0.707106781186548));
#985=DIRECTION('',(-9.81307786677358E-17,0.707106781186547,0.707106781186549));
#986=DIRECTION('',(0.,0.,-1.));
#987=DIRECTION('',(0.,0.,-1.));
#988=DIRECTION('',(9.81307786677359E-17,-0.707106781186547,0.707106781186548));
#989=DIRECTION('',(0.,1.,0.));
#990=DIRECTION('',(0.,0.,1.));
#991=DIRECTION('',(0.,0.,-1.));
#992=DIRECTION('',(0.,0.,-1.));
#993=DIRECTION('',(0.,0.,-1.));
#994=DIRECTION('',(-1.,0.,0.));
#995=DIRECTION('',(0.,0.,1.));
#996=DIRECTION('',(1.,0.,0.));
#997=DIRECTION('',(0.,0.,1.));
#998=DIRECTION('',(1.,0.,0.));
#999=DIRECTION('',(0.,0.,-1.));
#1000=DIRECTION('',(-1.,0.,0.));
#1001=DIRECTION('',(1.73472347597681E-17,1.,0.));
#1002=DIRECTION('',(1.,-1.73472347597681E-17,0.));
#1003=DIRECTION('',(-1.,1.73472347597681E-17,-1.73472347597681E-17));
#1004=DIRECTION('',(-0.894427190999918,1.55158384577955E-17,0.447213595499954));
#1005=DIRECTION('',(1.73472347597681E-17,1.,0.));
#1006=DIRECTION('',(1.,-1.73472347597681E-17,0.));
#1007=DIRECTION('',(1.73472347597681E-17,1.,0.));
#1008=DIRECTION('',(1.,-1.73472347597681E-17,0.));
#1009=DIRECTION('',(1.73472347597681E-17,1.,0.));
#1010=DIRECTION('',(1.,-1.73472347597681E-17,0.));
#1011=DIRECTION('',(1.73472347597681E-17,1.,0.));
#1012=DIRECTION('',(1.,-1.73472347597681E-17,0.));
#1013=DIRECTION('',(1.,-1.73472347597681E-17,0.));
#1014=DIRECTION('',(1.73472347597681E-17,1.,0.));
#1015=DIRECTION('',(1.,-1.73472347597681E-17,0.));
#1016=DIRECTION('',(1.73472347597681E-17,1.,0.));
#1017=DIRECTION('',(1.,-1.73472347597681E-17,0.));
#1018=DIRECTION('',(-1.,1.73472347597681E-17,2.88979510485095E-16));
#1019=DIRECTION('',(0.,0.,1.));
#1020=DIRECTION('',(1.,-1.73472347597681E-17,0.));
#1021=DIRECTION('',(1.73472347597681E-17,1.,0.));
#1022=DIRECTION('',(1.,-1.73472347597681E-17,0.));
#1023=DIRECTION('',(1.73472347597681E-17,1.,0.));
#1024=DIRECTION('',(1.73472347597681E-17,1.,0.));
#1025=DIRECTION('',(1.,-1.73472347597681E-17,0.));
#1026=DIRECTION('',(-1.,1.73472347597681E-17,2.88979510485095E-16));
#1027=DIRECTION('',(1.73472347597681E-17,1.,0.));
#1028=DIRECTION('',(1.,-1.73472347597681E-17,0.));
#1029=DIRECTION('',(1.73472347597681E-17,1.,0.));
#1030=DIRECTION('',(1.,-1.73472347597681E-17,0.));
#1031=DIRECTION('',(1.,-1.73472347597681E-17,0.));
#1032=DIRECTION('',(1.73472347597681E-17,1.,0.));
#1033=DIRECTION('',(1.,-1.73472347597681E-17,0.));
#1034=DIRECTION('',(-2.88979510485095E-16,5.01299540914782E-33,-1.));
#1035=DIRECTION('',(-1.,1.73472347597681E-17,2.88979510485095E-16));
#1036=DIRECTION('',(1.73472347597681E-17,1.,0.));
#1037=DIRECTION('',(1.,-1.73472347597681E-17,0.));
#1038=DIRECTION('',(1.73472347597681E-17,1.,0.));
#1039=DIRECTION('',(0.,0.,1.));
#1040=DIRECTION('',(1.,-1.73472347597681E-17,0.));
#1041=DIRECTION('',(1.73472347597681E-17,1.,0.));
#1042=DIRECTION('',(1.,-1.73472347597681E-17,0.));
#1043=DIRECTION('',(1.73472347597681E-17,1.,0.));
#1044=DIRECTION('',(1.73472347597681E-17,1.,0.));
#1045=DIRECTION('',(-0.525731112119136,9.11998102244463E-18,0.850650808352039));
#1046=DIRECTION('',(1.73472347597681E-17,1.,0.));
#1047=DIRECTION('',(1.,-1.73472347597681E-17,0.));
#1048=DIRECTION('',(1.73472347597681E-17,1.,0.));
#1049=DIRECTION('',(1.73472347597681E-17,1.,0.));
#1050=DIRECTION('',(1.,-1.73472347597681E-17,0.));
#1051=DIRECTION('',(-2.88979510485095E-16,5.01299540914782E-33,-1.));
#1052=DIRECTION('',(-1.,1.73472347597681E-17,2.88979510485095E-16));
#1053=DIRECTION('',(1.73472347597681E-17,1.,0.));
#1054=DIRECTION('',(-1.,1.73472347597681E-17,2.88979510485095E-16));
#1055=DIRECTION('',(1.73472347597681E-17,1.,0.));
#1056=DIRECTION('',(1.73472347597681E-17,1.,0.));
#1057=DIRECTION('',(1.,-1.73472347597681E-17,0.));
#1058=DIRECTION('',(1.73472347597681E-17,1.,0.));
#1059=DIRECTION('',(1.,-1.73472347597681E-17,0.));
#1060=DIRECTION('',(1.73472347597681E-17,1.,0.));
#1061=DIRECTION('',(1.,-1.73472347597681E-17,0.));
#1062=DIRECTION('',(1.73472347597681E-17,1.,0.));
#1063=DIRECTION('',(1.,-1.73472347597681E-17,0.));
#1064=DIRECTION('',(1.73472347597681E-17,1.,0.));
#1065=DIRECTION('',(1.,-1.73472347597681E-17,0.));
#1066=DIRECTION('',(1.73472347597681E-17,1.,0.));
#1067=DIRECTION('',(1.,-1.73472347597681E-17,0.));
#1068=DIRECTION('',(-0.894427190999919,1.55158384577955E-17,0.447213595499952));
#1069=DIRECTION('',(1.73472347597681E-17,1.,0.));
#1070=DIRECTION('',(1.,-1.73472347597681E-17,0.));
#1071=DIRECTION('',(1.73472347597681E-17,1.,0.));
#1072=DIRECTION('',(1.,-1.73472347597681E-17,0.));
#1073=DIRECTION('',(1.73472347597681E-17,1.,0.));
#1074=DIRECTION('',(1.,-1.73472347597681E-17,0.));
#1075=DIRECTION('',(1.73472347597681E-17,1.,0.));
#1076=DIRECTION('',(-0.525731112119135,9.11998102244461E-18,0.850650808352039));
#1077=DIRECTION('',(1.73472347597681E-17,1.,0.));
#1078=DIRECTION('',(1.73472347597681E-17,1.,0.));
#1079=DIRECTION('',(1.,-1.73472347597681E-17,0.));
#1080=DIRECTION('',(1.73472347597681E-17,1.,0.));
#1081=DIRECTION('',(1.,-1.73472347597681E-17,0.));
#1082=DIRECTION('',(0.894427190999919,-1.55158384577955E-17,-0.447213595499952));
#1083=DIRECTION('',(1.73472347597681E-17,1.,0.));
#1084=DIRECTION('',(1.,-1.73472347597681E-17,0.));
#1085=DIRECTION('',(0.447213595499954,-7.75791922889768E-18,0.894427190999918));
#1086=DIRECTION('',(0.894427190999918,-1.55158384577955E-17,-0.447213595499954));
#1087=DIRECTION('',(0.894427190999918,-1.55158384577955E-17,-0.447213595499954));
#1088=DIRECTION('',(1.73472347597681E-17,1.,0.));
#1089=DIRECTION('',(1.73472347597681E-17,1.,0.));
#1090=DIRECTION('',(1.,-1.73472347597681E-17,0.));
#1091=DIRECTION('',(1.73472347597681E-17,1.,0.));
#1092=DIRECTION('',(1.,-1.73472347597681E-17,0.));
#1093=DIRECTION('',(-1.,1.73472347597681E-17,1.73472347597681E-17));
#1094=DIRECTION('',(0.,0.707106781186548,-0.707106781186548));
#1095=DIRECTION('',(0.,0.707106781186548,0.707106781186548));
#1096=DIRECTION('',(-1.,1.73472347597681E-17,1.73472347597681E-17));
#1097=DIRECTION('',(0.,0.707106781186548,0.707106781186547));
#1098=DIRECTION('',(0.,-0.707106781186547,0.707106781186548));
#1099=DIRECTION('',(-1.,1.73472347597681E-17,-1.73472347597681E-17));
#1100=DIRECTION('',(0.,-0.707106781186548,-0.707106781186547));
#1101=DIRECTION('',(-1.,0.,0.));
#1102=DIRECTION('',(1.06663889856235E-16,-0.707106781186549,0.707106781186547));
#1103=DIRECTION('',(1.,1.50845519650157E-16,0.));
#1104=DIRECTION('',(-1.,1.73472347597681E-17,1.73472347597681E-17));
#1105=DIRECTION('',(1.73472347597681E-17,0.,1.));
#1106=DIRECTION('',(-1.,1.73472347597681E-17,-1.73472347597681E-17));
#1107=DIRECTION('',(-1.73472347597681E-17,0.,1.));
#1108=DIRECTION('',(0.,0.,1.));
#1109=DIRECTION('',(1.,0.,0.));
#1110=DIRECTION('',(0.,0.,1.));
#1111=DIRECTION('',(1.,0.,0.));
#1112=DIRECTION('',(0.,0.,1.));
#1113=DIRECTION('',(1.,0.,0.));
#1114=DIRECTION('',(0.,0.,1.));
#1115=DIRECTION('',(1.,0.,0.));
#1116=CARTESIAN_POINT('',(0.,0.,0.));
#1117=CARTESIAN_POINT('',(0.0115,0.025,0.005));
#1118=CARTESIAN_POINT('',(0.023,0.025,0.005));
#1119=CARTESIAN_POINT('',(0.023,0.002,0.005));
#1120=CARTESIAN_POINT('',(0.023,0.012,0.005));
#1121=CARTESIAN_POINT('',(4.52536558950472E-19,0.012,0.005));
#1122=CARTESIAN_POINT('',(0.,0.012,0.005));
#1123=CARTESIAN_POINT('',(0.,0.025,0.005));
#1124=CARTESIAN_POINT('',(0.,0.002,0.005));
#1125=CARTESIAN_POINT('',(0.002,0.002,0.005));
#1126=CARTESIAN_POINT('',(0.002,0.,0.005));
#1127=CARTESIAN_POINT('',(0.0115,0.,0.005));
#1128=CARTESIAN_POINT('',(0.021,0.,0.005));
#1129=CARTESIAN_POINT('',(0.021,0.002,0.005));
#1130=CARTESIAN_POINT('',(0.01725,0.006,0.005));
#1131=CARTESIAN_POINT('',(0.019,0.006,0.005));
#1132=CARTESIAN_POINT('',(0.00575,0.006,0.005));
#1133=CARTESIAN_POINT('',(0.0075,0.006,0.005));
#1134=CARTESIAN_POINT('',(0.0115,0.025,0.005));
#1135=CARTESIAN_POINT('',(0.,0.025,0.005));
#1136=CARTESIAN_POINT('',(0.,0.038,0.005));
#1137=CARTESIAN_POINT('',(0.,0.048,0.005));
#1138=CARTESIAN_POINT('',(0.0115,0.038,0.005));
#1139=CARTESIAN_POINT('',(0.023,0.038,0.005));
#1140=CARTESIAN_POINT('',(0.023,0.025,0.005));
#1141=CARTESIAN_POINT('',(0.023,0.048,0.005));
#1142=CARTESIAN_POINT('',(0.021,0.048,0.005));
#1143=CARTESIAN_POINT('',(0.021,0.05,0.005));
#1144=CARTESIAN_POINT('',(0.0115,0.05,0.005));
#1145=CARTESIAN_POINT('',(0.002,0.05,0.005));
#1146=CARTESIAN_POINT('',(0.002,0.048,0.005));
#1147=CARTESIAN_POINT('',(0.00575,0.044,0.005));
#1148=CARTESIAN_POINT('',(0.0075,0.044,0.005));
#1149=CARTESIAN_POINT('',(0.01725,0.044,0.005));
#1150=CARTESIAN_POINT('',(0.019,0.044,0.005));
#1151=CARTESIAN_POINT('',(0.0115,0.025,0.));
#1152=CARTESIAN_POINT('',(0.01725,0.006,0.));
#1153=CARTESIAN_POINT('',(0.019,0.006,0.));
#1154=CARTESIAN_POINT('',(0.00575,0.044,0.));
#1155=CARTESIAN_POINT('',(0.0075,0.044,0.));
#1156=CARTESIAN_POINT('',(0.,0.025,0.));
#1157=CARTESIAN_POINT('',(0.,0.002,0.));
#1158=CARTESIAN_POINT('',(0.,0.048,0.));
#1159=CARTESIAN_POINT('',(0.002,0.048,0.));
#1160=CARTESIAN_POINT('',(0.002,0.05,0.));
#1161=CARTESIAN_POINT('',(0.0115,0.05,0.));
#1162=CARTESIAN_POINT('',(0.021,0.05,0.));
#1163=CARTESIAN_POINT('',(0.021,0.048,0.));
#1164=CARTESIAN_POINT('',(0.023,0.048,0.));
#1165=CARTESIAN_POINT('',(0.023,0.025,0.));
#1166=CARTESIAN_POINT('',(0.023,0.002,0.));
#1167=CARTESIAN_POINT('',(0.021,0.002,0.));
#1168=CARTESIAN_POINT('',(0.021,0.,0.));
#1169=CARTESIAN_POINT('',(0.0115,0.,0.));
#1170=CARTESIAN_POINT('',(0.002,0.,0.));
#1171=CARTESIAN_POINT('',(0.002,0.002,0.));
#1172=CARTESIAN_POINT('',(0.01725,0.044,0.));
#1173=CARTESIAN_POINT('',(0.019,0.044,0.));
#1174=CARTESIAN_POINT('',(0.00575,0.006,0.));
#1175=CARTESIAN_POINT('',(0.0075,0.006,0.));
#1176=CARTESIAN_POINT('',(0.0115,0.015,0.105));
#1177=CARTESIAN_POINT('',(0.,0.015,0.105));
#1178=CARTESIAN_POINT('',(0.,0.015,0.0930751087665558));
#1179=CARTESIAN_POINT('',(0.,0.015,0.008));
#1180=CARTESIAN_POINT('',(0.023,0.015,0.008));
#1181=CARTESIAN_POINT('',(0.023,0.015,0.008));
#1182=CARTESIAN_POINT('',(0.023,0.015,0.105));
#1183=CARTESIAN_POINT('',(0.023,0.015,0.0930751087665558));
#1184=CARTESIAN_POINT('',(0.023002,0.015,0.0930751087665558));
#1185=CARTESIAN_POINT('',(0.0115,0.035,0.105));
#1186=CARTESIAN_POINT('',(0.023,0.035,0.105));
#1187=CARTESIAN_POINT('',(0.023,0.035,0.0930751087665558));
#1188=CARTESIAN_POINT('',(0.023,0.035,0.008));
#1189=CARTESIAN_POINT('',(0.0115,0.035,0.008));
#1190=CARTESIAN_POINT('',(0.,0.035,0.008));
#1191=CARTESIAN_POINT('',(0.,0.035,0.105));
#1192=CARTESIAN_POINT('',(0.,0.035,0.0930751087665558));
#1193=CARTESIAN_POINT('',(0.023002,0.035,0.0930751087665558));
#1194=CARTESIAN_POINT('',(0.,0.025,0.005));
#1195=CARTESIAN_POINT('',(2.7755575615629E-19,0.041,0.112217376207875));
#1196=CARTESIAN_POINT('',(2.7755575615629E-19,0.041,0.100317749453675));
#1197=CARTESIAN_POINT('',(-2.7755575615629E-19,0.041,0.1145));
#1198=CARTESIAN_POINT('',(0.,0.038,0.100317749453675));
#1199=CARTESIAN_POINT('',(0.,0.0401213203435596,0.0981964291101154));
#1200=CARTESIAN_POINT('',(0.,0.038,0.0960751087665558));
#1201=CARTESIAN_POINT('',(0.,0.035,0.008));
#1202=CARTESIAN_POINT('',(0.,0.048,0.005));
#1203=CARTESIAN_POINT('',(0.,0.002,0.005));
#1204=CARTESIAN_POINT('',(0.,0.012,0.005));
#1205=CARTESIAN_POINT('',(0.,0.012,0.0960751087665558));
#1206=CARTESIAN_POINT('',(0.,0.00987867965644036,0.0981964291101154));
#1207=CARTESIAN_POINT('',(0.,0.012,0.100317749453675));
#1208=CARTESIAN_POINT('',(-2.7755575615629E-19,0.009,0.100317749453675));
#1209=CARTESIAN_POINT('',(-2.7755575615629E-19,0.009,0.1065));
#1210=CARTESIAN_POINT('',(-8.3266726846887E-19,0.009,0.1145));
#1211=CARTESIAN_POINT('',(-1.38777878078145E-18,0.009,0.1145));
#1212=CARTESIAN_POINT('',(-1.17961196366423E-18,0.021,0.1145));
#1213=CARTESIAN_POINT('',(-1.17961196366423E-18,0.021,0.105));
#1214=CARTESIAN_POINT('',(-1.17961196366423E-18,0.021,0.1135));
#1215=CARTESIAN_POINT('',(-1.38777878078145E-18,0.009,0.1135));
#1216=CARTESIAN_POINT('',(-7.68680630150312E-19,0.029,0.1135));
#1217=CARTESIAN_POINT('',(-4.96527174714536E-19,0.029,0.118));
#1218=CARTESIAN_POINT('',(-7.68680630150312E-19,0.029,0.1145));
#1219=CARTESIAN_POINT('',(-1.38777878078145E-18,0.009,0.1145));
#1220=CARTESIAN_POINT('',(0.0115,0.,0.005));
#1221=CARTESIAN_POINT('',(0.002,0.,0.));
#1222=CARTESIAN_POINT('',(0.021,0.,0.005));
#1223=CARTESIAN_POINT('',(0.023,0.025,0.005));
#1224=CARTESIAN_POINT('',(0.023,0.038,0.0960751087665558));
#1225=CARTESIAN_POINT('',(0.023,0.0401213203435596,0.0981964291101154));
#1226=CARTESIAN_POINT('',(0.023,0.038,0.100317749453675));
#1227=CARTESIAN_POINT('',(0.023,0.041,0.100317749453675));
#1228=CARTESIAN_POINT('',(0.023,0.041,0.10575));
#1229=CARTESIAN_POINT('',(0.023,0.041,0.1065));
#1230=CARTESIAN_POINT('',(0.023,0.041002,0.1065));
#1231=CARTESIAN_POINT('',(0.023,0.009,0.1065));
#1232=CARTESIAN_POINT('',(0.023,0.009,0.10575));
#1233=CARTESIAN_POINT('',(0.023,0.009,0.100317749453675));
#1234=CARTESIAN_POINT('',(0.023,0.012,0.100317749453675));
#1235=CARTESIAN_POINT('',(0.023,0.00987867965644036,0.0981964291101154));
#1236=CARTESIAN_POINT('',(0.023,0.012,0.0960751087665558));
#1237=CARTESIAN_POINT('',(0.023,0.0185,0.0115));
#1238=CARTESIAN_POINT('',(0.023,0.002,0.005));
#1239=CARTESIAN_POINT('',(0.023,0.048,0.005));
#1240=CARTESIAN_POINT('',(0.023,0.0315,0.0115));
#1241=CARTESIAN_POINT('',(0.0115,0.05,0.005));
#1242=CARTESIAN_POINT('',(0.002,0.05,0.005));
#1243=CARTESIAN_POINT('',(0.021,0.05,0.));
#1244=CARTESIAN_POINT('',(0.002,0.048,0.005));
#1245=CARTESIAN_POINT('',(0.021,0.048,0.005));
#1246=CARTESIAN_POINT('',(0.002,0.002,0.005));
#1247=CARTESIAN_POINT('',(0.021,0.002,0.005));
#1248=CARTESIAN_POINT('',(0.01,0.009,0.1065));
#1249=CARTESIAN_POINT('',(0.01,0.009,0.100317749453675));
#1250=CARTESIAN_POINT('',(0.02,0.009,0.108));
#1251=CARTESIAN_POINT('',(0.00313049516849971,0.009,0.11643475241575));
#1252=CARTESIAN_POINT('',(-2.7755575615629E-19,0.009,0.118));
#1253=CARTESIAN_POINT('',(-2.7755575615629E-19,0.009,0.118));
#1254=CARTESIAN_POINT('',(0.0025,0.009,0.118));
#1255=CARTESIAN_POINT('',(3.74700270810991E-19,0.0386,0.118));
#1256=CARTESIAN_POINT('',(2.35922392732847E-19,0.0386,0.118));
#1257=CARTESIAN_POINT('',(-0.00192093727122985,0.0386,0.1164));
#1258=CARTESIAN_POINT('',(0.00192093727122985,0.0386,0.1164));
#1259=CARTESIAN_POINT('',(-0.00192093727122985,0.0386,0.1164));
#1260=CARTESIAN_POINT('',(3.74700270810991E-19,0.0386,0.118));
#1261=CARTESIAN_POINT('',(2.35922392732847E-19,0.0386,0.118));
#1262=CARTESIAN_POINT('',(0.00192093727122985,0.0386,0.1196));
#1263=CARTESIAN_POINT('',(-0.00192093727122985,0.0386,0.1196));
#1264=CARTESIAN_POINT('',(0.00192093727122985,0.0386,0.1196));
#1265=CARTESIAN_POINT('',(-0.00192093727122985,0.029,0.1164));
#1266=CARTESIAN_POINT('',(-0.00192093727122985,0.029,0.1164));
#1267=CARTESIAN_POINT('',(-0.00192093727122985,0.029,0.1164));
#1268=CARTESIAN_POINT('',(-0.00192093727122985,0.029,0.1164));
#1269=CARTESIAN_POINT('',(0.00192093727122985,0.029,0.1164));
#1270=CARTESIAN_POINT('',(0.00192093727122985,0.029,0.1164));
#1271=CARTESIAN_POINT('',(4.16333634234426E-20,0.0114,0.12005));
#1272=CARTESIAN_POINT('',(0.00192093727122985,0.0114,0.1196));
#1273=CARTESIAN_POINT('',(0.00192093727122985,0.0114,0.1196));
#1274=CARTESIAN_POINT('',(-0.00192093727122985,0.0114,0.1196));
#1275=CARTESIAN_POINT('',(-2.35922392732847E-19,0.0114,0.118));
#1276=CARTESIAN_POINT('',(-2.35922392732847E-19,0.0114,0.11595));
#1277=CARTESIAN_POINT('',(-0.00192093727122985,0.0114,0.1164));
#1278=CARTESIAN_POINT('',(-0.00192093727122985,0.0114,0.1164));
#1279=CARTESIAN_POINT('',(0.00192093727122985,0.0114,0.1164));
#1280=CARTESIAN_POINT('',(-2.35922392732847E-19,0.0114,0.118));
#1281=CARTESIAN_POINT('',(0.00192093727122985,0.009,0.1196));
#1282=CARTESIAN_POINT('',(-0.00192093727122985,0.009,0.1196));
#1283=CARTESIAN_POINT('',(-0.00192093727122985,0.021,0.1196));
#1284=CARTESIAN_POINT('',(-6.93889390390725E-20,0.021,0.1196));
#1285=CARTESIAN_POINT('',(0.00192093727122985,0.021,0.1196));
#1286=CARTESIAN_POINT('',(0.00192093727122985,0.009,0.1196));
#1287=CARTESIAN_POINT('',(-0.00192093727122985,0.009,0.1164));
#1288=CARTESIAN_POINT('',(0.00192093727122985,0.009,0.1164));
#1289=CARTESIAN_POINT('',(0.00192093727122985,0.021,0.1164));
#1290=CARTESIAN_POINT('',(-6.93889390390725E-20,0.021,0.1164));
#1291=CARTESIAN_POINT('',(-0.00192093727122985,0.021,0.1164));
#1292=CARTESIAN_POINT('',(-0.00192093727122985,0.009,0.1164));
#1293=CARTESIAN_POINT('',(6.93889390390725E-20,0.029,0.118));
#1294=CARTESIAN_POINT('',(6.93889390390725E-20,0.029,0.118));
#1295=CARTESIAN_POINT('',(0.00313049516849971,0.029,0.11643475241575));
#1296=CARTESIAN_POINT('',(0.00313049516849971,0.029,0.11643475241575));
#1297=CARTESIAN_POINT('',(0.00313049516849971,0.041,0.11643475241575));
#1298=CARTESIAN_POINT('',(2.7755575615629E-19,0.041,0.118));
#1299=CARTESIAN_POINT('',(0.00192093727122985,0.029,0.1196));
#1300=CARTESIAN_POINT('',(0.00192093727122985,0.029,0.1196));
#1301=CARTESIAN_POINT('',(0.00192093727122985,0.029,0.1196));
#1302=CARTESIAN_POINT('',(0.00192093727122985,0.029,0.1196));
#1303=CARTESIAN_POINT('',(-0.00192093727122985,0.029,0.1196));
#1304=CARTESIAN_POINT('',(-0.00192093727122985,0.029,0.1196));
#1305=CARTESIAN_POINT('',(6.93889390390725E-20,0.029,0.118));
#1306=CARTESIAN_POINT('',(6.93889390390725E-20,0.029,0.118));
#1307=CARTESIAN_POINT('',(6.93889390390725E-20,0.029,0.118));
#1308=CARTESIAN_POINT('',(2.7755575615629E-19,0.041,0.118));
#1309=CARTESIAN_POINT('',(0.0025,0.041,0.118));
#1310=CARTESIAN_POINT('',(6.93889390390725E-20,0.029,0.118));
#1311=CARTESIAN_POINT('',(6.93889390390725E-20,0.029,0.118));
#1312=CARTESIAN_POINT('',(0.00402492235949963,0.029,0.11598753882025));
#1313=CARTESIAN_POINT('',(0.00402492235949963,0.029,0.11598753882025));
#1314=CARTESIAN_POINT('',(-2.7755575615629E-19,0.009,0.118));
#1315=CARTESIAN_POINT('',(-6.93889390390725E-20,0.021,0.118));
#1316=CARTESIAN_POINT('',(-6.93889390390725E-20,0.021,0.118));
#1317=CARTESIAN_POINT('',(-2.7755575615629E-19,0.009,0.118));
#1318=CARTESIAN_POINT('',(0.00313049516849971,0.009,0.11643475241575));
#1319=CARTESIAN_POINT('',(0.00313049516849971,0.021,0.11643475241575));
#1320=CARTESIAN_POINT('',(-6.93889390390725E-20,0.021,0.118));
#1321=CARTESIAN_POINT('',(-6.93889390390725E-20,0.021,0.118));
#1322=CARTESIAN_POINT('',(0.00313049516849971,0.021,0.11643475241575));
#1323=CARTESIAN_POINT('',(0.00402492235949963,0.021,0.11598753882025));
#1324=CARTESIAN_POINT('',(-6.93889390390725E-20,0.021,0.118));
#1325=CARTESIAN_POINT('',(0.00313049516849972,0.009,0.11643475241575));
#1326=CARTESIAN_POINT('',(0.00313049516849972,0.041,0.11643475241575));
#1327=CARTESIAN_POINT('',(0.00402492235949963,0.009,0.11598753882025));
#1328=CARTESIAN_POINT('',(-2.7755575615629E-19,0.009,0.118));
#1329=CARTESIAN_POINT('',(0.01,0.041,0.112217376207875));
#1330=CARTESIAN_POINT('',(0.01,0.041,0.100317749453675));
#1331=CARTESIAN_POINT('',(0.023002,0.038,0.0960751087665558));
#1332=CARTESIAN_POINT('',(0.023002,0.0401213203435596,0.0981964291101154));
#1333=CARTESIAN_POINT('',(0.023002,0.012,0.0960751087665558));
#1334=CARTESIAN_POINT('',(0.023002,0.00987867965644036,0.0981964291101154));
#1335=CARTESIAN_POINT('',(0.0115,0.035,0.008));
#1336=CARTESIAN_POINT('',(0.0115,0.012,0.005));
#1337=CARTESIAN_POINT('',(0.01,0.038,0.100317749453675));
#1338=CARTESIAN_POINT('',(0.023002,0.012,0.100317749453675));
#1339=CARTESIAN_POINT('',(0.00575,0.044,-2.00000000000027E-6));
#1340=CARTESIAN_POINT('',(0.01725,0.044,-2.00000000000027E-6));
#1341=CARTESIAN_POINT('',(0.01725,0.006,-2.00000000000027E-6));
#1342=CARTESIAN_POINT('',(0.00575,0.006,-2.00000000000027E-6));
#1343=MECHANICAL_DESIGN_GEOMETRIC_PRESENTATION_REPRESENTATION('',(#798),
#1344);
#1344=(
GEOMETRIC_REPRESENTATION_CONTEXT(3)
GLOBAL_UNCERTAINTY_ASSIGNED_CONTEXT((#1345))
GLOBAL_UNIT_ASSIGNED_CONTEXT((#1348,#1347,#1346))
REPRESENTATION_CONTEXT('Part 1','TOP_LEVEL_ASSEMBLY_PART')
);
#1345=UNCERTAINTY_MEASURE_WITH_UNIT(LENGTH_MEASURE(1.E-8),#1348,
'DISTANCE_ACCURACY_VALUE','Maximum Tolerance applied to model');
#1346=(
NAMED_UNIT(*)
SI_UNIT($,.STERADIAN.)
SOLID_ANGLE_UNIT()
);
#1347=(
NAMED_UNIT(*)
PLANE_ANGLE_UNIT()
SI_UNIT($,.RADIAN.)
);
#1348=(
LENGTH_UNIT()
NAMED_UNIT(*)
SI_UNIT($,.METRE.)
);
#1349=PRODUCT_DEFINITION_SHAPE('','',#1350);
#1350=PRODUCT_DEFINITION('','',#1352,#1351);
#1351=PRODUCT_DEFINITION_CONTEXT('',#1358,'design');
#1352=PRODUCT_DEFINITION_FORMATION_WITH_SPECIFIED_SOURCE('','',#1354,
 .NOT_KNOWN.);
#1353=PRODUCT_RELATED_PRODUCT_CATEGORY('','',(#1354));
#1354=PRODUCT('Part 1','Part 1','Part 1',(#1356));
#1355=PRODUCT_CATEGORY('','');
#1356=PRODUCT_CONTEXT('',#1358,'mechanical');
#1357=APPLICATION_PROTOCOL_DEFINITION('international standard',
'ap242_managed_model_based_3d_engineering',2020,#1358);
#1358=APPLICATION_CONTEXT('managed model based 3d engineering');
ENDSEC;
END-ISO-10303-21;
