ISO-10303-21;
HEADER;
/* Generated by software containing ST-Developer
 * from STEP Tools, Inc. (www.steptools.com) 
 */
/* OPTION: using custom renumber hook */

FILE_DESCRIPTION(
/* description */ ('STEP AP242 Edition 2',
'CAx-IF Rec.Pracs.---Representation and Presentation of Product Manufa
cturing Information (PMI)---4.0---2014-10-13',
'CAx-IF Rec.Pracs.---3D Tessellated Geometry---0.4---2014-09-14','2;1',
'CAx-IF Rec.Pracs.---User Defined Attributes---1.5---2016-08-15'),
/* implementation_level */ '2;1');

FILE_NAME(
/* name */ 'Part Studio 1 - Part 2',
/* time_stamp */ '2026-08-31T00:52:44Z',
/* author */ (''),
/* organization */ (''),
/* preprocessor_version */ 'ST-DEVELOPER v20',
/* originating_system */ 'ONSHAPE BY PTC INC, 1.220',
/* authorisation */ '  ');

FILE_SCHEMA (('AP242_MANAGED_MODEL_BASED_3D_ENGINEERING_MIM_LF { 1 0 10303 442 3 1 4 }'));
ENDSEC;

DATA;
#10=SHAPE_REPRESENTATION_RELATIONSHIP('','',#351,#11);
#11=ADVANCED_BREP_SHAPE_REPRESENTATION('',(#349),#589);
#12=CYLINDRICAL_SURFACE('',#372,0.011);
#13=CYLINDRICAL_SURFACE('',#376,0.0071);
#14=CYLINDRICAL_SURFACE('',#377,0.0071);
#15=CYLINDRICAL_SURFACE('',#380,0.011);
#16=CYLINDRICAL_SURFACE('',#385,0.00508);
#17=CYLINDRICAL_SURFACE('',#386,0.00508);
#18=CYLINDRICAL_SURFACE('',#387,0.0035);
#19=CYLINDRICAL_SURFACE('',#388,0.0035);
#20=CYLINDRICAL_SURFACE('',#389,0.00225);
#21=CYLINDRICAL_SURFACE('',#390,0.00225);
#22=CIRCLE('',#354,0.00225);
#23=CIRCLE('',#355,0.00225);
#24=CIRCLE('',#357,0.00225);
#25=CIRCLE('',#358,0.00225);
#26=CIRCLE('',#360,0.0071);
#27=CIRCLE('',#361,0.011);
#28=CIRCLE('',#363,0.00508);
#29=CIRCLE('',#364,0.0035);
#30=CIRCLE('',#365,0.0035);
#31=CIRCLE('',#366,0.00508);
#32=CIRCLE('',#368,0.00508);
#33=CIRCLE('',#369,0.00508);
#34=CIRCLE('',#370,0.0035);
#35=CIRCLE('',#371,0.0035);
#36=CIRCLE('',#373,0.011);
#37=CIRCLE('',#375,0.0071);
#38=CIRCLE('',#378,0.0071);
#39=CIRCLE('',#379,0.0071);
#40=CIRCLE('',#381,0.011);
#41=CIRCLE('',#382,0.011);
#42=ORIENTED_EDGE('',*,*,#130,.F.);
#43=ORIENTED_EDGE('',*,*,#131,.T.);
#44=ORIENTED_EDGE('',*,*,#132,.T.);
#45=ORIENTED_EDGE('',*,*,#133,.T.);
#46=ORIENTED_EDGE('',*,*,#134,.T.);
#47=ORIENTED_EDGE('',*,*,#135,.F.);
#48=ORIENTED_EDGE('',*,*,#136,.F.);
#49=ORIENTED_EDGE('',*,*,#137,.T.);
#50=ORIENTED_EDGE('',*,*,#138,.T.);
#51=ORIENTED_EDGE('',*,*,#139,.T.);
#52=ORIENTED_EDGE('',*,*,#140,.T.);
#53=ORIENTED_EDGE('',*,*,#141,.F.);
#54=ORIENTED_EDGE('',*,*,#142,.T.);
#55=ORIENTED_EDGE('',*,*,#143,.T.);
#56=ORIENTED_EDGE('',*,*,#144,.T.);
#57=ORIENTED_EDGE('',*,*,#145,.F.);
#58=ORIENTED_EDGE('',*,*,#146,.F.);
#59=ORIENTED_EDGE('',*,*,#132,.F.);
#60=ORIENTED_EDGE('',*,*,#147,.T.);
#61=ORIENTED_EDGE('',*,*,#148,.F.);
#62=ORIENTED_EDGE('',*,*,#149,.T.);
#63=ORIENTED_EDGE('',*,*,#150,.T.);
#64=ORIENTED_EDGE('',*,*,#151,.T.);
#65=ORIENTED_EDGE('',*,*,#136,.T.);
#66=ORIENTED_EDGE('',*,*,#152,.T.);
#67=ORIENTED_EDGE('',*,*,#143,.F.);
#68=ORIENTED_EDGE('',*,*,#153,.T.);
#69=ORIENTED_EDGE('',*,*,#154,.T.);
#70=ORIENTED_EDGE('',*,*,#155,.T.);
#71=ORIENTED_EDGE('',*,*,#156,.T.);
#72=ORIENTED_EDGE('',*,*,#157,.T.);
#73=ORIENTED_EDGE('',*,*,#130,.T.);
#74=ORIENTED_EDGE('',*,*,#158,.T.);
#75=ORIENTED_EDGE('',*,*,#159,.F.);
#76=ORIENTED_EDGE('',*,*,#160,.F.);
#77=ORIENTED_EDGE('',*,*,#145,.T.);
#78=ORIENTED_EDGE('',*,*,#161,.T.);
#79=ORIENTED_EDGE('',*,*,#138,.F.);
#80=ORIENTED_EDGE('',*,*,#162,.T.);
#81=ORIENTED_EDGE('',*,*,#163,.F.);
#82=ORIENTED_EDGE('',*,*,#164,.F.);
#83=ORIENTED_EDGE('',*,*,#153,.F.);
#84=ORIENTED_EDGE('',*,*,#146,.T.);
#85=ORIENTED_EDGE('',*,*,#160,.T.);
#86=ORIENTED_EDGE('',*,*,#165,.F.);
#87=ORIENTED_EDGE('',*,*,#159,.T.);
#88=ORIENTED_EDGE('',*,*,#166,.T.);
#89=ORIENTED_EDGE('',*,*,#154,.F.);
#90=ORIENTED_EDGE('',*,*,#165,.T.);
#91=ORIENTED_EDGE('',*,*,#167,.F.);
#92=ORIENTED_EDGE('',*,*,#142,.F.);
#93=ORIENTED_EDGE('',*,*,#167,.T.);
#94=ORIENTED_EDGE('',*,*,#168,.F.);
#95=ORIENTED_EDGE('',*,*,#169,.T.);
#96=ORIENTED_EDGE('',*,*,#170,.F.);
#97=ORIENTED_EDGE('',*,*,#149,.F.);
#98=ORIENTED_EDGE('',*,*,#171,.T.);
#99=ORIENTED_EDGE('',*,*,#164,.T.);
#100=ORIENTED_EDGE('',*,*,#148,.T.);
#101=ORIENTED_EDGE('',*,*,#172,.T.);
#102=ORIENTED_EDGE('',*,*,#156,.F.);
#103=ORIENTED_EDGE('',*,*,#171,.F.);
#104=ORIENTED_EDGE('',*,*,#168,.T.);
#105=ORIENTED_EDGE('',*,*,#163,.T.);
#106=ORIENTED_EDGE('',*,*,#173,.T.);
#107=ORIENTED_EDGE('',*,*,#150,.F.);
#108=ORIENTED_EDGE('',*,*,#170,.T.);
#109=ORIENTED_EDGE('',*,*,#169,.F.);
#110=ORIENTED_EDGE('',*,*,#147,.F.);
#111=ORIENTED_EDGE('',*,*,#131,.F.);
#112=ORIENTED_EDGE('',*,*,#157,.F.);
#113=ORIENTED_EDGE('',*,*,#172,.F.);
#114=ORIENTED_EDGE('',*,*,#155,.F.);
#115=ORIENTED_EDGE('',*,*,#166,.F.);
#116=ORIENTED_EDGE('',*,*,#158,.F.);
#117=ORIENTED_EDGE('',*,*,#133,.F.);
#118=ORIENTED_EDGE('',*,*,#151,.F.);
#119=ORIENTED_EDGE('',*,*,#173,.F.);
#120=ORIENTED_EDGE('',*,*,#162,.F.);
#121=ORIENTED_EDGE('',*,*,#137,.F.);
#122=ORIENTED_EDGE('',*,*,#161,.F.);
#123=ORIENTED_EDGE('',*,*,#144,.F.);
#124=ORIENTED_EDGE('',*,*,#152,.F.);
#125=ORIENTED_EDGE('',*,*,#139,.F.);
#126=ORIENTED_EDGE('',*,*,#134,.F.);
#127=ORIENTED_EDGE('',*,*,#140,.F.);
#128=ORIENTED_EDGE('',*,*,#135,.T.);
#129=ORIENTED_EDGE('',*,*,#141,.T.);
#130=EDGE_CURVE('',#174,#175,#206,.T.);
#131=EDGE_CURVE('',#174,#176,#207,.F.);
#132=EDGE_CURVE('',#176,#177,#208,.T.);
#133=EDGE_CURVE('',#177,#175,#209,.T.);
#134=EDGE_CURVE('',#178,#178,#22,.T.);
#135=EDGE_CURVE('',#179,#179,#23,.F.);
#136=EDGE_CURVE('',#180,#181,#210,.T.);
#137=EDGE_CURVE('',#180,#182,#211,.T.);
#138=EDGE_CURVE('',#182,#183,#212,.T.);
#139=EDGE_CURVE('',#183,#181,#213,.T.);
#140=EDGE_CURVE('',#184,#184,#24,.T.);
#141=EDGE_CURVE('',#185,#185,#25,.T.);
#142=EDGE_CURVE('',#186,#186,#26,.T.);
#143=EDGE_CURVE('',#187,#188,#214,.T.);
#144=EDGE_CURVE('',#188,#189,#215,.F.);
#145=EDGE_CURVE('',#190,#189,#216,.T.);
#146=EDGE_CURVE('',#187,#190,#27,.T.);
#147=EDGE_CURVE('',#176,#191,#28,.F.);
#148=EDGE_CURVE('',#192,#191,#217,.T.);
#149=EDGE_CURVE('',#192,#193,#218,.T.);
#150=EDGE_CURVE('',#193,#194,#219,.T.);
#151=EDGE_CURVE('',#194,#180,#29,.T.);
#152=EDGE_CURVE('',#181,#188,#30,.T.);
#153=EDGE_CURVE('',#187,#195,#220,.T.);
#154=EDGE_CURVE('',#195,#196,#221,.T.);
#155=EDGE_CURVE('',#196,#177,#31,.F.);
#156=EDGE_CURVE('',#197,#198,#222,.T.);
#157=EDGE_CURVE('',#198,#174,#32,.T.);
#158=EDGE_CURVE('',#175,#199,#33,.T.);
#159=EDGE_CURVE('',#200,#199,#223,.T.);
#160=EDGE_CURVE('',#190,#200,#224,.T.);
#161=EDGE_CURVE('',#189,#183,#34,.F.);
#162=EDGE_CURVE('',#182,#201,#35,.F.);
#163=EDGE_CURVE('',#202,#201,#225,.T.);
#164=EDGE_CURVE('',#197,#202,#226,.T.);
#165=EDGE_CURVE('',#195,#200,#36,.T.);
#166=EDGE_CURVE('',#199,#196,#227,.F.);
#167=EDGE_CURVE('',#203,#203,#37,.T.);
#168=EDGE_CURVE('',#204,#204,#38,.T.);
#169=EDGE_CURVE('',#205,#205,#39,.T.);
#170=EDGE_CURVE('',#193,#202,#40,.T.);
#171=EDGE_CURVE('',#192,#197,#41,.T.);
#172=EDGE_CURVE('',#191,#198,#228,.T.);
#173=EDGE_CURVE('',#201,#194,#229,.F.);
#174=VERTEX_POINT('',#496);
#175=VERTEX_POINT('',#497);
#176=VERTEX_POINT('',#499);
#177=VERTEX_POINT('',#501);
#178=VERTEX_POINT('',#504);
#179=VERTEX_POINT('',#506);
#180=VERTEX_POINT('',#509);
#181=VERTEX_POINT('',#510);
#182=VERTEX_POINT('',#512);
#183=VERTEX_POINT('',#514);
#184=VERTEX_POINT('',#517);
#185=VERTEX_POINT('',#519);
#186=VERTEX_POINT('',#522);
#187=VERTEX_POINT('',#524);
#188=VERTEX_POINT('',#525);
#189=VERTEX_POINT('',#527);
#190=VERTEX_POINT('',#529);
#191=VERTEX_POINT('',#533);
#192=VERTEX_POINT('',#535);
#193=VERTEX_POINT('',#537);
#194=VERTEX_POINT('',#539);
#195=VERTEX_POINT('',#543);
#196=VERTEX_POINT('',#545);
#197=VERTEX_POINT('',#549);
#198=VERTEX_POINT('',#550);
#199=VERTEX_POINT('',#553);
#200=VERTEX_POINT('',#555);
#201=VERTEX_POINT('',#559);
#202=VERTEX_POINT('',#561);
#203=VERTEX_POINT('',#568);
#204=VERTEX_POINT('',#572);
#205=VERTEX_POINT('',#574);
#206=LINE('',#495,#230);
#207=LINE('',#498,#231);
#208=LINE('',#500,#232);
#209=LINE('',#502,#233);
#210=LINE('',#508,#234);
#211=LINE('',#511,#235);
#212=LINE('',#513,#236);
#213=LINE('',#515,#237);
#214=LINE('',#523,#238);
#215=LINE('',#526,#239);
#216=LINE('',#528,#240);
#217=LINE('',#534,#241);
#218=LINE('',#536,#242);
#219=LINE('',#538,#243);
#220=LINE('',#542,#244);
#221=LINE('',#544,#245);
#222=LINE('',#548,#246);
#223=LINE('',#554,#247);
#224=LINE('',#556,#248);
#225=LINE('',#560,#249);
#226=LINE('',#562,#250);
#227=LINE('',#566,#251);
#228=LINE('',#579,#252);
#229=LINE('',#581,#253);
#230=VECTOR('',#395,1.);
#231=VECTOR('',#396,1.);
#232=VECTOR('',#397,1.);
#233=VECTOR('',#398,1.);
#234=VECTOR('',#405,1.);
#235=VECTOR('',#406,1.);
#236=VECTOR('',#407,1.);
#237=VECTOR('',#408,1.);
#238=VECTOR('',#417,1.);
#239=VECTOR('',#418,1.);
#240=VECTOR('',#419,1.);
#241=VECTOR('',#426,1.);
#242=VECTOR('',#427,1.);
#243=VECTOR('',#428,1.);
#244=VECTOR('',#433,1.);
#245=VECTOR('',#434,1.);
#246=VECTOR('',#439,1.);
#247=VECTOR('',#444,1.);
#248=VECTOR('',#445,1.);
#249=VECTOR('',#450,1.);
#250=VECTOR('',#451,1.);
#251=VECTOR('',#458,1.);
#252=VECTOR('',#477,1.);
#253=VECTOR('',#480,1.);
#254=EDGE_LOOP('',(#42,#43,#44,#45));
#255=EDGE_LOOP('',(#46));
#256=EDGE_LOOP('',(#47));
#257=EDGE_LOOP('',(#48,#49,#50,#51));
#258=EDGE_LOOP('',(#52));
#259=EDGE_LOOP('',(#53));
#260=EDGE_LOOP('',(#54));
#261=EDGE_LOOP('',(#55,#56,#57,#58));
#262=EDGE_LOOP('',(#59,#60,#61,#62,#63,#64,#65,#66,#67,#68,#69,#70));
#263=EDGE_LOOP('',(#71,#72,#73,#74,#75,#76,#77,#78,#79,#80,#81,#82));
#264=EDGE_LOOP('',(#83,#84,#85,#86));
#265=EDGE_LOOP('',(#87,#88,#89,#90));
#266=EDGE_LOOP('',(#91));
#267=EDGE_LOOP('',(#92));
#268=EDGE_LOOP('',(#93));
#269=EDGE_LOOP('',(#94));
#270=EDGE_LOOP('',(#95));
#271=EDGE_LOOP('',(#96,#97,#98,#99));
#272=EDGE_LOOP('',(#100,#101,#102,#103));
#273=EDGE_LOOP('',(#104));
#274=EDGE_LOOP('',(#105,#106,#107,#108));
#275=EDGE_LOOP('',(#109));
#276=EDGE_LOOP('',(#110,#111,#112,#113));
#277=EDGE_LOOP('',(#114,#115,#116,#117));
#278=EDGE_LOOP('',(#118,#119,#120,#121));
#279=EDGE_LOOP('',(#122,#123,#124,#125));
#280=EDGE_LOOP('',(#126));
#281=EDGE_LOOP('',(#127));
#282=EDGE_LOOP('',(#128));
#283=EDGE_LOOP('',(#129));
#284=FACE_BOUND('',#254,.T.);
#285=FACE_BOUND('',#255,.T.);
#286=FACE_BOUND('',#256,.T.);
#287=FACE_BOUND('',#257,.T.);
#288=FACE_BOUND('',#258,.T.);
#289=FACE_BOUND('',#259,.T.);
#290=FACE_BOUND('',#260,.T.);
#291=FACE_BOUND('',#261,.T.);
#292=FACE_BOUND('',#262,.T.);
#293=FACE_BOUND('',#263,.T.);
#294=FACE_BOUND('',#264,.T.);
#295=FACE_BOUND('',#265,.T.);
#296=FACE_BOUND('',#266,.T.);
#297=FACE_BOUND('',#267,.T.);
#298=FACE_BOUND('',#268,.T.);
#299=FACE_BOUND('',#269,.T.);
#300=FACE_BOUND('',#270,.T.);
#301=FACE_BOUND('',#271,.T.);
#302=FACE_BOUND('',#272,.T.);
#303=FACE_BOUND('',#273,.T.);
#304=FACE_BOUND('',#274,.T.);
#305=FACE_BOUND('',#275,.T.);
#306=FACE_BOUND('',#276,.T.);
#307=FACE_BOUND('',#277,.T.);
#308=FACE_BOUND('',#278,.T.);
#309=FACE_BOUND('',#279,.T.);
#310=FACE_BOUND('',#280,.T.);
#311=FACE_BOUND('',#281,.T.);
#312=FACE_BOUND('',#282,.T.);
#313=FACE_BOUND('',#283,.T.);
#314=PLANE('',#353);
#315=PLANE('',#356);
#316=PLANE('',#359);
#317=PLANE('',#362);
#318=PLANE('',#367);
#319=PLANE('',#374);
#320=PLANE('',#383);
#321=PLANE('',#384);
#322=ADVANCED_FACE('',(#284,#285,#286),#314,.F.);
#323=ADVANCED_FACE('',(#287,#288,#289),#315,.F.);
#324=ADVANCED_FACE('',(#290,#291),#316,.F.);
#325=ADVANCED_FACE('',(#292),#317,.F.);
#326=ADVANCED_FACE('',(#293),#318,.T.);
#327=ADVANCED_FACE('',(#294),#12,.T.);
#328=ADVANCED_FACE('',(#295,#296),#319,.T.);
#329=ADVANCED_FACE('',(#297,#298),#13,.F.);
#330=ADVANCED_FACE('',(#299,#300),#14,.F.);
#331=ADVANCED_FACE('',(#301),#15,.T.);
#332=ADVANCED_FACE('',(#302,#303),#320,.F.);
#333=ADVANCED_FACE('',(#304,#305),#321,.T.);
#334=ADVANCED_FACE('',(#306),#16,.T.);
#335=ADVANCED_FACE('',(#307),#17,.T.);
#336=ADVANCED_FACE('',(#308),#18,.F.);
#337=ADVANCED_FACE('',(#309),#19,.F.);
#338=ADVANCED_FACE('',(#310,#311),#20,.F.);
#339=ADVANCED_FACE('',(#312,#313),#21,.F.);
#340=CLOSED_SHELL('',(#322,#323,#324,#325,#326,#327,#328,#329,#330,#331,
#332,#333,#334,#335,#336,#337,#338,#339));
#341=STYLED_ITEM('',(#342),#349);
#342=PRESENTATION_STYLE_ASSIGNMENT((#343));
#343=SURFACE_STYLE_USAGE(.BOTH.,#344);
#344=SURFACE_SIDE_STYLE('',(#345));
#345=SURFACE_STYLE_FILL_AREA(#346);
#346=FILL_AREA_STYLE('',(#347));
#347=FILL_AREA_STYLE_COLOUR('',#348);
#348=COLOUR_RGB('',0.980392156862745,0.796078431372549,0.262745098039216);
#349=MANIFOLD_SOLID_BREP('Part 2',#340);
#350=SHAPE_DEFINITION_REPRESENTATION(#594,#351);
#351=SHAPE_REPRESENTATION('Part 2',(#352),#589);
#352=AXIS2_PLACEMENT_3D('',#493,#391,#392);
#353=AXIS2_PLACEMENT_3D('',#494,#393,#394);
#354=AXIS2_PLACEMENT_3D('',#503,#399,#400);
#355=AXIS2_PLACEMENT_3D('',#505,#401,#402);
#356=AXIS2_PLACEMENT_3D('',#507,#403,#404);
#357=AXIS2_PLACEMENT_3D('',#516,#409,#410);
#358=AXIS2_PLACEMENT_3D('',#518,#411,#412);
#359=AXIS2_PLACEMENT_3D('',#520,#413,#414);
#360=AXIS2_PLACEMENT_3D('',#521,#415,#416);
#361=AXIS2_PLACEMENT_3D('',#530,#420,#421);
#362=AXIS2_PLACEMENT_3D('',#531,#422,#423);
#363=AXIS2_PLACEMENT_3D('',#532,#424,#425);
#364=AXIS2_PLACEMENT_3D('',#540,#429,#430);
#365=AXIS2_PLACEMENT_3D('',#541,#431,#432);
#366=AXIS2_PLACEMENT_3D('',#546,#435,#436);
#367=AXIS2_PLACEMENT_3D('',#547,#437,#438);
#368=AXIS2_PLACEMENT_3D('',#551,#440,#441);
#369=AXIS2_PLACEMENT_3D('',#552,#442,#443);
#370=AXIS2_PLACEMENT_3D('',#557,#446,#447);
#371=AXIS2_PLACEMENT_3D('',#558,#448,#449);
#372=AXIS2_PLACEMENT_3D('',#563,#452,#453);
#373=AXIS2_PLACEMENT_3D('',#564,#454,#455);
#374=AXIS2_PLACEMENT_3D('',#565,#456,#457);
#375=AXIS2_PLACEMENT_3D('',#567,#459,#460);
#376=AXIS2_PLACEMENT_3D('',#569,#461,#462);
#377=AXIS2_PLACEMENT_3D('',#570,#463,#464);
#378=AXIS2_PLACEMENT_3D('',#571,#465,#466);
#379=AXIS2_PLACEMENT_3D('',#573,#467,#468);
#380=AXIS2_PLACEMENT_3D('',#575,#469,#470);
#381=AXIS2_PLACEMENT_3D('',#576,#471,#472);
#382=AXIS2_PLACEMENT_3D('',#577,#473,#474);
#383=AXIS2_PLACEMENT_3D('',#578,#475,#476);
#384=AXIS2_PLACEMENT_3D('',#580,#478,#479);
#385=AXIS2_PLACEMENT_3D('',#582,#481,#482);
#386=AXIS2_PLACEMENT_3D('',#583,#483,#484);
#387=AXIS2_PLACEMENT_3D('',#584,#485,#486);
#388=AXIS2_PLACEMENT_3D('',#585,#487,#488);
#389=AXIS2_PLACEMENT_3D('',#586,#489,#490);
#390=AXIS2_PLACEMENT_3D('',#587,#491,#492);
#391=DIRECTION('',(0.,0.,1.));
#392=DIRECTION('',(1.,0.,0.));
#393=DIRECTION('',(0.,0.,1.));
#394=DIRECTION('',(1.,0.,0.));
#395=DIRECTION('',(0.,-1.,0.));
#396=DIRECTION('',(-1.,0.,0.));
#397=DIRECTION('',(0.,-1.,0.));
#398=DIRECTION('',(-1.,0.,0.));
#399=DIRECTION('',(0.,0.,1.));
#400=DIRECTION('',(1.,0.,0.));
#401=DIRECTION('',(0.,0.,1.));
#402=DIRECTION('',(1.,0.,0.));
#403=DIRECTION('',(0.,0.,-1.));
#404=DIRECTION('',(-1.,0.,0.));
#405=DIRECTION('',(0.,-1.,0.));
#406=DIRECTION('',(-1.,0.,0.));
#407=DIRECTION('',(0.,-1.,0.));
#408=DIRECTION('',(1.,0.,0.));
#409=DIRECTION('',(0.,0.,-1.));
#410=DIRECTION('',(1.,0.,0.));
#411=DIRECTION('',(0.,0.,1.));
#412=DIRECTION('',(1.,0.,0.));
#413=DIRECTION('',(0.,-1.,0.));
#414=DIRECTION('',(1.,0.,0.));
#415=DIRECTION('',(0.,-1.,0.));
#416=DIRECTION('',(0.,0.,-1.));
#417=DIRECTION('',(-9.37688365392869E-17,0.,-1.));
#418=DIRECTION('',(1.,0.,0.));
#419=DIRECTION('',(-9.37688365392869E-17,0.,-1.));
#420=DIRECTION('',(0.,-1.,0.));
#421=DIRECTION('',(0.,0.,-1.));
#422=DIRECTION('',(-1.,0.,9.37688365392869E-17));
#423=DIRECTION('',(9.37688365392869E-17,0.,1.));
#424=DIRECTION('',(-1.,0.,9.37688365392869E-17));
#425=DIRECTION('',(9.37688365392869E-17,0.,1.));
#426=DIRECTION('',(-9.37688365392869E-17,0.,-1.));
#427=DIRECTION('',(0.,-1.,0.));
#428=DIRECTION('',(-9.37688365392869E-17,0.,-1.));
#429=DIRECTION('',(-1.,0.,9.37688365392869E-17));
#430=DIRECTION('',(9.37688365392869E-17,0.,1.));
#431=DIRECTION('',(-1.,0.,9.37688365392869E-17));
#432=DIRECTION('',(9.37688365392869E-17,0.,1.));
#433=DIRECTION('',(0.,-1.,0.));
#434=DIRECTION('',(-9.37688365392869E-17,0.,-1.));
#435=DIRECTION('',(-1.,0.,9.37688365392869E-17));
#436=DIRECTION('',(9.37688365392869E-17,0.,1.));
#437=DIRECTION('',(-1.,0.,9.37688365392869E-17));
#438=DIRECTION('',(9.37688365392869E-17,0.,1.));
#439=DIRECTION('',(-9.37688365392869E-17,0.,-1.));
#440=DIRECTION('',(-1.,0.,9.37688365392869E-17));
#441=DIRECTION('',(9.37688365392869E-17,0.,1.));
#442=DIRECTION('',(-1.,0.,9.37688365392869E-17));
#443=DIRECTION('',(9.37688365392869E-17,0.,1.));
#444=DIRECTION('',(-9.37688365392869E-17,0.,-1.));
#445=DIRECTION('',(0.,-1.,0.));
#446=DIRECTION('',(-1.,0.,9.37688365392869E-17));
#447=DIRECTION('',(9.37688365392869E-17,0.,1.));
#448=DIRECTION('',(-1.,0.,9.37688365392869E-17));
#449=DIRECTION('',(9.37688365392869E-17,0.,1.));
#450=DIRECTION('',(-9.37688365392869E-17,0.,-1.));
#451=DIRECTION('',(0.,-1.,0.));
#452=DIRECTION('',(0.,-1.,0.));
#453=DIRECTION('',(0.,0.,-1.));
#454=DIRECTION('',(0.,-1.,0.));
#455=DIRECTION('',(0.,0.,-1.));
#456=DIRECTION('',(0.,-1.,0.));
#457=DIRECTION('',(1.,0.,0.));
#458=DIRECTION('',(-1.,0.,0.));
#459=DIRECTION('',(0.,-1.,0.));
#460=DIRECTION('',(0.,0.,-1.));
#461=DIRECTION('',(0.,-1.,0.));
#462=DIRECTION('',(0.,0.,-1.));
#463=DIRECTION('',(0.,-1.,0.));
#464=DIRECTION('',(0.,0.,-1.));
#465=DIRECTION('',(0.,-1.,0.));
#466=DIRECTION('',(0.,0.,-1.));
#467=DIRECTION('',(0.,-1.,0.));
#468=DIRECTION('',(0.,0.,-1.));
#469=DIRECTION('',(0.,-1.,0.));
#470=DIRECTION('',(0.,0.,-1.));
#471=DIRECTION('',(0.,-1.,0.));
#472=DIRECTION('',(0.,0.,-1.));
#473=DIRECTION('',(0.,-1.,0.));
#474=DIRECTION('',(0.,0.,-1.));
#475=DIRECTION('',(0.,-1.,0.));
#476=DIRECTION('',(1.,0.,0.));
#477=DIRECTION('',(-1.,0.,0.));
#478=DIRECTION('',(0.,-1.,0.));
#479=DIRECTION('',(1.,0.,0.));
#480=DIRECTION('',(-1.,0.,0.));
#481=DIRECTION('',(-1.,0.,0.));
#482=DIRECTION('',(0.,0.,1.));
#483=DIRECTION('',(1.,0.,0.));
#484=DIRECTION('',(0.,0.,-1.));
#485=DIRECTION('',(-1.,0.,0.));
#486=DIRECTION('',(0.,0.,1.));
#487=DIRECTION('',(-1.,0.,0.));
#488=DIRECTION('',(0.,0.,1.));
#489=DIRECTION('',(0.,0.,1.));
#490=DIRECTION('',(1.,0.,0.));
#491=DIRECTION('',(0.,0.,1.));
#492=DIRECTION('',(1.,0.,0.));
#493=CARTESIAN_POINT('',(0.,0.,0.));
#494=CARTESIAN_POINT('',(1.7347234759768E-18,0.04833648,-0.00925));
#495=CARTESIAN_POINT('',(-0.011,0.04833648,-0.00925));
#496=CARTESIAN_POINT('',(-0.011,0.04325648,-0.00925));
#497=CARTESIAN_POINT('',(-0.011,0.03048,-0.00925));
#498=CARTESIAN_POINT('',(1.7347234759768E-18,0.04325648,-0.00925));
#499=CARTESIAN_POINT('',(0.011,0.04325648,-0.00925));
#500=CARTESIAN_POINT('',(0.011,0.04833648,-0.00925));
#501=CARTESIAN_POINT('',(0.011,0.03048,-0.00925));
#502=CARTESIAN_POINT('',(-0.011,0.03048,-0.00925));
#503=CARTESIAN_POINT('',(-0.0055,0.03686824,-0.00925));
#504=CARTESIAN_POINT('',(-0.00325,0.03686824,-0.00925));
#505=CARTESIAN_POINT('',(0.0055,0.03686824,-0.00925));
#506=CARTESIAN_POINT('',(0.00775,0.03686824,-0.00925));
#507=CARTESIAN_POINT('',(-3.46944695195361E-18,0.04433848,-0.00525));
#508=CARTESIAN_POINT('',(0.011,0.04433848,-0.00525));
#509=CARTESIAN_POINT('',(0.011,0.04083648,-0.00525));
#510=CARTESIAN_POINT('',(0.011,0.0329,-0.00525));
#511=CARTESIAN_POINT('',(-3.46944695195361E-18,0.04083648,-0.00525));
#512=CARTESIAN_POINT('',(-0.011,0.04083648,-0.00525));
#513=CARTESIAN_POINT('',(-0.011,0.04433848,-0.00525));
#514=CARTESIAN_POINT('',(-0.011,0.0329,-0.00525));
#515=CARTESIAN_POINT('',(0.011,0.0329,-0.00525));
#516=CARTESIAN_POINT('',(-0.0055,0.03686824,-0.00525));
#517=CARTESIAN_POINT('',(-0.00325,0.03686824,-0.00525));
#518=CARTESIAN_POINT('',(0.0055,0.03686824,-0.00525));
#519=CARTESIAN_POINT('',(0.00775,0.03686824,-0.00525));
#520=CARTESIAN_POINT('',(1.7347234759768E-18,0.0294,0.0055));
#521=CARTESIAN_POINT('',(-1.7347234759768E-18,0.0294,0.00925));
#522=CARTESIAN_POINT('',(-1.7347234759768E-18,0.0294,0.00215));
#523=CARTESIAN_POINT('',(0.011,0.0294,5.20417042793042E-18));
#524=CARTESIAN_POINT('',(0.011,0.0294,0.00925));
#525=CARTESIAN_POINT('',(0.011,0.0294,-0.00175));
#526=CARTESIAN_POINT('',(-0.011,0.0294,-0.00175));
#527=CARTESIAN_POINT('',(-0.011,0.0294,-0.00175));
#528=CARTESIAN_POINT('',(-0.011,0.0294,1.7347234759768E-18));
#529=CARTESIAN_POINT('',(-0.011,0.0294,0.00925));
#530=CARTESIAN_POINT('',(-1.7347234759768E-18,0.0294,0.00925));
#531=CARTESIAN_POINT('',(0.011,0.04833648,5.20417042793042E-18));
#532=CARTESIAN_POINT('',(0.011,0.04325648,-0.00417));
#533=CARTESIAN_POINT('',(0.011,0.04833648,-0.00417));
#534=CARTESIAN_POINT('',(0.011,0.04833648,5.20417042793042E-18));
#535=CARTESIAN_POINT('',(0.011,0.04833648,0.00925));
#536=CARTESIAN_POINT('',(0.011,0.04833648,0.00925));
#537=CARTESIAN_POINT('',(0.011,0.04433648,0.00925));
#538=CARTESIAN_POINT('',(0.011,0.04433648,5.20417042793042E-18));
#539=CARTESIAN_POINT('',(0.011,0.04433648,-0.00175));
#540=CARTESIAN_POINT('',(0.011,0.04083648,-0.00175));
#541=CARTESIAN_POINT('',(0.011,0.0329,-0.00175));
#542=CARTESIAN_POINT('',(0.011,0.04833648,0.00925));
#543=CARTESIAN_POINT('',(0.011,0.0254,0.00925));
#544=CARTESIAN_POINT('',(0.011,0.0254,5.20417042793042E-18));
#545=CARTESIAN_POINT('',(0.011,0.0254,-0.00417));
#546=CARTESIAN_POINT('',(0.011,0.03048,-0.00417));
#547=CARTESIAN_POINT('',(-0.011,0.04833648,1.7347234759768E-18));
#548=CARTESIAN_POINT('',(-0.011,0.04833648,1.7347234759768E-18));
#549=CARTESIAN_POINT('',(-0.011,0.04833648,0.00925));
#550=CARTESIAN_POINT('',(-0.011,0.04833648,-0.00417));
#551=CARTESIAN_POINT('',(-0.011,0.04325648,-0.00417));
#552=CARTESIAN_POINT('',(-0.011,0.03048,-0.00417));
#553=CARTESIAN_POINT('',(-0.011,0.0254,-0.00417));
#554=CARTESIAN_POINT('',(-0.011,0.0254,1.7347234759768E-18));
#555=CARTESIAN_POINT('',(-0.011,0.0254,0.00925));
#556=CARTESIAN_POINT('',(-0.011,0.04833648,0.00925));
#557=CARTESIAN_POINT('',(-0.011,0.0329,-0.00175));
#558=CARTESIAN_POINT('',(-0.011,0.04083648,-0.00175));
#559=CARTESIAN_POINT('',(-0.011,0.04433648,-0.00175));
#560=CARTESIAN_POINT('',(-0.011,0.04433648,1.7347234759768E-18));
#561=CARTESIAN_POINT('',(-0.011,0.04433648,0.00925));
#562=CARTESIAN_POINT('',(-0.011,0.04833648,0.00925));
#563=CARTESIAN_POINT('',(-1.7347234759768E-18,0.04833648,0.00925));
#564=CARTESIAN_POINT('',(-1.7347234759768E-18,0.0254,0.00925));
#565=CARTESIAN_POINT('',(1.7347234759768E-18,0.0254,0.0055));
#566=CARTESIAN_POINT('',(0.011,0.0254,-0.00417));
#567=CARTESIAN_POINT('',(-1.7347234759768E-18,0.0254,0.00925));
#568=CARTESIAN_POINT('',(-1.7347234759768E-18,0.0254,0.00215));
#569=CARTESIAN_POINT('',(-1.7347234759768E-18,0.04833648,0.00925));
#570=CARTESIAN_POINT('',(-1.7347234759768E-18,0.04833648,0.00925));
#571=CARTESIAN_POINT('',(-1.7347234759768E-18,0.04833648,0.00925));
#572=CARTESIAN_POINT('',(-1.7347234759768E-18,0.04833648,0.00215));
#573=CARTESIAN_POINT('',(-1.7347234759768E-18,0.04433648,0.00925));
#574=CARTESIAN_POINT('',(-1.7347234759768E-18,0.04433648,0.00215));
#575=CARTESIAN_POINT('',(-1.7347234759768E-18,0.04833648,0.00925));
#576=CARTESIAN_POINT('',(-1.7347234759768E-18,0.04433648,0.00925));
#577=CARTESIAN_POINT('',(-1.7347234759768E-18,0.04833648,0.00925));
#578=CARTESIAN_POINT('',(1.7347234759768E-18,0.04833648,0.0055));
#579=CARTESIAN_POINT('',(1.7347234759768E-18,0.04833648,-0.00417));
#580=CARTESIAN_POINT('',(1.7347234759768E-18,0.04433648,0.0055));
#581=CARTESIAN_POINT('',(1.7347234759768E-18,0.04433648,-0.00175));
#582=CARTESIAN_POINT('',(1.7347234759768E-18,0.04325648,-0.00417));
#583=CARTESIAN_POINT('',(1.7347234759768E-18,0.03048,-0.00417));
#584=CARTESIAN_POINT('',(-3.46944695195361E-18,0.04083648,-0.00175));
#585=CARTESIAN_POINT('',(-3.46944695195361E-18,0.0329,-0.00175));
#586=CARTESIAN_POINT('',(-0.0055,0.03686824,-0.009252));
#587=CARTESIAN_POINT('',(0.0055,0.03686824,-0.009252));
#588=MECHANICAL_DESIGN_GEOMETRIC_PRESENTATION_REPRESENTATION('',(#341),
#589);
#589=(
GEOMETRIC_REPRESENTATION_CONTEXT(3)
GLOBAL_UNCERTAINTY_ASSIGNED_CONTEXT((#590))
GLOBAL_UNIT_ASSIGNED_CONTEXT((#593,#592,#591))
REPRESENTATION_CONTEXT('Part 2','TOP_LEVEL_ASSEMBLY_PART')
);
#590=UNCERTAINTY_MEASURE_WITH_UNIT(LENGTH_MEASURE(1.E-8),#593,
'DISTANCE_ACCURACY_VALUE','Maximum Tolerance applied to model');
#591=(
NAMED_UNIT(*)
SI_UNIT($,.STERADIAN.)
SOLID_ANGLE_UNIT()
);
#592=(
NAMED_UNIT(*)
PLANE_ANGLE_UNIT()
SI_UNIT($,.RADIAN.)
);
#593=(
LENGTH_UNIT()
NAMED_UNIT(*)
SI_UNIT($,.METRE.)
);
#594=PRODUCT_DEFINITION_SHAPE('','',#595);
#595=PRODUCT_DEFINITION('','',#597,#596);
#596=PRODUCT_DEFINITION_CONTEXT('',#603,'design');
#597=PRODUCT_DEFINITION_FORMATION_WITH_SPECIFIED_SOURCE('','',#599,
 .NOT_KNOWN.);
#598=PRODUCT_RELATED_PRODUCT_CATEGORY('','',(#599));
#599=PRODUCT('Part 2','Part 2','Part 2',(#601));
#600=PRODUCT_CATEGORY('','');
#601=PRODUCT_CONTEXT('',#603,'mechanical');
#602=APPLICATION_PROTOCOL_DEFINITION('international standard',
'ap242_managed_model_based_3d_engineering',2020,#603);
#603=APPLICATION_CONTEXT('managed model based 3d engineering');
ENDSEC;
END-ISO-10303-21;
