ISO-10303-21;
HEADER;
/* Generated by software containing ST-Developer
 * from STEP Tools, Inc. (www.steptools.com) 
 */
/* OPTION: using custom renumber hook */

FILE_DESCRIPTION(
/* description */ ('STEP AP242 Edition 2',
'CAx-IF Rec.Pracs.---Representation and Presentation of Product Manufa
cturing Information (PMI)---4.0---2014-10-13',
'CAx-IF Rec.Pracs.---3D Tessellated Geometry---0.4---2014-09-14','2;1',
'CAx-IF Rec.Pracs.---User Defined Attributes---1.5---2016-08-15'),
/* implementation_level */ '2;1');

FILE_NAME(
/* name */ 'Part Studio 2 - Part 2',
/* time_stamp */ '2026-08-30T22:50:18Z',
/* author */ (''),
/* organization */ (''),
/* preprocessor_version */ 'ST-DEVELOPER v20',
/* originating_system */ 'ONSHAPE BY PTC INC, 1.220',
/* authorisation */ '  ');

FILE_SCHEMA (('AP242_MANAGED_MODEL_BASED_3D_ENGINEERING_MIM_LF { 1 0 10303 442 3 1 4 }'));
ENDSEC;

DATA;
#10=SHAPE_REPRESENTATION_RELATIONSHIP('','',#377,#11);
#11=ADVANCED_BREP_SHAPE_REPRESENTATION('',(#375),#677);
#12=B_SPLINE_SURFACE_WITH_KNOTS('',3,1,((#646,#647),(#648,#649),(#650,#651),
(#652,#653)),.SURF_OF_LINEAR_EXTRUSION.,.F.,.F.,.F.,(4,4),(2,2),(0.,1.),
(0.,1.),.PIECEWISE_BEZIER_KNOTS.);
#13=B_SPLINE_SURFACE_WITH_KNOTS('',3,1,((#658,#659),(#660,#661),(#662,#663),
(#664,#665)),.SURF_OF_LINEAR_EXTRUSION.,.F.,.F.,.F.,(4,4),(2,2),(0.,0.995148674462453),
(0.,1.),.PIECEWISE_BEZIER_KNOTS.);
#14=B_SPLINE_CURVE_WITH_KNOTS('',3,(#536,#537,#538,#539,#540,#541,#542),
 .UNSPECIFIED.,.F.,.F.,(4,1,1,1,4),(0.,0.000544913692370036,0.00108982738474007,
0.00163474107711011,0.00217965476948015),.UNSPECIFIED.);
#15=B_SPLINE_CURVE_WITH_KNOTS('',3,(#554,#555,#556,#557,#558,#559,#560),
 .UNSPECIFIED.,.F.,.F.,(4,1,1,1,4),(0.,0.000539941521771294,0.00107988304354259,
0.00161982456531388,0.00215976608708518),.UNSPECIFIED.);
#16=B_SPLINE_CURVE_WITH_KNOTS('',3,(#572,#573,#574,#575,#576,#577,#578),
 .UNSPECIFIED.,.F.,.F.,(4,1,1,1,4),(0.,0.000544913692370035,0.00108982738474007,
0.00163474107711011,0.00217965476948014),.UNSPECIFIED.);
#17=B_SPLINE_CURVE_WITH_KNOTS('',3,(#587,#588,#589,#590,#591,#592,#593),
 .UNSPECIFIED.,.F.,.F.,(4,1,1,1,4),(0.,0.000539941521771294,0.00107988304354259,
0.00161982456531388,0.00215976608708518),.UNSPECIFIED.);
#18=B_SPLINE_CURVE_WITH_KNOTS('',3,(#619,#620,#621,#622),.UNSPECIFIED.,
 .F.,.F.,(4,4),(0.,1.),.PIECEWISE_BEZIER_KNOTS.);
#19=B_SPLINE_CURVE_WITH_KNOTS('',3,(#626,#627,#628,#629),.UNSPECIFIED.,
 .F.,.F.,(4,4),(0.,0.995148674462453),.PIECEWISE_BEZIER_KNOTS.);
#20=B_SPLINE_CURVE_WITH_KNOTS('',3,(#633,#634,#635,#636),.UNSPECIFIED.,
 .F.,.F.,(4,4),(0.,0.995148674462453),.PIECEWISE_BEZIER_KNOTS.);
#21=B_SPLINE_CURVE_WITH_KNOTS('',3,(#640,#641,#642,#643),.UNSPECIFIED.,
 .F.,.F.,(4,4),(0.,1.),.PIECEWISE_BEZIER_KNOTS.);
#22=CYLINDRICAL_SURFACE('',#381,0.001);
#23=CYLINDRICAL_SURFACE('',#384,0.001);
#24=CYLINDRICAL_SURFACE('',#388,0.001);
#25=CYLINDRICAL_SURFACE('',#391,0.001);
#26=CYLINDRICAL_SURFACE('',#395,0.00245);
#27=CYLINDRICAL_SURFACE('',#399,0.00375);
#28=CYLINDRICAL_SURFACE('',#402,0.00175);
#29=CYLINDRICAL_SURFACE('',#411,0.00374999999993992);
#30=CYLINDRICAL_SURFACE('',#412,0.00175);
#31=CYLINDRICAL_SURFACE('',#416,0.00165);
#32=CYLINDRICAL_SURFACE('',#419,0.00155);
#33=CIRCLE('',#380,0.00375);
#34=CIRCLE('',#382,0.001);
#35=CIRCLE('',#385,0.001);
#36=CIRCLE('',#387,0.00375);
#37=CIRCLE('',#389,0.001);
#38=CIRCLE('',#392,0.001);
#39=CIRCLE('',#394,0.00245);
#40=CIRCLE('',#396,0.00245);
#41=CIRCLE('',#398,0.00165);
#42=CIRCLE('',#400,0.00375);
#43=CIRCLE('',#401,0.00375);
#44=CIRCLE('',#403,0.00175);
#45=CIRCLE('',#404,0.00175);
#46=CIRCLE('',#406,0.00374999999993992);
#47=CIRCLE('',#407,0.00175);
#48=CIRCLE('',#409,0.00374999999993992);
#49=CIRCLE('',#410,0.00175);
#50=CIRCLE('',#414,0.00165);
#51=CIRCLE('',#415,0.00155);
#52=CIRCLE('',#418,0.00155);
#53=ORIENTED_EDGE('',*,*,#145,.F.);
#54=ORIENTED_EDGE('',*,*,#146,.T.);
#55=ORIENTED_EDGE('',*,*,#147,.T.);
#56=ORIENTED_EDGE('',*,*,#148,.T.);
#57=ORIENTED_EDGE('',*,*,#149,.F.);
#58=ORIENTED_EDGE('',*,*,#150,.T.);
#59=ORIENTED_EDGE('',*,*,#145,.T.);
#60=ORIENTED_EDGE('',*,*,#151,.T.);
#61=ORIENTED_EDGE('',*,*,#152,.F.);
#62=ORIENTED_EDGE('',*,*,#153,.T.);
#63=ORIENTED_EDGE('',*,*,#149,.T.);
#64=ORIENTED_EDGE('',*,*,#154,.T.);
#65=ORIENTED_EDGE('',*,*,#155,.F.);
#66=ORIENTED_EDGE('',*,*,#156,.T.);
#67=ORIENTED_EDGE('',*,*,#152,.T.);
#68=ORIENTED_EDGE('',*,*,#157,.T.);
#69=ORIENTED_EDGE('',*,*,#158,.F.);
#70=ORIENTED_EDGE('',*,*,#155,.T.);
#71=ORIENTED_EDGE('',*,*,#159,.F.);
#72=ORIENTED_EDGE('',*,*,#160,.F.);
#73=ORIENTED_EDGE('',*,*,#161,.F.);
#74=ORIENTED_EDGE('',*,*,#162,.T.);
#75=ORIENTED_EDGE('',*,*,#160,.T.);
#76=ORIENTED_EDGE('',*,*,#163,.T.);
#77=ORIENTED_EDGE('',*,*,#164,.F.);
#78=ORIENTED_EDGE('',*,*,#161,.T.);
#79=ORIENTED_EDGE('',*,*,#165,.F.);
#80=ORIENTED_EDGE('',*,*,#166,.F.);
#81=ORIENTED_EDGE('',*,*,#147,.F.);
#82=ORIENTED_EDGE('',*,*,#167,.T.);
#83=ORIENTED_EDGE('',*,*,#166,.T.);
#84=ORIENTED_EDGE('',*,*,#168,.T.);
#85=ORIENTED_EDGE('',*,*,#169,.F.);
#86=ORIENTED_EDGE('',*,*,#148,.F.);
#87=ORIENTED_EDGE('',*,*,#168,.F.);
#88=ORIENTED_EDGE('',*,*,#165,.T.);
#89=ORIENTED_EDGE('',*,*,#163,.F.);
#90=ORIENTED_EDGE('',*,*,#159,.T.);
#91=ORIENTED_EDGE('',*,*,#157,.F.);
#92=ORIENTED_EDGE('',*,*,#154,.F.);
#93=ORIENTED_EDGE('',*,*,#151,.F.);
#94=ORIENTED_EDGE('',*,*,#170,.F.);
#95=ORIENTED_EDGE('',*,*,#169,.T.);
#96=ORIENTED_EDGE('',*,*,#171,.F.);
#97=ORIENTED_EDGE('',*,*,#170,.T.);
#98=ORIENTED_EDGE('',*,*,#172,.F.);
#99=ORIENTED_EDGE('',*,*,#173,.F.);
#100=ORIENTED_EDGE('',*,*,#174,.T.);
#101=ORIENTED_EDGE('',*,*,#175,.F.);
#102=ORIENTED_EDGE('',*,*,#164,.T.);
#103=ORIENTED_EDGE('',*,*,#167,.F.);
#104=ORIENTED_EDGE('',*,*,#146,.F.);
#105=ORIENTED_EDGE('',*,*,#150,.F.);
#106=ORIENTED_EDGE('',*,*,#153,.F.);
#107=ORIENTED_EDGE('',*,*,#156,.F.);
#108=ORIENTED_EDGE('',*,*,#158,.T.);
#109=ORIENTED_EDGE('',*,*,#162,.F.);
#110=ORIENTED_EDGE('',*,*,#176,.T.);
#111=ORIENTED_EDGE('',*,*,#177,.T.);
#112=ORIENTED_EDGE('',*,*,#177,.F.);
#113=ORIENTED_EDGE('',*,*,#175,.T.);
#114=ORIENTED_EDGE('',*,*,#178,.F.);
#115=ORIENTED_EDGE('',*,*,#179,.T.);
#116=ORIENTED_EDGE('',*,*,#180,.F.);
#117=ORIENTED_EDGE('',*,*,#181,.F.);
#118=ORIENTED_EDGE('',*,*,#173,.T.);
#119=ORIENTED_EDGE('',*,*,#182,.F.);
#120=ORIENTED_EDGE('',*,*,#183,.T.);
#121=ORIENTED_EDGE('',*,*,#184,.F.);
#122=ORIENTED_EDGE('',*,*,#176,.F.);
#123=ORIENTED_EDGE('',*,*,#185,.F.);
#124=ORIENTED_EDGE('',*,*,#174,.F.);
#125=ORIENTED_EDGE('',*,*,#184,.T.);
#126=ORIENTED_EDGE('',*,*,#186,.T.);
#127=ORIENTED_EDGE('',*,*,#178,.T.);
#128=ORIENTED_EDGE('',*,*,#183,.F.);
#129=ORIENTED_EDGE('',*,*,#187,.T.);
#130=ORIENTED_EDGE('',*,*,#179,.F.);
#131=ORIENTED_EDGE('',*,*,#186,.F.);
#132=ORIENTED_EDGE('',*,*,#185,.T.);
#133=ORIENTED_EDGE('',*,*,#181,.T.);
#134=ORIENTED_EDGE('',*,*,#187,.F.);
#135=ORIENTED_EDGE('',*,*,#182,.T.);
#136=ORIENTED_EDGE('',*,*,#172,.T.);
#137=ORIENTED_EDGE('',*,*,#180,.T.);
#138=ORIENTED_EDGE('',*,*,#188,.T.);
#139=ORIENTED_EDGE('',*,*,#189,.T.);
#140=ORIENTED_EDGE('',*,*,#188,.F.);
#141=ORIENTED_EDGE('',*,*,#171,.T.);
#142=ORIENTED_EDGE('',*,*,#190,.T.);
#143=ORIENTED_EDGE('',*,*,#190,.F.);
#144=ORIENTED_EDGE('',*,*,#189,.F.);
#145=EDGE_CURVE('',#191,#192,#225,.T.);
#146=EDGE_CURVE('',#191,#193,#33,.T.);
#147=EDGE_CURVE('',#193,#194,#226,.T.);
#148=EDGE_CURVE('',#194,#192,#227,.T.);
#149=EDGE_CURVE('',#195,#196,#228,.T.);
#150=EDGE_CURVE('',#195,#191,#14,.T.);
#151=EDGE_CURVE('',#192,#196,#34,.T.);
#152=EDGE_CURVE('',#197,#198,#229,.T.);
#153=EDGE_CURVE('',#197,#195,#230,.T.);
#154=EDGE_CURVE('',#196,#198,#231,.T.);
#155=EDGE_CURVE('',#199,#200,#232,.T.);
#156=EDGE_CURVE('',#199,#197,#15,.T.);
#157=EDGE_CURVE('',#198,#200,#35,.T.);
#158=EDGE_CURVE('',#199,#201,#36,.T.);
#159=EDGE_CURVE('',#202,#200,#233,.T.);
#160=EDGE_CURVE('',#201,#202,#234,.T.);
#161=EDGE_CURVE('',#203,#204,#235,.T.);
#162=EDGE_CURVE('',#203,#201,#16,.T.);
#163=EDGE_CURVE('',#202,#204,#37,.T.);
#164=EDGE_CURVE('',#203,#205,#236,.T.);
#165=EDGE_CURVE('',#206,#204,#237,.T.);
#166=EDGE_CURVE('',#205,#206,#238,.T.);
#167=EDGE_CURVE('',#193,#205,#17,.T.);
#168=EDGE_CURVE('',#206,#194,#38,.T.);
#169=EDGE_CURVE('',#207,#207,#39,.F.);
#170=EDGE_CURVE('',#208,#208,#40,.T.);
#171=EDGE_CURVE('',#209,#209,#41,.T.);
#172=EDGE_CURVE('',#210,#211,#239,.T.);
#173=EDGE_CURVE('',#212,#210,#42,.F.);
#174=EDGE_CURVE('',#212,#213,#240,.T.);
#175=EDGE_CURVE('',#211,#213,#43,.T.);
#176=EDGE_CURVE('',#214,#214,#44,.F.);
#177=EDGE_CURVE('',#215,#215,#45,.T.);
#178=EDGE_CURVE('',#216,#213,#18,.T.);
#179=EDGE_CURVE('',#216,#217,#46,.T.);
#180=EDGE_CURVE('',#211,#217,#19,.T.);
#181=EDGE_CURVE('',#218,#218,#47,.T.);
#182=EDGE_CURVE('',#219,#210,#20,.F.);
#183=EDGE_CURVE('',#219,#220,#48,.F.);
#184=EDGE_CURVE('',#212,#220,#21,.F.);
#185=EDGE_CURVE('',#221,#221,#49,.F.);
#186=EDGE_CURVE('',#220,#216,#241,.T.);
#187=EDGE_CURVE('',#219,#217,#242,.T.);
#188=EDGE_CURVE('',#222,#222,#50,.T.);
#189=EDGE_CURVE('',#223,#223,#51,.F.);
#190=EDGE_CURVE('',#224,#224,#52,.F.);
#191=VERTEX_POINT('',#525);
#192=VERTEX_POINT('',#526);
#193=VERTEX_POINT('',#528);
#194=VERTEX_POINT('',#530);
#195=VERTEX_POINT('',#534);
#196=VERTEX_POINT('',#535);
#197=VERTEX_POINT('',#546);
#198=VERTEX_POINT('',#547);
#199=VERTEX_POINT('',#552);
#200=VERTEX_POINT('',#553);
#201=VERTEX_POINT('',#564);
#202=VERTEX_POINT('',#566);
#203=VERTEX_POINT('',#570);
#204=VERTEX_POINT('',#571);
#205=VERTEX_POINT('',#582);
#206=VERTEX_POINT('',#584);
#207=VERTEX_POINT('',#597);
#208=VERTEX_POINT('',#600);
#209=VERTEX_POINT('',#603);
#210=VERTEX_POINT('',#606);
#211=VERTEX_POINT('',#607);
#212=VERTEX_POINT('',#609);
#213=VERTEX_POINT('',#611);
#214=VERTEX_POINT('',#615);
#215=VERTEX_POINT('',#617);
#216=VERTEX_POINT('',#623);
#217=VERTEX_POINT('',#625);
#218=VERTEX_POINT('',#631);
#219=VERTEX_POINT('',#637);
#220=VERTEX_POINT('',#639);
#221=VERTEX_POINT('',#645);
#222=VERTEX_POINT('',#668);
#223=VERTEX_POINT('',#670);
#224=VERTEX_POINT('',#674);
#225=LINE('',#524,#243);
#226=LINE('',#529,#244);
#227=LINE('',#531,#245);
#228=LINE('',#533,#246);
#229=LINE('',#545,#247);
#230=LINE('',#548,#248);
#231=LINE('',#549,#249);
#232=LINE('',#551,#250);
#233=LINE('',#565,#251);
#234=LINE('',#567,#252);
#235=LINE('',#569,#253);
#236=LINE('',#581,#254);
#237=LINE('',#583,#255);
#238=LINE('',#585,#256);
#239=LINE('',#605,#257);
#240=LINE('',#610,#258);
#241=LINE('',#654,#259);
#242=LINE('',#656,#260);
#243=VECTOR('',#424,1.);
#244=VECTOR('',#427,1.);
#245=VECTOR('',#428,1.);
#246=VECTOR('',#431,1.);
#247=VECTOR('',#436,1.);
#248=VECTOR('',#437,1.);
#249=VECTOR('',#438,1.);
#250=VECTOR('',#441,1.);
#251=VECTOR('',#448,1.);
#252=VECTOR('',#449,1.);
#253=VECTOR('',#452,1.);
#254=VECTOR('',#457,1.);
#255=VECTOR('',#458,1.);
#256=VECTOR('',#459,1.);
#257=VECTOR('',#478,1.);
#258=VECTOR('',#481,1.);
#259=VECTOR('',#502,1.);
#260=VECTOR('',#505,1.);
#261=EDGE_LOOP('',(#53,#54,#55,#56));
#262=EDGE_LOOP('',(#57,#58,#59,#60));
#263=EDGE_LOOP('',(#61,#62,#63,#64));
#264=EDGE_LOOP('',(#65,#66,#67,#68));
#265=EDGE_LOOP('',(#69,#70,#71,#72));
#266=EDGE_LOOP('',(#73,#74,#75,#76));
#267=EDGE_LOOP('',(#77,#78,#79,#80));
#268=EDGE_LOOP('',(#81,#82,#83,#84));
#269=EDGE_LOOP('',(#85));
#270=EDGE_LOOP('',(#86,#87,#88,#89,#90,#91,#92,#93));
#271=EDGE_LOOP('',(#94));
#272=EDGE_LOOP('',(#95));
#273=EDGE_LOOP('',(#96));
#274=EDGE_LOOP('',(#97));
#275=EDGE_LOOP('',(#98,#99,#100,#101));
#276=EDGE_LOOP('',(#102,#103,#104,#105,#106,#107,#108,#109));
#277=EDGE_LOOP('',(#110));
#278=EDGE_LOOP('',(#111));
#279=EDGE_LOOP('',(#112));
#280=EDGE_LOOP('',(#113,#114,#115,#116));
#281=EDGE_LOOP('',(#117));
#282=EDGE_LOOP('',(#118,#119,#120,#121));
#283=EDGE_LOOP('',(#122));
#284=EDGE_LOOP('',(#123));
#285=EDGE_LOOP('',(#124,#125,#126,#127));
#286=EDGE_LOOP('',(#128,#129,#130,#131));
#287=EDGE_LOOP('',(#132));
#288=EDGE_LOOP('',(#133));
#289=EDGE_LOOP('',(#134,#135,#136,#137));
#290=EDGE_LOOP('',(#138));
#291=EDGE_LOOP('',(#139));
#292=EDGE_LOOP('',(#140));
#293=EDGE_LOOP('',(#141));
#294=EDGE_LOOP('',(#142));
#295=EDGE_LOOP('',(#143));
#296=EDGE_LOOP('',(#144));
#297=FACE_BOUND('',#261,.T.);
#298=FACE_BOUND('',#262,.T.);
#299=FACE_BOUND('',#263,.T.);
#300=FACE_BOUND('',#264,.T.);
#301=FACE_BOUND('',#265,.T.);
#302=FACE_BOUND('',#266,.T.);
#303=FACE_BOUND('',#267,.T.);
#304=FACE_BOUND('',#268,.T.);
#305=FACE_BOUND('',#269,.T.);
#306=FACE_BOUND('',#270,.T.);
#307=FACE_BOUND('',#271,.T.);
#308=FACE_BOUND('',#272,.T.);
#309=FACE_BOUND('',#273,.T.);
#310=FACE_BOUND('',#274,.T.);
#311=FACE_BOUND('',#275,.T.);
#312=FACE_BOUND('',#276,.T.);
#313=FACE_BOUND('',#277,.T.);
#314=FACE_BOUND('',#278,.T.);
#315=FACE_BOUND('',#279,.T.);
#316=FACE_BOUND('',#280,.T.);
#317=FACE_BOUND('',#281,.T.);
#318=FACE_BOUND('',#282,.T.);
#319=FACE_BOUND('',#283,.T.);
#320=FACE_BOUND('',#284,.T.);
#321=FACE_BOUND('',#285,.T.);
#322=FACE_BOUND('',#286,.T.);
#323=FACE_BOUND('',#287,.T.);
#324=FACE_BOUND('',#288,.T.);
#325=FACE_BOUND('',#289,.T.);
#326=FACE_BOUND('',#290,.T.);
#327=FACE_BOUND('',#291,.T.);
#328=FACE_BOUND('',#292,.T.);
#329=FACE_BOUND('',#293,.T.);
#330=FACE_BOUND('',#294,.T.);
#331=FACE_BOUND('',#295,.T.);
#332=FACE_BOUND('',#296,.T.);
#333=PLANE('',#379);
#334=PLANE('',#383);
#335=PLANE('',#386);
#336=PLANE('',#390);
#337=PLANE('',#393);
#338=PLANE('',#397);
#339=PLANE('',#405);
#340=PLANE('',#408);
#341=PLANE('',#413);
#342=PLANE('',#417);
#343=ADVANCED_FACE('',(#297),#333,.F.);
#344=ADVANCED_FACE('',(#298),#22,.T.);
#345=ADVANCED_FACE('',(#299),#334,.F.);
#346=ADVANCED_FACE('',(#300),#23,.T.);
#347=ADVANCED_FACE('',(#301),#335,.T.);
#348=ADVANCED_FACE('',(#302),#24,.T.);
#349=ADVANCED_FACE('',(#303),#336,.T.);
#350=ADVANCED_FACE('',(#304),#25,.T.);
#351=ADVANCED_FACE('',(#305,#306),#337,.F.);
#352=ADVANCED_FACE('',(#307,#308),#26,.T.);
#353=ADVANCED_FACE('',(#309,#310),#338,.T.);
#354=ADVANCED_FACE('',(#311,#312),#27,.T.);
#355=ADVANCED_FACE('',(#313,#314),#28,.F.);
#356=ADVANCED_FACE('',(#315,#316,#317),#339,.T.);
#357=ADVANCED_FACE('',(#318,#319,#320),#340,.F.);
#358=ADVANCED_FACE('',(#321),#12,.F.);
#359=ADVANCED_FACE('',(#322),#29,.T.);
#360=ADVANCED_FACE('',(#323,#324),#30,.F.);
#361=ADVANCED_FACE('',(#325),#13,.F.);
#362=ADVANCED_FACE('',(#326,#327),#341,.T.);
#363=ADVANCED_FACE('',(#328,#329),#31,.F.);
#364=ADVANCED_FACE('',(#330),#342,.F.);
#365=ADVANCED_FACE('',(#331,#332),#32,.F.);
#366=CLOSED_SHELL('',(#343,#344,#345,#346,#347,#348,#349,#350,#351,#352,
#353,#354,#355,#356,#357,#358,#359,#360,#361,#362,#363,#364,#365));
#367=STYLED_ITEM('',(#368),#375);
#368=PRESENTATION_STYLE_ASSIGNMENT((#369));
#369=SURFACE_STYLE_USAGE(.BOTH.,#370);
#370=SURFACE_SIDE_STYLE('',(#371));
#371=SURFACE_STYLE_FILL_AREA(#372);
#372=FILL_AREA_STYLE('',(#373));
#373=FILL_AREA_STYLE_COLOUR('',#374);
#374=COLOUR_RGB('',0.647058823529412,0.647058823529412,0.647058823529412);
#375=MANIFOLD_SOLID_BREP('Part 2',#366);
#376=SHAPE_DEFINITION_REPRESENTATION(#682,#377);
#377=SHAPE_REPRESENTATION('Part 2',(#378),#677);
#378=AXIS2_PLACEMENT_3D('',#522,#420,#421);
#379=AXIS2_PLACEMENT_3D('',#523,#422,#423);
#380=AXIS2_PLACEMENT_3D('',#527,#425,#426);
#381=AXIS2_PLACEMENT_3D('',#532,#429,#430);
#382=AXIS2_PLACEMENT_3D('',#543,#432,#433);
#383=AXIS2_PLACEMENT_3D('',#544,#434,#435);
#384=AXIS2_PLACEMENT_3D('',#550,#439,#440);
#385=AXIS2_PLACEMENT_3D('',#561,#442,#443);
#386=AXIS2_PLACEMENT_3D('',#562,#444,#445);
#387=AXIS2_PLACEMENT_3D('',#563,#446,#447);
#388=AXIS2_PLACEMENT_3D('',#568,#450,#451);
#389=AXIS2_PLACEMENT_3D('',#579,#453,#454);
#390=AXIS2_PLACEMENT_3D('',#580,#455,#456);
#391=AXIS2_PLACEMENT_3D('',#586,#460,#461);
#392=AXIS2_PLACEMENT_3D('',#594,#462,#463);
#393=AXIS2_PLACEMENT_3D('',#595,#464,#465);
#394=AXIS2_PLACEMENT_3D('',#596,#466,#467);
#395=AXIS2_PLACEMENT_3D('',#598,#468,#469);
#396=AXIS2_PLACEMENT_3D('',#599,#470,#471);
#397=AXIS2_PLACEMENT_3D('',#601,#472,#473);
#398=AXIS2_PLACEMENT_3D('',#602,#474,#475);
#399=AXIS2_PLACEMENT_3D('',#604,#476,#477);
#400=AXIS2_PLACEMENT_3D('',#608,#479,#480);
#401=AXIS2_PLACEMENT_3D('',#612,#482,#483);
#402=AXIS2_PLACEMENT_3D('',#613,#484,#485);
#403=AXIS2_PLACEMENT_3D('',#614,#486,#487);
#404=AXIS2_PLACEMENT_3D('',#616,#488,#489);
#405=AXIS2_PLACEMENT_3D('',#618,#490,#491);
#406=AXIS2_PLACEMENT_3D('',#624,#492,#493);
#407=AXIS2_PLACEMENT_3D('',#630,#494,#495);
#408=AXIS2_PLACEMENT_3D('',#632,#496,#497);
#409=AXIS2_PLACEMENT_3D('',#638,#498,#499);
#410=AXIS2_PLACEMENT_3D('',#644,#500,#501);
#411=AXIS2_PLACEMENT_3D('',#655,#503,#504);
#412=AXIS2_PLACEMENT_3D('',#657,#506,#507);
#413=AXIS2_PLACEMENT_3D('',#666,#508,#509);
#414=AXIS2_PLACEMENT_3D('',#667,#510,#511);
#415=AXIS2_PLACEMENT_3D('',#669,#512,#513);
#416=AXIS2_PLACEMENT_3D('',#671,#514,#515);
#417=AXIS2_PLACEMENT_3D('',#672,#516,#517);
#418=AXIS2_PLACEMENT_3D('',#673,#518,#519);
#419=AXIS2_PLACEMENT_3D('',#675,#520,#521);
#420=DIRECTION('',(0.,0.,1.));
#421=DIRECTION('',(1.,0.,0.));
#422=DIRECTION('',(-3.46944695195362E-16,1.,0.));
#423=DIRECTION('',(-1.,-3.46944695195362E-16,0.));
#424=DIRECTION('',(0.,0.,1.));
#425=DIRECTION('',(-3.46944695195362E-16,1.,0.));
#426=DIRECTION('',(-1.,-3.46944695195362E-16,0.));
#427=DIRECTION('',(0.,0.,1.));
#428=DIRECTION('',(-1.,-3.46944695195362E-16,0.));
#429=DIRECTION('',(0.,0.,1.));
#430=DIRECTION('',(1.,0.,0.));
#431=DIRECTION('',(0.,0.,1.));
#432=DIRECTION('',(0.,0.,-1.));
#433=DIRECTION('',(-1.,0.,0.));
#434=DIRECTION('',(1.,1.92747052886312E-16,0.));
#435=DIRECTION('',(-1.92747052886312E-16,1.,0.));
#436=DIRECTION('',(0.,0.,1.));
#437=DIRECTION('',(3.46944695195362E-16,-1.,0.));
#438=DIRECTION('',(-1.92747052886312E-16,1.,0.));
#439=DIRECTION('',(0.,0.,1.));
#440=DIRECTION('',(1.,0.,0.));
#441=DIRECTION('',(0.,0.,1.));
#442=DIRECTION('',(0.,0.,-1.));
#443=DIRECTION('',(-1.,0.,0.));
#444=DIRECTION('',(-1.7347234759768E-16,1.,0.));
#445=DIRECTION('',(-1.,-1.7347234759768E-16,0.));
#446=DIRECTION('',(-1.7347234759768E-16,1.,0.));
#447=DIRECTION('',(-1.,-1.7347234759768E-16,0.));
#448=DIRECTION('',(-1.,-1.7347234759768E-16,0.));
#449=DIRECTION('',(0.,0.,1.));
#450=DIRECTION('',(0.,0.,1.));
#451=DIRECTION('',(1.,0.,0.));
#452=DIRECTION('',(0.,0.,1.));
#453=DIRECTION('',(0.,0.,-1.));
#454=DIRECTION('',(-1.,0.,0.));
#455=DIRECTION('',(1.,1.92747052886312E-16,0.));
#456=DIRECTION('',(-1.92747052886312E-16,1.,0.));
#457=DIRECTION('',(3.46944695195362E-16,-1.,0.));
#458=DIRECTION('',(-1.92747052886312E-16,1.,0.));
#459=DIRECTION('',(0.,0.,1.));
#460=DIRECTION('',(0.,0.,1.));
#461=DIRECTION('',(1.,0.,0.));
#462=DIRECTION('',(0.,0.,-1.));
#463=DIRECTION('',(-1.,0.,0.));
#464=DIRECTION('',(0.,0.,-1.));
#465=DIRECTION('',(1.,0.,0.));
#466=DIRECTION('',(0.,0.,-1.));
#467=DIRECTION('',(-1.,0.,0.));
#468=DIRECTION('',(0.,0.,1.));
#469=DIRECTION('',(1.,0.,0.));
#470=DIRECTION('',(0.,0.,1.));
#471=DIRECTION('',(1.,0.,0.));
#472=DIRECTION('',(0.,0.,1.));
#473=DIRECTION('',(1.,0.,0.));
#474=DIRECTION('',(0.,0.,1.));
#475=DIRECTION('',(1.,0.,0.));
#476=DIRECTION('',(3.46944695195362E-16,-1.,0.));
#477=DIRECTION('',(1.,3.46944695195362E-16,0.));
#478=DIRECTION('',(3.46944695195362E-16,-1.,0.));
#479=DIRECTION('',(3.53707236443423E-16,-0.999999999999969,-2.20049260810362E-16));
#480=DIRECTION('',(1.,3.53707236443434E-16,0.));
#481=DIRECTION('',(3.46944695195362E-16,-1.,0.));
#482=DIRECTION('',(3.46944695195362E-16,-1.,0.));
#483=DIRECTION('',(1.,3.46944695195362E-16,0.));
#484=DIRECTION('',(3.46944695195362E-16,-1.,0.));
#485=DIRECTION('',(1.,3.46944695195362E-16,0.));
#486=DIRECTION('',(3.53707236443423E-16,-0.999999999999969,-2.20049260810362E-16));
#487=DIRECTION('',(1.,3.53707236443434E-16,0.));
#488=DIRECTION('',(3.46944695195362E-16,-1.,0.));
#489=DIRECTION('',(1.,3.46944695195362E-16,0.));
#490=DIRECTION('',(3.46944695195362E-16,-1.,0.));
#491=DIRECTION('',(1.,3.46944695195362E-16,0.));
#492=DIRECTION('',(3.46944695195362E-16,-1.,0.));
#493=DIRECTION('',(1.,3.46944695195362E-16,0.));
#494=DIRECTION('',(3.46944695195362E-16,-1.,0.));
#495=DIRECTION('',(1.,3.46944695195362E-16,0.));
#496=DIRECTION('',(3.53707236443423E-16,-0.999999999999969,-2.20049260810362E-16));
#497=DIRECTION('',(0.999867260431882,3.73017423119119E-16,0.0162929897954346));
#498=DIRECTION('',(3.53707236443423E-16,-0.999999999999969,-2.20049260810362E-16));
#499=DIRECTION('',(1.,3.53707236443434E-16,0.));
#500=DIRECTION('',(3.53707236443423E-16,-0.999999999999969,-2.20049260810362E-16));
#501=DIRECTION('',(1.,3.53707236443434E-16,0.));
#502=DIRECTION('',(3.46944695195362E-16,-1.,0.));
#503=DIRECTION('',(3.46944695195362E-16,-1.,0.));
#504=DIRECTION('',(1.,3.46944695195362E-16,0.));
#505=DIRECTION('',(3.46944695195362E-16,-1.,0.));
#506=DIRECTION('',(3.46944695195362E-16,-1.,0.));
#507=DIRECTION('',(1.,3.46944695195362E-16,0.));
#508=DIRECTION('',(0.,0.,1.));
#509=DIRECTION('',(1.,0.,0.));
#510=DIRECTION('',(0.,0.,1.));
#511=DIRECTION('',(1.,0.,0.));
#512=DIRECTION('',(0.,0.,1.));
#513=DIRECTION('',(1.,0.,0.));
#514=DIRECTION('',(0.,0.,1.));
#515=DIRECTION('',(1.,0.,0.));
#516=DIRECTION('',(0.,0.,-1.));
#517=DIRECTION('',(1.,0.,0.));
#518=DIRECTION('',(0.,0.,-1.));
#519=DIRECTION('',(-1.,0.,0.));
#520=DIRECTION('',(0.,0.,1.));
#521=DIRECTION('',(1.,0.,0.));
#522=CARTESIAN_POINT('',(0.,0.,0.));
#523=CARTESIAN_POINT('',(1.3010426069826E-18,-0.00325,-0.04522825));
#524=CARTESIAN_POINT('',(-0.0025,-0.00325,-0.04522825));
#525=CARTESIAN_POINT('',(-0.0025,-0.00325,-0.0424331650281253));
#526=CARTESIAN_POINT('',(-0.0025,-0.00325,-0.032314125));
#527=CARTESIAN_POINT('',(1.12757025938492E-18,-0.00325,-0.04522825));
#528=CARTESIAN_POINT('',(0.0025,-0.00325,-0.0424331650281253));
#529=CARTESIAN_POINT('',(0.0025,-0.00325,-0.04522825));
#530=CARTESIAN_POINT('',(0.0025,-0.00325,-0.032314125));
#531=CARTESIAN_POINT('',(1.3010426069826E-18,-0.00325,-0.032314125));
#532=CARTESIAN_POINT('',(-0.0025,-0.00225,-0.04522825));
#533=CARTESIAN_POINT('',(-0.0035,-0.00225,-0.04522825));
#534=CARTESIAN_POINT('',(-0.0035,-0.00225,-0.0438819587982164));
#535=CARTESIAN_POINT('',(-0.0035,-0.00225,-0.032314125));
#536=CARTESIAN_POINT('',(-0.0035,-0.00225,-0.0438819587982164));
#537=CARTESIAN_POINT('',(-0.0035,-0.00243499239233095,-0.0438819587982164));
#538=CARTESIAN_POINT('',(-0.00340434981339819,-0.00273091654887914,-0.0436342607416322));
#539=CARTESIAN_POINT('',(-0.00318517357110654,-0.00300467494182309,-0.0432291857619137));
#540=CARTESIAN_POINT('',(-0.00288303828426395,-0.00319724238667817,-0.0428109119049309));
#541=CARTESIAN_POINT('',(-0.00263641831946286,-0.00325,-0.0425551812824033));
#542=CARTESIAN_POINT('',(-0.0025,-0.00325,-0.0424331650281253));
#543=CARTESIAN_POINT('',(-0.0025,-0.00225,-0.032314125));
#544=CARTESIAN_POINT('',(-0.0035,-4.33680868994202E-19,-0.04522825));
#545=CARTESIAN_POINT('',(-0.0035,0.00225,-0.04522825));
#546=CARTESIAN_POINT('',(-0.0035,0.00225,-0.0438819587982164));
#547=CARTESIAN_POINT('',(-0.0035,0.00225,-0.032314125));
#548=CARTESIAN_POINT('',(-0.0035,0.0035,-0.0438819587982164));
#549=CARTESIAN_POINT('',(-0.0035,-4.33680868994202E-19,-0.032314125));
#550=CARTESIAN_POINT('',(-0.0025,0.00225,-0.04522825));
#551=CARTESIAN_POINT('',(-0.0025,0.00325,-0.04522825));
#552=CARTESIAN_POINT('',(-0.0025,0.00325,-0.0424331650281253));
#553=CARTESIAN_POINT('',(-0.0025,0.00325,-0.032314125));
#554=CARTESIAN_POINT('',(-0.0025,0.00325,-0.0424331650281253));
#555=CARTESIAN_POINT('',(-0.00263617365362283,0.00325,-0.0425549624466233));
#556=CARTESIAN_POINT('',(-0.00288450920885062,0.00319669961456114,-0.0428126389175458));
#557=CARTESIAN_POINT('',(-0.00318476176653161,0.00300482297902731,-0.0432286742881164));
#558=CARTESIAN_POINT('',(-0.00340461644572939,0.00273078533939589,-0.0436347227824766));
#559=CARTESIAN_POINT('',(-0.0035,0.00243451476715767,-0.0438819587982164));
#560=CARTESIAN_POINT('',(-0.0035,0.00225,-0.0438819587982164));
#561=CARTESIAN_POINT('',(-0.0025,0.00225,-0.032314125));
#562=CARTESIAN_POINT('',(-8.67361737988404E-19,0.00325,-0.04522825));
#563=CARTESIAN_POINT('',(-1.12757025938492E-18,0.00325,-0.04522825));
#564=CARTESIAN_POINT('',(0.0025,0.00325,-0.0424331650281253));
#565=CARTESIAN_POINT('',(-8.67361737988404E-19,0.00325,-0.032314125));
#566=CARTESIAN_POINT('',(0.0025,0.00325,-0.032314125));
#567=CARTESIAN_POINT('',(0.0025,0.00325,-0.04522825));
#568=CARTESIAN_POINT('',(0.0025,0.00225,-0.04522825));
#569=CARTESIAN_POINT('',(0.0035,0.00225,-0.04522825));
#570=CARTESIAN_POINT('',(0.0035,0.00225,-0.0438819587982164));
#571=CARTESIAN_POINT('',(0.0035,0.00225,-0.032314125));
#572=CARTESIAN_POINT('',(0.0035,0.00225,-0.0438819587982164));
#573=CARTESIAN_POINT('',(0.0035,0.00243499239233095,-0.0438819587982164));
#574=CARTESIAN_POINT('',(0.00340434981339819,0.00273091654887914,-0.0436342607416322));
#575=CARTESIAN_POINT('',(0.00318517357110654,0.00300467494182309,-0.0432291857619137));
#576=CARTESIAN_POINT('',(0.00288303828426395,0.00319724238667817,-0.0428109119049309));
#577=CARTESIAN_POINT('',(0.00263641831946286,0.00325,-0.0425551812824033));
#578=CARTESIAN_POINT('',(0.0025,0.00325,-0.0424331650281253));
#579=CARTESIAN_POINT('',(0.0025,0.00225,-0.032314125));
#580=CARTESIAN_POINT('',(0.0035,8.67361737988404E-19,-0.04522825));
#581=CARTESIAN_POINT('',(0.0035,0.0035,-0.0438819587982164));
#582=CARTESIAN_POINT('',(0.0035,-0.00225,-0.0438819587982164));
#583=CARTESIAN_POINT('',(0.0035,8.67361737988404E-19,-0.032314125));
#584=CARTESIAN_POINT('',(0.0035,-0.00225,-0.032314125));
#585=CARTESIAN_POINT('',(0.0035,-0.00225,-0.04522825));
#586=CARTESIAN_POINT('',(0.0025,-0.00225,-0.04522825));
#587=CARTESIAN_POINT('',(0.0025,-0.00325,-0.0424331650281253));
#588=CARTESIAN_POINT('',(0.00263617365362283,-0.00325,-0.0425549624466233));
#589=CARTESIAN_POINT('',(0.00288450920885062,-0.00319669961456114,-0.0428126389175458));
#590=CARTESIAN_POINT('',(0.00318476176653161,-0.00300482297902731,-0.0432286742881164));
#591=CARTESIAN_POINT('',(0.0034046164457294,-0.00273078533939588,-0.0436347227824766));
#592=CARTESIAN_POINT('',(0.0035,-0.00243451476715767,-0.0438819587982164));
#593=CARTESIAN_POINT('',(0.0035,-0.00225,-0.0438819587982164));
#594=CARTESIAN_POINT('',(0.0025,-0.00225,-0.032314125));
#595=CARTESIAN_POINT('',(8.67361737988404E-19,0.,-0.032314125));
#596=CARTESIAN_POINT('',(0.,1.3164953090834E-19,-0.032314125));
#597=CARTESIAN_POINT('',(-0.00245,1.3164953090834E-19,-0.032314125));
#598=CARTESIAN_POINT('',(0.,1.3164953090834E-19,-0.035314125));
#599=CARTESIAN_POINT('',(0.,1.3164953090834E-19,-0.0254));
#600=CARTESIAN_POINT('',(0.00245,1.3164953090834E-19,-0.0254));
#601=CARTESIAN_POINT('',(1.7347234759768E-18,0.,-0.0254));
#602=CARTESIAN_POINT('',(0.,1.01033360929657E-19,-0.0254));
#603=CARTESIAN_POINT('',(0.00165,1.01033360929657E-19,-0.0254));
#604=CARTESIAN_POINT('',(-1.21430643318376E-18,0.0035,-0.04522825));
#605=CARTESIAN_POINT('',(0.00375,0.00452498999999994,-0.04522825));
#606=CARTESIAN_POINT('',(0.00375,0.00452298999999993,-0.04522825));
#607=CARTESIAN_POINT('',(0.00375,-0.0035,-0.04522825));
#608=CARTESIAN_POINT('',(-1.56922738692164E-18,0.00452298999999993,-0.04522825));
#609=CARTESIAN_POINT('',(-0.00375,0.00452298999999994,-0.04522825));
#610=CARTESIAN_POINT('',(-0.00375,0.00452498999999994,-0.04522825));
#611=CARTESIAN_POINT('',(-0.00375,-0.0035,-0.04522825));
#612=CARTESIAN_POINT('',(1.21430643318376E-18,-0.0035,-0.04522825));
#613=CARTESIAN_POINT('',(-9.97465998686664E-19,0.0035,-0.04522825));
#614=CARTESIAN_POINT('',(-1.35238695242454E-18,0.00452298999999993,-0.04522825));
#615=CARTESIAN_POINT('',(0.00175,0.00452298999999993,-0.04522825));
#616=CARTESIAN_POINT('',(1.43114686768087E-18,-0.0035,-0.04522825));
#617=CARTESIAN_POINT('',(0.00175,-0.0035,-0.04522825));
#618=CARTESIAN_POINT('',(5.55539093868779E-19,-0.0035,-0.04522825));
#619=CARTESIAN_POINT('',(-0.0292227357779279,-0.0035,-0.0541803297576804));
#620=CARTESIAN_POINT('',(-0.0292227357779279,-0.0035,-0.0425376383739584));
#621=CARTESIAN_POINT('',(-0.00395428370599608,-0.0035,-0.051521712416203));
#622=CARTESIAN_POINT('',(-0.00375,-0.0035,-0.04522825));
#623=CARTESIAN_POINT('',(-0.0292227357779279,-0.0035,-0.0541803297576804));
#624=CARTESIAN_POINT('',(-0.0254727357778678,-0.0035,-0.0541803297576804));
#625=CARTESIAN_POINT('',(-0.0217231650762228,-0.0035,-0.054123588653404));
#626=CARTESIAN_POINT('',(0.00375,-0.0035,-0.04522825));
#627=CARTESIAN_POINT('',(0.00375,-0.0035,-0.057868707833772));
#628=CARTESIAN_POINT('',(-0.0216288560567218,-0.0035,-0.0502996267896757));
#629=CARTESIAN_POINT('',(-0.0217231650762228,-0.0035,-0.054123588653404));
#630=CARTESIAN_POINT('',(-0.0254727357779279,-0.0035,-0.0541803297576804));
#631=CARTESIAN_POINT('',(-0.0237227357779279,-0.0035,-0.0541803297576804));
#632=CARTESIAN_POINT('',(0.0268545570455873,0.00452299,-0.0995478412815631));
#633=CARTESIAN_POINT('',(0.00375,0.00452298999999994,-0.04522825));
#634=CARTESIAN_POINT('',(0.00375,0.00452298999999994,-0.057868707833772));
#635=CARTESIAN_POINT('',(-0.0216288560567218,0.00452298999999993,-0.0502996267896757));
#636=CARTESIAN_POINT('',(-0.0217231650762228,0.00452298999999993,-0.054123588653404));
#637=CARTESIAN_POINT('',(-0.0217231650762228,0.00452298999999994,-0.054123588653404));
#638=CARTESIAN_POINT('',(-0.0254727357778678,0.00452298999999992,-0.0541803297576804));
#639=CARTESIAN_POINT('',(-0.0292227357779279,0.00452298999999994,-0.0541803297576804));
#640=CARTESIAN_POINT('',(-0.0292227357779279,0.00452298999999993,-0.0541803297576804));
#641=CARTESIAN_POINT('',(-0.0292227357779279,0.00452298999999993,-0.0425376383739584));
#642=CARTESIAN_POINT('',(-0.00395428370599608,0.00452298999999994,-0.051521712416203));
#643=CARTESIAN_POINT('',(-0.00375,0.00452298999999994,-0.04522825));
#644=CARTESIAN_POINT('',(-0.0254727357779279,0.00452298999999992,-0.0541803297576804));
#645=CARTESIAN_POINT('',(-0.0237227357779279,0.00452298999999992,-0.0541803297576804));
#646=CARTESIAN_POINT('',(-0.0292227357779279,0.00452298999999993,-0.0541803297576804));
#647=CARTESIAN_POINT('',(-0.0292227357779279,-0.0035,-0.0541803297576804));
#648=CARTESIAN_POINT('',(-0.0292227357779279,0.00452298999999993,-0.0425376383739584));
#649=CARTESIAN_POINT('',(-0.0292227357779279,-0.0035,-0.0425376383739584));
#650=CARTESIAN_POINT('',(-0.00395428370599608,0.00452298999999994,-0.051521712416203));
#651=CARTESIAN_POINT('',(-0.00395428370599607,-0.00349999999999999,-0.051521712416203));
#652=CARTESIAN_POINT('',(-0.00375,0.00452298999999994,-0.04522825));
#653=CARTESIAN_POINT('',(-0.00375,-0.00349999999999999,-0.04522825));
#654=CARTESIAN_POINT('',(-0.0292227357779279,0.00452498999999993,-0.0541803297576804));
#655=CARTESIAN_POINT('',(-0.0254727357778678,0.00452498999999993,-0.0541803297576804));
#656=CARTESIAN_POINT('',(-0.0217231650762228,0.00452498999999994,-0.054123588653404));
#657=CARTESIAN_POINT('',(-0.0254727357779279,0.00452498999999993,-0.0541803297576804));
#658=CARTESIAN_POINT('',(0.00375,0.00452298999999994,-0.04522825));
#659=CARTESIAN_POINT('',(0.00375,-0.0035,-0.04522825));
#660=CARTESIAN_POINT('',(0.00375,0.00452298999999994,-0.057868707833772));
#661=CARTESIAN_POINT('',(0.00375,-0.0035,-0.057868707833772));
#662=CARTESIAN_POINT('',(-0.0216288560567218,0.00452298999999993,-0.0502996267896757));
#663=CARTESIAN_POINT('',(-0.0216288560567218,-0.00350000000000001,-0.0502996267896757));
#664=CARTESIAN_POINT('',(-0.0217231650762228,0.00452298999999994,-0.054123588653404));
#665=CARTESIAN_POINT('',(-0.0217231650762228,-0.0035,-0.054123588653404));
#666=CARTESIAN_POINT('',(0.,0.,-0.0264));
#667=CARTESIAN_POINT('',(0.,1.01033360929657E-19,-0.0264));
#668=CARTESIAN_POINT('',(0.00165,1.01033360929657E-19,-0.0264));
#669=CARTESIAN_POINT('',(0.,2.23498040844392E-19,-0.0264));
#670=CARTESIAN_POINT('',(0.00155,2.23498040844392E-19,-0.0264));
#671=CARTESIAN_POINT('',(0.,1.01033360929657E-19,-0.0264));
#672=CARTESIAN_POINT('',(8.67361737988404E-19,0.,-0.032314125));
#673=CARTESIAN_POINT('',(0.,2.23498040844392E-19,-0.032314125));
#674=CARTESIAN_POINT('',(-0.00155,2.23498040844392E-19,-0.032314125));
#675=CARTESIAN_POINT('',(0.,2.23498040844392E-19,-0.035314125));
#676=MECHANICAL_DESIGN_GEOMETRIC_PRESENTATION_REPRESENTATION('',(#367),
#677);
#677=(
GEOMETRIC_REPRESENTATION_CONTEXT(3)
GLOBAL_UNCERTAINTY_ASSIGNED_CONTEXT((#678))
GLOBAL_UNIT_ASSIGNED_CONTEXT((#681,#680,#679))
REPRESENTATION_CONTEXT('Part 2','TOP_LEVEL_ASSEMBLY_PART')
);
#678=UNCERTAINTY_MEASURE_WITH_UNIT(LENGTH_MEASURE(2.E-5),#681,
'DISTANCE_ACCURACY_VALUE','Maximum Tolerance applied to model');
#679=(
NAMED_UNIT(*)
SI_UNIT($,.STERADIAN.)
SOLID_ANGLE_UNIT()
);
#680=(
NAMED_UNIT(*)
PLANE_ANGLE_UNIT()
SI_UNIT($,.RADIAN.)
);
#681=(
LENGTH_UNIT()
NAMED_UNIT(*)
SI_UNIT($,.METRE.)
);
#682=PRODUCT_DEFINITION_SHAPE('','',#683);
#683=PRODUCT_DEFINITION('','',#685,#684);
#684=PRODUCT_DEFINITION_CONTEXT('',#691,'design');
#685=PRODUCT_DEFINITION_FORMATION_WITH_SPECIFIED_SOURCE('','',#687,
 .NOT_KNOWN.);
#686=PRODUCT_RELATED_PRODUCT_CATEGORY('','',(#687));
#687=PRODUCT('Part 2','Part 2','Part 2',(#689));
#688=PRODUCT_CATEGORY('','');
#689=PRODUCT_CONTEXT('',#691,'mechanical');
#690=APPLICATION_PROTOCOL_DEFINITION('international standard',
'ap242_managed_model_based_3d_engineering',2020,#691);
#691=APPLICATION_CONTEXT('managed model based 3d engineering');
ENDSEC;
END-ISO-10303-21;
