ISO-10303-21;
HEADER;
/* Generated by software containing ST-Developer
 * from STEP Tools, Inc. (www.steptools.com) 
 */
/* OPTION: using custom renumber hook */

FILE_DESCRIPTION(
/* description */ ('STEP AP242 Edition 2',
'CAx-IF Rec.Pracs.---Representation and Presentation of Product Manufa
cturing Information (PMI)---4.0---2014-10-13',
'CAx-IF Rec.Pracs.---3D Tessellated Geometry---0.4---2014-09-14','2;1',
'CAx-IF Rec.Pracs.---User Defined Attributes---1.5---2016-08-15'),
/* implementation_level */ '2;1');

FILE_NAME(
/* name */ 'Part Studio 1 - Part 2',
/* time_stamp */ '2026-08-31T00:53:36Z',
/* author */ (''),
/* organization */ (''),
/* preprocessor_version */ 'ST-DEVELOPER v20',
/* originating_system */ 'ONSHAPE BY PTC INC, 1.220',
/* authorisation */ '  ');

FILE_SCHEMA (('AP242_MANAGED_MODEL_BASED_3D_ENGINEERING_MIM_LF { 1 0 10303 442 3 1 4 }'));
ENDSEC;

DATA;
#10=SHAPE_REPRESENTATION_RELATIONSHIP('','',#255,#11);
#11=ADVANCED_BREP_SHAPE_REPRESENTATION('',(#253),#467);
#12=CYLINDRICAL_SURFACE('',#267,0.0024);
#13=CYLINDRICAL_SURFACE('',#271,0.00205);
#14=CYLINDRICAL_SURFACE('',#278,0.0024);
#15=CYLINDRICAL_SURFACE('',#282,0.00205);
#16=CIRCLE('',#264,0.003);
#17=CIRCLE('',#266,0.0024);
#18=CIRCLE('',#268,0.0024);
#19=CIRCLE('',#270,0.00205);
#20=CIRCLE('',#272,0.00205);
#21=CIRCLE('',#275,0.003);
#22=CIRCLE('',#277,0.0024);
#23=CIRCLE('',#279,0.0024);
#24=CIRCLE('',#281,0.00205);
#25=CIRCLE('',#283,0.00205);
#26=CONICAL_SURFACE('',#263,0.004006810868176,1.10985829474063);
#27=CONICAL_SURFACE('',#274,0.004006810868176,1.10985829474063);
#28=LINE('',#358,#34);
#29=LINE('',#366,#35);
#30=LINE('',#380,#36);
#31=LINE('',#394,#37);
#32=LINE('',#408,#38);
#33=LINE('',#422,#39);
#34=VECTOR('',#289,1.);
#35=VECTOR('',#290,1.);
#36=VECTOR('',#293,1.);
#37=VECTOR('',#296,1.);
#38=VECTOR('',#299,1.);
#39=VECTOR('',#302,1.);
#40=ORIENTED_EDGE('',*,*,#96,.F.);
#41=ORIENTED_EDGE('',*,*,#97,.T.);
#42=ORIENTED_EDGE('',*,*,#98,.F.);
#43=ORIENTED_EDGE('',*,*,#99,.F.);
#44=ORIENTED_EDGE('',*,*,#100,.F.);
#45=ORIENTED_EDGE('',*,*,#99,.T.);
#46=ORIENTED_EDGE('',*,*,#101,.F.);
#47=ORIENTED_EDGE('',*,*,#102,.F.);
#48=ORIENTED_EDGE('',*,*,#103,.F.);
#49=ORIENTED_EDGE('',*,*,#102,.T.);
#50=ORIENTED_EDGE('',*,*,#104,.F.);
#51=ORIENTED_EDGE('',*,*,#105,.F.);
#52=ORIENTED_EDGE('',*,*,#106,.F.);
#53=ORIENTED_EDGE('',*,*,#105,.T.);
#54=ORIENTED_EDGE('',*,*,#107,.F.);
#55=ORIENTED_EDGE('',*,*,#108,.F.);
#56=ORIENTED_EDGE('',*,*,#109,.F.);
#57=ORIENTED_EDGE('',*,*,#108,.T.);
#58=ORIENTED_EDGE('',*,*,#110,.F.);
#59=ORIENTED_EDGE('',*,*,#111,.F.);
#60=ORIENTED_EDGE('',*,*,#112,.F.);
#61=ORIENTED_EDGE('',*,*,#111,.T.);
#62=ORIENTED_EDGE('',*,*,#113,.F.);
#63=ORIENTED_EDGE('',*,*,#97,.F.);
#64=ORIENTED_EDGE('',*,*,#114,.F.);
#65=ORIENTED_EDGE('',*,*,#98,.T.);
#66=ORIENTED_EDGE('',*,*,#113,.T.);
#67=ORIENTED_EDGE('',*,*,#110,.T.);
#68=ORIENTED_EDGE('',*,*,#107,.T.);
#69=ORIENTED_EDGE('',*,*,#104,.T.);
#70=ORIENTED_EDGE('',*,*,#101,.T.);
#71=ORIENTED_EDGE('',*,*,#115,.T.);
#72=ORIENTED_EDGE('',*,*,#114,.T.);
#73=ORIENTED_EDGE('',*,*,#116,.T.);
#74=ORIENTED_EDGE('',*,*,#115,.F.);
#75=ORIENTED_EDGE('',*,*,#117,.T.);
#76=ORIENTED_EDGE('',*,*,#116,.F.);
#77=ORIENTED_EDGE('',*,*,#117,.F.);
#78=ORIENTED_EDGE('',*,*,#118,.T.);
#79=ORIENTED_EDGE('',*,*,#118,.F.);
#80=ORIENTED_EDGE('',*,*,#119,.T.);
#81=ORIENTED_EDGE('',*,*,#96,.T.);
#82=ORIENTED_EDGE('',*,*,#100,.T.);
#83=ORIENTED_EDGE('',*,*,#103,.T.);
#84=ORIENTED_EDGE('',*,*,#106,.T.);
#85=ORIENTED_EDGE('',*,*,#109,.T.);
#86=ORIENTED_EDGE('',*,*,#112,.T.);
#87=ORIENTED_EDGE('',*,*,#120,.F.);
#88=ORIENTED_EDGE('',*,*,#119,.F.);
#89=ORIENTED_EDGE('',*,*,#121,.F.);
#90=ORIENTED_EDGE('',*,*,#120,.T.);
#91=ORIENTED_EDGE('',*,*,#122,.F.);
#92=ORIENTED_EDGE('',*,*,#121,.T.);
#93=ORIENTED_EDGE('',*,*,#122,.T.);
#94=ORIENTED_EDGE('',*,*,#123,.F.);
#95=ORIENTED_EDGE('',*,*,#123,.T.);
#96=EDGE_CURVE('',#124,#125,#146,.T.);
#97=EDGE_CURVE('',#124,#126,#28,.T.);
#98=EDGE_CURVE('',#127,#126,#147,.T.);
#99=EDGE_CURVE('',#125,#127,#29,.T.);
#100=EDGE_CURVE('',#125,#128,#148,.T.);
#101=EDGE_CURVE('',#129,#127,#149,.T.);
#102=EDGE_CURVE('',#128,#129,#30,.T.);
#103=EDGE_CURVE('',#128,#130,#150,.T.);
#104=EDGE_CURVE('',#131,#129,#151,.T.);
#105=EDGE_CURVE('',#130,#131,#31,.T.);
#106=EDGE_CURVE('',#130,#132,#152,.T.);
#107=EDGE_CURVE('',#133,#131,#153,.T.);
#108=EDGE_CURVE('',#132,#133,#32,.T.);
#109=EDGE_CURVE('',#132,#134,#154,.T.);
#110=EDGE_CURVE('',#135,#133,#155,.T.);
#111=EDGE_CURVE('',#134,#135,#33,.T.);
#112=EDGE_CURVE('',#134,#124,#156,.T.);
#113=EDGE_CURVE('',#126,#135,#157,.T.);
#114=EDGE_CURVE('',#136,#136,#16,.T.);
#115=EDGE_CURVE('',#137,#137,#17,.T.);
#116=EDGE_CURVE('',#138,#138,#18,.T.);
#117=EDGE_CURVE('',#139,#139,#19,.F.);
#118=EDGE_CURVE('',#140,#140,#20,.T.);
#119=EDGE_CURVE('',#141,#141,#21,.T.);
#120=EDGE_CURVE('',#142,#142,#22,.T.);
#121=EDGE_CURVE('',#143,#143,#23,.T.);
#122=EDGE_CURVE('',#144,#144,#24,.T.);
#123=EDGE_CURVE('',#145,#145,#25,.T.);
#124=VERTEX_POINT('',#356);
#125=VERTEX_POINT('',#357);
#126=VERTEX_POINT('',#359);
#127=VERTEX_POINT('',#365);
#128=VERTEX_POINT('',#373);
#129=VERTEX_POINT('',#379);
#130=VERTEX_POINT('',#387);
#131=VERTEX_POINT('',#393);
#132=VERTEX_POINT('',#401);
#133=VERTEX_POINT('',#407);
#134=VERTEX_POINT('',#415);
#135=VERTEX_POINT('',#421);
#136=VERTEX_POINT('',#436);
#137=VERTEX_POINT('',#439);
#138=VERTEX_POINT('',#442);
#139=VERTEX_POINT('',#445);
#140=VERTEX_POINT('',#448);
#141=VERTEX_POINT('',#452);
#142=VERTEX_POINT('',#455);
#143=VERTEX_POINT('',#458);
#144=VERTEX_POINT('',#461);
#145=VERTEX_POINT('',#464);
#146=B_SPLINE_CURVE_WITH_KNOTS('',3,(#351,#352,#353,#354,#355),
 .UNSPECIFIED.,.F.,.F.,(4,1,4),(2.34853159522245E-7,0.00200908108820817,
0.00401792732325681),.UNSPECIFIED.);
#147=B_SPLINE_CURVE_WITH_KNOTS('',3,(#360,#361,#362,#363,#364),
 .UNSPECIFIED.,.F.,.F.,(4,1,4),(2.34853159525722E-7,0.00200908108820817,
0.00401792732325682),.UNSPECIFIED.);
#148=B_SPLINE_CURVE_WITH_KNOTS('',3,(#368,#369,#370,#371,#372),
 .UNSPECIFIED.,.F.,.F.,(4,1,4),(0.00429732694780312,0.00632637814190313,
0.00835542933600313),.UNSPECIFIED.);
#149=B_SPLINE_CURVE_WITH_KNOTS('',3,(#374,#375,#376,#377,#378),
 .UNSPECIFIED.,.F.,.F.,(4,1,4),(0.00429732694780312,0.00632637814190315,
0.00835542933600318),.UNSPECIFIED.);
#150=B_SPLINE_CURVE_WITH_KNOTS('',3,(#382,#383,#384,#385,#386),
 .UNSPECIFIED.,.F.,.F.,(4,1,4),(2.3485315951957E-7,0.00200908108820817,
0.00401792732325681),.UNSPECIFIED.);
#151=B_SPLINE_CURVE_WITH_KNOTS('',3,(#388,#389,#390,#391,#392),
 .UNSPECIFIED.,.F.,.F.,(4,1,4),(2.34853159514668E-7,0.00200908108820817,
0.00401792732325682),.UNSPECIFIED.);
#152=B_SPLINE_CURVE_WITH_KNOTS('',3,(#396,#397,#398,#399,#400),
 .UNSPECIFIED.,.F.,.F.,(4,1,4),(2.34853159515327E-7,0.00200908108820816,
0.00401792732325681),.UNSPECIFIED.);
#153=B_SPLINE_CURVE_WITH_KNOTS('',3,(#402,#403,#404,#405,#406),
 .UNSPECIFIED.,.F.,.F.,(4,1,4),(2.34853159515796E-7,0.00200908108820816,
0.00401792732325681),.UNSPECIFIED.);
#154=B_SPLINE_CURVE_WITH_KNOTS('',3,(#410,#411,#412,#413,#414),
 .UNSPECIFIED.,.F.,.F.,(4,1,4),(0.00429732694780313,0.00632637814190313,
0.00835542933600314),.UNSPECIFIED.);
#155=B_SPLINE_CURVE_WITH_KNOTS('',3,(#416,#417,#418,#419,#420),
 .UNSPECIFIED.,.F.,.F.,(4,1,4),(0.00429732694780313,0.00632637814190315,
0.00835542933600316),.UNSPECIFIED.);
#156=B_SPLINE_CURVE_WITH_KNOTS('',3,(#424,#425,#426,#427,#428),
 .UNSPECIFIED.,.F.,.F.,(4,1,4),(2.3485315951957E-7,0.00200908108820817,
0.00401792732325682),.UNSPECIFIED.);
#157=B_SPLINE_CURVE_WITH_KNOTS('',3,(#429,#430,#431,#432,#433),
 .UNSPECIFIED.,.F.,.F.,(4,1,4),(2.34853159518064E-7,0.00200908108820817,
0.00401792732325683),.UNSPECIFIED.);
#158=EDGE_LOOP('',(#40,#41,#42,#43));
#159=EDGE_LOOP('',(#44,#45,#46,#47));
#160=EDGE_LOOP('',(#48,#49,#50,#51));
#161=EDGE_LOOP('',(#52,#53,#54,#55));
#162=EDGE_LOOP('',(#56,#57,#58,#59));
#163=EDGE_LOOP('',(#60,#61,#62,#63));
#164=EDGE_LOOP('',(#64));
#165=EDGE_LOOP('',(#65,#66,#67,#68,#69,#70));
#166=EDGE_LOOP('',(#71));
#167=EDGE_LOOP('',(#72));
#168=EDGE_LOOP('',(#73));
#169=EDGE_LOOP('',(#74));
#170=EDGE_LOOP('',(#75));
#171=EDGE_LOOP('',(#76));
#172=EDGE_LOOP('',(#77));
#173=EDGE_LOOP('',(#78));
#174=EDGE_LOOP('',(#79));
#175=EDGE_LOOP('',(#80));
#176=EDGE_LOOP('',(#81,#82,#83,#84,#85,#86));
#177=EDGE_LOOP('',(#87));
#178=EDGE_LOOP('',(#88));
#179=EDGE_LOOP('',(#89));
#180=EDGE_LOOP('',(#90));
#181=EDGE_LOOP('',(#91));
#182=EDGE_LOOP('',(#92));
#183=EDGE_LOOP('',(#93));
#184=EDGE_LOOP('',(#94));
#185=EDGE_LOOP('',(#95));
#186=FACE_BOUND('',#158,.T.);
#187=FACE_BOUND('',#159,.T.);
#188=FACE_BOUND('',#160,.T.);
#189=FACE_BOUND('',#161,.T.);
#190=FACE_BOUND('',#162,.T.);
#191=FACE_BOUND('',#163,.T.);
#192=FACE_BOUND('',#164,.T.);
#193=FACE_BOUND('',#165,.T.);
#194=FACE_BOUND('',#166,.T.);
#195=FACE_BOUND('',#167,.T.);
#196=FACE_BOUND('',#168,.T.);
#197=FACE_BOUND('',#169,.T.);
#198=FACE_BOUND('',#170,.T.);
#199=FACE_BOUND('',#171,.T.);
#200=FACE_BOUND('',#172,.T.);
#201=FACE_BOUND('',#173,.T.);
#202=FACE_BOUND('',#174,.T.);
#203=FACE_BOUND('',#175,.T.);
#204=FACE_BOUND('',#176,.T.);
#205=FACE_BOUND('',#177,.T.);
#206=FACE_BOUND('',#178,.T.);
#207=FACE_BOUND('',#179,.T.);
#208=FACE_BOUND('',#180,.T.);
#209=FACE_BOUND('',#181,.T.);
#210=FACE_BOUND('',#182,.T.);
#211=FACE_BOUND('',#183,.T.);
#212=FACE_BOUND('',#184,.T.);
#213=FACE_BOUND('',#185,.T.);
#214=PLANE('',#257);
#215=PLANE('',#258);
#216=PLANE('',#259);
#217=PLANE('',#260);
#218=PLANE('',#261);
#219=PLANE('',#262);
#220=PLANE('',#265);
#221=PLANE('',#269);
#222=PLANE('',#273);
#223=PLANE('',#276);
#224=PLANE('',#280);
#225=PLANE('',#284);
#226=ADVANCED_FACE('',(#186),#214,.F.);
#227=ADVANCED_FACE('',(#187),#215,.F.);
#228=ADVANCED_FACE('',(#188),#216,.F.);
#229=ADVANCED_FACE('',(#189),#217,.F.);
#230=ADVANCED_FACE('',(#190),#218,.F.);
#231=ADVANCED_FACE('',(#191),#219,.F.);
#232=ADVANCED_FACE('',(#192,#193),#26,.T.);
#233=ADVANCED_FACE('',(#194,#195),#220,.F.);
#234=ADVANCED_FACE('',(#196,#197),#12,.F.);
#235=ADVANCED_FACE('',(#198,#199),#221,.T.);
#236=ADVANCED_FACE('',(#200,#201),#13,.F.);
#237=ADVANCED_FACE('',(#202),#222,.T.);
#238=ADVANCED_FACE('',(#203,#204),#27,.T.);
#239=ADVANCED_FACE('',(#205,#206),#223,.T.);
#240=ADVANCED_FACE('',(#207,#208),#14,.F.);
#241=ADVANCED_FACE('',(#209,#210),#224,.T.);
#242=ADVANCED_FACE('',(#211,#212),#15,.F.);
#243=ADVANCED_FACE('',(#213),#225,.T.);
#244=CLOSED_SHELL('',(#226,#227,#228,#229,#230,#231,#232,#233,#234,#235,
#236,#237,#238,#239,#240,#241,#242,#243));
#245=STYLED_ITEM('',(#246),#253);
#246=PRESENTATION_STYLE_ASSIGNMENT((#247));
#247=SURFACE_STYLE_USAGE(.BOTH.,#248);
#248=SURFACE_SIDE_STYLE('',(#249));
#249=SURFACE_STYLE_FILL_AREA(#250);
#250=FILL_AREA_STYLE('',(#251));
#251=FILL_AREA_STYLE_COLOUR('',#252);
#252=COLOUR_RGB('',0.615686274509804,0.811764705882353,0.929411764705882);
#253=MANIFOLD_SOLID_BREP('Part 2',#244);
#254=SHAPE_DEFINITION_REPRESENTATION(#472,#255);
#255=SHAPE_REPRESENTATION('Part 2',(#256),#467);
#256=AXIS2_PLACEMENT_3D('',#349,#285,#286);
#257=AXIS2_PLACEMENT_3D('',#350,#287,#288);
#258=AXIS2_PLACEMENT_3D('',#367,#291,#292);
#259=AXIS2_PLACEMENT_3D('',#381,#294,#295);
#260=AXIS2_PLACEMENT_3D('',#395,#297,#298);
#261=AXIS2_PLACEMENT_3D('',#409,#300,#301);
#262=AXIS2_PLACEMENT_3D('',#423,#303,#304);
#263=AXIS2_PLACEMENT_3D('',#434,#305,#306);
#264=AXIS2_PLACEMENT_3D('',#435,#307,#308);
#265=AXIS2_PLACEMENT_3D('',#437,#309,#310);
#266=AXIS2_PLACEMENT_3D('',#438,#311,#312);
#267=AXIS2_PLACEMENT_3D('',#440,#313,#314);
#268=AXIS2_PLACEMENT_3D('',#441,#315,#316);
#269=AXIS2_PLACEMENT_3D('',#443,#317,#318);
#270=AXIS2_PLACEMENT_3D('',#444,#319,#320);
#271=AXIS2_PLACEMENT_3D('',#446,#321,#322);
#272=AXIS2_PLACEMENT_3D('',#447,#323,#324);
#273=AXIS2_PLACEMENT_3D('',#449,#325,#326);
#274=AXIS2_PLACEMENT_3D('',#450,#327,#328);
#275=AXIS2_PLACEMENT_3D('',#451,#329,#330);
#276=AXIS2_PLACEMENT_3D('',#453,#331,#332);
#277=AXIS2_PLACEMENT_3D('',#454,#333,#334);
#278=AXIS2_PLACEMENT_3D('',#456,#335,#336);
#279=AXIS2_PLACEMENT_3D('',#457,#337,#338);
#280=AXIS2_PLACEMENT_3D('',#459,#339,#340);
#281=AXIS2_PLACEMENT_3D('',#460,#341,#342);
#282=AXIS2_PLACEMENT_3D('',#462,#343,#344);
#283=AXIS2_PLACEMENT_3D('',#463,#345,#346);
#284=AXIS2_PLACEMENT_3D('',#465,#347,#348);
#285=DIRECTION('',(0.,0.,1.));
#286=DIRECTION('',(1.,0.,0.));
#287=DIRECTION('',(-0.5,0.866025403784439,0.));
#288=DIRECTION('',(-0.866025403784439,-0.5,0.));
#289=DIRECTION('',(0.,0.,-1.));
#290=DIRECTION('',(0.,0.,-1.));
#291=DIRECTION('',(-1.,-2.16471844198438E-16,0.));
#292=DIRECTION('',(2.16471844198438E-16,-1.,0.));
#293=DIRECTION('',(0.,0.,-1.));
#294=DIRECTION('',(-0.5,-0.866025403784439,0.));
#295=DIRECTION('',(0.866025403784439,-0.5,0.));
#296=DIRECTION('',(0.,0.,-1.));
#297=DIRECTION('',(0.5,-0.866025403784439,0.));
#298=DIRECTION('',(0.866025403784439,0.5,0.));
#299=DIRECTION('',(0.,0.,-1.));
#300=DIRECTION('',(1.,2.16471844198438E-16,0.));
#301=DIRECTION('',(-2.16471844198438E-16,1.,0.));
#302=DIRECTION('',(0.,0.,-1.));
#303=DIRECTION('',(0.5,0.866025403784439,0.));
#304=DIRECTION('',(-0.866025403784439,0.5,0.));
#305=DIRECTION('',(0.,9.26644241980725E-17,1.));
#306=DIRECTION('',(-1.,0.,0.));
#307=DIRECTION('',(0.,-9.26644241980725E-17,-1.));
#308=DIRECTION('',(-1.,0.,0.));
#309=DIRECTION('',(0.,0.,1.));
#310=DIRECTION('',(1.,0.,0.));
#311=DIRECTION('',(0.,9.2995596419062E-17,1.));
#312=DIRECTION('',(1.,0.,0.));
#313=DIRECTION('',(0.,-9.2995596419062E-17,-1.));
#314=DIRECTION('',(0.,1.,-9.2995596419062E-17));
#315=DIRECTION('',(0.,9.2995596419062E-17,1.));
#316=DIRECTION('',(1.,0.,0.));
#317=DIRECTION('',(0.,-9.2995596419062E-17,-1.));
#318=DIRECTION('',(1.,0.,0.));
#319=DIRECTION('',(0.,-9.2995596419062E-17,-1.));
#320=DIRECTION('',(0.,1.,-9.2995596419062E-17));
#321=DIRECTION('',(-1.61192367126374E-16,9.2995596419062E-17,-1.));
#322=DIRECTION('',(-1.,0.,1.61192367126374E-16));
#323=DIRECTION('',(1.61192367126374E-16,-9.2995596419062E-17,1.));
#324=DIRECTION('',(1.,7.49509015955878E-33,-1.61192367126374E-16));
#325=DIRECTION('',(-1.61192367126374E-16,9.2995596419062E-17,-1.));
#326=DIRECTION('',(1.,7.49509015955878E-33,-1.61192367126374E-16));
#327=DIRECTION('',(0.,0.,-1.));
#328=DIRECTION('',(-1.,0.,0.));
#329=DIRECTION('',(0.,0.,-1.));
#330=DIRECTION('',(-1.,0.,0.));
#331=DIRECTION('',(0.,0.,1.));
#332=DIRECTION('',(1.,0.,0.));
#333=DIRECTION('',(0.,0.,1.));
#334=DIRECTION('',(1.,0.,0.));
#335=DIRECTION('',(0.,0.,1.));
#336=DIRECTION('',(1.,0.,0.));
#337=DIRECTION('',(0.,0.,1.));
#338=DIRECTION('',(1.,0.,0.));
#339=DIRECTION('',(0.,0.,1.));
#340=DIRECTION('',(1.,0.,0.));
#341=DIRECTION('',(0.,0.,1.));
#342=DIRECTION('',(1.,0.,0.));
#343=DIRECTION('',(0.,0.,1.));
#344=DIRECTION('',(1.,0.,0.));
#345=DIRECTION('',(0.,0.,1.));
#346=DIRECTION('',(1.,0.,0.));
#347=DIRECTION('',(0.,0.,1.));
#348=DIRECTION('',(1.,0.,0.));
#349=CARTESIAN_POINT('',(0.,0.,0.));
#350=CARTESIAN_POINT('',(0.001735,-0.003005108151132,0.140903679));
#351=CARTESIAN_POINT('',(2.50407718982164E-18,-0.004006810868176,0.0794784630000006));
#352=CARTESIAN_POINT('',(0.000570242265806895,-0.00367758134250909,0.0796419641778648));
#353=CARTESIAN_POINT('',(0.00171933133219578,-0.00301415446070661,0.0798478164036739));
#354=CARTESIAN_POINT('',(0.00289758504507651,-0.00233388936240124,0.0796425871363002));
#355=CARTESIAN_POINT('',(0.00347,-0.002003405434088,0.0794784630000006));
#356=CARTESIAN_POINT('',(7.15573433840433E-18,-0.004006810868176,0.0794784630000006));
#357=CARTESIAN_POINT('',(0.00347,-0.00200340543408801,0.0794784630000006));
#358=CARTESIAN_POINT('',(3.03576608295941E-18,-0.004006810868176,0.140903679));
#359=CARTESIAN_POINT('',(3.03576608295941E-18,-0.004006810868176,0.0005));
#360=CARTESIAN_POINT('',(0.00346999999999999,-0.002003405434088,0.000499999999999995));
#361=CARTESIAN_POINT('',(0.0028997577341931,-0.00233263495975492,0.000336498822135786));
#362=CARTESIAN_POINT('',(0.00175066866780421,-0.0029960618415574,0.000130646596326714));
#363=CARTESIAN_POINT('',(0.000572414954923488,-0.00367632693986276,0.000335875863700361));
#364=CARTESIAN_POINT('',(-6.39846744481459E-18,-0.004006810868176,0.000499999999999955));
#365=CARTESIAN_POINT('',(0.00347,-0.00200340543408802,0.0005));
#366=CARTESIAN_POINT('',(0.00347,-0.002003405434088,0.140903679));
#367=CARTESIAN_POINT('',(0.00347,4.33680868994202E-19,0.140903679));
#368=CARTESIAN_POINT('',(0.00347,-0.00200340543408801,0.0794784630000006));
#369=CARTESIAN_POINT('',(0.00347,-0.00134362756040421,0.0796422916530619));
#370=CARTESIAN_POINT('',(0.00347,-1.1095501862368E-5,0.07984831575913));
#371=CARTESIAN_POINT('',(0.00347,0.00134769424897247,0.0796412818584975));
#372=CARTESIAN_POINT('',(0.00347,0.002003405434088,0.0794784630000006));
#373=CARTESIAN_POINT('',(0.00347,0.002003405434088,0.0794784630000006));
#374=CARTESIAN_POINT('',(0.00347,0.002003405434088,0.000500000000000001));
#375=CARTESIAN_POINT('',(0.00347,0.0013436275604042,0.000336171346938694));
#376=CARTESIAN_POINT('',(0.00347,1.10955018623589E-5,0.000130147240870565));
#377=CARTESIAN_POINT('',(0.00347,-0.00134769424897248,0.000337181141503098));
#378=CARTESIAN_POINT('',(0.00347,-0.00200340543408801,0.000500000000000001));
#379=CARTESIAN_POINT('',(0.00347,0.00200340543408801,0.0005));
#380=CARTESIAN_POINT('',(0.00347,0.002003405434088,0.140903679));
#381=CARTESIAN_POINT('',(0.001735,0.00300510815113201,0.140903679));
#382=CARTESIAN_POINT('',(0.00347,0.002003405434088,0.0794784630000006));
#383=CARTESIAN_POINT('',(0.00289975773419311,0.00233263495975491,0.0796419641778648));
#384=CARTESIAN_POINT('',(0.00175066866780422,0.00299606184155739,0.0798478164036739));
#385=CARTESIAN_POINT('',(0.000572414954923491,0.00367632693986276,0.0796425871363002));
#386=CARTESIAN_POINT('',(-2.61618399051829E-18,0.00400681086817601,0.0794784630000006));
#387=CARTESIAN_POINT('',(3.03576608295941E-18,0.004006810868176,0.0794784630000006));
#388=CARTESIAN_POINT('',(-3.20091780392879E-18,0.00400681086817601,0.000500000000000004));
#389=CARTESIAN_POINT('',(0.000570242265806892,0.00367758134250909,0.000336498822135794));
#390=CARTESIAN_POINT('',(0.00171933133219579,0.00301415446070661,0.000130646596326721));
#391=CARTESIAN_POINT('',(0.00289758504507651,0.00233388936240125,0.000335875863700367));
#392=CARTESIAN_POINT('',(0.00347000000000001,0.002003405434088,0.000499999999999962));
#393=CARTESIAN_POINT('',(-8.45677694538693E-18,0.004006810868176,0.0005));
#394=CARTESIAN_POINT('',(-8.67361737988404E-19,0.004006810868176,0.140903679));
#395=CARTESIAN_POINT('',(-0.001735,0.00300510815113201,0.140903679));
#396=CARTESIAN_POINT('',(2.57370176768251E-18,0.00400681086817601,0.0794784630000006));
#397=CARTESIAN_POINT('',(-0.000570242265806891,0.0036775813425091,0.0796419641778648));
#398=CARTESIAN_POINT('',(-0.00171933133219578,0.00301415446070662,0.0798478164036739));
#399=CARTESIAN_POINT('',(-0.00289758504507651,0.00233388936240125,0.0796425871363002));
#400=CARTESIAN_POINT('',(-0.00347,0.002003405434088,0.0794784630000006));
#401=CARTESIAN_POINT('',(-0.00347,0.00200340543408801,0.0794784630000006));
#402=CARTESIAN_POINT('',(-0.00347,0.002003405434088,0.000500000000000002));
#403=CARTESIAN_POINT('',(-0.00289975773419311,0.00233263495975492,0.000336498822135793));
#404=CARTESIAN_POINT('',(-0.00175066866780422,0.0029960618415574,0.000130646596326721));
#405=CARTESIAN_POINT('',(-0.000572414954923498,0.00367632693986276,0.000335875863700368));
#406=CARTESIAN_POINT('',(-2.88001634881938E-18,0.004006810868176,0.000499999999999961));
#407=CARTESIAN_POINT('',(-0.00347,0.002003405434088,0.0005));
#408=CARTESIAN_POINT('',(-0.00347,0.002003405434088,0.140903679));
#409=CARTESIAN_POINT('',(-0.00347,0.,0.140903679));
#410=CARTESIAN_POINT('',(-0.00347,0.00200340543408801,0.0794784630000006));
#411=CARTESIAN_POINT('',(-0.00347,0.00134362756040421,0.0796422916530619));
#412=CARTESIAN_POINT('',(-0.00347,1.1095501862367E-5,0.07984831575913));
#413=CARTESIAN_POINT('',(-0.00347,-0.00134769424897247,0.0796412818584975));
#414=CARTESIAN_POINT('',(-0.00347,-0.002003405434088,0.0794784630000006));
#415=CARTESIAN_POINT('',(-0.00347,-0.002003405434088,0.0794784630000006));
#416=CARTESIAN_POINT('',(-0.00347,-0.002003405434088,0.000499999999999996));
#417=CARTESIAN_POINT('',(-0.00347,-0.00134362756040419,0.00033617134693869));
#418=CARTESIAN_POINT('',(-0.00347,-1.10955018623594E-5,0.000130147240870567));
#419=CARTESIAN_POINT('',(-0.00347,0.00134769424897247,0.000337181141503099));
#420=CARTESIAN_POINT('',(-0.00347,0.002003405434088,0.000500000000000001));
#421=CARTESIAN_POINT('',(-0.00347,-0.002003405434088,0.0005));
#422=CARTESIAN_POINT('',(-0.00347,-0.002003405434088,0.140903679));
#423=CARTESIAN_POINT('',(-0.001735,-0.003005108151132,0.140903679));
#424=CARTESIAN_POINT('',(-0.00347,-0.002003405434088,0.0794784630000006));
#425=CARTESIAN_POINT('',(-0.00289975773419311,-0.00233263495975491,0.0796419641778648));
#426=CARTESIAN_POINT('',(-0.00175066866780422,-0.00299606184155739,0.0798478164036739));
#427=CARTESIAN_POINT('',(-0.000572414954923483,-0.00367632693986276,0.0796425871363002));
#428=CARTESIAN_POINT('',(1.21825623094846E-17,-0.00400681086817601,0.0794784630000006));
#429=CARTESIAN_POINT('',(4.18880811669597E-18,-0.004006810868176,0.000499999999999996));
#430=CARTESIAN_POINT('',(-0.000570242265806892,-0.00367758134250909,0.000336498822135785));
#431=CARTESIAN_POINT('',(-0.00171933133219579,-0.00301415446070661,0.000130646596326713));
#432=CARTESIAN_POINT('',(-0.00289758504507651,-0.00233388936240124,0.000335875863700362));
#433=CARTESIAN_POINT('',(-0.00347000000000001,-0.00200340543408799,0.000499999999999958));
#434=CARTESIAN_POINT('',(0.,-6.50521303491303E-18,0.0005));
#435=CARTESIAN_POINT('',(0.,-6.55154524701201E-18,5.82867087928207E-16));
#436=CARTESIAN_POINT('',(-0.003,-6.55154524701201E-18,5.82867087928207E-16));
#437=CARTESIAN_POINT('',(0.,1.7347234759768E-18,0.));
#438=CARTESIAN_POINT('',(0.,-6.45125101543435E-18,5.82867087928207E-16));
#439=CARTESIAN_POINT('',(0.0024,-6.45125101543435E-18,5.82867087928207E-16));
#440=CARTESIAN_POINT('',(0.,-6.35825541901529E-18,0.00100000000000058));
#441=CARTESIAN_POINT('',(0.,-6.35825541901529E-18,0.00100000000000058));
#442=CARTESIAN_POINT('',(0.0024,-6.35825541901529E-18,0.00100000000000058));
#443=CARTESIAN_POINT('',(0.,-6.50521303491297E-18,0.00100000000000058));
#444=CARTESIAN_POINT('',(-1.12757025938492E-17,6.77769694772326E-18,0.00100000000000058));
#445=CARTESIAN_POINT('',(-1.12757025938492E-17,0.00205000000000001,0.00100000000000058));
#446=CARTESIAN_POINT('',(-1.01473560239645E-17,6.12672777278983E-18,0.00800000000000058));
#447=CARTESIAN_POINT('',(-1.01473560239645E-17,6.12672777278983E-18,0.00800000000000058));
#448=CARTESIAN_POINT('',(0.00204999999999999,6.12672777278983E-18,0.00800000000000058));
#449=CARTESIAN_POINT('',(-1.01473560239645E-17,5.85424385997954E-18,0.00800000000000058));
#450=CARTESIAN_POINT('',(0.,0.,0.0794784630000006));
#451=CARTESIAN_POINT('',(0.,0.,0.079978463));
#452=CARTESIAN_POINT('',(-0.003,0.,0.079978463));
#453=CARTESIAN_POINT('',(0.,1.7347234759768E-18,0.079978463));
#454=CARTESIAN_POINT('',(0.,1.46957615897682E-19,0.079978463));
#455=CARTESIAN_POINT('',(0.0024,1.46957615897682E-19,0.079978463));
#456=CARTESIAN_POINT('',(0.,1.46957615897682E-19,0.078978463));
#457=CARTESIAN_POINT('',(0.,1.46957615897682E-19,0.078978463));
#458=CARTESIAN_POINT('',(0.0024,1.46957615897682E-19,0.078978463));
#459=CARTESIAN_POINT('',(0.,0.,0.078978463));
#460=CARTESIAN_POINT('',(0.,2.72483912810286E-19,0.078978463));
#461=CARTESIAN_POINT('',(0.00205,2.72483912810286E-19,0.078978463));
#462=CARTESIAN_POINT('',(0.,2.72483912810286E-19,0.071978463));
#463=CARTESIAN_POINT('',(0.,2.72483912810286E-19,0.071978463));
#464=CARTESIAN_POINT('',(0.00205,2.72483912810286E-19,0.071978463));
#465=CARTESIAN_POINT('',(0.,0.,0.071978463));
#466=MECHANICAL_DESIGN_GEOMETRIC_PRESENTATION_REPRESENTATION('',(#245),
#467);
#467=(
GEOMETRIC_REPRESENTATION_CONTEXT(3)
GLOBAL_UNCERTAINTY_ASSIGNED_CONTEXT((#468))
GLOBAL_UNIT_ASSIGNED_CONTEXT((#471,#470,#469))
REPRESENTATION_CONTEXT('Part 2','TOP_LEVEL_ASSEMBLY_PART')
);
#468=UNCERTAINTY_MEASURE_WITH_UNIT(LENGTH_MEASURE(2.E-5),#471,
'DISTANCE_ACCURACY_VALUE','Maximum Tolerance applied to model');
#469=(
NAMED_UNIT(*)
SI_UNIT($,.STERADIAN.)
SOLID_ANGLE_UNIT()
);
#470=(
NAMED_UNIT(*)
PLANE_ANGLE_UNIT()
SI_UNIT($,.RADIAN.)
);
#471=(
LENGTH_UNIT()
NAMED_UNIT(*)
SI_UNIT($,.METRE.)
);
#472=PRODUCT_DEFINITION_SHAPE('','',#473);
#473=PRODUCT_DEFINITION('','',#475,#474);
#474=PRODUCT_DEFINITION_CONTEXT('',#481,'design');
#475=PRODUCT_DEFINITION_FORMATION_WITH_SPECIFIED_SOURCE('','',#477,
 .NOT_KNOWN.);
#476=PRODUCT_RELATED_PRODUCT_CATEGORY('','',(#477));
#477=PRODUCT('Part 2','Part 2','Part 2',(#479));
#478=PRODUCT_CATEGORY('','');
#479=PRODUCT_CONTEXT('',#481,'mechanical');
#480=APPLICATION_PROTOCOL_DEFINITION('international standard',
'ap242_managed_model_based_3d_engineering',2020,#481);
#481=APPLICATION_CONTEXT('managed model based 3d engineering');
ENDSEC;
END-ISO-10303-21;
