ISO-10303-21;
HEADER;
/* Generated by software containing ST-Developer
 * from STEP Tools, Inc. (www.steptools.com) 
 */
/* OPTION: using custom renumber hook */

FILE_DESCRIPTION(
/* description */ ('STEP AP242 Edition 2',
'CAx-IF Rec.Pracs.---Representation and Presentation of Product Manufa
cturing Information (PMI)---4.0---2014-10-13',
'CAx-IF Rec.Pracs.---3D Tessellated Geometry---0.4---2014-09-14','2;1',
'CAx-IF Rec.Pracs.---User Defined Attributes---1.5---2016-08-15'),
/* implementation_level */ '2;1');

FILE_NAME(
/* name */ 'Part Studio 1 - Part 2',
/* time_stamp */ '2026-09-08T01:15:58Z',
/* author */ (''),
/* organization */ (''),
/* preprocessor_version */ 'ST-DEVELOPER v20',
/* originating_system */ 'ONSHAPE BY PTC INC, 1.220',
/* authorisation */ '  ');

FILE_SCHEMA (('AP242_MANAGED_MODEL_BASED_3D_ENGINEERING_MIM_LF { 1 0 10303 442 3 1 4 }'));
ENDSEC;

DATA;
#10=SHAPE_REPRESENTATION_RELATIONSHIP('','',#295,#11);
#11=ADVANCED_BREP_SHAPE_REPRESENTATION('',(#293),#483);
#12=LINE('',#413,#36);
#13=LINE('',#416,#37);
#14=LINE('',#418,#38);
#15=LINE('',#424,#39);
#16=LINE('',#427,#40);
#17=LINE('',#429,#41);
#18=LINE('',#435,#42);
#19=LINE('',#437,#43);
#20=LINE('',#439,#44);
#21=LINE('',#441,#45);
#22=LINE('',#443,#46);
#23=LINE('',#446,#47);
#24=LINE('',#450,#48);
#25=LINE('',#452,#49);
#26=LINE('',#454,#50);
#27=LINE('',#456,#51);
#28=LINE('',#458,#52);
#29=LINE('',#461,#53);
#30=LINE('',#464,#54);
#31=LINE('',#466,#55);
#32=LINE('',#472,#56);
#33=LINE('',#473,#57);
#34=LINE('',#476,#58);
#35=LINE('',#477,#59);
#36=VECTOR('',#336,1.);
#37=VECTOR('',#337,1.);
#38=VECTOR('',#338,1.);
#39=VECTOR('',#345,1.);
#40=VECTOR('',#346,1.);
#41=VECTOR('',#347,1.);
#42=VECTOR('',#354,1.);
#43=VECTOR('',#355,1.);
#44=VECTOR('',#356,1.);
#45=VECTOR('',#357,1.);
#46=VECTOR('',#358,1.);
#47=VECTOR('',#361,1.);
#48=VECTOR('',#366,1.);
#49=VECTOR('',#367,1.);
#50=VECTOR('',#368,1.);
#51=VECTOR('',#371,1.);
#52=VECTOR('',#372,1.);
#53=VECTOR('',#375,1.);
#54=VECTOR('',#378,1.);
#55=VECTOR('',#379,1.);
#56=VECTOR('',#388,1.);
#57=VECTOR('',#389,1.);
#58=VECTOR('',#394,1.);
#59=VECTOR('',#395,1.);
#60=PLANE('',#300);
#61=PLANE('',#303);
#62=PLANE('',#306);
#63=PLANE('',#309);
#64=PLANE('',#311);
#65=PLANE('',#316);
#66=PLANE('',#318);
#67=PLANE('',#319);
#68=PLANE('',#320);
#69=ORIENTED_EDGE('',*,*,#141,.F.);
#70=ORIENTED_EDGE('',*,*,#142,.T.);
#71=ORIENTED_EDGE('',*,*,#143,.T.);
#72=ORIENTED_EDGE('',*,*,#144,.F.);
#73=ORIENTED_EDGE('',*,*,#145,.T.);
#74=ORIENTED_EDGE('',*,*,#146,.T.);
#75=ORIENTED_EDGE('',*,*,#147,.F.);
#76=ORIENTED_EDGE('',*,*,#148,.F.);
#77=ORIENTED_EDGE('',*,*,#149,.F.);
#78=ORIENTED_EDGE('',*,*,#150,.T.);
#79=ORIENTED_EDGE('',*,*,#151,.T.);
#80=ORIENTED_EDGE('',*,*,#152,.T.);
#81=ORIENTED_EDGE('',*,*,#146,.F.);
#82=ORIENTED_EDGE('',*,*,#153,.T.);
#83=ORIENTED_EDGE('',*,*,#154,.F.);
#84=ORIENTED_EDGE('',*,*,#155,.F.);
#85=ORIENTED_EDGE('',*,*,#156,.F.);
#86=ORIENTED_EDGE('',*,*,#157,.T.);
#87=ORIENTED_EDGE('',*,*,#158,.T.);
#88=ORIENTED_EDGE('',*,*,#159,.T.);
#89=ORIENTED_EDGE('',*,*,#149,.T.);
#90=ORIENTED_EDGE('',*,*,#160,.T.);
#91=ORIENTED_EDGE('',*,*,#142,.F.);
#92=ORIENTED_EDGE('',*,*,#161,.T.);
#93=ORIENTED_EDGE('',*,*,#156,.T.);
#94=ORIENTED_EDGE('',*,*,#162,.T.);
#95=ORIENTED_EDGE('',*,*,#163,.F.);
#96=ORIENTED_EDGE('',*,*,#164,.F.);
#97=ORIENTED_EDGE('',*,*,#163,.T.);
#98=ORIENTED_EDGE('',*,*,#165,.T.);
#99=ORIENTED_EDGE('',*,*,#166,.T.);
#100=ORIENTED_EDGE('',*,*,#167,.T.);
#101=ORIENTED_EDGE('',*,*,#144,.T.);
#102=ORIENTED_EDGE('',*,*,#168,.F.);
#103=ORIENTED_EDGE('',*,*,#151,.F.);
#104=ORIENTED_EDGE('',*,*,#169,.T.);
#105=ORIENTED_EDGE('',*,*,#170,.F.);
#106=ORIENTED_EDGE('',*,*,#171,.F.);
#107=ORIENTED_EDGE('',*,*,#148,.T.);
#108=ORIENTED_EDGE('',*,*,#143,.F.);
#109=ORIENTED_EDGE('',*,*,#147,.T.);
#110=ORIENTED_EDGE('',*,*,#160,.F.);
#111=ORIENTED_EDGE('',*,*,#152,.F.);
#112=ORIENTED_EDGE('',*,*,#168,.T.);
#113=ORIENTED_EDGE('',*,*,#172,.F.);
#114=ORIENTED_EDGE('',*,*,#170,.T.);
#115=ORIENTED_EDGE('',*,*,#173,.T.);
#116=ORIENTED_EDGE('',*,*,#158,.F.);
#117=ORIENTED_EDGE('',*,*,#174,.T.);
#118=ORIENTED_EDGE('',*,*,#157,.F.);
#119=ORIENTED_EDGE('',*,*,#164,.T.);
#120=ORIENTED_EDGE('',*,*,#171,.T.);
#121=ORIENTED_EDGE('',*,*,#174,.F.);
#122=ORIENTED_EDGE('',*,*,#141,.T.);
#123=ORIENTED_EDGE('',*,*,#154,.T.);
#124=ORIENTED_EDGE('',*,*,#175,.T.);
#125=ORIENTED_EDGE('',*,*,#166,.F.);
#126=ORIENTED_EDGE('',*,*,#176,.F.);
#127=ORIENTED_EDGE('',*,*,#155,.T.);
#128=ORIENTED_EDGE('',*,*,#176,.T.);
#129=ORIENTED_EDGE('',*,*,#165,.F.);
#130=ORIENTED_EDGE('',*,*,#162,.F.);
#131=ORIENTED_EDGE('',*,*,#153,.F.);
#132=ORIENTED_EDGE('',*,*,#145,.F.);
#133=ORIENTED_EDGE('',*,*,#167,.F.);
#134=ORIENTED_EDGE('',*,*,#175,.F.);
#135=ORIENTED_EDGE('',*,*,#159,.F.);
#136=ORIENTED_EDGE('',*,*,#173,.F.);
#137=ORIENTED_EDGE('',*,*,#169,.F.);
#138=ORIENTED_EDGE('',*,*,#150,.F.);
#139=ORIENTED_EDGE('',*,*,#172,.T.);
#140=ORIENTED_EDGE('',*,*,#161,.F.);
#141=EDGE_CURVE('',#177,#177,#203,.T.);
#142=EDGE_CURVE('',#178,#178,#204,.T.);
#143=EDGE_CURVE('',#179,#179,#205,.T.);
#144=EDGE_CURVE('',#180,#181,#12,.T.);
#145=EDGE_CURVE('',#180,#182,#13,.F.);
#146=EDGE_CURVE('',#182,#183,#14,.T.);
#147=EDGE_CURVE('',#181,#183,#206,.T.);
#148=EDGE_CURVE('',#184,#184,#207,.T.);
#149=EDGE_CURVE('',#185,#186,#15,.T.);
#150=EDGE_CURVE('',#185,#187,#16,.T.);
#151=EDGE_CURVE('',#187,#188,#17,.T.);
#152=EDGE_CURVE('',#188,#186,#208,.T.);
#153=EDGE_CURVE('',#182,#189,#209,.F.);
#154=EDGE_CURVE('',#190,#189,#18,.T.);
#155=EDGE_CURVE('',#191,#190,#19,.T.);
#156=EDGE_CURVE('',#192,#191,#20,.T.);
#157=EDGE_CURVE('',#192,#193,#21,.T.);
#158=EDGE_CURVE('',#193,#194,#22,.T.);
#159=EDGE_CURVE('',#194,#185,#210,.F.);
#160=EDGE_CURVE('',#186,#183,#23,.T.);
#161=EDGE_CURVE('',#195,#195,#211,.T.);
#162=EDGE_CURVE('',#191,#196,#24,.T.);
#163=EDGE_CURVE('',#197,#196,#25,.T.);
#164=EDGE_CURVE('',#192,#197,#26,.T.);
#165=EDGE_CURVE('',#196,#198,#27,.T.);
#166=EDGE_CURVE('',#198,#199,#28,.T.);
#167=EDGE_CURVE('',#199,#180,#212,.T.);
#168=EDGE_CURVE('',#188,#181,#29,.T.);
#169=EDGE_CURVE('',#187,#200,#213,.T.);
#170=EDGE_CURVE('',#201,#200,#30,.T.);
#171=EDGE_CURVE('',#197,#201,#31,.T.);
#172=EDGE_CURVE('',#202,#202,#214,.T.);
#173=EDGE_CURVE('',#200,#194,#32,.F.);
#174=EDGE_CURVE('',#193,#201,#33,.T.);
#175=EDGE_CURVE('',#189,#199,#34,.T.);
#176=EDGE_CURVE('',#190,#198,#35,.T.);
#177=VERTEX_POINT('',#407);
#178=VERTEX_POINT('',#409);
#179=VERTEX_POINT('',#412);
#180=VERTEX_POINT('',#414);
#181=VERTEX_POINT('',#415);
#182=VERTEX_POINT('',#417);
#183=VERTEX_POINT('',#419);
#184=VERTEX_POINT('',#423);
#185=VERTEX_POINT('',#425);
#186=VERTEX_POINT('',#426);
#187=VERTEX_POINT('',#428);
#188=VERTEX_POINT('',#430);
#189=VERTEX_POINT('',#434);
#190=VERTEX_POINT('',#436);
#191=VERTEX_POINT('',#438);
#192=VERTEX_POINT('',#440);
#193=VERTEX_POINT('',#442);
#194=VERTEX_POINT('',#444);
#195=VERTEX_POINT('',#449);
#196=VERTEX_POINT('',#451);
#197=VERTEX_POINT('',#453);
#198=VERTEX_POINT('',#457);
#199=VERTEX_POINT('',#459);
#200=VERTEX_POINT('',#463);
#201=VERTEX_POINT('',#465);
#202=VERTEX_POINT('',#471);
#203=CIRCLE('',#298,0.00225);
#204=CIRCLE('',#299,0.00225);
#205=CIRCLE('',#301,0.0127);
#206=CIRCLE('',#302,0.01524);
#207=CIRCLE('',#304,0.0127);
#208=CIRCLE('',#305,0.01524);
#209=CIRCLE('',#307,0.0015);
#210=CIRCLE('',#308,0.0015);
#211=CIRCLE('',#310,0.00225);
#212=CIRCLE('',#312,0.0015);
#213=CIRCLE('',#313,0.0015);
#214=CIRCLE('',#317,0.00225);
#215=EDGE_LOOP('',(#69));
#216=EDGE_LOOP('',(#70));
#217=EDGE_LOOP('',(#71));
#218=EDGE_LOOP('',(#72,#73,#74,#75));
#219=EDGE_LOOP('',(#76));
#220=EDGE_LOOP('',(#77,#78,#79,#80));
#221=EDGE_LOOP('',(#81,#82,#83,#84,#85,#86,#87,#88,#89,#90));
#222=EDGE_LOOP('',(#91));
#223=EDGE_LOOP('',(#92));
#224=EDGE_LOOP('',(#93,#94,#95,#96));
#225=EDGE_LOOP('',(#97,#98,#99,#100,#101,#102,#103,#104,#105,#106));
#226=EDGE_LOOP('',(#107));
#227=EDGE_LOOP('',(#108));
#228=EDGE_LOOP('',(#109,#110,#111,#112));
#229=EDGE_LOOP('',(#113));
#230=EDGE_LOOP('',(#114,#115,#116,#117));
#231=EDGE_LOOP('',(#118,#119,#120,#121));
#232=EDGE_LOOP('',(#122));
#233=EDGE_LOOP('',(#123,#124,#125,#126));
#234=EDGE_LOOP('',(#127,#128,#129,#130));
#235=EDGE_LOOP('',(#131,#132,#133,#134));
#236=EDGE_LOOP('',(#135,#136,#137,#138));
#237=EDGE_LOOP('',(#139));
#238=EDGE_LOOP('',(#140));
#239=FACE_BOUND('',#215,.T.);
#240=FACE_BOUND('',#216,.T.);
#241=FACE_BOUND('',#217,.T.);
#242=FACE_BOUND('',#218,.T.);
#243=FACE_BOUND('',#219,.T.);
#244=FACE_BOUND('',#220,.T.);
#245=FACE_BOUND('',#221,.T.);
#246=FACE_BOUND('',#222,.T.);
#247=FACE_BOUND('',#223,.T.);
#248=FACE_BOUND('',#224,.T.);
#249=FACE_BOUND('',#225,.T.);
#250=FACE_BOUND('',#226,.T.);
#251=FACE_BOUND('',#227,.T.);
#252=FACE_BOUND('',#228,.T.);
#253=FACE_BOUND('',#229,.T.);
#254=FACE_BOUND('',#230,.T.);
#255=FACE_BOUND('',#231,.T.);
#256=FACE_BOUND('',#232,.T.);
#257=FACE_BOUND('',#233,.T.);
#258=FACE_BOUND('',#234,.T.);
#259=FACE_BOUND('',#235,.T.);
#260=FACE_BOUND('',#236,.T.);
#261=FACE_BOUND('',#237,.T.);
#262=FACE_BOUND('',#238,.T.);
#263=CYLINDRICAL_SURFACE('',#297,0.00225);
#264=CYLINDRICAL_SURFACE('',#314,0.0127);
#265=CYLINDRICAL_SURFACE('',#315,0.01524);
#266=CYLINDRICAL_SURFACE('',#321,0.0015);
#267=CYLINDRICAL_SURFACE('',#322,0.0015);
#268=CYLINDRICAL_SURFACE('',#323,0.00225);
#269=ADVANCED_FACE('',(#239,#240),#263,.F.);
#270=ADVANCED_FACE('',(#241,#242),#60,.F.);
#271=ADVANCED_FACE('',(#243,#244),#61,.T.);
#272=ADVANCED_FACE('',(#245),#62,.T.);
#273=ADVANCED_FACE('',(#246,#247,#248),#63,.F.);
#274=ADVANCED_FACE('',(#249),#64,.F.);
#275=ADVANCED_FACE('',(#250,#251),#264,.F.);
#276=ADVANCED_FACE('',(#252),#265,.T.);
#277=ADVANCED_FACE('',(#253,#254),#65,.T.);
#278=ADVANCED_FACE('',(#255),#66,.T.);
#279=ADVANCED_FACE('',(#256,#257),#67,.F.);
#280=ADVANCED_FACE('',(#258),#68,.T.);
#281=ADVANCED_FACE('',(#259),#266,.F.);
#282=ADVANCED_FACE('',(#260),#267,.F.);
#283=ADVANCED_FACE('',(#261,#262),#268,.F.);
#284=CLOSED_SHELL('',(#269,#270,#271,#272,#273,#274,#275,#276,#277,#278,
#279,#280,#281,#282,#283));
#285=STYLED_ITEM('',(#286),#293);
#286=PRESENTATION_STYLE_ASSIGNMENT((#287));
#287=SURFACE_STYLE_USAGE(.BOTH.,#288);
#288=SURFACE_SIDE_STYLE('',(#289));
#289=SURFACE_STYLE_FILL_AREA(#290);
#290=FILL_AREA_STYLE('',(#291));
#291=FILL_AREA_STYLE_COLOUR('',#292);
#292=COLOUR_RGB('',0.647058823529412,0.647058823529412,0.647058823529412);
#293=MANIFOLD_SOLID_BREP('Part 2',#284);
#294=SHAPE_DEFINITION_REPRESENTATION(#488,#295);
#295=SHAPE_REPRESENTATION('Part 2',(#296),#483);
#296=AXIS2_PLACEMENT_3D('',#404,#324,#325);
#297=AXIS2_PLACEMENT_3D('',#405,#326,#327);
#298=AXIS2_PLACEMENT_3D('',#406,#328,#329);
#299=AXIS2_PLACEMENT_3D('',#408,#330,#331);
#300=AXIS2_PLACEMENT_3D('',#410,#332,#333);
#301=AXIS2_PLACEMENT_3D('',#411,#334,#335);
#302=AXIS2_PLACEMENT_3D('',#420,#339,#340);
#303=AXIS2_PLACEMENT_3D('',#421,#341,#342);
#304=AXIS2_PLACEMENT_3D('',#422,#343,#344);
#305=AXIS2_PLACEMENT_3D('',#431,#348,#349);
#306=AXIS2_PLACEMENT_3D('',#432,#350,#351);
#307=AXIS2_PLACEMENT_3D('',#433,#352,#353);
#308=AXIS2_PLACEMENT_3D('',#445,#359,#360);
#309=AXIS2_PLACEMENT_3D('',#447,#362,#363);
#310=AXIS2_PLACEMENT_3D('',#448,#364,#365);
#311=AXIS2_PLACEMENT_3D('',#455,#369,#370);
#312=AXIS2_PLACEMENT_3D('',#460,#373,#374);
#313=AXIS2_PLACEMENT_3D('',#462,#376,#377);
#314=AXIS2_PLACEMENT_3D('',#467,#380,#381);
#315=AXIS2_PLACEMENT_3D('',#468,#382,#383);
#316=AXIS2_PLACEMENT_3D('',#469,#384,#385);
#317=AXIS2_PLACEMENT_3D('',#470,#386,#387);
#318=AXIS2_PLACEMENT_3D('',#474,#390,#391);
#319=AXIS2_PLACEMENT_3D('',#475,#392,#393);
#320=AXIS2_PLACEMENT_3D('',#478,#396,#397);
#321=AXIS2_PLACEMENT_3D('',#479,#398,#399);
#322=AXIS2_PLACEMENT_3D('',#480,#400,#401);
#323=AXIS2_PLACEMENT_3D('',#481,#402,#403);
#324=DIRECTION('',(0.,0.,1.));
#325=DIRECTION('',(1.,0.,0.));
#326=DIRECTION('',(0.,0.,1.));
#327=DIRECTION('',(1.,0.,0.));
#328=DIRECTION('',(0.,0.,-1.));
#329=DIRECTION('',(1.,0.,0.));
#330=DIRECTION('',(0.,0.,-1.));
#331=DIRECTION('',(1.,0.,0.));
#332=DIRECTION('',(0.,-1.,0.));
#333=DIRECTION('',(1.,0.,0.));
#334=DIRECTION('',(0.,-1.,0.));
#335=DIRECTION('',(0.,0.,-1.));
#336=DIRECTION('',(0.,0.,1.));
#337=DIRECTION('',(1.,0.,0.));
#338=DIRECTION('',(0.,0.,1.));
#339=DIRECTION('',(0.,-1.,0.));
#340=DIRECTION('',(0.,0.,-1.));
#341=DIRECTION('',(0.,-1.,0.));
#342=DIRECTION('',(1.,0.,0.));
#343=DIRECTION('',(0.,-1.,0.));
#344=DIRECTION('',(0.,0.,-1.));
#345=DIRECTION('',(0.,0.,1.));
#346=DIRECTION('',(1.,0.,0.));
#347=DIRECTION('',(0.,0.,1.));
#348=DIRECTION('',(0.,-1.,0.));
#349=DIRECTION('',(0.,0.,-1.));
#350=DIRECTION('',(-1.,0.,0.));
#351=DIRECTION('',(0.,0.,1.));
#352=DIRECTION('',(-1.,0.,0.));
#353=DIRECTION('',(0.,0.,1.));
#354=DIRECTION('',(0.,-1.,0.));
#355=DIRECTION('',(-1.44560289664734E-16,0.,1.));
#356=DIRECTION('',(0.,1.,0.));
#357=DIRECTION('',(-1.44560289664734E-16,0.,1.));
#358=DIRECTION('',(0.,1.,0.));
#359=DIRECTION('',(-1.,0.,0.));
#360=DIRECTION('',(0.,0.,1.));
#361=DIRECTION('',(0.,1.,0.));
#362=DIRECTION('',(0.,0.,1.));
#363=DIRECTION('',(1.,0.,0.));
#364=DIRECTION('',(0.,0.,1.));
#365=DIRECTION('',(1.,0.,0.));
#366=DIRECTION('',(1.,0.,0.));
#367=DIRECTION('',(0.,1.,0.));
#368=DIRECTION('',(1.,0.,0.));
#369=DIRECTION('',(-1.,0.,0.));
#370=DIRECTION('',(0.,0.,1.));
#371=DIRECTION('',(0.,0.,1.));
#372=DIRECTION('',(0.,-1.,0.));
#373=DIRECTION('',(-1.,0.,0.));
#374=DIRECTION('',(0.,0.,1.));
#375=DIRECTION('',(0.,1.,0.));
#376=DIRECTION('',(-1.,0.,0.));
#377=DIRECTION('',(0.,0.,1.));
#378=DIRECTION('',(0.,1.,0.));
#379=DIRECTION('',(0.,0.,1.));
#380=DIRECTION('',(0.,1.,0.));
#381=DIRECTION('',(0.,0.,1.));
#382=DIRECTION('',(0.,1.,0.));
#383=DIRECTION('',(0.,0.,1.));
#384=DIRECTION('',(0.,0.,1.));
#385=DIRECTION('',(1.,0.,0.));
#386=DIRECTION('',(0.,0.,1.));
#387=DIRECTION('',(1.,0.,0.));
#388=DIRECTION('',(1.,0.,0.));
#389=DIRECTION('',(1.,0.,0.));
#390=DIRECTION('',(0.,-1.,0.));
#391=DIRECTION('',(1.,0.,0.));
#392=DIRECTION('',(0.,0.,-1.));
#393=DIRECTION('',(-1.,0.,0.));
#394=DIRECTION('',(1.,0.,0.));
#395=DIRECTION('',(1.,0.,0.));
#396=DIRECTION('',(0.,1.,0.));
#397=DIRECTION('',(1.,0.,0.));
#398=DIRECTION('',(-1.,0.,0.));
#399=DIRECTION('',(0.,0.,1.));
#400=DIRECTION('',(-1.,0.,0.));
#401=DIRECTION('',(0.,0.,1.));
#402=DIRECTION('',(0.,0.,1.));
#403=DIRECTION('',(1.,0.,0.));
#404=CARTESIAN_POINT('',(0.,0.,0.));
#405=CARTESIAN_POINT('',(0.0105000082,-0.03675,-0.0224));
#406=CARTESIAN_POINT('',(0.0105000082,-0.03675,0.003));
#407=CARTESIAN_POINT('',(0.0127500082,-0.03675,0.003));
#408=CARTESIAN_POINT('',(0.0105000082,-0.03675,0.));
#409=CARTESIAN_POINT('',(0.0127500082,-0.03675,0.));
#410=CARTESIAN_POINT('',(0.0125,-0.0425,0.0114131876302594));
#411=CARTESIAN_POINT('',(0.0125,-0.0425,0.018));
#412=CARTESIAN_POINT('',(0.0125,-0.0425,0.0053));
#413=CARTESIAN_POINT('',(0.02774,-0.0425,0.009));
#414=CARTESIAN_POINT('',(0.02774,-0.0425,0.0045));
#415=CARTESIAN_POINT('',(0.02774,-0.0425,0.018));
#416=CARTESIAN_POINT('',(-0.00274,-0.0425,0.0045));
#417=CARTESIAN_POINT('',(-0.00274,-0.0425,0.0045));
#418=CARTESIAN_POINT('',(-0.00274,-0.0425,0.009));
#419=CARTESIAN_POINT('',(-0.00274,-0.0425,0.018));
#420=CARTESIAN_POINT('',(0.0125,-0.0425,0.018));
#421=CARTESIAN_POINT('',(0.0125,-0.0495,0.0114131876302594));
#422=CARTESIAN_POINT('',(0.0125,-0.0495,0.018));
#423=CARTESIAN_POINT('',(0.0125,-0.0495,0.0053));
#424=CARTESIAN_POINT('',(-0.00274,-0.0495,0.009));
#425=CARTESIAN_POINT('',(-0.00274,-0.0495,0.0045));
#426=CARTESIAN_POINT('',(-0.00274,-0.0495,0.018));
#427=CARTESIAN_POINT('',(0.02774,-0.0495,0.0045));
#428=CARTESIAN_POINT('',(0.02774,-0.0495,0.0045));
#429=CARTESIAN_POINT('',(0.02774,-0.0495,0.009));
#430=CARTESIAN_POINT('',(0.02774,-0.0495,0.018));
#431=CARTESIAN_POINT('',(0.0125,-0.0495,0.018));
#432=CARTESIAN_POINT('',(-0.00274,-0.0495,0.009));
#433=CARTESIAN_POINT('',(-0.00274,-0.041,0.0045));
#434=CARTESIAN_POINT('',(-0.00274,-0.041,0.003));
#435=CARTESIAN_POINT('',(-0.00274,-0.0325,0.003));
#436=CARTESIAN_POINT('',(-0.00274,-0.0325,0.003));
#437=CARTESIAN_POINT('',(-0.00274,-0.0325,0.0015));
#438=CARTESIAN_POINT('',(-0.00274,-0.0325,0.));
#439=CARTESIAN_POINT('',(-0.00274,-0.0495,0.));
#440=CARTESIAN_POINT('',(-0.00274,-0.0595,0.));
#441=CARTESIAN_POINT('',(-0.00274,-0.0595,0.0015));
#442=CARTESIAN_POINT('',(-0.00274,-0.0595,0.003));
#443=CARTESIAN_POINT('',(-0.00274,-0.0595,0.003));
#444=CARTESIAN_POINT('',(-0.00274,-0.051,0.003));
#445=CARTESIAN_POINT('',(-0.00274,-0.051,0.0045));
#446=CARTESIAN_POINT('',(-0.00274,-0.0495,0.018));
#447=CARTESIAN_POINT('',(0.0125,-0.0495,0.));
#448=CARTESIAN_POINT('',(0.0105000082,-0.05525,0.));
#449=CARTESIAN_POINT('',(0.0127500082,-0.05525,0.));
#450=CARTESIAN_POINT('',(0.0125,-0.0325,0.));
#451=CARTESIAN_POINT('',(0.02774,-0.0325,0.));
#452=CARTESIAN_POINT('',(0.02774,-0.0495,0.));
#453=CARTESIAN_POINT('',(0.02774,-0.0595,0.));
#454=CARTESIAN_POINT('',(0.0125,-0.0595,0.));
#455=CARTESIAN_POINT('',(0.02774,-0.0495,0.009));
#456=CARTESIAN_POINT('',(0.02774,-0.0325,0.0015));
#457=CARTESIAN_POINT('',(0.02774,-0.0325,0.003));
#458=CARTESIAN_POINT('',(0.02774,-0.0325,0.003));
#459=CARTESIAN_POINT('',(0.02774,-0.041,0.003));
#460=CARTESIAN_POINT('',(0.02774,-0.041,0.0045));
#461=CARTESIAN_POINT('',(0.02774,-0.0495,0.018));
#462=CARTESIAN_POINT('',(0.02774,-0.051,0.0045));
#463=CARTESIAN_POINT('',(0.02774,-0.051,0.003));
#464=CARTESIAN_POINT('',(0.02774,-0.0595,0.003));
#465=CARTESIAN_POINT('',(0.02774,-0.0595,0.003));
#466=CARTESIAN_POINT('',(0.02774,-0.0595,0.0015));
#467=CARTESIAN_POINT('',(0.0125,-0.0495,0.018));
#468=CARTESIAN_POINT('',(0.0125,-0.0495,0.018));
#469=CARTESIAN_POINT('',(0.0125,-0.0595,0.003));
#470=CARTESIAN_POINT('',(0.0105000082,-0.05525,0.003));
#471=CARTESIAN_POINT('',(0.0127500082,-0.05525,0.003));
#472=CARTESIAN_POINT('',(-0.00274,-0.051,0.003));
#473=CARTESIAN_POINT('',(0.0125,-0.0595,0.003));
#474=CARTESIAN_POINT('',(0.0125,-0.0595,0.0015));
#475=CARTESIAN_POINT('',(0.0125,-0.0325,0.003));
#476=CARTESIAN_POINT('',(0.02774,-0.041,0.003));
#477=CARTESIAN_POINT('',(0.0125,-0.0325,0.003));
#478=CARTESIAN_POINT('',(0.0125,-0.0325,0.0015));
#479=CARTESIAN_POINT('',(0.0125,-0.041,0.0045));
#480=CARTESIAN_POINT('',(0.0125,-0.051,0.0045));
#481=CARTESIAN_POINT('',(0.0105000082,-0.05525,-0.0224));
#482=MECHANICAL_DESIGN_GEOMETRIC_PRESENTATION_REPRESENTATION('',(#285),
#483);
#483=(
GEOMETRIC_REPRESENTATION_CONTEXT(3)
GLOBAL_UNCERTAINTY_ASSIGNED_CONTEXT((#484))
GLOBAL_UNIT_ASSIGNED_CONTEXT((#487,#486,#485))
REPRESENTATION_CONTEXT('Part 2','TOP_LEVEL_ASSEMBLY_PART')
);
#484=UNCERTAINTY_MEASURE_WITH_UNIT(LENGTH_MEASURE(1.E-8),#487,
'DISTANCE_ACCURACY_VALUE','Maximum Tolerance applied to model');
#485=(
NAMED_UNIT(*)
SI_UNIT($,.STERADIAN.)
SOLID_ANGLE_UNIT()
);
#486=(
NAMED_UNIT(*)
PLANE_ANGLE_UNIT()
SI_UNIT($,.RADIAN.)
);
#487=(
LENGTH_UNIT()
NAMED_UNIT(*)
SI_UNIT($,.METRE.)
);
#488=PRODUCT_DEFINITION_SHAPE('','',#489);
#489=PRODUCT_DEFINITION('','',#491,#490);
#490=PRODUCT_DEFINITION_CONTEXT('',#497,'design');
#491=PRODUCT_DEFINITION_FORMATION_WITH_SPECIFIED_SOURCE('','',#493,
 .NOT_KNOWN.);
#492=PRODUCT_RELATED_PRODUCT_CATEGORY('','',(#493));
#493=PRODUCT('Part 2','Part 2','Part 2',(#495));
#494=PRODUCT_CATEGORY('','');
#495=PRODUCT_CONTEXT('',#497,'mechanical');
#496=APPLICATION_PROTOCOL_DEFINITION('international standard',
'ap242_managed_model_based_3d_engineering',2020,#497);
#497=APPLICATION_CONTEXT('managed model based 3d engineering');
ENDSEC;
END-ISO-10303-21;
