ISO-10303-21;
HEADER;
/* Generated by software containing ST-Developer
 * from STEP Tools, Inc. (www.steptools.com) 
 */
/* OPTION: using custom renumber hook */

FILE_DESCRIPTION(
/* description */ ('STEP AP242 Edition 2',
'CAx-IF Rec.Pracs.---Representation and Presentation of Product Manufa
cturing Information (PMI)---4.0---2014-10-13',
'CAx-IF Rec.Pracs.---3D Tessellated Geometry---0.4---2014-09-14','2;1',
'CAx-IF Rec.Pracs.---User Defined Attributes---1.5---2016-08-15'),
/* implementation_level */ '2;1');

FILE_NAME(
/* name */ 'Part Studio 2',
/* time_stamp */ '2026-08-30T22:51:15Z',
/* author */ (''),
/* organization */ (''),
/* preprocessor_version */ 'ST-DEVELOPER v20',
/* originating_system */ 'ONSHAPE BY PTC INC, 1.220',
/* authorisation */ '  ');

FILE_SCHEMA (('AP242_MANAGED_MODEL_BASED_3D_ENGINEERING_MIM_LF { 1 0 10303 442 3 1 4 }'));
ENDSEC;

DATA;
#10=SHAPE_REPRESENTATION_RELATIONSHIP('','',#744,#12);
#11=SHAPE_REPRESENTATION_RELATIONSHIP('','',#745,#13);
#12=ADVANCED_BREP_SHAPE_REPRESENTATION('',(#740),#1344);
#13=ADVANCED_BREP_SHAPE_REPRESENTATION('',(#741),#1345);
#14=B_SPLINE_SURFACE_WITH_KNOTS('',3,1,((#1158,#1159),(#1160,#1161),(#1162,
#1163),(#1164,#1165)),.SURF_OF_LINEAR_EXTRUSION.,.F.,.F.,.F.,(4,4),(2,2),
(0.,1.),(0.,1.),.PIECEWISE_BEZIER_KNOTS.);
#15=B_SPLINE_SURFACE_WITH_KNOTS('',3,1,((#1170,#1171),(#1172,#1173),(#1174,
#1175),(#1176,#1177)),.SURF_OF_LINEAR_EXTRUSION.,.F.,.F.,.F.,(4,4),(2,2),
(0.,0.995148674462453),(0.,1.),.PIECEWISE_BEZIER_KNOTS.);
#16=B_SPLINE_SURFACE_WITH_KNOTS('',3,1,((#1312,#1313),(#1314,#1315),(#1316,
#1317),(#1318,#1319)),.SURF_OF_LINEAR_EXTRUSION.,.F.,.F.,.F.,(4,4),(2,2),
(0.,0.995148674462453),(0.,1.),.PIECEWISE_BEZIER_KNOTS.);
#17=B_SPLINE_SURFACE_WITH_KNOTS('',3,1,((#1324,#1325),(#1326,#1327),(#1328,
#1329),(#1330,#1331)),.SURF_OF_LINEAR_EXTRUSION.,.F.,.F.,.F.,(4,4),(2,2),
(0.,1.),(0.,1.),.PIECEWISE_BEZIER_KNOTS.);
#18=B_SPLINE_CURVE_WITH_KNOTS('',3,(#1048,#1049,#1050,#1051,#1052,#1053,
#1054),.UNSPECIFIED.,.F.,.F.,(4,1,1,1,4),(0.,0.000544913692370036,0.00108982738474007,
0.00163474107711011,0.00217965476948015),.UNSPECIFIED.);
#19=B_SPLINE_CURVE_WITH_KNOTS('',3,(#1066,#1067,#1068,#1069,#1070,#1071,
#1072),.UNSPECIFIED.,.F.,.F.,(4,1,1,1,4),(0.,0.000539941521771294,0.00107988304354259,
0.00161982456531388,0.00215976608708518),.UNSPECIFIED.);
#20=B_SPLINE_CURVE_WITH_KNOTS('',3,(#1084,#1085,#1086,#1087,#1088,#1089,
#1090),.UNSPECIFIED.,.F.,.F.,(4,1,1,1,4),(0.,0.000544913692370035,0.00108982738474007,
0.00163474107711011,0.00217965476948014),.UNSPECIFIED.);
#21=B_SPLINE_CURVE_WITH_KNOTS('',3,(#1099,#1100,#1101,#1102,#1103,#1104,
#1105),.UNSPECIFIED.,.F.,.F.,(4,1,1,1,4),(0.,0.000539941521771294,0.00107988304354259,
0.00161982456531388,0.00215976608708518),.UNSPECIFIED.);
#22=B_SPLINE_CURVE_WITH_KNOTS('',3,(#1131,#1132,#1133,#1134),
 .UNSPECIFIED.,.F.,.F.,(4,4),(0.,1.),.PIECEWISE_BEZIER_KNOTS.);
#23=B_SPLINE_CURVE_WITH_KNOTS('',3,(#1138,#1139,#1140,#1141),
 .UNSPECIFIED.,.F.,.F.,(4,4),(0.,0.995148674462453),
 .PIECEWISE_BEZIER_KNOTS.);
#24=B_SPLINE_CURVE_WITH_KNOTS('',3,(#1145,#1146,#1147,#1148),
 .UNSPECIFIED.,.F.,.F.,(4,4),(0.,0.995148674462453),
 .PIECEWISE_BEZIER_KNOTS.);
#25=B_SPLINE_CURVE_WITH_KNOTS('',3,(#1152,#1153,#1154,#1155),
 .UNSPECIFIED.,.F.,.F.,(4,4),(0.,1.),.PIECEWISE_BEZIER_KNOTS.);
#26=B_SPLINE_CURVE_WITH_KNOTS('',3,(#1203,#1204,#1205,#1206,#1207,#1208,
#1209),.UNSPECIFIED.,.F.,.F.,(4,1,1,1,4),(0.,0.000544913692370036,0.00108982738474007,
0.00163474107711011,0.00217965476948015),.UNSPECIFIED.);
#27=B_SPLINE_CURVE_WITH_KNOTS('',3,(#1221,#1222,#1223,#1224,#1225,#1226,
#1227),.UNSPECIFIED.,.F.,.F.,(4,1,1,1,4),(0.,0.000539941521771294,0.00107988304354259,
0.00161982456531388,0.00215976608708518),.UNSPECIFIED.);
#28=B_SPLINE_CURVE_WITH_KNOTS('',3,(#1239,#1240,#1241,#1242,#1243,#1244,
#1245),.UNSPECIFIED.,.F.,.F.,(4,1,1,1,4),(0.,0.000544913692370035,0.00108982738474007,
0.00163474107711011,0.00217965476948014),.UNSPECIFIED.);
#29=B_SPLINE_CURVE_WITH_KNOTS('',3,(#1254,#1255,#1256,#1257,#1258,#1259,
#1260),.UNSPECIFIED.,.F.,.F.,(4,1,1,1,4),(0.,0.000539941521771294,0.00107988304354259,
0.00161982456531388,0.00215976608708518),.UNSPECIFIED.);
#30=B_SPLINE_CURVE_WITH_KNOTS('',3,(#1285,#1286,#1287,#1288),
 .UNSPECIFIED.,.F.,.F.,(4,4),(0.,0.995148674462453),
 .PIECEWISE_BEZIER_KNOTS.);
#31=B_SPLINE_CURVE_WITH_KNOTS('',3,(#1292,#1293,#1294,#1295),
 .UNSPECIFIED.,.F.,.F.,(4,4),(0.,1.),.PIECEWISE_BEZIER_KNOTS.);
#32=B_SPLINE_CURVE_WITH_KNOTS('',3,(#1299,#1300,#1301,#1302),
 .UNSPECIFIED.,.F.,.F.,(4,4),(0.,1.),.PIECEWISE_BEZIER_KNOTS.);
#33=B_SPLINE_CURVE_WITH_KNOTS('',3,(#1306,#1307,#1308,#1309),
 .UNSPECIFIED.,.F.,.F.,(4,4),(0.,0.995148674462453),
 .PIECEWISE_BEZIER_KNOTS.);
#34=CYLINDRICAL_SURFACE('',#749,0.001);
#35=CYLINDRICAL_SURFACE('',#752,0.001);
#36=CYLINDRICAL_SURFACE('',#756,0.001);
#37=CYLINDRICAL_SURFACE('',#759,0.001);
#38=CYLINDRICAL_SURFACE('',#763,0.00245);
#39=CYLINDRICAL_SURFACE('',#767,0.00375);
#40=CYLINDRICAL_SURFACE('',#770,0.00175);
#41=CYLINDRICAL_SURFACE('',#779,0.00374999999993992);
#42=CYLINDRICAL_SURFACE('',#780,0.00175);
#43=CYLINDRICAL_SURFACE('',#784,0.00165);
#44=CYLINDRICAL_SURFACE('',#787,0.00155);
#45=CYLINDRICAL_SURFACE('',#791,0.001);
#46=CYLINDRICAL_SURFACE('',#794,0.001);
#47=CYLINDRICAL_SURFACE('',#798,0.001);
#48=CYLINDRICAL_SURFACE('',#801,0.001);
#49=CYLINDRICAL_SURFACE('',#805,0.00245);
#50=CYLINDRICAL_SURFACE('',#809,0.00375);
#51=CYLINDRICAL_SURFACE('',#812,0.00175);
#52=CYLINDRICAL_SURFACE('',#821,0.00175);
#53=CYLINDRICAL_SURFACE('',#822,0.00374999999993992);
#54=CYLINDRICAL_SURFACE('',#826,0.00165);
#55=CYLINDRICAL_SURFACE('',#829,0.00155);
#56=CIRCLE('',#748,0.00375);
#57=CIRCLE('',#750,0.001);
#58=CIRCLE('',#753,0.001);
#59=CIRCLE('',#755,0.00375);
#60=CIRCLE('',#757,0.001);
#61=CIRCLE('',#760,0.001);
#62=CIRCLE('',#762,0.00245);
#63=CIRCLE('',#764,0.00245);
#64=CIRCLE('',#766,0.00165);
#65=CIRCLE('',#768,0.00375);
#66=CIRCLE('',#769,0.00375);
#67=CIRCLE('',#771,0.00175);
#68=CIRCLE('',#772,0.00175);
#69=CIRCLE('',#774,0.00374999999993992);
#70=CIRCLE('',#775,0.00175);
#71=CIRCLE('',#777,0.00374999999993992);
#72=CIRCLE('',#778,0.00175);
#73=CIRCLE('',#782,0.00165);
#74=CIRCLE('',#783,0.00155);
#75=CIRCLE('',#786,0.00155);
#76=CIRCLE('',#790,0.00375);
#77=CIRCLE('',#792,0.001);
#78=CIRCLE('',#795,0.001);
#79=CIRCLE('',#797,0.00375);
#80=CIRCLE('',#799,0.001);
#81=CIRCLE('',#802,0.001);
#82=CIRCLE('',#804,0.00245);
#83=CIRCLE('',#806,0.00245);
#84=CIRCLE('',#808,0.00165);
#85=CIRCLE('',#810,0.00375);
#86=CIRCLE('',#811,0.00375);
#87=CIRCLE('',#813,0.00175);
#88=CIRCLE('',#814,0.00175);
#89=CIRCLE('',#816,0.00374999999993992);
#90=CIRCLE('',#817,0.00175);
#91=CIRCLE('',#819,0.00374999999993992);
#92=CIRCLE('',#820,0.00175);
#93=CIRCLE('',#824,0.00165);
#94=CIRCLE('',#825,0.00155);
#95=CIRCLE('',#828,0.00155);
#96=ORIENTED_EDGE('',*,*,#280,.F.);
#97=ORIENTED_EDGE('',*,*,#281,.T.);
#98=ORIENTED_EDGE('',*,*,#282,.T.);
#99=ORIENTED_EDGE('',*,*,#283,.T.);
#100=ORIENTED_EDGE('',*,*,#284,.F.);
#101=ORIENTED_EDGE('',*,*,#285,.T.);
#102=ORIENTED_EDGE('',*,*,#280,.T.);
#103=ORIENTED_EDGE('',*,*,#286,.T.);
#104=ORIENTED_EDGE('',*,*,#287,.F.);
#105=ORIENTED_EDGE('',*,*,#288,.T.);
#106=ORIENTED_EDGE('',*,*,#284,.T.);
#107=ORIENTED_EDGE('',*,*,#289,.T.);
#108=ORIENTED_EDGE('',*,*,#290,.F.);
#109=ORIENTED_EDGE('',*,*,#291,.T.);
#110=ORIENTED_EDGE('',*,*,#287,.T.);
#111=ORIENTED_EDGE('',*,*,#292,.T.);
#112=ORIENTED_EDGE('',*,*,#293,.F.);
#113=ORIENTED_EDGE('',*,*,#290,.T.);
#114=ORIENTED_EDGE('',*,*,#294,.F.);
#115=ORIENTED_EDGE('',*,*,#295,.F.);
#116=ORIENTED_EDGE('',*,*,#296,.F.);
#117=ORIENTED_EDGE('',*,*,#297,.T.);
#118=ORIENTED_EDGE('',*,*,#295,.T.);
#119=ORIENTED_EDGE('',*,*,#298,.T.);
#120=ORIENTED_EDGE('',*,*,#299,.F.);
#121=ORIENTED_EDGE('',*,*,#296,.T.);
#122=ORIENTED_EDGE('',*,*,#300,.F.);
#123=ORIENTED_EDGE('',*,*,#301,.F.);
#124=ORIENTED_EDGE('',*,*,#282,.F.);
#125=ORIENTED_EDGE('',*,*,#302,.T.);
#126=ORIENTED_EDGE('',*,*,#301,.T.);
#127=ORIENTED_EDGE('',*,*,#303,.T.);
#128=ORIENTED_EDGE('',*,*,#304,.F.);
#129=ORIENTED_EDGE('',*,*,#283,.F.);
#130=ORIENTED_EDGE('',*,*,#303,.F.);
#131=ORIENTED_EDGE('',*,*,#300,.T.);
#132=ORIENTED_EDGE('',*,*,#298,.F.);
#133=ORIENTED_EDGE('',*,*,#294,.T.);
#134=ORIENTED_EDGE('',*,*,#292,.F.);
#135=ORIENTED_EDGE('',*,*,#289,.F.);
#136=ORIENTED_EDGE('',*,*,#286,.F.);
#137=ORIENTED_EDGE('',*,*,#305,.F.);
#138=ORIENTED_EDGE('',*,*,#304,.T.);
#139=ORIENTED_EDGE('',*,*,#306,.F.);
#140=ORIENTED_EDGE('',*,*,#305,.T.);
#141=ORIENTED_EDGE('',*,*,#307,.F.);
#142=ORIENTED_EDGE('',*,*,#308,.F.);
#143=ORIENTED_EDGE('',*,*,#309,.T.);
#144=ORIENTED_EDGE('',*,*,#310,.F.);
#145=ORIENTED_EDGE('',*,*,#299,.T.);
#146=ORIENTED_EDGE('',*,*,#302,.F.);
#147=ORIENTED_EDGE('',*,*,#281,.F.);
#148=ORIENTED_EDGE('',*,*,#285,.F.);
#149=ORIENTED_EDGE('',*,*,#288,.F.);
#150=ORIENTED_EDGE('',*,*,#291,.F.);
#151=ORIENTED_EDGE('',*,*,#293,.T.);
#152=ORIENTED_EDGE('',*,*,#297,.F.);
#153=ORIENTED_EDGE('',*,*,#311,.T.);
#154=ORIENTED_EDGE('',*,*,#312,.T.);
#155=ORIENTED_EDGE('',*,*,#312,.F.);
#156=ORIENTED_EDGE('',*,*,#310,.T.);
#157=ORIENTED_EDGE('',*,*,#313,.F.);
#158=ORIENTED_EDGE('',*,*,#314,.T.);
#159=ORIENTED_EDGE('',*,*,#315,.F.);
#160=ORIENTED_EDGE('',*,*,#316,.F.);
#161=ORIENTED_EDGE('',*,*,#308,.T.);
#162=ORIENTED_EDGE('',*,*,#317,.F.);
#163=ORIENTED_EDGE('',*,*,#318,.T.);
#164=ORIENTED_EDGE('',*,*,#319,.F.);
#165=ORIENTED_EDGE('',*,*,#311,.F.);
#166=ORIENTED_EDGE('',*,*,#320,.F.);
#167=ORIENTED_EDGE('',*,*,#309,.F.);
#168=ORIENTED_EDGE('',*,*,#319,.T.);
#169=ORIENTED_EDGE('',*,*,#321,.T.);
#170=ORIENTED_EDGE('',*,*,#313,.T.);
#171=ORIENTED_EDGE('',*,*,#318,.F.);
#172=ORIENTED_EDGE('',*,*,#322,.T.);
#173=ORIENTED_EDGE('',*,*,#314,.F.);
#174=ORIENTED_EDGE('',*,*,#321,.F.);
#175=ORIENTED_EDGE('',*,*,#320,.T.);
#176=ORIENTED_EDGE('',*,*,#316,.T.);
#177=ORIENTED_EDGE('',*,*,#322,.F.);
#178=ORIENTED_EDGE('',*,*,#317,.T.);
#179=ORIENTED_EDGE('',*,*,#307,.T.);
#180=ORIENTED_EDGE('',*,*,#315,.T.);
#181=ORIENTED_EDGE('',*,*,#323,.T.);
#182=ORIENTED_EDGE('',*,*,#324,.T.);
#183=ORIENTED_EDGE('',*,*,#323,.F.);
#184=ORIENTED_EDGE('',*,*,#306,.T.);
#185=ORIENTED_EDGE('',*,*,#325,.T.);
#186=ORIENTED_EDGE('',*,*,#325,.F.);
#187=ORIENTED_EDGE('',*,*,#324,.F.);
#188=ORIENTED_EDGE('',*,*,#326,.T.);
#189=ORIENTED_EDGE('',*,*,#327,.F.);
#190=ORIENTED_EDGE('',*,*,#328,.F.);
#191=ORIENTED_EDGE('',*,*,#329,.F.);
#192=ORIENTED_EDGE('',*,*,#330,.T.);
#193=ORIENTED_EDGE('',*,*,#331,.F.);
#194=ORIENTED_EDGE('',*,*,#326,.F.);
#195=ORIENTED_EDGE('',*,*,#332,.F.);
#196=ORIENTED_EDGE('',*,*,#333,.T.);
#197=ORIENTED_EDGE('',*,*,#334,.F.);
#198=ORIENTED_EDGE('',*,*,#330,.F.);
#199=ORIENTED_EDGE('',*,*,#335,.F.);
#200=ORIENTED_EDGE('',*,*,#336,.T.);
#201=ORIENTED_EDGE('',*,*,#337,.F.);
#202=ORIENTED_EDGE('',*,*,#333,.F.);
#203=ORIENTED_EDGE('',*,*,#338,.F.);
#204=ORIENTED_EDGE('',*,*,#339,.T.);
#205=ORIENTED_EDGE('',*,*,#340,.T.);
#206=ORIENTED_EDGE('',*,*,#341,.T.);
#207=ORIENTED_EDGE('',*,*,#336,.F.);
#208=ORIENTED_EDGE('',*,*,#342,.T.);
#209=ORIENTED_EDGE('',*,*,#343,.F.);
#210=ORIENTED_EDGE('',*,*,#340,.F.);
#211=ORIENTED_EDGE('',*,*,#344,.F.);
#212=ORIENTED_EDGE('',*,*,#345,.T.);
#213=ORIENTED_EDGE('',*,*,#346,.T.);
#214=ORIENTED_EDGE('',*,*,#347,.T.);
#215=ORIENTED_EDGE('',*,*,#342,.F.);
#216=ORIENTED_EDGE('',*,*,#328,.T.);
#217=ORIENTED_EDGE('',*,*,#348,.F.);
#218=ORIENTED_EDGE('',*,*,#346,.F.);
#219=ORIENTED_EDGE('',*,*,#349,.F.);
#220=ORIENTED_EDGE('',*,*,#350,.T.);
#221=ORIENTED_EDGE('',*,*,#327,.T.);
#222=ORIENTED_EDGE('',*,*,#331,.T.);
#223=ORIENTED_EDGE('',*,*,#334,.T.);
#224=ORIENTED_EDGE('',*,*,#337,.T.);
#225=ORIENTED_EDGE('',*,*,#341,.F.);
#226=ORIENTED_EDGE('',*,*,#343,.T.);
#227=ORIENTED_EDGE('',*,*,#347,.F.);
#228=ORIENTED_EDGE('',*,*,#348,.T.);
#229=ORIENTED_EDGE('',*,*,#351,.T.);
#230=ORIENTED_EDGE('',*,*,#350,.F.);
#231=ORIENTED_EDGE('',*,*,#352,.T.);
#232=ORIENTED_EDGE('',*,*,#351,.F.);
#233=ORIENTED_EDGE('',*,*,#353,.T.);
#234=ORIENTED_EDGE('',*,*,#354,.T.);
#235=ORIENTED_EDGE('',*,*,#355,.F.);
#236=ORIENTED_EDGE('',*,*,#356,.T.);
#237=ORIENTED_EDGE('',*,*,#345,.F.);
#238=ORIENTED_EDGE('',*,*,#344,.T.);
#239=ORIENTED_EDGE('',*,*,#339,.F.);
#240=ORIENTED_EDGE('',*,*,#338,.T.);
#241=ORIENTED_EDGE('',*,*,#335,.T.);
#242=ORIENTED_EDGE('',*,*,#332,.T.);
#243=ORIENTED_EDGE('',*,*,#329,.T.);
#244=ORIENTED_EDGE('',*,*,#349,.T.);
#245=ORIENTED_EDGE('',*,*,#357,.F.);
#246=ORIENTED_EDGE('',*,*,#358,.F.);
#247=ORIENTED_EDGE('',*,*,#358,.T.);
#248=ORIENTED_EDGE('',*,*,#354,.F.);
#249=ORIENTED_EDGE('',*,*,#359,.T.);
#250=ORIENTED_EDGE('',*,*,#360,.F.);
#251=ORIENTED_EDGE('',*,*,#361,.T.);
#252=ORIENTED_EDGE('',*,*,#362,.T.);
#253=ORIENTED_EDGE('',*,*,#356,.F.);
#254=ORIENTED_EDGE('',*,*,#363,.T.);
#255=ORIENTED_EDGE('',*,*,#364,.F.);
#256=ORIENTED_EDGE('',*,*,#365,.T.);
#257=ORIENTED_EDGE('',*,*,#357,.T.);
#258=ORIENTED_EDGE('',*,*,#366,.T.);
#259=ORIENTED_EDGE('',*,*,#367,.T.);
#260=ORIENTED_EDGE('',*,*,#359,.F.);
#261=ORIENTED_EDGE('',*,*,#353,.F.);
#262=ORIENTED_EDGE('',*,*,#365,.F.);
#263=ORIENTED_EDGE('',*,*,#366,.F.);
#264=ORIENTED_EDGE('',*,*,#362,.F.);
#265=ORIENTED_EDGE('',*,*,#364,.T.);
#266=ORIENTED_EDGE('',*,*,#368,.T.);
#267=ORIENTED_EDGE('',*,*,#360,.T.);
#268=ORIENTED_EDGE('',*,*,#367,.F.);
#269=ORIENTED_EDGE('',*,*,#355,.T.);
#270=ORIENTED_EDGE('',*,*,#361,.F.);
#271=ORIENTED_EDGE('',*,*,#368,.F.);
#272=ORIENTED_EDGE('',*,*,#363,.F.);
#273=ORIENTED_EDGE('',*,*,#369,.F.);
#274=ORIENTED_EDGE('',*,*,#370,.F.);
#275=ORIENTED_EDGE('',*,*,#369,.T.);
#276=ORIENTED_EDGE('',*,*,#352,.F.);
#277=ORIENTED_EDGE('',*,*,#371,.F.);
#278=ORIENTED_EDGE('',*,*,#371,.T.);
#279=ORIENTED_EDGE('',*,*,#370,.T.);
#280=EDGE_CURVE('',#372,#373,#440,.T.);
#281=EDGE_CURVE('',#372,#374,#56,.T.);
#282=EDGE_CURVE('',#374,#375,#441,.T.);
#283=EDGE_CURVE('',#375,#373,#442,.T.);
#284=EDGE_CURVE('',#376,#377,#443,.T.);
#285=EDGE_CURVE('',#376,#372,#18,.T.);
#286=EDGE_CURVE('',#373,#377,#57,.T.);
#287=EDGE_CURVE('',#378,#379,#444,.T.);
#288=EDGE_CURVE('',#378,#376,#445,.T.);
#289=EDGE_CURVE('',#377,#379,#446,.T.);
#290=EDGE_CURVE('',#380,#381,#447,.T.);
#291=EDGE_CURVE('',#380,#378,#19,.T.);
#292=EDGE_CURVE('',#379,#381,#58,.T.);
#293=EDGE_CURVE('',#380,#382,#59,.T.);
#294=EDGE_CURVE('',#383,#381,#448,.T.);
#295=EDGE_CURVE('',#382,#383,#449,.T.);
#296=EDGE_CURVE('',#384,#385,#450,.T.);
#297=EDGE_CURVE('',#384,#382,#20,.T.);
#298=EDGE_CURVE('',#383,#385,#60,.T.);
#299=EDGE_CURVE('',#384,#386,#451,.T.);
#300=EDGE_CURVE('',#387,#385,#452,.T.);
#301=EDGE_CURVE('',#386,#387,#453,.T.);
#302=EDGE_CURVE('',#374,#386,#21,.T.);
#303=EDGE_CURVE('',#387,#375,#61,.T.);
#304=EDGE_CURVE('',#388,#388,#62,.F.);
#305=EDGE_CURVE('',#389,#389,#63,.T.);
#306=EDGE_CURVE('',#390,#390,#64,.T.);
#307=EDGE_CURVE('',#391,#392,#454,.T.);
#308=EDGE_CURVE('',#393,#391,#65,.F.);
#309=EDGE_CURVE('',#393,#394,#455,.T.);
#310=EDGE_CURVE('',#392,#394,#66,.T.);
#311=EDGE_CURVE('',#395,#395,#67,.F.);
#312=EDGE_CURVE('',#396,#396,#68,.T.);
#313=EDGE_CURVE('',#397,#394,#22,.T.);
#314=EDGE_CURVE('',#397,#398,#69,.T.);
#315=EDGE_CURVE('',#392,#398,#23,.T.);
#316=EDGE_CURVE('',#399,#399,#70,.T.);
#317=EDGE_CURVE('',#400,#391,#24,.F.);
#318=EDGE_CURVE('',#400,#401,#71,.F.);
#319=EDGE_CURVE('',#393,#401,#25,.F.);
#320=EDGE_CURVE('',#402,#402,#72,.F.);
#321=EDGE_CURVE('',#401,#397,#456,.T.);
#322=EDGE_CURVE('',#400,#398,#457,.T.);
#323=EDGE_CURVE('',#403,#403,#73,.T.);
#324=EDGE_CURVE('',#404,#404,#74,.F.);
#325=EDGE_CURVE('',#405,#405,#75,.F.);
#326=EDGE_CURVE('',#406,#407,#458,.T.);
#327=EDGE_CURVE('',#408,#407,#459,.T.);
#328=EDGE_CURVE('',#409,#408,#460,.T.);
#329=EDGE_CURVE('',#406,#409,#76,.T.);
#330=EDGE_CURVE('',#410,#411,#461,.T.);
#331=EDGE_CURVE('',#407,#411,#77,.T.);
#332=EDGE_CURVE('',#410,#406,#26,.T.);
#333=EDGE_CURVE('',#412,#413,#462,.T.);
#334=EDGE_CURVE('',#411,#413,#463,.T.);
#335=EDGE_CURVE('',#412,#410,#464,.T.);
#336=EDGE_CURVE('',#414,#415,#465,.T.);
#337=EDGE_CURVE('',#413,#415,#78,.T.);
#338=EDGE_CURVE('',#414,#412,#27,.T.);
#339=EDGE_CURVE('',#414,#416,#79,.T.);
#340=EDGE_CURVE('',#416,#417,#466,.T.);
#341=EDGE_CURVE('',#417,#415,#467,.T.);
#342=EDGE_CURVE('',#418,#419,#468,.T.);
#343=EDGE_CURVE('',#417,#419,#80,.T.);
#344=EDGE_CURVE('',#418,#416,#28,.T.);
#345=EDGE_CURVE('',#418,#420,#469,.T.);
#346=EDGE_CURVE('',#420,#421,#470,.T.);
#347=EDGE_CURVE('',#421,#419,#471,.T.);
#348=EDGE_CURVE('',#421,#408,#81,.T.);
#349=EDGE_CURVE('',#409,#420,#29,.T.);
#350=EDGE_CURVE('',#422,#422,#82,.F.);
#351=EDGE_CURVE('',#423,#423,#83,.T.);
#352=EDGE_CURVE('',#424,#424,#84,.T.);
#353=EDGE_CURVE('',#425,#426,#472,.T.);
#354=EDGE_CURVE('',#426,#427,#85,.T.);
#355=EDGE_CURVE('',#428,#427,#473,.T.);
#356=EDGE_CURVE('',#428,#425,#86,.F.);
#357=EDGE_CURVE('',#429,#429,#87,.F.);
#358=EDGE_CURVE('',#430,#430,#88,.T.);
#359=EDGE_CURVE('',#426,#431,#30,.T.);
#360=EDGE_CURVE('',#432,#431,#89,.T.);
#361=EDGE_CURVE('',#432,#427,#31,.T.);
#362=EDGE_CURVE('',#433,#433,#90,.T.);
#363=EDGE_CURVE('',#428,#434,#32,.F.);
#364=EDGE_CURVE('',#435,#434,#91,.F.);
#365=EDGE_CURVE('',#435,#425,#33,.F.);
#366=EDGE_CURVE('',#436,#436,#92,.F.);
#367=EDGE_CURVE('',#435,#431,#474,.T.);
#368=EDGE_CURVE('',#434,#432,#475,.T.);
#369=EDGE_CURVE('',#437,#437,#93,.T.);
#370=EDGE_CURVE('',#438,#438,#94,.F.);
#371=EDGE_CURVE('',#439,#439,#95,.F.);
#372=VERTEX_POINT('',#1037);
#373=VERTEX_POINT('',#1038);
#374=VERTEX_POINT('',#1040);
#375=VERTEX_POINT('',#1042);
#376=VERTEX_POINT('',#1046);
#377=VERTEX_POINT('',#1047);
#378=VERTEX_POINT('',#1058);
#379=VERTEX_POINT('',#1059);
#380=VERTEX_POINT('',#1064);
#381=VERTEX_POINT('',#1065);
#382=VERTEX_POINT('',#1076);
#383=VERTEX_POINT('',#1078);
#384=VERTEX_POINT('',#1082);
#385=VERTEX_POINT('',#1083);
#386=VERTEX_POINT('',#1094);
#387=VERTEX_POINT('',#1096);
#388=VERTEX_POINT('',#1109);
#389=VERTEX_POINT('',#1112);
#390=VERTEX_POINT('',#1115);
#391=VERTEX_POINT('',#1118);
#392=VERTEX_POINT('',#1119);
#393=VERTEX_POINT('',#1121);
#394=VERTEX_POINT('',#1123);
#395=VERTEX_POINT('',#1127);
#396=VERTEX_POINT('',#1129);
#397=VERTEX_POINT('',#1135);
#398=VERTEX_POINT('',#1137);
#399=VERTEX_POINT('',#1143);
#400=VERTEX_POINT('',#1149);
#401=VERTEX_POINT('',#1151);
#402=VERTEX_POINT('',#1157);
#403=VERTEX_POINT('',#1180);
#404=VERTEX_POINT('',#1182);
#405=VERTEX_POINT('',#1186);
#406=VERTEX_POINT('',#1191);
#407=VERTEX_POINT('',#1192);
#408=VERTEX_POINT('',#1194);
#409=VERTEX_POINT('',#1196);
#410=VERTEX_POINT('',#1200);
#411=VERTEX_POINT('',#1201);
#412=VERTEX_POINT('',#1212);
#413=VERTEX_POINT('',#1213);
#414=VERTEX_POINT('',#1218);
#415=VERTEX_POINT('',#1219);
#416=VERTEX_POINT('',#1230);
#417=VERTEX_POINT('',#1232);
#418=VERTEX_POINT('',#1236);
#419=VERTEX_POINT('',#1237);
#420=VERTEX_POINT('',#1248);
#421=VERTEX_POINT('',#1250);
#422=VERTEX_POINT('',#1263);
#423=VERTEX_POINT('',#1266);
#424=VERTEX_POINT('',#1269);
#425=VERTEX_POINT('',#1272);
#426=VERTEX_POINT('',#1273);
#427=VERTEX_POINT('',#1275);
#428=VERTEX_POINT('',#1277);
#429=VERTEX_POINT('',#1281);
#430=VERTEX_POINT('',#1283);
#431=VERTEX_POINT('',#1289);
#432=VERTEX_POINT('',#1291);
#433=VERTEX_POINT('',#1297);
#434=VERTEX_POINT('',#1303);
#435=VERTEX_POINT('',#1305);
#436=VERTEX_POINT('',#1311);
#437=VERTEX_POINT('',#1334);
#438=VERTEX_POINT('',#1336);
#439=VERTEX_POINT('',#1340);
#440=LINE('',#1036,#476);
#441=LINE('',#1041,#477);
#442=LINE('',#1043,#478);
#443=LINE('',#1045,#479);
#444=LINE('',#1057,#480);
#445=LINE('',#1060,#481);
#446=LINE('',#1061,#482);
#447=LINE('',#1063,#483);
#448=LINE('',#1077,#484);
#449=LINE('',#1079,#485);
#450=LINE('',#1081,#486);
#451=LINE('',#1093,#487);
#452=LINE('',#1095,#488);
#453=LINE('',#1097,#489);
#454=LINE('',#1117,#490);
#455=LINE('',#1122,#491);
#456=LINE('',#1166,#492);
#457=LINE('',#1168,#493);
#458=LINE('',#1190,#494);
#459=LINE('',#1193,#495);
#460=LINE('',#1195,#496);
#461=LINE('',#1199,#497);
#462=LINE('',#1211,#498);
#463=LINE('',#1214,#499);
#464=LINE('',#1215,#500);
#465=LINE('',#1217,#501);
#466=LINE('',#1231,#502);
#467=LINE('',#1233,#503);
#468=LINE('',#1235,#504);
#469=LINE('',#1247,#505);
#470=LINE('',#1249,#506);
#471=LINE('',#1251,#507);
#472=LINE('',#1271,#508);
#473=LINE('',#1276,#509);
#474=LINE('',#1320,#510);
#475=LINE('',#1323,#511);
#476=VECTOR('',#834,1.);
#477=VECTOR('',#837,1.);
#478=VECTOR('',#838,1.);
#479=VECTOR('',#841,1.);
#480=VECTOR('',#846,1.);
#481=VECTOR('',#847,1.);
#482=VECTOR('',#848,1.);
#483=VECTOR('',#851,1.);
#484=VECTOR('',#858,1.);
#485=VECTOR('',#859,1.);
#486=VECTOR('',#862,1.);
#487=VECTOR('',#867,1.);
#488=VECTOR('',#868,1.);
#489=VECTOR('',#869,1.);
#490=VECTOR('',#888,1.);
#491=VECTOR('',#891,1.);
#492=VECTOR('',#912,1.);
#493=VECTOR('',#915,1.);
#494=VECTOR('',#936,1.);
#495=VECTOR('',#937,1.);
#496=VECTOR('',#938,1.);
#497=VECTOR('',#943,1.);
#498=VECTOR('',#948,1.);
#499=VECTOR('',#949,1.);
#500=VECTOR('',#950,1.);
#501=VECTOR('',#953,1.);
#502=VECTOR('',#960,1.);
#503=VECTOR('',#961,1.);
#504=VECTOR('',#964,1.);
#505=VECTOR('',#969,1.);
#506=VECTOR('',#970,1.);
#507=VECTOR('',#971,1.);
#508=VECTOR('',#990,1.);
#509=VECTOR('',#993,1.);
#510=VECTOR('',#1014,1.);
#511=VECTOR('',#1019,1.);
#512=EDGE_LOOP('',(#96,#97,#98,#99));
#513=EDGE_LOOP('',(#100,#101,#102,#103));
#514=EDGE_LOOP('',(#104,#105,#106,#107));
#515=EDGE_LOOP('',(#108,#109,#110,#111));
#516=EDGE_LOOP('',(#112,#113,#114,#115));
#517=EDGE_LOOP('',(#116,#117,#118,#119));
#518=EDGE_LOOP('',(#120,#121,#122,#123));
#519=EDGE_LOOP('',(#124,#125,#126,#127));
#520=EDGE_LOOP('',(#128));
#521=EDGE_LOOP('',(#129,#130,#131,#132,#133,#134,#135,#136));
#522=EDGE_LOOP('',(#137));
#523=EDGE_LOOP('',(#138));
#524=EDGE_LOOP('',(#139));
#525=EDGE_LOOP('',(#140));
#526=EDGE_LOOP('',(#141,#142,#143,#144));
#527=EDGE_LOOP('',(#145,#146,#147,#148,#149,#150,#151,#152));
#528=EDGE_LOOP('',(#153));
#529=EDGE_LOOP('',(#154));
#530=EDGE_LOOP('',(#155));
#531=EDGE_LOOP('',(#156,#157,#158,#159));
#532=EDGE_LOOP('',(#160));
#533=EDGE_LOOP('',(#161,#162,#163,#164));
#534=EDGE_LOOP('',(#165));
#535=EDGE_LOOP('',(#166));
#536=EDGE_LOOP('',(#167,#168,#169,#170));
#537=EDGE_LOOP('',(#171,#172,#173,#174));
#538=EDGE_LOOP('',(#175));
#539=EDGE_LOOP('',(#176));
#540=EDGE_LOOP('',(#177,#178,#179,#180));
#541=EDGE_LOOP('',(#181));
#542=EDGE_LOOP('',(#182));
#543=EDGE_LOOP('',(#183));
#544=EDGE_LOOP('',(#184));
#545=EDGE_LOOP('',(#185));
#546=EDGE_LOOP('',(#186));
#547=EDGE_LOOP('',(#187));
#548=EDGE_LOOP('',(#188,#189,#190,#191));
#549=EDGE_LOOP('',(#192,#193,#194,#195));
#550=EDGE_LOOP('',(#196,#197,#198,#199));
#551=EDGE_LOOP('',(#200,#201,#202,#203));
#552=EDGE_LOOP('',(#204,#205,#206,#207));
#553=EDGE_LOOP('',(#208,#209,#210,#211));
#554=EDGE_LOOP('',(#212,#213,#214,#215));
#555=EDGE_LOOP('',(#216,#217,#218,#219));
#556=EDGE_LOOP('',(#220));
#557=EDGE_LOOP('',(#221,#222,#223,#224,#225,#226,#227,#228));
#558=EDGE_LOOP('',(#229));
#559=EDGE_LOOP('',(#230));
#560=EDGE_LOOP('',(#231));
#561=EDGE_LOOP('',(#232));
#562=EDGE_LOOP('',(#233,#234,#235,#236));
#563=EDGE_LOOP('',(#237,#238,#239,#240,#241,#242,#243,#244));
#564=EDGE_LOOP('',(#245));
#565=EDGE_LOOP('',(#246));
#566=EDGE_LOOP('',(#247));
#567=EDGE_LOOP('',(#248,#249,#250,#251));
#568=EDGE_LOOP('',(#252));
#569=EDGE_LOOP('',(#253,#254,#255,#256));
#570=EDGE_LOOP('',(#257));
#571=EDGE_LOOP('',(#258));
#572=EDGE_LOOP('',(#259,#260,#261,#262));
#573=EDGE_LOOP('',(#263));
#574=EDGE_LOOP('',(#264));
#575=EDGE_LOOP('',(#265,#266,#267,#268));
#576=EDGE_LOOP('',(#269,#270,#271,#272));
#577=EDGE_LOOP('',(#273));
#578=EDGE_LOOP('',(#274));
#579=EDGE_LOOP('',(#275));
#580=EDGE_LOOP('',(#276));
#581=EDGE_LOOP('',(#277));
#582=EDGE_LOOP('',(#278));
#583=EDGE_LOOP('',(#279));
#584=FACE_BOUND('',#512,.T.);
#585=FACE_BOUND('',#513,.T.);
#586=FACE_BOUND('',#514,.T.);
#587=FACE_BOUND('',#515,.T.);
#588=FACE_BOUND('',#516,.T.);
#589=FACE_BOUND('',#517,.T.);
#590=FACE_BOUND('',#518,.T.);
#591=FACE_BOUND('',#519,.T.);
#592=FACE_BOUND('',#520,.T.);
#593=FACE_BOUND('',#521,.T.);
#594=FACE_BOUND('',#522,.T.);
#595=FACE_BOUND('',#523,.T.);
#596=FACE_BOUND('',#524,.T.);
#597=FACE_BOUND('',#525,.T.);
#598=FACE_BOUND('',#526,.T.);
#599=FACE_BOUND('',#527,.T.);
#600=FACE_BOUND('',#528,.T.);
#601=FACE_BOUND('',#529,.T.);
#602=FACE_BOUND('',#530,.T.);
#603=FACE_BOUND('',#531,.T.);
#604=FACE_BOUND('',#532,.T.);
#605=FACE_BOUND('',#533,.T.);
#606=FACE_BOUND('',#534,.T.);
#607=FACE_BOUND('',#535,.T.);
#608=FACE_BOUND('',#536,.T.);
#609=FACE_BOUND('',#537,.T.);
#610=FACE_BOUND('',#538,.T.);
#611=FACE_BOUND('',#539,.T.);
#612=FACE_BOUND('',#540,.T.);
#613=FACE_BOUND('',#541,.T.);
#614=FACE_BOUND('',#542,.T.);
#615=FACE_BOUND('',#543,.T.);
#616=FACE_BOUND('',#544,.T.);
#617=FACE_BOUND('',#545,.T.);
#618=FACE_BOUND('',#546,.T.);
#619=FACE_BOUND('',#547,.T.);
#620=FACE_BOUND('',#548,.T.);
#621=FACE_BOUND('',#549,.T.);
#622=FACE_BOUND('',#550,.T.);
#623=FACE_BOUND('',#551,.T.);
#624=FACE_BOUND('',#552,.T.);
#625=FACE_BOUND('',#553,.T.);
#626=FACE_BOUND('',#554,.T.);
#627=FACE_BOUND('',#555,.T.);
#628=FACE_BOUND('',#556,.T.);
#629=FACE_BOUND('',#557,.T.);
#630=FACE_BOUND('',#558,.T.);
#631=FACE_BOUND('',#559,.T.);
#632=FACE_BOUND('',#560,.T.);
#633=FACE_BOUND('',#561,.T.);
#634=FACE_BOUND('',#562,.T.);
#635=FACE_BOUND('',#563,.T.);
#636=FACE_BOUND('',#564,.T.);
#637=FACE_BOUND('',#565,.T.);
#638=FACE_BOUND('',#566,.T.);
#639=FACE_BOUND('',#567,.T.);
#640=FACE_BOUND('',#568,.T.);
#641=FACE_BOUND('',#569,.T.);
#642=FACE_BOUND('',#570,.T.);
#643=FACE_BOUND('',#571,.T.);
#644=FACE_BOUND('',#572,.T.);
#645=FACE_BOUND('',#573,.T.);
#646=FACE_BOUND('',#574,.T.);
#647=FACE_BOUND('',#575,.T.);
#648=FACE_BOUND('',#576,.T.);
#649=FACE_BOUND('',#577,.T.);
#650=FACE_BOUND('',#578,.T.);
#651=FACE_BOUND('',#579,.T.);
#652=FACE_BOUND('',#580,.T.);
#653=FACE_BOUND('',#581,.T.);
#654=FACE_BOUND('',#582,.T.);
#655=FACE_BOUND('',#583,.T.);
#656=PLANE('',#747);
#657=PLANE('',#751);
#658=PLANE('',#754);
#659=PLANE('',#758);
#660=PLANE('',#761);
#661=PLANE('',#765);
#662=PLANE('',#773);
#663=PLANE('',#776);
#664=PLANE('',#781);
#665=PLANE('',#785);
#666=PLANE('',#789);
#667=PLANE('',#793);
#668=PLANE('',#796);
#669=PLANE('',#800);
#670=PLANE('',#803);
#671=PLANE('',#807);
#672=PLANE('',#815);
#673=PLANE('',#818);
#674=PLANE('',#823);
#675=PLANE('',#827);
#676=ADVANCED_FACE('',(#584),#656,.F.);
#677=ADVANCED_FACE('',(#585),#34,.T.);
#678=ADVANCED_FACE('',(#586),#657,.F.);
#679=ADVANCED_FACE('',(#587),#35,.T.);
#680=ADVANCED_FACE('',(#588),#658,.T.);
#681=ADVANCED_FACE('',(#589),#36,.T.);
#682=ADVANCED_FACE('',(#590),#659,.T.);
#683=ADVANCED_FACE('',(#591),#37,.T.);
#684=ADVANCED_FACE('',(#592,#593),#660,.F.);
#685=ADVANCED_FACE('',(#594,#595),#38,.T.);
#686=ADVANCED_FACE('',(#596,#597),#661,.T.);
#687=ADVANCED_FACE('',(#598,#599),#39,.T.);
#688=ADVANCED_FACE('',(#600,#601),#40,.F.);
#689=ADVANCED_FACE('',(#602,#603,#604),#662,.T.);
#690=ADVANCED_FACE('',(#605,#606,#607),#663,.F.);
#691=ADVANCED_FACE('',(#608),#14,.F.);
#692=ADVANCED_FACE('',(#609),#41,.T.);
#693=ADVANCED_FACE('',(#610,#611),#42,.F.);
#694=ADVANCED_FACE('',(#612),#15,.F.);
#695=ADVANCED_FACE('',(#613,#614),#664,.T.);
#696=ADVANCED_FACE('',(#615,#616),#43,.F.);
#697=ADVANCED_FACE('',(#617),#665,.F.);
#698=ADVANCED_FACE('',(#618,#619),#44,.F.);
#699=ADVANCED_FACE('',(#620),#666,.F.);
#700=ADVANCED_FACE('',(#621),#45,.T.);
#701=ADVANCED_FACE('',(#622),#667,.F.);
#702=ADVANCED_FACE('',(#623),#46,.T.);
#703=ADVANCED_FACE('',(#624),#668,.T.);
#704=ADVANCED_FACE('',(#625),#47,.T.);
#705=ADVANCED_FACE('',(#626),#669,.T.);
#706=ADVANCED_FACE('',(#627),#48,.T.);
#707=ADVANCED_FACE('',(#628,#629),#670,.F.);
#708=ADVANCED_FACE('',(#630,#631),#49,.T.);
#709=ADVANCED_FACE('',(#632,#633),#671,.T.);
#710=ADVANCED_FACE('',(#634,#635),#50,.T.);
#711=ADVANCED_FACE('',(#636,#637),#51,.F.);
#712=ADVANCED_FACE('',(#638,#639,#640),#672,.T.);
#713=ADVANCED_FACE('',(#641,#642,#643),#673,.F.);
#714=ADVANCED_FACE('',(#644),#16,.T.);
#715=ADVANCED_FACE('',(#645,#646),#52,.F.);
#716=ADVANCED_FACE('',(#647),#53,.T.);
#717=ADVANCED_FACE('',(#648),#17,.T.);
#718=ADVANCED_FACE('',(#649,#650),#674,.T.);
#719=ADVANCED_FACE('',(#651,#652),#54,.F.);
#720=ADVANCED_FACE('',(#653),#675,.F.);
#721=ADVANCED_FACE('',(#654,#655),#55,.F.);
#722=CLOSED_SHELL('',(#676,#677,#678,#679,#680,#681,#682,#683,#684,#685,
#686,#687,#688,#689,#690,#691,#692,#693,#694,#695,#696,#697,#698));
#723=CLOSED_SHELL('',(#699,#700,#701,#702,#703,#704,#705,#706,#707,#708,
#709,#710,#711,#712,#713,#714,#715,#716,#717,#718,#719,#720,#721));
#724=STYLED_ITEM('',(#726),#740);
#725=STYLED_ITEM('',(#727),#741);
#726=PRESENTATION_STYLE_ASSIGNMENT((#728));
#727=PRESENTATION_STYLE_ASSIGNMENT((#729));
#728=SURFACE_STYLE_USAGE(.BOTH.,#730);
#729=SURFACE_STYLE_USAGE(.BOTH.,#731);
#730=SURFACE_SIDE_STYLE('',(#732));
#731=SURFACE_SIDE_STYLE('',(#733));
#732=SURFACE_STYLE_FILL_AREA(#734);
#733=SURFACE_STYLE_FILL_AREA(#735);
#734=FILL_AREA_STYLE('',(#736));
#735=FILL_AREA_STYLE('',(#737));
#736=FILL_AREA_STYLE_COLOUR('',#738);
#737=FILL_AREA_STYLE_COLOUR('',#739);
#738=COLOUR_RGB('',0.647058823529412,0.647058823529412,0.647058823529412);
#739=COLOUR_RGB('',0.0862745098039216,0.31764705882353,0.690196078431373);
#740=MANIFOLD_SOLID_BREP('Part 2',#722);
#741=MANIFOLD_SOLID_BREP('Part 3',#723);
#742=SHAPE_DEFINITION_REPRESENTATION(#1354,#744);
#743=SHAPE_DEFINITION_REPRESENTATION(#1355,#745);
#744=SHAPE_REPRESENTATION('Part 2',(#746),#1344);
#745=SHAPE_REPRESENTATION('Part 3',(#788),#1345);
#746=AXIS2_PLACEMENT_3D('',#1034,#830,#831);
#747=AXIS2_PLACEMENT_3D('',#1035,#832,#833);
#748=AXIS2_PLACEMENT_3D('',#1039,#835,#836);
#749=AXIS2_PLACEMENT_3D('',#1044,#839,#840);
#750=AXIS2_PLACEMENT_3D('',#1055,#842,#843);
#751=AXIS2_PLACEMENT_3D('',#1056,#844,#845);
#752=AXIS2_PLACEMENT_3D('',#1062,#849,#850);
#753=AXIS2_PLACEMENT_3D('',#1073,#852,#853);
#754=AXIS2_PLACEMENT_3D('',#1074,#854,#855);
#755=AXIS2_PLACEMENT_3D('',#1075,#856,#857);
#756=AXIS2_PLACEMENT_3D('',#1080,#860,#861);
#757=AXIS2_PLACEMENT_3D('',#1091,#863,#864);
#758=AXIS2_PLACEMENT_3D('',#1092,#865,#866);
#759=AXIS2_PLACEMENT_3D('',#1098,#870,#871);
#760=AXIS2_PLACEMENT_3D('',#1106,#872,#873);
#761=AXIS2_PLACEMENT_3D('',#1107,#874,#875);
#762=AXIS2_PLACEMENT_3D('',#1108,#876,#877);
#763=AXIS2_PLACEMENT_3D('',#1110,#878,#879);
#764=AXIS2_PLACEMENT_3D('',#1111,#880,#881);
#765=AXIS2_PLACEMENT_3D('',#1113,#882,#883);
#766=AXIS2_PLACEMENT_3D('',#1114,#884,#885);
#767=AXIS2_PLACEMENT_3D('',#1116,#886,#887);
#768=AXIS2_PLACEMENT_3D('',#1120,#889,#890);
#769=AXIS2_PLACEMENT_3D('',#1124,#892,#893);
#770=AXIS2_PLACEMENT_3D('',#1125,#894,#895);
#771=AXIS2_PLACEMENT_3D('',#1126,#896,#897);
#772=AXIS2_PLACEMENT_3D('',#1128,#898,#899);
#773=AXIS2_PLACEMENT_3D('',#1130,#900,#901);
#774=AXIS2_PLACEMENT_3D('',#1136,#902,#903);
#775=AXIS2_PLACEMENT_3D('',#1142,#904,#905);
#776=AXIS2_PLACEMENT_3D('',#1144,#906,#907);
#777=AXIS2_PLACEMENT_3D('',#1150,#908,#909);
#778=AXIS2_PLACEMENT_3D('',#1156,#910,#911);
#779=AXIS2_PLACEMENT_3D('',#1167,#913,#914);
#780=AXIS2_PLACEMENT_3D('',#1169,#916,#917);
#781=AXIS2_PLACEMENT_3D('',#1178,#918,#919);
#782=AXIS2_PLACEMENT_3D('',#1179,#920,#921);
#783=AXIS2_PLACEMENT_3D('',#1181,#922,#923);
#784=AXIS2_PLACEMENT_3D('',#1183,#924,#925);
#785=AXIS2_PLACEMENT_3D('',#1184,#926,#927);
#786=AXIS2_PLACEMENT_3D('',#1185,#928,#929);
#787=AXIS2_PLACEMENT_3D('',#1187,#930,#931);
#788=AXIS2_PLACEMENT_3D('',#1188,#932,#933);
#789=AXIS2_PLACEMENT_3D('',#1189,#934,#935);
#790=AXIS2_PLACEMENT_3D('',#1197,#939,#940);
#791=AXIS2_PLACEMENT_3D('',#1198,#941,#942);
#792=AXIS2_PLACEMENT_3D('',#1202,#944,#945);
#793=AXIS2_PLACEMENT_3D('',#1210,#946,#947);
#794=AXIS2_PLACEMENT_3D('',#1216,#951,#952);
#795=AXIS2_PLACEMENT_3D('',#1220,#954,#955);
#796=AXIS2_PLACEMENT_3D('',#1228,#956,#957);
#797=AXIS2_PLACEMENT_3D('',#1229,#958,#959);
#798=AXIS2_PLACEMENT_3D('',#1234,#962,#963);
#799=AXIS2_PLACEMENT_3D('',#1238,#965,#966);
#800=AXIS2_PLACEMENT_3D('',#1246,#967,#968);
#801=AXIS2_PLACEMENT_3D('',#1252,#972,#973);
#802=AXIS2_PLACEMENT_3D('',#1253,#974,#975);
#803=AXIS2_PLACEMENT_3D('',#1261,#976,#977);
#804=AXIS2_PLACEMENT_3D('',#1262,#978,#979);
#805=AXIS2_PLACEMENT_3D('',#1264,#980,#981);
#806=AXIS2_PLACEMENT_3D('',#1265,#982,#983);
#807=AXIS2_PLACEMENT_3D('',#1267,#984,#985);
#808=AXIS2_PLACEMENT_3D('',#1268,#986,#987);
#809=AXIS2_PLACEMENT_3D('',#1270,#988,#989);
#810=AXIS2_PLACEMENT_3D('',#1274,#991,#992);
#811=AXIS2_PLACEMENT_3D('',#1278,#994,#995);
#812=AXIS2_PLACEMENT_3D('',#1279,#996,#997);
#813=AXIS2_PLACEMENT_3D('',#1280,#998,#999);
#814=AXIS2_PLACEMENT_3D('',#1282,#1000,#1001);
#815=AXIS2_PLACEMENT_3D('',#1284,#1002,#1003);
#816=AXIS2_PLACEMENT_3D('',#1290,#1004,#1005);
#817=AXIS2_PLACEMENT_3D('',#1296,#1006,#1007);
#818=AXIS2_PLACEMENT_3D('',#1298,#1008,#1009);
#819=AXIS2_PLACEMENT_3D('',#1304,#1010,#1011);
#820=AXIS2_PLACEMENT_3D('',#1310,#1012,#1013);
#821=AXIS2_PLACEMENT_3D('',#1321,#1015,#1016);
#822=AXIS2_PLACEMENT_3D('',#1322,#1017,#1018);
#823=AXIS2_PLACEMENT_3D('',#1332,#1020,#1021);
#824=AXIS2_PLACEMENT_3D('',#1333,#1022,#1023);
#825=AXIS2_PLACEMENT_3D('',#1335,#1024,#1025);
#826=AXIS2_PLACEMENT_3D('',#1337,#1026,#1027);
#827=AXIS2_PLACEMENT_3D('',#1338,#1028,#1029);
#828=AXIS2_PLACEMENT_3D('',#1339,#1030,#1031);
#829=AXIS2_PLACEMENT_3D('',#1341,#1032,#1033);
#830=DIRECTION('',(0.,0.,1.));
#831=DIRECTION('',(1.,0.,0.));
#832=DIRECTION('',(-3.46944695195362E-16,1.,0.));
#833=DIRECTION('',(-1.,-3.46944695195362E-16,0.));
#834=DIRECTION('',(0.,0.,1.));
#835=DIRECTION('',(-3.46944695195362E-16,1.,0.));
#836=DIRECTION('',(-1.,-3.46944695195362E-16,0.));
#837=DIRECTION('',(0.,0.,1.));
#838=DIRECTION('',(-1.,-3.46944695195362E-16,0.));
#839=DIRECTION('',(0.,0.,1.));
#840=DIRECTION('',(1.,0.,0.));
#841=DIRECTION('',(0.,0.,1.));
#842=DIRECTION('',(0.,0.,-1.));
#843=DIRECTION('',(-1.,0.,0.));
#844=DIRECTION('',(1.,1.92747052886312E-16,0.));
#845=DIRECTION('',(-1.92747052886312E-16,1.,0.));
#846=DIRECTION('',(0.,0.,1.));
#847=DIRECTION('',(3.46944695195362E-16,-1.,0.));
#848=DIRECTION('',(-1.92747052886312E-16,1.,0.));
#849=DIRECTION('',(0.,0.,1.));
#850=DIRECTION('',(1.,0.,0.));
#851=DIRECTION('',(0.,0.,1.));
#852=DIRECTION('',(0.,0.,-1.));
#853=DIRECTION('',(-1.,0.,0.));
#854=DIRECTION('',(-1.7347234759768E-16,1.,0.));
#855=DIRECTION('',(-1.,-1.7347234759768E-16,0.));
#856=DIRECTION('',(-1.7347234759768E-16,1.,0.));
#857=DIRECTION('',(-1.,-1.7347234759768E-16,0.));
#858=DIRECTION('',(-1.,-1.7347234759768E-16,0.));
#859=DIRECTION('',(0.,0.,1.));
#860=DIRECTION('',(0.,0.,1.));
#861=DIRECTION('',(1.,0.,0.));
#862=DIRECTION('',(0.,0.,1.));
#863=DIRECTION('',(0.,0.,-1.));
#864=DIRECTION('',(-1.,0.,0.));
#865=DIRECTION('',(1.,1.92747052886312E-16,0.));
#866=DIRECTION('',(-1.92747052886312E-16,1.,0.));
#867=DIRECTION('',(3.46944695195362E-16,-1.,0.));
#868=DIRECTION('',(-1.92747052886312E-16,1.,0.));
#869=DIRECTION('',(0.,0.,1.));
#870=DIRECTION('',(0.,0.,1.));
#871=DIRECTION('',(1.,0.,0.));
#872=DIRECTION('',(0.,0.,-1.));
#873=DIRECTION('',(-1.,0.,0.));
#874=DIRECTION('',(0.,0.,-1.));
#875=DIRECTION('',(1.,0.,0.));
#876=DIRECTION('',(0.,0.,-1.));
#877=DIRECTION('',(-1.,0.,0.));
#878=DIRECTION('',(0.,0.,1.));
#879=DIRECTION('',(1.,0.,0.));
#880=DIRECTION('',(0.,0.,1.));
#881=DIRECTION('',(1.,0.,0.));
#882=DIRECTION('',(0.,0.,1.));
#883=DIRECTION('',(1.,0.,0.));
#884=DIRECTION('',(0.,0.,1.));
#885=DIRECTION('',(1.,0.,0.));
#886=DIRECTION('',(3.46944695195362E-16,-1.,0.));
#887=DIRECTION('',(1.,3.46944695195362E-16,0.));
#888=DIRECTION('',(3.46944695195362E-16,-1.,0.));
#889=DIRECTION('',(3.53707236443423E-16,-0.999999999999969,-2.20049260810362E-16));
#890=DIRECTION('',(1.,3.53707236443434E-16,0.));
#891=DIRECTION('',(3.46944695195362E-16,-1.,0.));
#892=DIRECTION('',(3.46944695195362E-16,-1.,0.));
#893=DIRECTION('',(1.,3.46944695195362E-16,0.));
#894=DIRECTION('',(3.46944695195362E-16,-1.,0.));
#895=DIRECTION('',(1.,3.46944695195362E-16,0.));
#896=DIRECTION('',(3.53707236443423E-16,-0.999999999999969,-2.20049260810362E-16));
#897=DIRECTION('',(1.,3.53707236443434E-16,0.));
#898=DIRECTION('',(3.46944695195362E-16,-1.,0.));
#899=DIRECTION('',(1.,3.46944695195362E-16,0.));
#900=DIRECTION('',(3.46944695195362E-16,-1.,0.));
#901=DIRECTION('',(1.,3.46944695195362E-16,0.));
#902=DIRECTION('',(3.46944695195362E-16,-1.,0.));
#903=DIRECTION('',(1.,3.46944695195362E-16,0.));
#904=DIRECTION('',(3.46944695195362E-16,-1.,0.));
#905=DIRECTION('',(1.,3.46944695195362E-16,0.));
#906=DIRECTION('',(3.53707236443423E-16,-0.999999999999969,-2.20049260810362E-16));
#907=DIRECTION('',(0.999867260431882,3.73017423119119E-16,0.0162929897954346));
#908=DIRECTION('',(3.53707236443423E-16,-0.999999999999969,-2.20049260810362E-16));
#909=DIRECTION('',(1.,3.53707236443434E-16,0.));
#910=DIRECTION('',(3.53707236443423E-16,-0.999999999999969,-2.20049260810362E-16));
#911=DIRECTION('',(1.,3.53707236443434E-16,0.));
#912=DIRECTION('',(3.46944695195362E-16,-1.,0.));
#913=DIRECTION('',(3.46944695195362E-16,-1.,0.));
#914=DIRECTION('',(1.,3.46944695195362E-16,0.));
#915=DIRECTION('',(3.46944695195362E-16,-1.,0.));
#916=DIRECTION('',(3.46944695195362E-16,-1.,0.));
#917=DIRECTION('',(1.,3.46944695195362E-16,0.));
#918=DIRECTION('',(0.,0.,1.));
#919=DIRECTION('',(1.,0.,0.));
#920=DIRECTION('',(0.,0.,1.));
#921=DIRECTION('',(1.,0.,0.));
#922=DIRECTION('',(0.,0.,1.));
#923=DIRECTION('',(1.,0.,0.));
#924=DIRECTION('',(0.,0.,1.));
#925=DIRECTION('',(1.,0.,0.));
#926=DIRECTION('',(0.,0.,-1.));
#927=DIRECTION('',(1.,0.,0.));
#928=DIRECTION('',(0.,0.,-1.));
#929=DIRECTION('',(-1.,0.,0.));
#930=DIRECTION('',(0.,0.,1.));
#931=DIRECTION('',(1.,0.,0.));
#932=DIRECTION('',(0.,0.,1.));
#933=DIRECTION('',(1.,0.,0.));
#934=DIRECTION('',(-3.46944695195362E-16,1.,0.));
#935=DIRECTION('',(-1.,-3.46944695195362E-16,0.));
#936=DIRECTION('',(0.,0.,-1.));
#937=DIRECTION('',(-1.,-3.46944695195362E-16,0.));
#938=DIRECTION('',(0.,0.,-1.));
#939=DIRECTION('',(3.46944695195362E-16,-1.,0.));
#940=DIRECTION('',(-1.,-3.46944695195362E-16,0.));
#941=DIRECTION('',(0.,0.,-1.));
#942=DIRECTION('',(1.,0.,0.));
#943=DIRECTION('',(0.,0.,-1.));
#944=DIRECTION('',(0.,0.,-1.));
#945=DIRECTION('',(-1.,0.,0.));
#946=DIRECTION('',(1.,1.92747052886312E-16,0.));
#947=DIRECTION('',(-1.92747052886312E-16,1.,0.));
#948=DIRECTION('',(0.,0.,-1.));
#949=DIRECTION('',(-1.92747052886312E-16,1.,0.));
#950=DIRECTION('',(3.46944695195362E-16,-1.,0.));
#951=DIRECTION('',(0.,0.,-1.));
#952=DIRECTION('',(1.,0.,0.));
#953=DIRECTION('',(0.,0.,-1.));
#954=DIRECTION('',(0.,0.,-1.));
#955=DIRECTION('',(-1.,0.,0.));
#956=DIRECTION('',(-1.7347234759768E-16,1.,0.));
#957=DIRECTION('',(-1.,-1.7347234759768E-16,0.));
#958=DIRECTION('',(1.7347234759768E-16,-1.,0.));
#959=DIRECTION('',(-1.,-1.7347234759768E-16,0.));
#960=DIRECTION('',(0.,0.,-1.));
#961=DIRECTION('',(-1.,-1.7347234759768E-16,0.));
#962=DIRECTION('',(0.,0.,-1.));
#963=DIRECTION('',(1.,0.,0.));
#964=DIRECTION('',(0.,0.,-1.));
#965=DIRECTION('',(0.,0.,-1.));
#966=DIRECTION('',(-1.,0.,0.));
#967=DIRECTION('',(1.,1.92747052886312E-16,0.));
#968=DIRECTION('',(-1.92747052886312E-16,1.,0.));
#969=DIRECTION('',(3.46944695195362E-16,-1.,0.));
#970=DIRECTION('',(0.,0.,-1.));
#971=DIRECTION('',(-1.92747052886312E-16,1.,0.));
#972=DIRECTION('',(0.,0.,-1.));
#973=DIRECTION('',(1.,0.,0.));
#974=DIRECTION('',(0.,0.,-1.));
#975=DIRECTION('',(-1.,0.,0.));
#976=DIRECTION('',(0.,0.,1.));
#977=DIRECTION('',(1.,0.,0.));
#978=DIRECTION('',(0.,0.,-1.));
#979=DIRECTION('',(-1.,0.,0.));
#980=DIRECTION('',(0.,0.,-1.));
#981=DIRECTION('',(1.,0.,0.));
#982=DIRECTION('',(0.,0.,1.));
#983=DIRECTION('',(1.,0.,0.));
#984=DIRECTION('',(0.,0.,-1.));
#985=DIRECTION('',(1.,0.,0.));
#986=DIRECTION('',(0.,0.,1.));
#987=DIRECTION('',(1.,0.,0.));
#988=DIRECTION('',(3.46944695195362E-16,-1.,0.));
#989=DIRECTION('',(1.,3.46944695195362E-16,0.));
#990=DIRECTION('',(3.46944695195362E-16,-1.,0.));
#991=DIRECTION('',(-3.46944695195362E-16,1.,0.));
#992=DIRECTION('',(1.,3.46944695195362E-16,0.));
#993=DIRECTION('',(3.46944695195362E-16,-1.,0.));
#994=DIRECTION('',(-3.53707236443423E-16,0.999999999999969,-2.20049260810362E-16));
#995=DIRECTION('',(1.,3.53707236443434E-16,0.));
#996=DIRECTION('',(3.46944695195362E-16,-1.,0.));
#997=DIRECTION('',(1.,3.46944695195362E-16,0.));
#998=DIRECTION('',(-3.53707236443423E-16,0.999999999999969,-2.20049260810362E-16));
#999=DIRECTION('',(1.,3.53707236443434E-16,0.));
#1000=DIRECTION('',(-3.46944695195362E-16,1.,0.));
#1001=DIRECTION('',(1.,3.46944695195362E-16,0.));
#1002=DIRECTION('',(3.46944695195362E-16,-1.,0.));
#1003=DIRECTION('',(1.,3.46944695195362E-16,0.));
#1004=DIRECTION('',(-3.46944695195362E-16,1.,0.));
#1005=DIRECTION('',(1.,3.46944695195362E-16,0.));
#1006=DIRECTION('',(-3.46944695195362E-16,1.,0.));
#1007=DIRECTION('',(1.,3.46944695195362E-16,0.));
#1008=DIRECTION('',(3.53707236443423E-16,-0.999999999999969,2.20049260810362E-16));
#1009=DIRECTION('',(0.999867260431882,3.73017423119119E-16,-0.0162929897954346));
#1010=DIRECTION('',(-3.53707236443423E-16,0.999999999999969,-2.20049260810362E-16));
#1011=DIRECTION('',(1.,3.53707236443434E-16,0.));
#1012=DIRECTION('',(-3.53707236443423E-16,0.999999999999969,-2.20049260810362E-16));
#1013=DIRECTION('',(1.,3.53707236443434E-16,0.));
#1014=DIRECTION('',(3.46944695195362E-16,-1.,0.));
#1015=DIRECTION('',(3.46944695195362E-16,-1.,0.));
#1016=DIRECTION('',(1.,3.46944695195362E-16,0.));
#1017=DIRECTION('',(3.46944695195362E-16,-1.,0.));
#1018=DIRECTION('',(1.,3.46944695195362E-16,0.));
#1019=DIRECTION('',(3.46944695195362E-16,-1.,0.));
#1020=DIRECTION('',(0.,0.,-1.));
#1021=DIRECTION('',(1.,0.,0.));
#1022=DIRECTION('',(0.,0.,1.));
#1023=DIRECTION('',(1.,0.,0.));
#1024=DIRECTION('',(0.,0.,1.));
#1025=DIRECTION('',(1.,0.,0.));
#1026=DIRECTION('',(0.,0.,-1.));
#1027=DIRECTION('',(1.,0.,0.));
#1028=DIRECTION('',(0.,0.,1.));
#1029=DIRECTION('',(1.,0.,0.));
#1030=DIRECTION('',(0.,0.,-1.));
#1031=DIRECTION('',(-1.,0.,0.));
#1032=DIRECTION('',(0.,0.,-1.));
#1033=DIRECTION('',(1.,0.,0.));
#1034=CARTESIAN_POINT('',(0.,0.,0.));
#1035=CARTESIAN_POINT('',(1.3010426069826E-18,-0.00325,-0.04522825));
#1036=CARTESIAN_POINT('',(-0.0025,-0.00325,-0.04522825));
#1037=CARTESIAN_POINT('',(-0.0025,-0.00325,-0.0424331650281253));
#1038=CARTESIAN_POINT('',(-0.0025,-0.00325,-0.032314125));
#1039=CARTESIAN_POINT('',(1.12757025938492E-18,-0.00325,-0.04522825));
#1040=CARTESIAN_POINT('',(0.0025,-0.00325,-0.0424331650281253));
#1041=CARTESIAN_POINT('',(0.0025,-0.00325,-0.04522825));
#1042=CARTESIAN_POINT('',(0.0025,-0.00325,-0.032314125));
#1043=CARTESIAN_POINT('',(1.3010426069826E-18,-0.00325,-0.032314125));
#1044=CARTESIAN_POINT('',(-0.0025,-0.00225,-0.04522825));
#1045=CARTESIAN_POINT('',(-0.0035,-0.00225,-0.04522825));
#1046=CARTESIAN_POINT('',(-0.0035,-0.00225,-0.0438819587982164));
#1047=CARTESIAN_POINT('',(-0.0035,-0.00225,-0.032314125));
#1048=CARTESIAN_POINT('',(-0.0035,-0.00225,-0.0438819587982164));
#1049=CARTESIAN_POINT('',(-0.0035,-0.00243499239233095,-0.0438819587982164));
#1050=CARTESIAN_POINT('',(-0.00340434981339819,-0.00273091654887914,-0.0436342607416322));
#1051=CARTESIAN_POINT('',(-0.00318517357110654,-0.00300467494182309,-0.0432291857619137));
#1052=CARTESIAN_POINT('',(-0.00288303828426395,-0.00319724238667817,-0.0428109119049309));
#1053=CARTESIAN_POINT('',(-0.00263641831946286,-0.00325,-0.0425551812824033));
#1054=CARTESIAN_POINT('',(-0.0025,-0.00325,-0.0424331650281253));
#1055=CARTESIAN_POINT('',(-0.0025,-0.00225,-0.032314125));
#1056=CARTESIAN_POINT('',(-0.0035,-4.33680868994202E-19,-0.04522825));
#1057=CARTESIAN_POINT('',(-0.0035,0.00225,-0.04522825));
#1058=CARTESIAN_POINT('',(-0.0035,0.00225,-0.0438819587982164));
#1059=CARTESIAN_POINT('',(-0.0035,0.00225,-0.032314125));
#1060=CARTESIAN_POINT('',(-0.0035,0.0035,-0.0438819587982164));
#1061=CARTESIAN_POINT('',(-0.0035,-4.33680868994202E-19,-0.032314125));
#1062=CARTESIAN_POINT('',(-0.0025,0.00225,-0.04522825));
#1063=CARTESIAN_POINT('',(-0.0025,0.00325,-0.04522825));
#1064=CARTESIAN_POINT('',(-0.0025,0.00325,-0.0424331650281253));
#1065=CARTESIAN_POINT('',(-0.0025,0.00325,-0.032314125));
#1066=CARTESIAN_POINT('',(-0.0025,0.00325,-0.0424331650281253));
#1067=CARTESIAN_POINT('',(-0.00263617365362283,0.00325,-0.0425549624466233));
#1068=CARTESIAN_POINT('',(-0.00288450920885062,0.00319669961456114,-0.0428126389175458));
#1069=CARTESIAN_POINT('',(-0.00318476176653161,0.00300482297902731,-0.0432286742881164));
#1070=CARTESIAN_POINT('',(-0.00340461644572939,0.00273078533939589,-0.0436347227824766));
#1071=CARTESIAN_POINT('',(-0.0035,0.00243451476715767,-0.0438819587982164));
#1072=CARTESIAN_POINT('',(-0.0035,0.00225,-0.0438819587982164));
#1073=CARTESIAN_POINT('',(-0.0025,0.00225,-0.032314125));
#1074=CARTESIAN_POINT('',(-8.67361737988404E-19,0.00325,-0.04522825));
#1075=CARTESIAN_POINT('',(-1.12757025938492E-18,0.00325,-0.04522825));
#1076=CARTESIAN_POINT('',(0.0025,0.00325,-0.0424331650281253));
#1077=CARTESIAN_POINT('',(-8.67361737988404E-19,0.00325,-0.032314125));
#1078=CARTESIAN_POINT('',(0.0025,0.00325,-0.032314125));
#1079=CARTESIAN_POINT('',(0.0025,0.00325,-0.04522825));
#1080=CARTESIAN_POINT('',(0.0025,0.00225,-0.04522825));
#1081=CARTESIAN_POINT('',(0.0035,0.00225,-0.04522825));
#1082=CARTESIAN_POINT('',(0.0035,0.00225,-0.0438819587982164));
#1083=CARTESIAN_POINT('',(0.0035,0.00225,-0.032314125));
#1084=CARTESIAN_POINT('',(0.0035,0.00225,-0.0438819587982164));
#1085=CARTESIAN_POINT('',(0.0035,0.00243499239233095,-0.0438819587982164));
#1086=CARTESIAN_POINT('',(0.00340434981339819,0.00273091654887914,-0.0436342607416322));
#1087=CARTESIAN_POINT('',(0.00318517357110654,0.00300467494182309,-0.0432291857619137));
#1088=CARTESIAN_POINT('',(0.00288303828426395,0.00319724238667817,-0.0428109119049309));
#1089=CARTESIAN_POINT('',(0.00263641831946286,0.00325,-0.0425551812824033));
#1090=CARTESIAN_POINT('',(0.0025,0.00325,-0.0424331650281253));
#1091=CARTESIAN_POINT('',(0.0025,0.00225,-0.032314125));
#1092=CARTESIAN_POINT('',(0.0035,8.67361737988404E-19,-0.04522825));
#1093=CARTESIAN_POINT('',(0.0035,0.0035,-0.0438819587982164));
#1094=CARTESIAN_POINT('',(0.0035,-0.00225,-0.0438819587982164));
#1095=CARTESIAN_POINT('',(0.0035,8.67361737988404E-19,-0.032314125));
#1096=CARTESIAN_POINT('',(0.0035,-0.00225,-0.032314125));
#1097=CARTESIAN_POINT('',(0.0035,-0.00225,-0.04522825));
#1098=CARTESIAN_POINT('',(0.0025,-0.00225,-0.04522825));
#1099=CARTESIAN_POINT('',(0.0025,-0.00325,-0.0424331650281253));
#1100=CARTESIAN_POINT('',(0.00263617365362283,-0.00325,-0.0425549624466233));
#1101=CARTESIAN_POINT('',(0.00288450920885062,-0.00319669961456114,-0.0428126389175458));
#1102=CARTESIAN_POINT('',(0.00318476176653161,-0.00300482297902731,-0.0432286742881164));
#1103=CARTESIAN_POINT('',(0.0034046164457294,-0.00273078533939588,-0.0436347227824766));
#1104=CARTESIAN_POINT('',(0.0035,-0.00243451476715767,-0.0438819587982164));
#1105=CARTESIAN_POINT('',(0.0035,-0.00225,-0.0438819587982164));
#1106=CARTESIAN_POINT('',(0.0025,-0.00225,-0.032314125));
#1107=CARTESIAN_POINT('',(8.67361737988404E-19,0.,-0.032314125));
#1108=CARTESIAN_POINT('',(0.,1.3164953090834E-19,-0.032314125));
#1109=CARTESIAN_POINT('',(-0.00245,1.3164953090834E-19,-0.032314125));
#1110=CARTESIAN_POINT('',(0.,1.3164953090834E-19,-0.035314125));
#1111=CARTESIAN_POINT('',(0.,1.3164953090834E-19,-0.0254));
#1112=CARTESIAN_POINT('',(0.00245,1.3164953090834E-19,-0.0254));
#1113=CARTESIAN_POINT('',(1.7347234759768E-18,0.,-0.0254));
#1114=CARTESIAN_POINT('',(0.,1.01033360929657E-19,-0.0254));
#1115=CARTESIAN_POINT('',(0.00165,1.01033360929657E-19,-0.0254));
#1116=CARTESIAN_POINT('',(-1.21430643318376E-18,0.0035,-0.04522825));
#1117=CARTESIAN_POINT('',(0.00375,0.00452498999999994,-0.04522825));
#1118=CARTESIAN_POINT('',(0.00375,0.00452298999999993,-0.04522825));
#1119=CARTESIAN_POINT('',(0.00375,-0.0035,-0.04522825));
#1120=CARTESIAN_POINT('',(-1.56922738692164E-18,0.00452298999999993,-0.04522825));
#1121=CARTESIAN_POINT('',(-0.00375,0.00452298999999994,-0.04522825));
#1122=CARTESIAN_POINT('',(-0.00375,0.00452498999999994,-0.04522825));
#1123=CARTESIAN_POINT('',(-0.00375,-0.0035,-0.04522825));
#1124=CARTESIAN_POINT('',(1.21430643318376E-18,-0.0035,-0.04522825));
#1125=CARTESIAN_POINT('',(-9.97465998686664E-19,0.0035,-0.04522825));
#1126=CARTESIAN_POINT('',(-1.35238695242454E-18,0.00452298999999993,-0.04522825));
#1127=CARTESIAN_POINT('',(0.00175,0.00452298999999993,-0.04522825));
#1128=CARTESIAN_POINT('',(1.43114686768087E-18,-0.0035,-0.04522825));
#1129=CARTESIAN_POINT('',(0.00175,-0.0035,-0.04522825));
#1130=CARTESIAN_POINT('',(5.55539093868779E-19,-0.0035,-0.04522825));
#1131=CARTESIAN_POINT('',(-0.0292227357779279,-0.0035,-0.0541803297576804));
#1132=CARTESIAN_POINT('',(-0.0292227357779279,-0.0035,-0.0425376383739584));
#1133=CARTESIAN_POINT('',(-0.00395428370599608,-0.0035,-0.051521712416203));
#1134=CARTESIAN_POINT('',(-0.00375,-0.0035,-0.04522825));
#1135=CARTESIAN_POINT('',(-0.0292227357779279,-0.0035,-0.0541803297576804));
#1136=CARTESIAN_POINT('',(-0.0254727357778678,-0.0035,-0.0541803297576804));
#1137=CARTESIAN_POINT('',(-0.0217231650762228,-0.0035,-0.054123588653404));
#1138=CARTESIAN_POINT('',(0.00375,-0.0035,-0.04522825));
#1139=CARTESIAN_POINT('',(0.00375,-0.0035,-0.057868707833772));
#1140=CARTESIAN_POINT('',(-0.0216288560567218,-0.0035,-0.0502996267896757));
#1141=CARTESIAN_POINT('',(-0.0217231650762228,-0.0035,-0.054123588653404));
#1142=CARTESIAN_POINT('',(-0.0254727357779279,-0.0035,-0.0541803297576804));
#1143=CARTESIAN_POINT('',(-0.0237227357779279,-0.0035,-0.0541803297576804));
#1144=CARTESIAN_POINT('',(0.0268545570455873,0.00452299,-0.0995478412815631));
#1145=CARTESIAN_POINT('',(0.00375,0.00452298999999994,-0.04522825));
#1146=CARTESIAN_POINT('',(0.00375,0.00452298999999994,-0.057868707833772));
#1147=CARTESIAN_POINT('',(-0.0216288560567218,0.00452298999999993,-0.0502996267896757));
#1148=CARTESIAN_POINT('',(-0.0217231650762228,0.00452298999999993,-0.054123588653404));
#1149=CARTESIAN_POINT('',(-0.0217231650762228,0.00452298999999994,-0.054123588653404));
#1150=CARTESIAN_POINT('',(-0.0254727357778678,0.00452298999999992,-0.0541803297576804));
#1151=CARTESIAN_POINT('',(-0.0292227357779279,0.00452298999999994,-0.0541803297576804));
#1152=CARTESIAN_POINT('',(-0.0292227357779279,0.00452298999999993,-0.0541803297576804));
#1153=CARTESIAN_POINT('',(-0.0292227357779279,0.00452298999999993,-0.0425376383739584));
#1154=CARTESIAN_POINT('',(-0.00395428370599608,0.00452298999999994,-0.051521712416203));
#1155=CARTESIAN_POINT('',(-0.00375,0.00452298999999994,-0.04522825));
#1156=CARTESIAN_POINT('',(-0.0254727357779279,0.00452298999999992,-0.0541803297576804));
#1157=CARTESIAN_POINT('',(-0.0237227357779279,0.00452298999999992,-0.0541803297576804));
#1158=CARTESIAN_POINT('',(-0.0292227357779279,0.00452298999999993,-0.0541803297576804));
#1159=CARTESIAN_POINT('',(-0.0292227357779279,-0.0035,-0.0541803297576804));
#1160=CARTESIAN_POINT('',(-0.0292227357779279,0.00452298999999993,-0.0425376383739584));
#1161=CARTESIAN_POINT('',(-0.0292227357779279,-0.0035,-0.0425376383739584));
#1162=CARTESIAN_POINT('',(-0.00395428370599608,0.00452298999999994,-0.051521712416203));
#1163=CARTESIAN_POINT('',(-0.00395428370599607,-0.00349999999999999,-0.051521712416203));
#1164=CARTESIAN_POINT('',(-0.00375,0.00452298999999994,-0.04522825));
#1165=CARTESIAN_POINT('',(-0.00375,-0.00349999999999999,-0.04522825));
#1166=CARTESIAN_POINT('',(-0.0292227357779279,0.00452498999999993,-0.0541803297576804));
#1167=CARTESIAN_POINT('',(-0.0254727357778678,0.00452498999999993,-0.0541803297576804));
#1168=CARTESIAN_POINT('',(-0.0217231650762228,0.00452498999999994,-0.054123588653404));
#1169=CARTESIAN_POINT('',(-0.0254727357779279,0.00452498999999993,-0.0541803297576804));
#1170=CARTESIAN_POINT('',(0.00375,0.00452298999999994,-0.04522825));
#1171=CARTESIAN_POINT('',(0.00375,-0.0035,-0.04522825));
#1172=CARTESIAN_POINT('',(0.00375,0.00452298999999994,-0.057868707833772));
#1173=CARTESIAN_POINT('',(0.00375,-0.0035,-0.057868707833772));
#1174=CARTESIAN_POINT('',(-0.0216288560567218,0.00452298999999993,-0.0502996267896757));
#1175=CARTESIAN_POINT('',(-0.0216288560567218,-0.00350000000000001,-0.0502996267896757));
#1176=CARTESIAN_POINT('',(-0.0217231650762228,0.00452298999999994,-0.054123588653404));
#1177=CARTESIAN_POINT('',(-0.0217231650762228,-0.0035,-0.054123588653404));
#1178=CARTESIAN_POINT('',(0.,0.,-0.0264));
#1179=CARTESIAN_POINT('',(0.,1.01033360929657E-19,-0.0264));
#1180=CARTESIAN_POINT('',(0.00165,1.01033360929657E-19,-0.0264));
#1181=CARTESIAN_POINT('',(0.,2.23498040844392E-19,-0.0264));
#1182=CARTESIAN_POINT('',(0.00155,2.23498040844392E-19,-0.0264));
#1183=CARTESIAN_POINT('',(0.,1.01033360929657E-19,-0.0264));
#1184=CARTESIAN_POINT('',(8.67361737988404E-19,0.,-0.032314125));
#1185=CARTESIAN_POINT('',(0.,2.23498040844392E-19,-0.032314125));
#1186=CARTESIAN_POINT('',(-0.00155,2.23498040844392E-19,-0.032314125));
#1187=CARTESIAN_POINT('',(0.,2.23498040844392E-19,-0.035314125));
#1188=CARTESIAN_POINT('',(0.,0.,0.));
#1189=CARTESIAN_POINT('',(1.3010426069826E-18,-0.00325,0.04522825));
#1190=CARTESIAN_POINT('',(-0.0025,-0.00325,0.04522825));
#1191=CARTESIAN_POINT('',(-0.0025,-0.00325,0.0424331650281253));
#1192=CARTESIAN_POINT('',(-0.0025,-0.00325,0.032314125));
#1193=CARTESIAN_POINT('',(1.3010426069826E-18,-0.00325,0.032314125));
#1194=CARTESIAN_POINT('',(0.0025,-0.00325,0.032314125));
#1195=CARTESIAN_POINT('',(0.0025,-0.00325,0.04522825));
#1196=CARTESIAN_POINT('',(0.0025,-0.00325,0.0424331650281253));
#1197=CARTESIAN_POINT('',(1.12757025938492E-18,-0.00325,0.04522825));
#1198=CARTESIAN_POINT('',(-0.0025,-0.00225,0.04522825));
#1199=CARTESIAN_POINT('',(-0.0035,-0.00225,0.04522825));
#1200=CARTESIAN_POINT('',(-0.0035,-0.00225,0.0438819587982164));
#1201=CARTESIAN_POINT('',(-0.0035,-0.00225,0.032314125));
#1202=CARTESIAN_POINT('',(-0.0025,-0.00225,0.032314125));
#1203=CARTESIAN_POINT('',(-0.0035,-0.00225,0.0438819587982164));
#1204=CARTESIAN_POINT('',(-0.0035,-0.00243499239233095,0.0438819587982164));
#1205=CARTESIAN_POINT('',(-0.00340434981339819,-0.00273091654887914,0.0436342607416322));
#1206=CARTESIAN_POINT('',(-0.00318517357110654,-0.00300467494182309,0.0432291857619137));
#1207=CARTESIAN_POINT('',(-0.00288303828426395,-0.00319724238667817,0.0428109119049309));
#1208=CARTESIAN_POINT('',(-0.00263641831946286,-0.00325,0.0425551812824033));
#1209=CARTESIAN_POINT('',(-0.0025,-0.00325,0.0424331650281253));
#1210=CARTESIAN_POINT('',(-0.0035,-4.33680868994202E-19,0.04522825));
#1211=CARTESIAN_POINT('',(-0.0035,0.00225,0.04522825));
#1212=CARTESIAN_POINT('',(-0.0035,0.00225,0.0438819587982164));
#1213=CARTESIAN_POINT('',(-0.0035,0.00225,0.032314125));
#1214=CARTESIAN_POINT('',(-0.0035,-4.33680868994202E-19,0.032314125));
#1215=CARTESIAN_POINT('',(-0.0035,0.0035,0.0438819587982164));
#1216=CARTESIAN_POINT('',(-0.0025,0.00225,0.04522825));
#1217=CARTESIAN_POINT('',(-0.0025,0.00325,0.04522825));
#1218=CARTESIAN_POINT('',(-0.0025,0.00325,0.0424331650281253));
#1219=CARTESIAN_POINT('',(-0.0025,0.00325,0.032314125));
#1220=CARTESIAN_POINT('',(-0.0025,0.00225,0.032314125));
#1221=CARTESIAN_POINT('',(-0.0025,0.00325,0.0424331650281253));
#1222=CARTESIAN_POINT('',(-0.00263617365362283,0.00325,0.0425549624466233));
#1223=CARTESIAN_POINT('',(-0.00288450920885062,0.00319669961456114,0.0428126389175458));
#1224=CARTESIAN_POINT('',(-0.00318476176653161,0.00300482297902731,0.0432286742881164));
#1225=CARTESIAN_POINT('',(-0.00340461644572939,0.00273078533939589,0.0436347227824766));
#1226=CARTESIAN_POINT('',(-0.0035,0.00243451476715767,0.0438819587982164));
#1227=CARTESIAN_POINT('',(-0.0035,0.00225,0.0438819587982164));
#1228=CARTESIAN_POINT('',(-8.67361737988404E-19,0.00325,0.04522825));
#1229=CARTESIAN_POINT('',(-1.12757025938492E-18,0.00325,0.04522825));
#1230=CARTESIAN_POINT('',(0.0025,0.00325,0.0424331650281253));
#1231=CARTESIAN_POINT('',(0.0025,0.00325,0.04522825));
#1232=CARTESIAN_POINT('',(0.0025,0.00325,0.032314125));
#1233=CARTESIAN_POINT('',(-8.67361737988404E-19,0.00325,0.032314125));
#1234=CARTESIAN_POINT('',(0.0025,0.00225,0.04522825));
#1235=CARTESIAN_POINT('',(0.0035,0.00225,0.04522825));
#1236=CARTESIAN_POINT('',(0.0035,0.00225,0.0438819587982164));
#1237=CARTESIAN_POINT('',(0.0035,0.00225,0.032314125));
#1238=CARTESIAN_POINT('',(0.0025,0.00225,0.032314125));
#1239=CARTESIAN_POINT('',(0.0035,0.00225,0.0438819587982164));
#1240=CARTESIAN_POINT('',(0.0035,0.00243499239233095,0.0438819587982164));
#1241=CARTESIAN_POINT('',(0.00340434981339819,0.00273091654887914,0.0436342607416322));
#1242=CARTESIAN_POINT('',(0.00318517357110654,0.00300467494182309,0.0432291857619137));
#1243=CARTESIAN_POINT('',(0.00288303828426395,0.00319724238667817,0.0428109119049309));
#1244=CARTESIAN_POINT('',(0.00263641831946286,0.00325,0.0425551812824033));
#1245=CARTESIAN_POINT('',(0.0025,0.00325,0.0424331650281253));
#1246=CARTESIAN_POINT('',(0.0035,8.67361737988404E-19,0.04522825));
#1247=CARTESIAN_POINT('',(0.0035,0.0035,0.0438819587982164));
#1248=CARTESIAN_POINT('',(0.0035,-0.00225,0.0438819587982164));
#1249=CARTESIAN_POINT('',(0.0035,-0.00225,0.04522825));
#1250=CARTESIAN_POINT('',(0.0035,-0.00225,0.032314125));
#1251=CARTESIAN_POINT('',(0.0035,8.67361737988404E-19,0.032314125));
#1252=CARTESIAN_POINT('',(0.0025,-0.00225,0.04522825));
#1253=CARTESIAN_POINT('',(0.0025,-0.00225,0.032314125));
#1254=CARTESIAN_POINT('',(0.0025,-0.00325,0.0424331650281253));
#1255=CARTESIAN_POINT('',(0.00263617365362283,-0.00325,0.0425549624466233));
#1256=CARTESIAN_POINT('',(0.00288450920885062,-0.00319669961456114,0.0428126389175458));
#1257=CARTESIAN_POINT('',(0.00318476176653161,-0.00300482297902731,0.0432286742881164));
#1258=CARTESIAN_POINT('',(0.0034046164457294,-0.00273078533939588,0.0436347227824766));
#1259=CARTESIAN_POINT('',(0.0035,-0.00243451476715767,0.0438819587982164));
#1260=CARTESIAN_POINT('',(0.0035,-0.00225,0.0438819587982164));
#1261=CARTESIAN_POINT('',(8.67361737988404E-19,0.,0.032314125));
#1262=CARTESIAN_POINT('',(0.,1.3164953090834E-19,0.032314125));
#1263=CARTESIAN_POINT('',(-0.00245,1.3164953090834E-19,0.032314125));
#1264=CARTESIAN_POINT('',(0.,1.3164953090834E-19,0.035314125));
#1265=CARTESIAN_POINT('',(0.,1.3164953090834E-19,0.0254));
#1266=CARTESIAN_POINT('',(0.00245,1.3164953090834E-19,0.0254));
#1267=CARTESIAN_POINT('',(1.7347234759768E-18,0.,0.0254));
#1268=CARTESIAN_POINT('',(0.,1.01033360929657E-19,0.0254));
#1269=CARTESIAN_POINT('',(0.00165,1.01033360929657E-19,0.0254));
#1270=CARTESIAN_POINT('',(-1.21430643318376E-18,0.0035,0.04522825));
#1271=CARTESIAN_POINT('',(0.00375,0.00452498999999994,0.04522825));
#1272=CARTESIAN_POINT('',(0.00375,0.00452298999999993,0.04522825));
#1273=CARTESIAN_POINT('',(0.00375,-0.0035,0.04522825));
#1274=CARTESIAN_POINT('',(1.21430643318376E-18,-0.0035,0.04522825));
#1275=CARTESIAN_POINT('',(-0.00375,-0.0035,0.04522825));
#1276=CARTESIAN_POINT('',(-0.00375,0.00452498999999994,0.04522825));
#1277=CARTESIAN_POINT('',(-0.00375,0.00452298999999994,0.04522825));
#1278=CARTESIAN_POINT('',(-1.56922738692164E-18,0.00452298999999993,0.04522825));
#1279=CARTESIAN_POINT('',(-9.97465998686664E-19,0.0035,0.04522825));
#1280=CARTESIAN_POINT('',(-1.35238695242454E-18,0.00452298999999993,0.04522825));
#1281=CARTESIAN_POINT('',(0.00175,0.00452298999999993,0.04522825));
#1282=CARTESIAN_POINT('',(1.43114686768087E-18,-0.0035,0.04522825));
#1283=CARTESIAN_POINT('',(0.00175,-0.0035,0.04522825));
#1284=CARTESIAN_POINT('',(5.55539093868779E-19,-0.0035,0.04522825));
#1285=CARTESIAN_POINT('',(0.00375,-0.0035,0.04522825));
#1286=CARTESIAN_POINT('',(0.00375,-0.0035,0.057868707833772));
#1287=CARTESIAN_POINT('',(-0.0216288560567218,-0.0035,0.0502996267896757));
#1288=CARTESIAN_POINT('',(-0.0217231650762228,-0.0035,0.054123588653404));
#1289=CARTESIAN_POINT('',(-0.0217231650762228,-0.0035,0.054123588653404));
#1290=CARTESIAN_POINT('',(-0.0254727357778678,-0.0035,0.0541803297576804));
#1291=CARTESIAN_POINT('',(-0.0292227357779279,-0.0035,0.0541803297576804));
#1292=CARTESIAN_POINT('',(-0.0292227357779279,-0.0035,0.0541803297576804));
#1293=CARTESIAN_POINT('',(-0.0292227357779279,-0.0035,0.0425376383739584));
#1294=CARTESIAN_POINT('',(-0.00395428370599608,-0.0035,0.051521712416203));
#1295=CARTESIAN_POINT('',(-0.00375,-0.0035,0.04522825));
#1296=CARTESIAN_POINT('',(-0.0254727357779279,-0.0035,0.0541803297576804));
#1297=CARTESIAN_POINT('',(-0.0237227357779279,-0.0035,0.0541803297576804));
#1298=CARTESIAN_POINT('',(0.0268545570455873,0.00452299,0.0995478412815631));
#1299=CARTESIAN_POINT('',(-0.0292227357779279,0.00452298999999993,0.0541803297576804));
#1300=CARTESIAN_POINT('',(-0.0292227357779279,0.00452298999999993,0.0425376383739584));
#1301=CARTESIAN_POINT('',(-0.00395428370599608,0.00452298999999994,0.051521712416203));
#1302=CARTESIAN_POINT('',(-0.00375,0.00452298999999994,0.04522825));
#1303=CARTESIAN_POINT('',(-0.0292227357779279,0.00452298999999994,0.0541803297576804));
#1304=CARTESIAN_POINT('',(-0.0254727357778678,0.00452298999999992,0.0541803297576804));
#1305=CARTESIAN_POINT('',(-0.0217231650762228,0.00452298999999994,0.054123588653404));
#1306=CARTESIAN_POINT('',(0.00375,0.00452298999999994,0.04522825));
#1307=CARTESIAN_POINT('',(0.00375,0.00452298999999994,0.057868707833772));
#1308=CARTESIAN_POINT('',(-0.0216288560567218,0.00452298999999993,0.0502996267896757));
#1309=CARTESIAN_POINT('',(-0.0217231650762228,0.00452298999999993,0.054123588653404));
#1310=CARTESIAN_POINT('',(-0.0254727357779279,0.00452298999999992,0.0541803297576804));
#1311=CARTESIAN_POINT('',(-0.0237227357779279,0.00452298999999992,0.0541803297576804));
#1312=CARTESIAN_POINT('',(0.00375,0.00452298999999994,0.04522825));
#1313=CARTESIAN_POINT('',(0.00375,-0.0035,0.04522825));
#1314=CARTESIAN_POINT('',(0.00375,0.00452298999999994,0.057868707833772));
#1315=CARTESIAN_POINT('',(0.00375,-0.0035,0.057868707833772));
#1316=CARTESIAN_POINT('',(-0.0216288560567218,0.00452298999999993,0.0502996267896757));
#1317=CARTESIAN_POINT('',(-0.0216288560567218,-0.00350000000000001,0.0502996267896757));
#1318=CARTESIAN_POINT('',(-0.0217231650762228,0.00452298999999994,0.054123588653404));
#1319=CARTESIAN_POINT('',(-0.0217231650762228,-0.0035,0.054123588653404));
#1320=CARTESIAN_POINT('',(-0.0217231650762228,0.00452498999999994,0.054123588653404));
#1321=CARTESIAN_POINT('',(-0.0254727357779279,0.00452498999999993,0.0541803297576804));
#1322=CARTESIAN_POINT('',(-0.0254727357778678,0.00452498999999993,0.0541803297576804));
#1323=CARTESIAN_POINT('',(-0.0292227357779279,0.00452498999999993,0.0541803297576804));
#1324=CARTESIAN_POINT('',(-0.0292227357779279,0.00452298999999993,0.0541803297576804));
#1325=CARTESIAN_POINT('',(-0.0292227357779279,-0.0035,0.0541803297576804));
#1326=CARTESIAN_POINT('',(-0.0292227357779279,0.00452298999999993,0.0425376383739584));
#1327=CARTESIAN_POINT('',(-0.0292227357779279,-0.0035,0.0425376383739584));
#1328=CARTESIAN_POINT('',(-0.00395428370599608,0.00452298999999994,0.051521712416203));
#1329=CARTESIAN_POINT('',(-0.00395428370599607,-0.00349999999999999,0.051521712416203));
#1330=CARTESIAN_POINT('',(-0.00375,0.00452298999999994,0.04522825));
#1331=CARTESIAN_POINT('',(-0.00375,-0.00349999999999999,0.04522825));
#1332=CARTESIAN_POINT('',(0.,0.,0.0264));
#1333=CARTESIAN_POINT('',(0.,1.01033360929657E-19,0.0264));
#1334=CARTESIAN_POINT('',(0.00165,1.01033360929657E-19,0.0264));
#1335=CARTESIAN_POINT('',(0.,2.23498040844392E-19,0.0264));
#1336=CARTESIAN_POINT('',(0.00155,2.23498040844392E-19,0.0264));
#1337=CARTESIAN_POINT('',(0.,1.01033360929657E-19,0.0264));
#1338=CARTESIAN_POINT('',(8.67361737988404E-19,0.,0.032314125));
#1339=CARTESIAN_POINT('',(0.,2.23498040844392E-19,0.032314125));
#1340=CARTESIAN_POINT('',(-0.00155,2.23498040844392E-19,0.032314125));
#1341=CARTESIAN_POINT('',(0.,2.23498040844392E-19,0.035314125));
#1342=MECHANICAL_DESIGN_GEOMETRIC_PRESENTATION_REPRESENTATION('',(#724),
#1344);
#1343=MECHANICAL_DESIGN_GEOMETRIC_PRESENTATION_REPRESENTATION('',(#725),
#1345);
#1344=(
GEOMETRIC_REPRESENTATION_CONTEXT(3)
GLOBAL_UNCERTAINTY_ASSIGNED_CONTEXT((#1346))
GLOBAL_UNIT_ASSIGNED_CONTEXT((#1352,#1350,#1348))
REPRESENTATION_CONTEXT('Part 2','TOP_LEVEL_ASSEMBLY_PART')
);
#1345=(
GEOMETRIC_REPRESENTATION_CONTEXT(3)
GLOBAL_UNCERTAINTY_ASSIGNED_CONTEXT((#1347))
GLOBAL_UNIT_ASSIGNED_CONTEXT((#1353,#1351,#1349))
REPRESENTATION_CONTEXT('Part 3','TOP_LEVEL_ASSEMBLY_PART')
);
#1346=UNCERTAINTY_MEASURE_WITH_UNIT(LENGTH_MEASURE(2.E-5),#1352,
'DISTANCE_ACCURACY_VALUE','Maximum Tolerance applied to model');
#1347=UNCERTAINTY_MEASURE_WITH_UNIT(LENGTH_MEASURE(2.E-5),#1353,
'DISTANCE_ACCURACY_VALUE','Maximum Tolerance applied to model');
#1348=(
NAMED_UNIT(*)
SI_UNIT($,.STERADIAN.)
SOLID_ANGLE_UNIT()
);
#1349=(
NAMED_UNIT(*)
SI_UNIT($,.STERADIAN.)
SOLID_ANGLE_UNIT()
);
#1350=(
NAMED_UNIT(*)
PLANE_ANGLE_UNIT()
SI_UNIT($,.RADIAN.)
);
#1351=(
NAMED_UNIT(*)
PLANE_ANGLE_UNIT()
SI_UNIT($,.RADIAN.)
);
#1352=(
LENGTH_UNIT()
NAMED_UNIT(*)
SI_UNIT($,.METRE.)
);
#1353=(
LENGTH_UNIT()
NAMED_UNIT(*)
SI_UNIT($,.METRE.)
);
#1354=PRODUCT_DEFINITION_SHAPE('','',#1356);
#1355=PRODUCT_DEFINITION_SHAPE('','',#1357);
#1356=PRODUCT_DEFINITION('','',#1360,#1358);
#1357=PRODUCT_DEFINITION('','',#1361,#1359);
#1358=PRODUCT_DEFINITION_CONTEXT('',#1372,'design');
#1359=PRODUCT_DEFINITION_CONTEXT('',#1373,'design');
#1360=PRODUCT_DEFINITION_FORMATION_WITH_SPECIFIED_SOURCE('','',#1364,
 .NOT_KNOWN.);
#1361=PRODUCT_DEFINITION_FORMATION_WITH_SPECIFIED_SOURCE('','',#1365,
 .NOT_KNOWN.);
#1362=PRODUCT_RELATED_PRODUCT_CATEGORY('','',(#1364));
#1363=PRODUCT_RELATED_PRODUCT_CATEGORY('','',(#1365));
#1364=PRODUCT('Part 2','Part 2','Part 2',(#1368));
#1365=PRODUCT('Part 3','Part 3','Part 3',(#1369));
#1366=PRODUCT_CATEGORY('','');
#1367=PRODUCT_CATEGORY('','');
#1368=PRODUCT_CONTEXT('',#1372,'mechanical');
#1369=PRODUCT_CONTEXT('',#1373,'mechanical');
#1370=APPLICATION_PROTOCOL_DEFINITION('international standard',
'ap242_managed_model_based_3d_engineering',2020,#1372);
#1371=APPLICATION_PROTOCOL_DEFINITION('international standard',
'ap242_managed_model_based_3d_engineering',2020,#1373);
#1372=APPLICATION_CONTEXT('managed model based 3d engineering');
#1373=APPLICATION_CONTEXT('managed model based 3d engineering');
ENDSEC;
END-ISO-10303-21;
