ISO-10303-21;
HEADER;
/* Generated by software containing ST-Developer
 * from STEP Tools, Inc. (www.steptools.com) 
 */
/* OPTION: using custom renumber hook */

FILE_DESCRIPTION(
/* description */ ('STEP AP242 Edition 2',
'CAx-IF Rec.Pracs.---Representation and Presentation of Product Manufa
cturing Information (PMI)---4.0---2014-10-13',
'CAx-IF Rec.Pracs.---3D Tessellated Geometry---0.4---2014-09-14','2;1',
'CAx-IF Rec.Pracs.---User Defined Attributes---1.5---2016-08-15'),
/* implementation_level */ '2;1');

FILE_NAME(
/* name */ 'Part Studio 1 - Part 7',
/* time_stamp */ '2026-08-30T22:51:42Z',
/* author */ (''),
/* organization */ (''),
/* preprocessor_version */ 'ST-DEVELOPER v20',
/* originating_system */ 'ONSHAPE BY PTC INC, 1.220',
/* authorisation */ '  ');

FILE_SCHEMA (('AP242_MANAGED_MODEL_BASED_3D_ENGINEERING_MIM_LF { 1 0 10303 442 3 1 4 }'));
ENDSEC;

DATA;
#10=SHAPE_REPRESENTATION_RELATIONSHIP('','',#171,#11);
#11=ADVANCED_BREP_SHAPE_REPRESENTATION('',(#169),#283);
#12=CIRCLE('',#175,0.00333765096207956);
#13=CIRCLE('',#176,0.00333765096207956);
#14=CIRCLE('',#179,0.00125);
#15=CIRCLE('',#180,0.00125);
#16=CIRCLE('',#182,0.00175);
#17=CIRCLE('',#183,0.00175);
#18=CIRCLE('',#185,0.00175);
#19=CIRCLE('',#186,0.00175);
#20=CIRCLE('',#188,0.00333765096207956);
#21=CIRCLE('',#189,0.00333765096207956);
#22=CYLINDRICAL_SURFACE('',#174,0.00333765096207956);
#23=CYLINDRICAL_SURFACE('',#178,0.00125);
#24=CYLINDRICAL_SURFACE('',#181,0.00175);
#25=CYLINDRICAL_SURFACE('',#184,0.00175);
#26=CYLINDRICAL_SURFACE('',#187,0.00333765096207956);
#27=ORIENTED_EDGE('',*,*,#63,.T.);
#28=ORIENTED_EDGE('',*,*,#64,.F.);
#29=ORIENTED_EDGE('',*,*,#65,.F.);
#30=ORIENTED_EDGE('',*,*,#66,.T.);
#31=ORIENTED_EDGE('',*,*,#67,.T.);
#32=ORIENTED_EDGE('',*,*,#68,.F.);
#33=ORIENTED_EDGE('',*,*,#69,.F.);
#34=ORIENTED_EDGE('',*,*,#64,.T.);
#35=ORIENTED_EDGE('',*,*,#70,.F.);
#36=ORIENTED_EDGE('',*,*,#71,.F.);
#37=ORIENTED_EDGE('',*,*,#72,.T.);
#38=ORIENTED_EDGE('',*,*,#68,.T.);
#39=ORIENTED_EDGE('',*,*,#73,.T.);
#40=ORIENTED_EDGE('',*,*,#74,.F.);
#41=ORIENTED_EDGE('',*,*,#75,.F.);
#42=ORIENTED_EDGE('',*,*,#76,.T.);
#43=ORIENTED_EDGE('',*,*,#77,.T.);
#44=ORIENTED_EDGE('',*,*,#78,.F.);
#45=ORIENTED_EDGE('',*,*,#79,.F.);
#46=ORIENTED_EDGE('',*,*,#66,.F.);
#47=ORIENTED_EDGE('',*,*,#80,.T.);
#48=ORIENTED_EDGE('',*,*,#71,.T.);
#49=ORIENTED_EDGE('',*,*,#77,.F.);
#50=ORIENTED_EDGE('',*,*,#75,.T.);
#51=ORIENTED_EDGE('',*,*,#73,.F.);
#52=ORIENTED_EDGE('',*,*,#65,.T.);
#53=ORIENTED_EDGE('',*,*,#69,.T.);
#54=ORIENTED_EDGE('',*,*,#72,.F.);
#55=ORIENTED_EDGE('',*,*,#80,.F.);
#56=ORIENTED_EDGE('',*,*,#78,.T.);
#57=ORIENTED_EDGE('',*,*,#76,.F.);
#58=ORIENTED_EDGE('',*,*,#74,.T.);
#59=ORIENTED_EDGE('',*,*,#63,.F.);
#60=ORIENTED_EDGE('',*,*,#79,.T.);
#61=ORIENTED_EDGE('',*,*,#70,.T.);
#62=ORIENTED_EDGE('',*,*,#67,.F.);
#63=EDGE_CURVE('',#81,#82,#95,.T.);
#64=EDGE_CURVE('',#83,#82,#96,.T.);
#65=EDGE_CURVE('',#84,#83,#97,.T.);
#66=EDGE_CURVE('',#84,#81,#98,.T.);
#67=EDGE_CURVE('',#82,#85,#12,.T.);
#68=EDGE_CURVE('',#86,#85,#99,.T.);
#69=EDGE_CURVE('',#83,#86,#13,.T.);
#70=EDGE_CURVE('',#87,#85,#100,.T.);
#71=EDGE_CURVE('',#88,#87,#101,.T.);
#72=EDGE_CURVE('',#88,#86,#102,.T.);
#73=EDGE_CURVE('',#89,#89,#14,.T.);
#74=EDGE_CURVE('',#90,#90,#15,.T.);
#75=EDGE_CURVE('',#91,#91,#16,.T.);
#76=EDGE_CURVE('',#92,#92,#17,.T.);
#77=EDGE_CURVE('',#93,#93,#18,.T.);
#78=EDGE_CURVE('',#94,#94,#19,.T.);
#79=EDGE_CURVE('',#81,#87,#20,.T.);
#80=EDGE_CURVE('',#84,#88,#21,.T.);
#81=VERTEX_POINT('',#243);
#82=VERTEX_POINT('',#244);
#83=VERTEX_POINT('',#246);
#84=VERTEX_POINT('',#248);
#85=VERTEX_POINT('',#252);
#86=VERTEX_POINT('',#254);
#87=VERTEX_POINT('',#258);
#88=VERTEX_POINT('',#260);
#89=VERTEX_POINT('',#264);
#90=VERTEX_POINT('',#266);
#91=VERTEX_POINT('',#269);
#92=VERTEX_POINT('',#271);
#93=VERTEX_POINT('',#274);
#94=VERTEX_POINT('',#276);
#95=LINE('',#242,#103);
#96=LINE('',#245,#104);
#97=LINE('',#247,#105);
#98=LINE('',#249,#106);
#99=LINE('',#253,#107);
#100=LINE('',#257,#108);
#101=LINE('',#259,#109);
#102=LINE('',#261,#110);
#103=VECTOR('',#196,1.);
#104=VECTOR('',#197,1.);
#105=VECTOR('',#198,1.);
#106=VECTOR('',#199,1.);
#107=VECTOR('',#204,1.);
#108=VECTOR('',#209,1.);
#109=VECTOR('',#210,1.);
#110=VECTOR('',#211,1.);
#111=EDGE_LOOP('',(#27,#28,#29,#30));
#112=EDGE_LOOP('',(#31,#32,#33,#34));
#113=EDGE_LOOP('',(#35,#36,#37,#38));
#114=EDGE_LOOP('',(#39));
#115=EDGE_LOOP('',(#40));
#116=EDGE_LOOP('',(#41));
#117=EDGE_LOOP('',(#42));
#118=EDGE_LOOP('',(#43));
#119=EDGE_LOOP('',(#44));
#120=EDGE_LOOP('',(#45,#46,#47,#48));
#121=EDGE_LOOP('',(#49));
#122=EDGE_LOOP('',(#50));
#123=EDGE_LOOP('',(#51));
#124=EDGE_LOOP('',(#52,#53,#54,#55));
#125=EDGE_LOOP('',(#56));
#126=EDGE_LOOP('',(#57));
#127=EDGE_LOOP('',(#58));
#128=EDGE_LOOP('',(#59,#60,#61,#62));
#129=FACE_BOUND('',#111,.T.);
#130=FACE_BOUND('',#112,.T.);
#131=FACE_BOUND('',#113,.T.);
#132=FACE_BOUND('',#114,.T.);
#133=FACE_BOUND('',#115,.T.);
#134=FACE_BOUND('',#116,.T.);
#135=FACE_BOUND('',#117,.T.);
#136=FACE_BOUND('',#118,.T.);
#137=FACE_BOUND('',#119,.T.);
#138=FACE_BOUND('',#120,.T.);
#139=FACE_BOUND('',#121,.T.);
#140=FACE_BOUND('',#122,.T.);
#141=FACE_BOUND('',#123,.T.);
#142=FACE_BOUND('',#124,.T.);
#143=FACE_BOUND('',#125,.T.);
#144=FACE_BOUND('',#126,.T.);
#145=FACE_BOUND('',#127,.T.);
#146=FACE_BOUND('',#128,.T.);
#147=PLANE('',#173);
#148=PLANE('',#177);
#149=PLANE('',#190);
#150=PLANE('',#191);
#151=ADVANCED_FACE('',(#129),#147,.F.);
#152=ADVANCED_FACE('',(#130),#22,.T.);
#153=ADVANCED_FACE('',(#131),#148,.T.);
#154=ADVANCED_FACE('',(#132,#133),#23,.F.);
#155=ADVANCED_FACE('',(#134,#135),#24,.F.);
#156=ADVANCED_FACE('',(#136,#137),#25,.F.);
#157=ADVANCED_FACE('',(#138),#26,.T.);
#158=ADVANCED_FACE('',(#139,#140,#141,#142),#149,.T.);
#159=ADVANCED_FACE('',(#143,#144,#145,#146),#150,.F.);
#160=CLOSED_SHELL('',(#151,#152,#153,#154,#155,#156,#157,#158,#159));
#161=STYLED_ITEM('',(#162),#169);
#162=PRESENTATION_STYLE_ASSIGNMENT((#163));
#163=SURFACE_STYLE_USAGE(.BOTH.,#164);
#164=SURFACE_SIDE_STYLE('',(#165));
#165=SURFACE_STYLE_FILL_AREA(#166);
#166=FILL_AREA_STYLE('',(#167));
#167=FILL_AREA_STYLE_COLOUR('',#168);
#168=COLOUR_RGB('',0.498039215686275,0.498039215686275,0.498039215686275);
#169=MANIFOLD_SOLID_BREP('Part 7',#160);
#170=SHAPE_DEFINITION_REPRESENTATION(#288,#171);
#171=SHAPE_REPRESENTATION('Part 7',(#172),#283);
#172=AXIS2_PLACEMENT_3D('',#240,#192,#193);
#173=AXIS2_PLACEMENT_3D('',#241,#194,#195);
#174=AXIS2_PLACEMENT_3D('',#250,#200,#201);
#175=AXIS2_PLACEMENT_3D('',#251,#202,#203);
#176=AXIS2_PLACEMENT_3D('',#255,#205,#206);
#177=AXIS2_PLACEMENT_3D('',#256,#207,#208);
#178=AXIS2_PLACEMENT_3D('',#262,#212,#213);
#179=AXIS2_PLACEMENT_3D('',#263,#214,#215);
#180=AXIS2_PLACEMENT_3D('',#265,#216,#217);
#181=AXIS2_PLACEMENT_3D('',#267,#218,#219);
#182=AXIS2_PLACEMENT_3D('',#268,#220,#221);
#183=AXIS2_PLACEMENT_3D('',#270,#222,#223);
#184=AXIS2_PLACEMENT_3D('',#272,#224,#225);
#185=AXIS2_PLACEMENT_3D('',#273,#226,#227);
#186=AXIS2_PLACEMENT_3D('',#275,#228,#229);
#187=AXIS2_PLACEMENT_3D('',#277,#230,#231);
#188=AXIS2_PLACEMENT_3D('',#278,#232,#233);
#189=AXIS2_PLACEMENT_3D('',#279,#234,#235);
#190=AXIS2_PLACEMENT_3D('',#280,#236,#237);
#191=AXIS2_PLACEMENT_3D('',#281,#238,#239);
#192=DIRECTION('',(0.,0.,1.));
#193=DIRECTION('',(1.,0.,0.));
#194=DIRECTION('',(-1.,0.,0.));
#195=DIRECTION('',(0.,0.,1.));
#196=DIRECTION('',(0.,1.,0.));
#197=DIRECTION('',(0.,0.,-1.));
#198=DIRECTION('',(0.,1.,0.));
#199=DIRECTION('',(0.,0.,-1.));
#200=DIRECTION('',(0.,0.,-1.));
#201=DIRECTION('',(-1.,0.,0.));
#202=DIRECTION('',(0.,0.,1.));
#203=DIRECTION('',(1.,0.,0.));
#204=DIRECTION('',(0.,0.,-1.));
#205=DIRECTION('',(0.,0.,1.));
#206=DIRECTION('',(1.,0.,0.));
#207=DIRECTION('',(-1.,0.,0.));
#208=DIRECTION('',(0.,0.,1.));
#209=DIRECTION('',(0.,1.,0.));
#210=DIRECTION('',(0.,0.,-1.));
#211=DIRECTION('',(0.,1.,0.));
#212=DIRECTION('',(0.,0.,-1.));
#213=DIRECTION('',(-1.,0.,0.));
#214=DIRECTION('',(0.,0.,1.));
#215=DIRECTION('',(1.,0.,0.));
#216=DIRECTION('',(0.,0.,1.));
#217=DIRECTION('',(1.,0.,0.));
#218=DIRECTION('',(0.,0.,-1.));
#219=DIRECTION('',(-1.,0.,0.));
#220=DIRECTION('',(0.,0.,-1.));
#221=DIRECTION('',(1.,0.,0.));
#222=DIRECTION('',(0.,0.,-1.));
#223=DIRECTION('',(1.,0.,0.));
#224=DIRECTION('',(0.,0.,-1.));
#225=DIRECTION('',(-1.,0.,0.));
#226=DIRECTION('',(0.,0.,1.));
#227=DIRECTION('',(1.,0.,0.));
#228=DIRECTION('',(0.,0.,1.));
#229=DIRECTION('',(1.,0.,0.));
#230=DIRECTION('',(0.,0.,-1.));
#231=DIRECTION('',(-1.,0.,0.));
#232=DIRECTION('',(0.,0.,-1.));
#233=DIRECTION('',(1.,0.,0.));
#234=DIRECTION('',(0.,0.,-1.));
#235=DIRECTION('',(1.,0.,0.));
#236=DIRECTION('',(0.,0.,1.));
#237=DIRECTION('',(1.,0.,0.));
#238=DIRECTION('',(0.,0.,1.));
#239=DIRECTION('',(1.,0.,0.));
#240=CARTESIAN_POINT('',(0.,0.,0.));
#241=CARTESIAN_POINT('',(0.0283376509620796,0.,0.005));
#242=CARTESIAN_POINT('',(0.0283376509620796,0.,0.));
#243=CARTESIAN_POINT('',(0.0283376509620796,-0.0462140575079872,0.));
#244=CARTESIAN_POINT('',(0.0283376509620796,0.0462140575079872,0.));
#245=CARTESIAN_POINT('',(0.0283376509620796,0.0462140575079872,0.005));
#246=CARTESIAN_POINT('',(0.0283376509620796,0.0462140575079872,0.005));
#247=CARTESIAN_POINT('',(0.0283376509620796,0.,0.005));
#248=CARTESIAN_POINT('',(0.0283376509620796,-0.0462140575079872,0.005));
#249=CARTESIAN_POINT('',(0.0283376509620796,-0.0462140575079872,0.005));
#250=CARTESIAN_POINT('',(0.025,0.0462140575079872,0.005));
#251=CARTESIAN_POINT('',(0.025,0.0462140575079872,0.));
#252=CARTESIAN_POINT('',(0.0216623490379205,0.0462140575079872,0.));
#253=CARTESIAN_POINT('',(0.0216623490379205,0.0462140575079872,0.005));
#254=CARTESIAN_POINT('',(0.0216623490379205,0.0462140575079872,0.005));
#255=CARTESIAN_POINT('',(0.025,0.0462140575079872,0.005));
#256=CARTESIAN_POINT('',(0.0216623490379205,0.,0.005));
#257=CARTESIAN_POINT('',(0.0216623490379205,0.,0.));
#258=CARTESIAN_POINT('',(0.0216623490379205,-0.0462140575079872,0.));
#259=CARTESIAN_POINT('',(0.0216623490379205,-0.0462140575079872,0.005));
#260=CARTESIAN_POINT('',(0.0216623490379205,-0.0462140575079872,0.005));
#261=CARTESIAN_POINT('',(0.0216623490379205,0.,0.005));
#262=CARTESIAN_POINT('',(0.025,7.65404249467096E-20,0.005));
#263=CARTESIAN_POINT('',(0.025,7.65404249467096E-20,0.005));
#264=CARTESIAN_POINT('',(0.02625,7.65404249467096E-20,0.005));
#265=CARTESIAN_POINT('',(0.025,7.65404249467096E-20,0.));
#266=CARTESIAN_POINT('',(0.02625,7.65404249467096E-20,0.));
#267=CARTESIAN_POINT('',(0.025,0.0462140575079872,0.005));
#268=CARTESIAN_POINT('',(0.025,0.0462140575079872,0.005));
#269=CARTESIAN_POINT('',(0.02675,0.0462140575079872,0.005));
#270=CARTESIAN_POINT('',(0.025,0.0462140575079872,0.));
#271=CARTESIAN_POINT('',(0.02675,0.0462140575079872,0.));
#272=CARTESIAN_POINT('',(0.025,-0.0462140575079872,0.005));
#273=CARTESIAN_POINT('',(0.025,-0.0462140575079872,0.005));
#274=CARTESIAN_POINT('',(0.02675,-0.0462140575079872,0.005));
#275=CARTESIAN_POINT('',(0.025,-0.0462140575079872,0.));
#276=CARTESIAN_POINT('',(0.02675,-0.0462140575079872,0.));
#277=CARTESIAN_POINT('',(0.025,-0.0462140575079872,0.005));
#278=CARTESIAN_POINT('',(0.025,-0.0462140575079872,0.));
#279=CARTESIAN_POINT('',(0.025,-0.0462140575079872,0.005));
#280=CARTESIAN_POINT('',(0.0765811745189603,0.,0.005));
#281=CARTESIAN_POINT('',(0.0765811745189603,0.,0.));
#282=MECHANICAL_DESIGN_GEOMETRIC_PRESENTATION_REPRESENTATION('',(#161),
#283);
#283=(
GEOMETRIC_REPRESENTATION_CONTEXT(3)
GLOBAL_UNCERTAINTY_ASSIGNED_CONTEXT((#284))
GLOBAL_UNIT_ASSIGNED_CONTEXT((#287,#286,#285))
REPRESENTATION_CONTEXT('Part 7','TOP_LEVEL_ASSEMBLY_PART')
);
#284=UNCERTAINTY_MEASURE_WITH_UNIT(LENGTH_MEASURE(1.E-8),#287,
'DISTANCE_ACCURACY_VALUE','Maximum Tolerance applied to model');
#285=(
NAMED_UNIT(*)
SI_UNIT($,.STERADIAN.)
SOLID_ANGLE_UNIT()
);
#286=(
NAMED_UNIT(*)
PLANE_ANGLE_UNIT()
SI_UNIT($,.RADIAN.)
);
#287=(
LENGTH_UNIT()
NAMED_UNIT(*)
SI_UNIT($,.METRE.)
);
#288=PRODUCT_DEFINITION_SHAPE('','',#289);
#289=PRODUCT_DEFINITION('','',#291,#290);
#290=PRODUCT_DEFINITION_CONTEXT('',#297,'design');
#291=PRODUCT_DEFINITION_FORMATION_WITH_SPECIFIED_SOURCE('','',#293,
 .NOT_KNOWN.);
#292=PRODUCT_RELATED_PRODUCT_CATEGORY('','',(#293));
#293=PRODUCT('Part 7','Part 7','Part 7',(#295));
#294=PRODUCT_CATEGORY('','');
#295=PRODUCT_CONTEXT('',#297,'mechanical');
#296=APPLICATION_PROTOCOL_DEFINITION('international standard',
'ap242_managed_model_based_3d_engineering',2020,#297);
#297=APPLICATION_CONTEXT('managed model based 3d engineering');
ENDSEC;
END-ISO-10303-21;
