ISO-10303-21;
HEADER;
/* Generated by software containing ST-Developer
 * from STEP Tools, Inc. (www.steptools.com) 
 */
/* OPTION: using custom renumber hook */

FILE_DESCRIPTION(
/* description */ ('STEP AP242 Edition 2',
'CAx-IF Rec.Pracs.---Representation and Presentation of Product Manufa
cturing Information (PMI)---4.0---2014-10-13',
'CAx-IF Rec.Pracs.---3D Tessellated Geometry---0.4---2014-09-14','2;1',
'CAx-IF Rec.Pracs.---User Defined Attributes---1.5---2016-08-15'),
/* implementation_level */ '2;1');

FILE_NAME(
/* name */ 'Part Studio 1 - Part 1',
/* time_stamp */ '2026-08-31T00:56:38Z',
/* author */ (''),
/* organization */ (''),
/* preprocessor_version */ 'ST-DEVELOPER v20',
/* originating_system */ 'ONSHAPE BY PTC INC, 1.220',
/* authorisation */ '  ');

FILE_SCHEMA (('AP242_MANAGED_MODEL_BASED_3D_ENGINEERING_MIM_LF { 1 0 10303 442 3 1 4 }'));
ENDSEC;

DATA;
#10=SHAPE_REPRESENTATION_RELATIONSHIP('','',#315,#11);
#11=ADVANCED_BREP_SHAPE_REPRESENTATION('',(#313),#494);
#12=CYLINDRICAL_SURFACE('',#332,0.00175);
#13=CYLINDRICAL_SURFACE('',#334,0.00175);
#14=CIRCLE('',#319,0.00175);
#15=CIRCLE('',#320,0.00175);
#16=CIRCLE('',#324,0.00175);
#17=CIRCLE('',#325,0.00175);
#18=ORIENTED_EDGE('',*,*,#96,.F.);
#19=ORIENTED_EDGE('',*,*,#97,.T.);
#20=ORIENTED_EDGE('',*,*,#98,.T.);
#21=ORIENTED_EDGE('',*,*,#99,.F.);
#22=ORIENTED_EDGE('',*,*,#100,.F.);
#23=ORIENTED_EDGE('',*,*,#101,.T.);
#24=ORIENTED_EDGE('',*,*,#102,.F.);
#25=ORIENTED_EDGE('',*,*,#97,.F.);
#26=ORIENTED_EDGE('',*,*,#103,.T.);
#27=ORIENTED_EDGE('',*,*,#104,.F.);
#28=ORIENTED_EDGE('',*,*,#105,.T.);
#29=ORIENTED_EDGE('',*,*,#106,.T.);
#30=ORIENTED_EDGE('',*,*,#107,.T.);
#31=ORIENTED_EDGE('',*,*,#108,.T.);
#32=ORIENTED_EDGE('',*,*,#109,.F.);
#33=ORIENTED_EDGE('',*,*,#110,.F.);
#34=ORIENTED_EDGE('',*,*,#99,.T.);
#35=ORIENTED_EDGE('',*,*,#111,.F.);
#36=ORIENTED_EDGE('',*,*,#112,.F.);
#37=ORIENTED_EDGE('',*,*,#113,.T.);
#38=ORIENTED_EDGE('',*,*,#114,.T.);
#39=ORIENTED_EDGE('',*,*,#115,.F.);
#40=ORIENTED_EDGE('',*,*,#116,.T.);
#41=ORIENTED_EDGE('',*,*,#117,.F.);
#42=ORIENTED_EDGE('',*,*,#118,.T.);
#43=ORIENTED_EDGE('',*,*,#119,.F.);
#44=ORIENTED_EDGE('',*,*,#120,.F.);
#45=ORIENTED_EDGE('',*,*,#121,.T.);
#46=ORIENTED_EDGE('',*,*,#122,.F.);
#47=ORIENTED_EDGE('',*,*,#123,.T.);
#48=ORIENTED_EDGE('',*,*,#112,.T.);
#49=ORIENTED_EDGE('',*,*,#124,.F.);
#50=ORIENTED_EDGE('',*,*,#125,.T.);
#51=ORIENTED_EDGE('',*,*,#126,.F.);
#52=ORIENTED_EDGE('',*,*,#127,.F.);
#53=ORIENTED_EDGE('',*,*,#117,.T.);
#54=ORIENTED_EDGE('',*,*,#128,.F.);
#55=ORIENTED_EDGE('',*,*,#114,.F.);
#56=ORIENTED_EDGE('',*,*,#129,.T.);
#57=ORIENTED_EDGE('',*,*,#126,.T.);
#58=ORIENTED_EDGE('',*,*,#130,.F.);
#59=ORIENTED_EDGE('',*,*,#106,.F.);
#60=ORIENTED_EDGE('',*,*,#131,.T.);
#61=ORIENTED_EDGE('',*,*,#119,.T.);
#62=ORIENTED_EDGE('',*,*,#132,.T.);
#63=ORIENTED_EDGE('',*,*,#109,.T.);
#64=ORIENTED_EDGE('',*,*,#123,.F.);
#65=ORIENTED_EDGE('',*,*,#100,.T.);
#66=ORIENTED_EDGE('',*,*,#110,.T.);
#67=ORIENTED_EDGE('',*,*,#132,.F.);
#68=ORIENTED_EDGE('',*,*,#118,.F.);
#69=ORIENTED_EDGE('',*,*,#127,.T.);
#70=ORIENTED_EDGE('',*,*,#129,.F.);
#71=ORIENTED_EDGE('',*,*,#113,.F.);
#72=ORIENTED_EDGE('',*,*,#111,.T.);
#73=ORIENTED_EDGE('',*,*,#128,.T.);
#74=ORIENTED_EDGE('',*,*,#125,.F.);
#75=ORIENTED_EDGE('',*,*,#116,.F.);
#76=ORIENTED_EDGE('',*,*,#102,.T.);
#77=ORIENTED_EDGE('',*,*,#130,.T.);
#78=ORIENTED_EDGE('',*,*,#108,.F.);
#79=ORIENTED_EDGE('',*,*,#98,.F.);
#80=ORIENTED_EDGE('',*,*,#120,.T.);
#81=ORIENTED_EDGE('',*,*,#131,.F.);
#82=ORIENTED_EDGE('',*,*,#105,.F.);
#83=ORIENTED_EDGE('',*,*,#133,.T.);
#84=ORIENTED_EDGE('',*,*,#115,.T.);
#85=ORIENTED_EDGE('',*,*,#101,.F.);
#86=ORIENTED_EDGE('',*,*,#133,.F.);
#87=ORIENTED_EDGE('',*,*,#104,.T.);
#88=ORIENTED_EDGE('',*,*,#134,.T.);
#89=ORIENTED_EDGE('',*,*,#121,.F.);
#90=ORIENTED_EDGE('',*,*,#124,.T.);
#91=ORIENTED_EDGE('',*,*,#107,.F.);
#92=ORIENTED_EDGE('',*,*,#103,.F.);
#93=ORIENTED_EDGE('',*,*,#96,.T.);
#94=ORIENTED_EDGE('',*,*,#122,.T.);
#95=ORIENTED_EDGE('',*,*,#134,.F.);
#96=EDGE_CURVE('',#135,#136,#162,.T.);
#97=EDGE_CURVE('',#135,#137,#163,.T.);
#98=EDGE_CURVE('',#137,#138,#164,.T.);
#99=EDGE_CURVE('',#139,#138,#165,.T.);
#100=EDGE_CURVE('',#136,#139,#166,.T.);
#101=EDGE_CURVE('',#140,#140,#14,.F.);
#102=EDGE_CURVE('',#137,#141,#167,.T.);
#103=EDGE_CURVE('',#135,#142,#168,.T.);
#104=EDGE_CURVE('',#143,#142,#169,.T.);
#105=EDGE_CURVE('',#143,#144,#170,.T.);
#106=EDGE_CURVE('',#144,#141,#171,.T.);
#107=EDGE_CURVE('',#145,#145,#15,.F.);
#108=EDGE_CURVE('',#138,#146,#172,.T.);
#109=EDGE_CURVE('',#147,#146,#173,.T.);
#110=EDGE_CURVE('',#139,#147,#174,.T.);
#111=EDGE_CURVE('',#148,#149,#175,.T.);
#112=EDGE_CURVE('',#150,#148,#176,.T.);
#113=EDGE_CURVE('',#150,#151,#177,.T.);
#114=EDGE_CURVE('',#151,#149,#178,.T.);
#115=EDGE_CURVE('',#152,#152,#16,.T.);
#116=EDGE_CURVE('',#148,#153,#179,.T.);
#117=EDGE_CURVE('',#154,#153,#180,.T.);
#118=EDGE_CURVE('',#154,#155,#181,.T.);
#119=EDGE_CURVE('',#156,#155,#182,.T.);
#120=EDGE_CURVE('',#157,#156,#183,.T.);
#121=EDGE_CURVE('',#157,#158,#184,.T.);
#122=EDGE_CURVE('',#136,#158,#185,.T.);
#123=EDGE_CURVE('',#136,#150,#186,.T.);
#124=EDGE_CURVE('',#159,#159,#17,.T.);
#125=EDGE_CURVE('',#153,#160,#187,.T.);
#126=EDGE_CURVE('',#161,#160,#188,.T.);
#127=EDGE_CURVE('',#154,#161,#189,.T.);
#128=EDGE_CURVE('',#149,#160,#190,.T.);
#129=EDGE_CURVE('',#151,#161,#191,.T.);
#130=EDGE_CURVE('',#141,#146,#192,.T.);
#131=EDGE_CURVE('',#144,#156,#193,.T.);
#132=EDGE_CURVE('',#155,#147,#194,.T.);
#133=EDGE_CURVE('',#143,#157,#195,.T.);
#134=EDGE_CURVE('',#142,#158,#196,.T.);
#135=VERTEX_POINT('',#414);
#136=VERTEX_POINT('',#415);
#137=VERTEX_POINT('',#417);
#138=VERTEX_POINT('',#419);
#139=VERTEX_POINT('',#421);
#140=VERTEX_POINT('',#425);
#141=VERTEX_POINT('',#427);
#142=VERTEX_POINT('',#429);
#143=VERTEX_POINT('',#431);
#144=VERTEX_POINT('',#433);
#145=VERTEX_POINT('',#436);
#146=VERTEX_POINT('',#439);
#147=VERTEX_POINT('',#441);
#148=VERTEX_POINT('',#445);
#149=VERTEX_POINT('',#446);
#150=VERTEX_POINT('',#448);
#151=VERTEX_POINT('',#450);
#152=VERTEX_POINT('',#454);
#153=VERTEX_POINT('',#456);
#154=VERTEX_POINT('',#458);
#155=VERTEX_POINT('',#460);
#156=VERTEX_POINT('',#462);
#157=VERTEX_POINT('',#464);
#158=VERTEX_POINT('',#466);
#159=VERTEX_POINT('',#470);
#160=VERTEX_POINT('',#473);
#161=VERTEX_POINT('',#475);
#162=LINE('',#413,#197);
#163=LINE('',#416,#198);
#164=LINE('',#418,#199);
#165=LINE('',#420,#200);
#166=LINE('',#422,#201);
#167=LINE('',#426,#202);
#168=LINE('',#428,#203);
#169=LINE('',#430,#204);
#170=LINE('',#432,#205);
#171=LINE('',#434,#206);
#172=LINE('',#438,#207);
#173=LINE('',#440,#208);
#174=LINE('',#442,#209);
#175=LINE('',#444,#210);
#176=LINE('',#447,#211);
#177=LINE('',#449,#212);
#178=LINE('',#451,#213);
#179=LINE('',#455,#214);
#180=LINE('',#457,#215);
#181=LINE('',#459,#216);
#182=LINE('',#461,#217);
#183=LINE('',#463,#218);
#184=LINE('',#465,#219);
#185=LINE('',#467,#220);
#186=LINE('',#468,#221);
#187=LINE('',#472,#222);
#188=LINE('',#474,#223);
#189=LINE('',#476,#224);
#190=LINE('',#478,#225);
#191=LINE('',#479,#226);
#192=LINE('',#481,#227);
#193=LINE('',#482,#228);
#194=LINE('',#483,#229);
#195=LINE('',#487,#230);
#196=LINE('',#490,#231);
#197=VECTOR('',#340,1.);
#198=VECTOR('',#341,1.);
#199=VECTOR('',#342,1.);
#200=VECTOR('',#343,1.);
#201=VECTOR('',#344,1.);
#202=VECTOR('',#349,1.);
#203=VECTOR('',#350,1.);
#204=VECTOR('',#351,1.);
#205=VECTOR('',#352,1.);
#206=VECTOR('',#353,1.);
#207=VECTOR('',#358,1.);
#208=VECTOR('',#359,1.);
#209=VECTOR('',#360,1.);
#210=VECTOR('',#363,1.);
#211=VECTOR('',#364,1.);
#212=VECTOR('',#365,1.);
#213=VECTOR('',#366,1.);
#214=VECTOR('',#371,1.);
#215=VECTOR('',#372,1.);
#216=VECTOR('',#373,1.);
#217=VECTOR('',#374,1.);
#218=VECTOR('',#375,1.);
#219=VECTOR('',#376,1.);
#220=VECTOR('',#377,1.);
#221=VECTOR('',#378,1.);
#222=VECTOR('',#383,1.);
#223=VECTOR('',#384,1.);
#224=VECTOR('',#385,1.);
#225=VECTOR('',#388,1.);
#226=VECTOR('',#389,1.);
#227=VECTOR('',#392,1.);
#228=VECTOR('',#393,1.);
#229=VECTOR('',#394,1.);
#230=VECTOR('',#401,1.);
#231=VECTOR('',#406,1.);
#232=EDGE_LOOP('',(#18,#19,#20,#21,#22));
#233=EDGE_LOOP('',(#23));
#234=EDGE_LOOP('',(#24,#25,#26,#27,#28,#29));
#235=EDGE_LOOP('',(#30));
#236=EDGE_LOOP('',(#31,#32,#33,#34));
#237=EDGE_LOOP('',(#35,#36,#37,#38));
#238=EDGE_LOOP('',(#39));
#239=EDGE_LOOP('',(#40,#41,#42,#43,#44,#45,#46,#47,#48));
#240=EDGE_LOOP('',(#49));
#241=EDGE_LOOP('',(#50,#51,#52,#53));
#242=EDGE_LOOP('',(#54,#55,#56,#57));
#243=EDGE_LOOP('',(#58,#59,#60,#61,#62,#63));
#244=EDGE_LOOP('',(#64,#65,#66,#67,#68,#69,#70,#71));
#245=EDGE_LOOP('',(#72,#73,#74,#75));
#246=EDGE_LOOP('',(#76,#77,#78,#79));
#247=EDGE_LOOP('',(#80,#81,#82,#83));
#248=EDGE_LOOP('',(#84));
#249=EDGE_LOOP('',(#85));
#250=EDGE_LOOP('',(#86,#87,#88,#89));
#251=EDGE_LOOP('',(#90));
#252=EDGE_LOOP('',(#91));
#253=EDGE_LOOP('',(#92,#93,#94,#95));
#254=FACE_BOUND('',#232,.T.);
#255=FACE_BOUND('',#233,.T.);
#256=FACE_BOUND('',#234,.T.);
#257=FACE_BOUND('',#235,.T.);
#258=FACE_BOUND('',#236,.T.);
#259=FACE_BOUND('',#237,.T.);
#260=FACE_BOUND('',#238,.T.);
#261=FACE_BOUND('',#239,.T.);
#262=FACE_BOUND('',#240,.T.);
#263=FACE_BOUND('',#241,.T.);
#264=FACE_BOUND('',#242,.T.);
#265=FACE_BOUND('',#243,.T.);
#266=FACE_BOUND('',#244,.T.);
#267=FACE_BOUND('',#245,.T.);
#268=FACE_BOUND('',#246,.T.);
#269=FACE_BOUND('',#247,.T.);
#270=FACE_BOUND('',#248,.T.);
#271=FACE_BOUND('',#249,.T.);
#272=FACE_BOUND('',#250,.T.);
#273=FACE_BOUND('',#251,.T.);
#274=FACE_BOUND('',#252,.T.);
#275=FACE_BOUND('',#253,.T.);
#276=PLANE('',#317);
#277=PLANE('',#318);
#278=PLANE('',#321);
#279=PLANE('',#322);
#280=PLANE('',#323);
#281=PLANE('',#326);
#282=PLANE('',#327);
#283=PLANE('',#328);
#284=PLANE('',#329);
#285=PLANE('',#330);
#286=PLANE('',#331);
#287=PLANE('',#333);
#288=PLANE('',#335);
#289=ADVANCED_FACE('',(#254),#276,.F.);
#290=ADVANCED_FACE('',(#255,#256,#257),#277,.T.);
#291=ADVANCED_FACE('',(#258),#278,.F.);
#292=ADVANCED_FACE('',(#259),#279,.T.);
#293=ADVANCED_FACE('',(#260,#261,#262),#280,.F.);
#294=ADVANCED_FACE('',(#263),#281,.F.);
#295=ADVANCED_FACE('',(#264),#282,.T.);
#296=ADVANCED_FACE('',(#265),#283,.T.);
#297=ADVANCED_FACE('',(#266),#284,.T.);
#298=ADVANCED_FACE('',(#267,#268),#285,.F.);
#299=ADVANCED_FACE('',(#269),#286,.T.);
#300=ADVANCED_FACE('',(#270,#271),#12,.F.);
#301=ADVANCED_FACE('',(#272),#287,.T.);
#302=ADVANCED_FACE('',(#273,#274),#13,.F.);
#303=ADVANCED_FACE('',(#275),#288,.F.);
#304=CLOSED_SHELL('',(#289,#290,#291,#292,#293,#294,#295,#296,#297,#298,
#299,#300,#301,#302,#303));
#305=STYLED_ITEM('',(#306),#313);
#306=PRESENTATION_STYLE_ASSIGNMENT((#307));
#307=SURFACE_STYLE_USAGE(.BOTH.,#308);
#308=SURFACE_SIDE_STYLE('',(#309));
#309=SURFACE_STYLE_FILL_AREA(#310);
#310=FILL_AREA_STYLE('',(#311));
#311=FILL_AREA_STYLE_COLOUR('',#312);
#312=COLOUR_RGB('',0.615686274509804,0.811764705882353,0.929411764705882);
#313=MANIFOLD_SOLID_BREP('Part 1',#304);
#314=SHAPE_DEFINITION_REPRESENTATION(#499,#315);
#315=SHAPE_REPRESENTATION('Part 1',(#316),#494);
#316=AXIS2_PLACEMENT_3D('',#411,#336,#337);
#317=AXIS2_PLACEMENT_3D('',#412,#338,#339);
#318=AXIS2_PLACEMENT_3D('',#423,#345,#346);
#319=AXIS2_PLACEMENT_3D('',#424,#347,#348);
#320=AXIS2_PLACEMENT_3D('',#435,#354,#355);
#321=AXIS2_PLACEMENT_3D('',#437,#356,#357);
#322=AXIS2_PLACEMENT_3D('',#443,#361,#362);
#323=AXIS2_PLACEMENT_3D('',#452,#367,#368);
#324=AXIS2_PLACEMENT_3D('',#453,#369,#370);
#325=AXIS2_PLACEMENT_3D('',#469,#379,#380);
#326=AXIS2_PLACEMENT_3D('',#471,#381,#382);
#327=AXIS2_PLACEMENT_3D('',#477,#386,#387);
#328=AXIS2_PLACEMENT_3D('',#480,#390,#391);
#329=AXIS2_PLACEMENT_3D('',#484,#395,#396);
#330=AXIS2_PLACEMENT_3D('',#485,#397,#398);
#331=AXIS2_PLACEMENT_3D('',#486,#399,#400);
#332=AXIS2_PLACEMENT_3D('',#488,#402,#403);
#333=AXIS2_PLACEMENT_3D('',#489,#404,#405);
#334=AXIS2_PLACEMENT_3D('',#491,#407,#408);
#335=AXIS2_PLACEMENT_3D('',#492,#409,#410);
#336=DIRECTION('',(0.,0.,1.));
#337=DIRECTION('',(1.,0.,0.));
#338=DIRECTION('',(-1.,0.,0.));
#339=DIRECTION('',(0.,0.,1.));
#340=DIRECTION('',(-1.15648231731787E-16,1.,0.));
#341=DIRECTION('',(0.,0.,-1.));
#342=DIRECTION('',(0.,1.,0.));
#343=DIRECTION('',(0.,0.,-1.));
#344=DIRECTION('',(0.,1.,0.));
#345=DIRECTION('',(9.63735264431559E-17,-1.,0.));
#346=DIRECTION('',(1.,9.63735264431559E-17,0.));
#347=DIRECTION('',(9.63735264431559E-17,-1.,0.));
#348=DIRECTION('',(1.,9.63735264431559E-17,0.));
#349=DIRECTION('',(-1.,-9.63735264431559E-17,0.));
#350=DIRECTION('',(1.,9.63735264431559E-17,0.));
#351=DIRECTION('',(0.,0.,-1.));
#352=DIRECTION('',(-1.,-9.63735264431559E-17,0.));
#353=DIRECTION('',(0.,0.,-1.));
#354=DIRECTION('',(9.63735264431559E-17,-1.,0.));
#355=DIRECTION('',(1.,9.63735264431559E-17,0.));
#356=DIRECTION('',(9.63735264431559E-17,-1.,0.));
#357=DIRECTION('',(1.,9.63735264431559E-17,0.));
#358=DIRECTION('',(-1.,-9.63735264431559E-17,0.));
#359=DIRECTION('',(0.,0.,-1.));
#360=DIRECTION('',(-1.,-9.63735264431559E-17,0.));
#361=DIRECTION('',(-1.,9.6373526443156E-17,0.));
#362=DIRECTION('',(-9.6373526443156E-17,-1.,0.));
#363=DIRECTION('',(9.6373526443156E-17,1.,0.));
#364=DIRECTION('',(0.,0.,-1.));
#365=DIRECTION('',(9.6373526443156E-17,1.,0.));
#366=DIRECTION('',(0.,0.,-1.));
#367=DIRECTION('',(1.15648231731787E-16,-1.,0.));
#368=DIRECTION('',(1.,1.15648231731787E-16,0.));
#369=DIRECTION('',(-1.15648231731787E-16,1.,0.));
#370=DIRECTION('',(-1.,-1.15648231731787E-16,0.));
#371=DIRECTION('',(-1.,-1.15648231731787E-16,0.));
#372=DIRECTION('',(0.,0.,-1.));
#373=DIRECTION('',(-1.,-1.15648231731787E-16,0.));
#374=DIRECTION('',(0.,0.,-1.));
#375=DIRECTION('',(-1.,-1.15648231731787E-16,0.));
#376=DIRECTION('',(0.,0.,-1.));
#377=DIRECTION('',(1.,1.15648231731787E-16,0.));
#378=DIRECTION('',(-1.,-1.15648231731787E-16,0.));
#379=DIRECTION('',(-1.15648231731787E-16,1.,0.));
#380=DIRECTION('',(-1.,-1.15648231731787E-16,0.));
#381=DIRECTION('',(-1.,9.63735264431559E-17,0.));
#382=DIRECTION('',(-9.63735264431559E-17,-1.,0.));
#383=DIRECTION('',(9.63735264431559E-17,1.,0.));
#384=DIRECTION('',(0.,0.,-1.));
#385=DIRECTION('',(9.63735264431559E-17,1.,0.));
#386=DIRECTION('',(1.15648231731787E-16,-1.,0.));
#387=DIRECTION('',(1.,1.15648231731787E-16,0.));
#388=DIRECTION('',(-1.,-1.15648231731787E-16,0.));
#389=DIRECTION('',(-1.,-1.15648231731787E-16,0.));
#390=DIRECTION('',(-1.,0.,0.));
#391=DIRECTION('',(0.,0.,1.));
#392=DIRECTION('',(0.,1.,0.));
#393=DIRECTION('',(0.,1.,0.));
#394=DIRECTION('',(0.,1.,0.));
#395=DIRECTION('',(0.,0.,1.));
#396=DIRECTION('',(1.,0.,0.));
#397=DIRECTION('',(0.,0.,1.));
#398=DIRECTION('',(1.,0.,0.));
#399=DIRECTION('',(0.,0.,1.));
#400=DIRECTION('',(1.,0.,0.));
#401=DIRECTION('',(-1.15648231731787E-16,1.,0.));
#402=DIRECTION('',(-1.15648231731787E-16,1.,0.));
#403=DIRECTION('',(-1.,-1.15648231731787E-16,0.));
#404=DIRECTION('',(1.,1.15648231731787E-16,0.));
#405=DIRECTION('',(-1.15648231731787E-16,1.,0.));
#406=DIRECTION('',(-1.15648231731787E-16,1.,0.));
#407=DIRECTION('',(-1.15648231731787E-16,1.,0.));
#408=DIRECTION('',(-1.,-1.15648231731787E-16,0.));
#409=DIRECTION('',(0.,0.,1.));
#410=DIRECTION('',(1.,0.,0.));
#411=CARTESIAN_POINT('',(0.,0.,0.));
#412=CARTESIAN_POINT('',(0.009,8.67361737988404E-19,0.0088));
#413=CARTESIAN_POINT('',(0.009,-0.006502,0.0088));
#414=CARTESIAN_POINT('',(0.009,-0.0065,0.0088));
#415=CARTESIAN_POINT('',(0.009,-0.0045,0.0088));
#416=CARTESIAN_POINT('',(0.009,-0.0065,0.0088));
#417=CARTESIAN_POINT('',(0.009,-0.0065,0.));
#418=CARTESIAN_POINT('',(0.009,8.67361737988404E-19,0.));
#419=CARTESIAN_POINT('',(0.009,0.0065,0.));
#420=CARTESIAN_POINT('',(0.009,0.0065,0.0088));
#421=CARTESIAN_POINT('',(0.009,0.0065,0.0088));
#422=CARTESIAN_POINT('',(0.009,8.67361737988404E-19,0.0088));
#423=CARTESIAN_POINT('',(0.,-0.0065,0.0088));
#424=CARTESIAN_POINT('',(-0.0045,-0.0065,0.0138));
#425=CARTESIAN_POINT('',(-0.00275,-0.0065,0.0138));
#426=CARTESIAN_POINT('',(0.,-0.0065,0.));
#427=CARTESIAN_POINT('',(-0.009,-0.0065,0.));
#428=CARTESIAN_POINT('',(0.013,-0.0065,0.0088));
#429=CARTESIAN_POINT('',(0.017,-0.0065,0.0088));
#430=CARTESIAN_POINT('',(0.017,-0.0065,0.0138));
#431=CARTESIAN_POINT('',(0.017,-0.0065,0.0188));
#432=CARTESIAN_POINT('',(0.,-0.0065,0.0188));
#433=CARTESIAN_POINT('',(-0.009,-0.0065,0.0188));
#434=CARTESIAN_POINT('',(-0.009,-0.0065,0.0088));
#435=CARTESIAN_POINT('',(0.013,-0.0065,0.0138));
#436=CARTESIAN_POINT('',(0.01475,-0.0065,0.0138));
#437=CARTESIAN_POINT('',(0.,0.0065,0.0088));
#438=CARTESIAN_POINT('',(0.,0.0065,0.));
#439=CARTESIAN_POINT('',(-0.009,0.0065,0.));
#440=CARTESIAN_POINT('',(-0.009,0.0065,0.0088));
#441=CARTESIAN_POINT('',(-0.009,0.0065,0.0088));
#442=CARTESIAN_POINT('',(0.,0.0065,0.0088));
#443=CARTESIAN_POINT('',(0.0075,8.67361737988404E-19,0.0088));
#444=CARTESIAN_POINT('',(0.0075,8.67361737988404E-19,0.));
#445=CARTESIAN_POINT('',(0.0075,-0.0045,0.));
#446=CARTESIAN_POINT('',(0.0075,0.0045,0.));
#447=CARTESIAN_POINT('',(0.0075,-0.0045,0.0088));
#448=CARTESIAN_POINT('',(0.0075,-0.0045,0.0088));
#449=CARTESIAN_POINT('',(0.0075,8.67361737988404E-19,0.0088));
#450=CARTESIAN_POINT('',(0.0075,0.0045,0.0088));
#451=CARTESIAN_POINT('',(0.0075,0.0045,0.0088));
#452=CARTESIAN_POINT('',(-1.7347234759768E-18,-0.0045,0.0088));
#453=CARTESIAN_POINT('',(-0.0045,-0.0045,0.0138));
#454=CARTESIAN_POINT('',(-0.00625,-0.0045,0.0138));
#455=CARTESIAN_POINT('',(-1.7347234759768E-18,-0.0045,0.));
#456=CARTESIAN_POINT('',(-0.0075,-0.0045,0.));
#457=CARTESIAN_POINT('',(-0.0075,-0.0045,0.0088));
#458=CARTESIAN_POINT('',(-0.0075,-0.0045,0.0088));
#459=CARTESIAN_POINT('',(-1.7347234759768E-18,-0.0045,0.0088));
#460=CARTESIAN_POINT('',(-0.009,-0.0045,0.0088));
#461=CARTESIAN_POINT('',(-0.009,-0.0045,0.0188));
#462=CARTESIAN_POINT('',(-0.009,-0.0045,0.0188));
#463=CARTESIAN_POINT('',(-1.7347234759768E-18,-0.0045,0.0188));
#464=CARTESIAN_POINT('',(0.017,-0.0045,0.0188));
#465=CARTESIAN_POINT('',(0.017,-0.0045,0.0138));
#466=CARTESIAN_POINT('',(0.017,-0.0045,0.0088));
#467=CARTESIAN_POINT('',(0.013,-0.0045,0.0088));
#468=CARTESIAN_POINT('',(-1.7347234759768E-18,-0.0045,0.0088));
#469=CARTESIAN_POINT('',(0.013,-0.0045,0.0138));
#470=CARTESIAN_POINT('',(0.01125,-0.0045,0.0138));
#471=CARTESIAN_POINT('',(-0.0075,-2.60208521396521E-18,0.0088));
#472=CARTESIAN_POINT('',(-0.0075,-2.60208521396521E-18,0.));
#473=CARTESIAN_POINT('',(-0.0075,0.0045,0.));
#474=CARTESIAN_POINT('',(-0.0075,0.0045,0.0088));
#475=CARTESIAN_POINT('',(-0.0075,0.0045,0.0088));
#476=CARTESIAN_POINT('',(-0.0075,-2.60208521396521E-18,0.0088));
#477=CARTESIAN_POINT('',(0.,0.0045,0.0088));
#478=CARTESIAN_POINT('',(0.,0.0045,0.));
#479=CARTESIAN_POINT('',(0.,0.0045,0.0088));
#480=CARTESIAN_POINT('',(-0.009,0.,0.0088));
#481=CARTESIAN_POINT('',(-0.009,0.,0.));
#482=CARTESIAN_POINT('',(-0.009,0.,0.0188));
#483=CARTESIAN_POINT('',(-0.009,0.,0.0088));
#484=CARTESIAN_POINT('',(0.,0.,0.0088));
#485=CARTESIAN_POINT('',(0.,0.,0.));
#486=CARTESIAN_POINT('',(-1.7347234759768E-18,0.,0.0188));
#487=CARTESIAN_POINT('',(0.017,-0.006502,0.0188));
#488=CARTESIAN_POINT('',(-0.0045,-0.006502,0.0138));
#489=CARTESIAN_POINT('',(0.017,-0.006502,0.0138));
#490=CARTESIAN_POINT('',(0.017,-0.006502,0.0088));
#491=CARTESIAN_POINT('',(0.013,-0.006502,0.0138));
#492=CARTESIAN_POINT('',(0.013,-0.006502,0.0088));
#493=MECHANICAL_DESIGN_GEOMETRIC_PRESENTATION_REPRESENTATION('',(#305),
#494);
#494=(
GEOMETRIC_REPRESENTATION_CONTEXT(3)
GLOBAL_UNCERTAINTY_ASSIGNED_CONTEXT((#495))
GLOBAL_UNIT_ASSIGNED_CONTEXT((#498,#497,#496))
REPRESENTATION_CONTEXT('Part 1','TOP_LEVEL_ASSEMBLY_PART')
);
#495=UNCERTAINTY_MEASURE_WITH_UNIT(LENGTH_MEASURE(1.E-8),#498,
'DISTANCE_ACCURACY_VALUE','Maximum Tolerance applied to model');
#496=(
NAMED_UNIT(*)
SI_UNIT($,.STERADIAN.)
SOLID_ANGLE_UNIT()
);
#497=(
NAMED_UNIT(*)
PLANE_ANGLE_UNIT()
SI_UNIT($,.RADIAN.)
);
#498=(
LENGTH_UNIT()
NAMED_UNIT(*)
SI_UNIT($,.METRE.)
);
#499=PRODUCT_DEFINITION_SHAPE('','',#500);
#500=PRODUCT_DEFINITION('','',#502,#501);
#501=PRODUCT_DEFINITION_CONTEXT('',#508,'design');
#502=PRODUCT_DEFINITION_FORMATION_WITH_SPECIFIED_SOURCE('','',#504,
 .NOT_KNOWN.);
#503=PRODUCT_RELATED_PRODUCT_CATEGORY('','',(#504));
#504=PRODUCT('Part 1','Part 1','Part 1',(#506));
#505=PRODUCT_CATEGORY('','');
#506=PRODUCT_CONTEXT('',#508,'mechanical');
#507=APPLICATION_PROTOCOL_DEFINITION('international standard',
'ap242_managed_model_based_3d_engineering',2020,#508);
#508=APPLICATION_CONTEXT('managed model based 3d engineering');
ENDSEC;
END-ISO-10303-21;
