ISO-10303-21;
HEADER;
/* Generated by software containing ST-Developer
 * from STEP Tools, Inc. (www.steptools.com) 
 */
/* OPTION: using custom renumber hook */

FILE_DESCRIPTION(
/* description */ ('STEP AP242 Edition 2',
'CAx-IF Rec.Pracs.---Representation and Presentation of Product Manufa
cturing Information (PMI)---4.0---2014-10-13',
'CAx-IF Rec.Pracs.---3D Tessellated Geometry---0.4---2014-09-14','2;1',
'CAx-IF Rec.Pracs.---User Defined Attributes---1.5---2016-08-15'),
/* implementation_level */ '2;1');

FILE_NAME(
/* name */ 'Part Studio 1 - Part 1',
/* time_stamp */ '2026-08-31T00:48:33Z',
/* author */ (''),
/* organization */ (''),
/* preprocessor_version */ 'ST-DEVELOPER v20',
/* originating_system */ 'ONSHAPE BY PTC INC, 1.220',
/* authorisation */ '  ');

FILE_SCHEMA (('AP242_MANAGED_MODEL_BASED_3D_ENGINEERING_MIM_LF { 1 0 10303 442 3 1 4 }'));
ENDSEC;

DATA;
#10=SHAPE_REPRESENTATION_RELATIONSHIP('','',#473,#11);
#11=ADVANCED_BREP_SHAPE_REPRESENTATION('',(#471),#797);
#12=CONICAL_SURFACE('',#490,0.00675499814951862,1.12483118813336);
#13=CONICAL_SURFACE('',#491,0.00675499814951862,1.12483118813336);
#14=B_SPLINE_CURVE_WITH_KNOTS('',3,(#638,#639,#640,#641,#642),
 .UNSPECIFIED.,.F.,.F.,(4,1,4),(2.34309808439679E-7,0.00338456836260668,
0.00676890241540492),.UNSPECIFIED.);
#15=B_SPLINE_CURVE_WITH_KNOTS('',3,(#647,#648,#649,#650,#651),
 .UNSPECIFIED.,.F.,.F.,(4,1,4),(2.34309808441628E-7,0.00338456836260668,
0.00676890241540492),.UNSPECIFIED.);
#16=B_SPLINE_CURVE_WITH_KNOTS('',3,(#655,#656,#657,#658,#659),
 .UNSPECIFIED.,.F.,.F.,(4,1,4),(0.0071854096039273,0.0106055246003189,0.0140256395967105),
 .UNSPECIFIED.);
#17=B_SPLINE_CURVE_WITH_KNOTS('',3,(#663,#664,#665,#666,#667),
 .UNSPECIFIED.,.F.,.F.,(4,1,4),(0.00718540960392729,0.0106055246003189,
0.0140256395967104),.UNSPECIFIED.);
#18=B_SPLINE_CURVE_WITH_KNOTS('',3,(#669,#670,#671,#672,#673),
 .UNSPECIFIED.,.F.,.F.,(4,1,4),(2.34309808443179E-7,0.00338456836260668,
0.00676890241540492),.UNSPECIFIED.);
#19=B_SPLINE_CURVE_WITH_KNOTS('',3,(#677,#678,#679,#680,#681),
 .UNSPECIFIED.,.F.,.F.,(4,1,4),(2.34309808439679E-7,0.00338456836260668,
0.00676890241540491),.UNSPECIFIED.);
#20=B_SPLINE_CURVE_WITH_KNOTS('',3,(#683,#684,#685,#686,#687),
 .UNSPECIFIED.,.F.,.F.,(4,1,4),(2.34309808441858E-7,0.00338456836260668,
0.00676890241540492),.UNSPECIFIED.);
#21=B_SPLINE_CURVE_WITH_KNOTS('',3,(#691,#692,#693,#694,#695),
 .UNSPECIFIED.,.F.,.F.,(4,1,4),(2.34309808441719E-7,0.00338456836260668,
0.00676890241540492),.UNSPECIFIED.);
#22=B_SPLINE_CURVE_WITH_KNOTS('',3,(#697,#698,#699,#700,#701),
 .UNSPECIFIED.,.F.,.F.,(4,1,4),(0.0071854096039273,0.0106055246003189,0.0140256395967105),
 .UNSPECIFIED.);
#23=B_SPLINE_CURVE_WITH_KNOTS('',3,(#705,#706,#707,#708,#709),
 .UNSPECIFIED.,.F.,.F.,(4,1,4),(0.00718540960392729,0.0106055246003189,
0.0140256395967104),.UNSPECIFIED.);
#24=B_SPLINE_CURVE_WITH_KNOTS('',3,(#711,#712,#713,#714,#715),
 .UNSPECIFIED.,.F.,.F.,(4,1,4),(2.34309808442187E-7,0.00338456836260668,
0.00676890241540492),.UNSPECIFIED.);
#25=B_SPLINE_CURVE_WITH_KNOTS('',3,(#716,#717,#718,#719,#720),
 .UNSPECIFIED.,.F.,.F.,(4,1,4),(2.34309808441858E-7,0.00338456836260668,
0.00676890241540492),.UNSPECIFIED.);
#26=LINE('',#625,#68);
#27=LINE('',#628,#69);
#28=LINE('',#630,#70);
#29=LINE('',#632,#71);
#30=LINE('',#634,#72);
#31=LINE('',#636,#73);
#32=LINE('',#645,#74);
#33=LINE('',#653,#75);
#34=LINE('',#661,#76);
#35=LINE('',#675,#77);
#36=LINE('',#689,#78);
#37=LINE('',#703,#79);
#38=LINE('',#727,#80);
#39=LINE('',#730,#81);
#40=LINE('',#732,#82);
#41=LINE('',#734,#83);
#42=LINE('',#736,#84);
#43=LINE('',#738,#85);
#44=LINE('',#744,#86);
#45=LINE('',#746,#87);
#46=LINE('',#748,#88);
#47=LINE('',#750,#89);
#48=LINE('',#752,#90);
#49=LINE('',#754,#91);
#50=LINE('',#756,#92);
#51=LINE('',#758,#93);
#52=LINE('',#760,#94);
#53=LINE('',#762,#95);
#54=LINE('',#764,#96);
#55=LINE('',#766,#97);
#56=LINE('',#768,#98);
#57=LINE('',#770,#99);
#58=LINE('',#772,#100);
#59=LINE('',#774,#101);
#60=LINE('',#776,#102);
#61=LINE('',#778,#103);
#62=LINE('',#780,#104);
#63=LINE('',#782,#105);
#64=LINE('',#784,#106);
#65=LINE('',#786,#107);
#66=LINE('',#788,#108);
#67=LINE('',#790,#109);
#68=VECTOR('',#518,1.);
#69=VECTOR('',#519,1.);
#70=VECTOR('',#520,1.);
#71=VECTOR('',#521,1.);
#72=VECTOR('',#522,1.);
#73=VECTOR('',#523,1.);
#74=VECTOR('',#526,1.);
#75=VECTOR('',#527,1.);
#76=VECTOR('',#530,1.);
#77=VECTOR('',#533,1.);
#78=VECTOR('',#536,1.);
#79=VECTOR('',#539,1.);
#80=VECTOR('',#550,1.);
#81=VECTOR('',#551,1.);
#82=VECTOR('',#552,1.);
#83=VECTOR('',#553,1.);
#84=VECTOR('',#554,1.);
#85=VECTOR('',#555,1.);
#86=VECTOR('',#564,1.);
#87=VECTOR('',#565,1.);
#88=VECTOR('',#566,1.);
#89=VECTOR('',#569,1.);
#90=VECTOR('',#570,1.);
#91=VECTOR('',#573,1.);
#92=VECTOR('',#574,1.);
#93=VECTOR('',#577,1.);
#94=VECTOR('',#578,1.);
#95=VECTOR('',#581,1.);
#96=VECTOR('',#582,1.);
#97=VECTOR('',#585,1.);
#98=VECTOR('',#586,1.);
#99=VECTOR('',#587,1.);
#100=VECTOR('',#590,1.);
#101=VECTOR('',#591,1.);
#102=VECTOR('',#594,1.);
#103=VECTOR('',#595,1.);
#104=VECTOR('',#598,1.);
#105=VECTOR('',#599,1.);
#106=VECTOR('',#602,1.);
#107=VECTOR('',#603,1.);
#108=VECTOR('',#606,1.);
#109=VECTOR('',#609,1.);
#110=PLANE('',#478);
#111=PLANE('',#479);
#112=PLANE('',#480);
#113=PLANE('',#481);
#114=PLANE('',#482);
#115=PLANE('',#483);
#116=PLANE('',#484);
#117=PLANE('',#485);
#118=PLANE('',#488);
#119=PLANE('',#492);
#120=PLANE('',#493);
#121=PLANE('',#494);
#122=PLANE('',#495);
#123=PLANE('',#496);
#124=PLANE('',#497);
#125=PLANE('',#498);
#126=PLANE('',#499);
#127=PLANE('',#500);
#128=PLANE('',#501);
#129=PLANE('',#502);
#130=PLANE('',#503);
#131=PLANE('',#504);
#132=PLANE('',#507);
#133=ORIENTED_EDGE('',*,*,#253,.T.);
#134=ORIENTED_EDGE('',*,*,#254,.T.);
#135=ORIENTED_EDGE('',*,*,#253,.F.);
#136=ORIENTED_EDGE('',*,*,#255,.T.);
#137=ORIENTED_EDGE('',*,*,#256,.T.);
#138=ORIENTED_EDGE('',*,*,#257,.T.);
#139=ORIENTED_EDGE('',*,*,#258,.T.);
#140=ORIENTED_EDGE('',*,*,#259,.T.);
#141=ORIENTED_EDGE('',*,*,#260,.T.);
#142=ORIENTED_EDGE('',*,*,#261,.F.);
#143=ORIENTED_EDGE('',*,*,#262,.F.);
#144=ORIENTED_EDGE('',*,*,#263,.F.);
#145=ORIENTED_EDGE('',*,*,#264,.T.);
#146=ORIENTED_EDGE('',*,*,#265,.F.);
#147=ORIENTED_EDGE('',*,*,#266,.F.);
#148=ORIENTED_EDGE('',*,*,#267,.F.);
#149=ORIENTED_EDGE('',*,*,#262,.T.);
#150=ORIENTED_EDGE('',*,*,#268,.F.);
#151=ORIENTED_EDGE('',*,*,#269,.F.);
#152=ORIENTED_EDGE('',*,*,#270,.F.);
#153=ORIENTED_EDGE('',*,*,#266,.T.);
#154=ORIENTED_EDGE('',*,*,#271,.F.);
#155=ORIENTED_EDGE('',*,*,#272,.F.);
#156=ORIENTED_EDGE('',*,*,#273,.F.);
#157=ORIENTED_EDGE('',*,*,#269,.T.);
#158=ORIENTED_EDGE('',*,*,#274,.F.);
#159=ORIENTED_EDGE('',*,*,#275,.F.);
#160=ORIENTED_EDGE('',*,*,#276,.F.);
#161=ORIENTED_EDGE('',*,*,#272,.T.);
#162=ORIENTED_EDGE('',*,*,#277,.F.);
#163=ORIENTED_EDGE('',*,*,#264,.F.);
#164=ORIENTED_EDGE('',*,*,#278,.F.);
#165=ORIENTED_EDGE('',*,*,#275,.T.);
#166=ORIENTED_EDGE('',*,*,#279,.F.);
#167=ORIENTED_EDGE('',*,*,#280,.T.);
#168=ORIENTED_EDGE('',*,*,#281,.F.);
#169=ORIENTED_EDGE('',*,*,#282,.F.);
#170=ORIENTED_EDGE('',*,*,#283,.F.);
#171=ORIENTED_EDGE('',*,*,#284,.F.);
#172=ORIENTED_EDGE('',*,*,#285,.F.);
#173=ORIENTED_EDGE('',*,*,#286,.F.);
#174=ORIENTED_EDGE('',*,*,#287,.F.);
#175=ORIENTED_EDGE('',*,*,#287,.T.);
#176=ORIENTED_EDGE('',*,*,#263,.T.);
#177=ORIENTED_EDGE('',*,*,#267,.T.);
#178=ORIENTED_EDGE('',*,*,#270,.T.);
#179=ORIENTED_EDGE('',*,*,#273,.T.);
#180=ORIENTED_EDGE('',*,*,#276,.T.);
#181=ORIENTED_EDGE('',*,*,#278,.T.);
#182=ORIENTED_EDGE('',*,*,#280,.F.);
#183=ORIENTED_EDGE('',*,*,#261,.T.);
#184=ORIENTED_EDGE('',*,*,#277,.T.);
#185=ORIENTED_EDGE('',*,*,#274,.T.);
#186=ORIENTED_EDGE('',*,*,#271,.T.);
#187=ORIENTED_EDGE('',*,*,#268,.T.);
#188=ORIENTED_EDGE('',*,*,#265,.T.);
#189=ORIENTED_EDGE('',*,*,#281,.T.);
#190=ORIENTED_EDGE('',*,*,#288,.F.);
#191=ORIENTED_EDGE('',*,*,#289,.F.);
#192=ORIENTED_EDGE('',*,*,#290,.T.);
#193=ORIENTED_EDGE('',*,*,#286,.T.);
#194=ORIENTED_EDGE('',*,*,#291,.F.);
#195=ORIENTED_EDGE('',*,*,#292,.F.);
#196=ORIENTED_EDGE('',*,*,#288,.T.);
#197=ORIENTED_EDGE('',*,*,#285,.T.);
#198=ORIENTED_EDGE('',*,*,#293,.F.);
#199=ORIENTED_EDGE('',*,*,#294,.F.);
#200=ORIENTED_EDGE('',*,*,#291,.T.);
#201=ORIENTED_EDGE('',*,*,#284,.T.);
#202=ORIENTED_EDGE('',*,*,#295,.F.);
#203=ORIENTED_EDGE('',*,*,#296,.F.);
#204=ORIENTED_EDGE('',*,*,#293,.T.);
#205=ORIENTED_EDGE('',*,*,#283,.T.);
#206=ORIENTED_EDGE('',*,*,#297,.F.);
#207=ORIENTED_EDGE('',*,*,#298,.F.);
#208=ORIENTED_EDGE('',*,*,#295,.T.);
#209=ORIENTED_EDGE('',*,*,#256,.F.);
#210=ORIENTED_EDGE('',*,*,#299,.F.);
#211=ORIENTED_EDGE('',*,*,#300,.T.);
#212=ORIENTED_EDGE('',*,*,#301,.T.);
#213=ORIENTED_EDGE('',*,*,#255,.F.);
#214=ORIENTED_EDGE('',*,*,#302,.F.);
#215=ORIENTED_EDGE('',*,*,#303,.T.);
#216=ORIENTED_EDGE('',*,*,#299,.T.);
#217=ORIENTED_EDGE('',*,*,#260,.F.);
#218=ORIENTED_EDGE('',*,*,#304,.F.);
#219=ORIENTED_EDGE('',*,*,#305,.T.);
#220=ORIENTED_EDGE('',*,*,#302,.T.);
#221=ORIENTED_EDGE('',*,*,#259,.F.);
#222=ORIENTED_EDGE('',*,*,#306,.F.);
#223=ORIENTED_EDGE('',*,*,#307,.T.);
#224=ORIENTED_EDGE('',*,*,#304,.T.);
#225=ORIENTED_EDGE('',*,*,#258,.F.);
#226=ORIENTED_EDGE('',*,*,#308,.F.);
#227=ORIENTED_EDGE('',*,*,#309,.T.);
#228=ORIENTED_EDGE('',*,*,#306,.T.);
#229=ORIENTED_EDGE('',*,*,#257,.F.);
#230=ORIENTED_EDGE('',*,*,#301,.F.);
#231=ORIENTED_EDGE('',*,*,#310,.T.);
#232=ORIENTED_EDGE('',*,*,#308,.T.);
#233=ORIENTED_EDGE('',*,*,#282,.T.);
#234=ORIENTED_EDGE('',*,*,#290,.F.);
#235=ORIENTED_EDGE('',*,*,#311,.F.);
#236=ORIENTED_EDGE('',*,*,#297,.T.);
#237=ORIENTED_EDGE('',*,*,#300,.F.);
#238=ORIENTED_EDGE('',*,*,#303,.F.);
#239=ORIENTED_EDGE('',*,*,#305,.F.);
#240=ORIENTED_EDGE('',*,*,#307,.F.);
#241=ORIENTED_EDGE('',*,*,#309,.F.);
#242=ORIENTED_EDGE('',*,*,#310,.F.);
#243=ORIENTED_EDGE('',*,*,#289,.T.);
#244=ORIENTED_EDGE('',*,*,#292,.T.);
#245=ORIENTED_EDGE('',*,*,#294,.T.);
#246=ORIENTED_EDGE('',*,*,#296,.T.);
#247=ORIENTED_EDGE('',*,*,#298,.T.);
#248=ORIENTED_EDGE('',*,*,#311,.T.);
#249=ORIENTED_EDGE('',*,*,#312,.F.);
#250=ORIENTED_EDGE('',*,*,#279,.T.);
#251=ORIENTED_EDGE('',*,*,#254,.F.);
#252=ORIENTED_EDGE('',*,*,#312,.T.);
#253=EDGE_CURVE('',#313,#313,#355,.T.);
#254=EDGE_CURVE('',#314,#314,#356,.T.);
#255=EDGE_CURVE('',#315,#316,#26,.T.);
#256=EDGE_CURVE('',#316,#317,#27,.T.);
#257=EDGE_CURVE('',#317,#318,#28,.T.);
#258=EDGE_CURVE('',#318,#319,#29,.T.);
#259=EDGE_CURVE('',#319,#320,#30,.T.);
#260=EDGE_CURVE('',#320,#315,#31,.T.);
#261=EDGE_CURVE('',#321,#322,#14,.T.);
#262=EDGE_CURVE('',#323,#321,#32,.T.);
#263=EDGE_CURVE('',#324,#323,#15,.T.);
#264=EDGE_CURVE('',#324,#322,#33,.T.);
#265=EDGE_CURVE('',#325,#321,#16,.T.);
#266=EDGE_CURVE('',#326,#325,#34,.T.);
#267=EDGE_CURVE('',#323,#326,#17,.T.);
#268=EDGE_CURVE('',#327,#325,#18,.T.);
#269=EDGE_CURVE('',#328,#327,#35,.T.);
#270=EDGE_CURVE('',#326,#328,#19,.T.);
#271=EDGE_CURVE('',#329,#327,#20,.T.);
#272=EDGE_CURVE('',#330,#329,#36,.T.);
#273=EDGE_CURVE('',#328,#330,#21,.T.);
#274=EDGE_CURVE('',#331,#329,#22,.T.);
#275=EDGE_CURVE('',#332,#331,#37,.T.);
#276=EDGE_CURVE('',#330,#332,#23,.T.);
#277=EDGE_CURVE('',#322,#331,#24,.T.);
#278=EDGE_CURVE('',#332,#324,#25,.T.);
#279=EDGE_CURVE('',#333,#333,#357,.T.);
#280=EDGE_CURVE('',#334,#334,#358,.T.);
#281=EDGE_CURVE('',#335,#336,#38,.T.);
#282=EDGE_CURVE('',#337,#335,#39,.T.);
#283=EDGE_CURVE('',#338,#337,#40,.T.);
#284=EDGE_CURVE('',#339,#338,#41,.T.);
#285=EDGE_CURVE('',#340,#339,#42,.T.);
#286=EDGE_CURVE('',#336,#340,#43,.T.);
#287=EDGE_CURVE('',#341,#341,#359,.T.);
#288=EDGE_CURVE('',#342,#336,#44,.T.);
#289=EDGE_CURVE('',#343,#342,#45,.T.);
#290=EDGE_CURVE('',#343,#335,#46,.T.);
#291=EDGE_CURVE('',#344,#340,#47,.T.);
#292=EDGE_CURVE('',#342,#344,#48,.T.);
#293=EDGE_CURVE('',#345,#339,#49,.T.);
#294=EDGE_CURVE('',#344,#345,#50,.T.);
#295=EDGE_CURVE('',#346,#338,#51,.T.);
#296=EDGE_CURVE('',#345,#346,#52,.T.);
#297=EDGE_CURVE('',#347,#337,#53,.T.);
#298=EDGE_CURVE('',#346,#347,#54,.T.);
#299=EDGE_CURVE('',#348,#316,#55,.T.);
#300=EDGE_CURVE('',#348,#349,#56,.T.);
#301=EDGE_CURVE('',#349,#317,#57,.T.);
#302=EDGE_CURVE('',#350,#315,#58,.T.);
#303=EDGE_CURVE('',#350,#348,#59,.T.);
#304=EDGE_CURVE('',#351,#320,#60,.T.);
#305=EDGE_CURVE('',#351,#350,#61,.T.);
#306=EDGE_CURVE('',#352,#319,#62,.T.);
#307=EDGE_CURVE('',#352,#351,#63,.T.);
#308=EDGE_CURVE('',#353,#318,#64,.T.);
#309=EDGE_CURVE('',#353,#352,#65,.T.);
#310=EDGE_CURVE('',#349,#353,#66,.T.);
#311=EDGE_CURVE('',#347,#343,#67,.T.);
#312=EDGE_CURVE('',#354,#354,#360,.T.);
#313=VERTEX_POINT('',#621);
#314=VERTEX_POINT('',#623);
#315=VERTEX_POINT('',#626);
#316=VERTEX_POINT('',#627);
#317=VERTEX_POINT('',#629);
#318=VERTEX_POINT('',#631);
#319=VERTEX_POINT('',#633);
#320=VERTEX_POINT('',#635);
#321=VERTEX_POINT('',#643);
#322=VERTEX_POINT('',#644);
#323=VERTEX_POINT('',#646);
#324=VERTEX_POINT('',#652);
#325=VERTEX_POINT('',#660);
#326=VERTEX_POINT('',#662);
#327=VERTEX_POINT('',#674);
#328=VERTEX_POINT('',#676);
#329=VERTEX_POINT('',#688);
#330=VERTEX_POINT('',#690);
#331=VERTEX_POINT('',#702);
#332=VERTEX_POINT('',#704);
#333=VERTEX_POINT('',#723);
#334=VERTEX_POINT('',#725);
#335=VERTEX_POINT('',#728);
#336=VERTEX_POINT('',#729);
#337=VERTEX_POINT('',#731);
#338=VERTEX_POINT('',#733);
#339=VERTEX_POINT('',#735);
#340=VERTEX_POINT('',#737);
#341=VERTEX_POINT('',#740);
#342=VERTEX_POINT('',#745);
#343=VERTEX_POINT('',#747);
#344=VERTEX_POINT('',#751);
#345=VERTEX_POINT('',#755);
#346=VERTEX_POINT('',#759);
#347=VERTEX_POINT('',#763);
#348=VERTEX_POINT('',#767);
#349=VERTEX_POINT('',#769);
#350=VERTEX_POINT('',#773);
#351=VERTEX_POINT('',#777);
#352=VERTEX_POINT('',#781);
#353=VERTEX_POINT('',#785);
#354=VERTEX_POINT('',#794);
#355=CIRCLE('',#476,0.0021);
#356=CIRCLE('',#477,0.0021);
#357=CIRCLE('',#486,0.0024);
#358=CIRCLE('',#487,0.0055);
#359=CIRCLE('',#489,0.0055);
#360=CIRCLE('',#506,0.0024);
#361=EDGE_LOOP('',(#133));
#362=EDGE_LOOP('',(#134));
#363=EDGE_LOOP('',(#135));
#364=EDGE_LOOP('',(#136,#137,#138,#139,#140,#141));
#365=EDGE_LOOP('',(#142,#143,#144,#145));
#366=EDGE_LOOP('',(#146,#147,#148,#149));
#367=EDGE_LOOP('',(#150,#151,#152,#153));
#368=EDGE_LOOP('',(#154,#155,#156,#157));
#369=EDGE_LOOP('',(#158,#159,#160,#161));
#370=EDGE_LOOP('',(#162,#163,#164,#165));
#371=EDGE_LOOP('',(#166));
#372=EDGE_LOOP('',(#167));
#373=EDGE_LOOP('',(#168,#169,#170,#171,#172,#173));
#374=EDGE_LOOP('',(#174));
#375=EDGE_LOOP('',(#175));
#376=EDGE_LOOP('',(#176,#177,#178,#179,#180,#181));
#377=EDGE_LOOP('',(#182));
#378=EDGE_LOOP('',(#183,#184,#185,#186,#187,#188));
#379=EDGE_LOOP('',(#189,#190,#191,#192));
#380=EDGE_LOOP('',(#193,#194,#195,#196));
#381=EDGE_LOOP('',(#197,#198,#199,#200));
#382=EDGE_LOOP('',(#201,#202,#203,#204));
#383=EDGE_LOOP('',(#205,#206,#207,#208));
#384=EDGE_LOOP('',(#209,#210,#211,#212));
#385=EDGE_LOOP('',(#213,#214,#215,#216));
#386=EDGE_LOOP('',(#217,#218,#219,#220));
#387=EDGE_LOOP('',(#221,#222,#223,#224));
#388=EDGE_LOOP('',(#225,#226,#227,#228));
#389=EDGE_LOOP('',(#229,#230,#231,#232));
#390=EDGE_LOOP('',(#233,#234,#235,#236));
#391=EDGE_LOOP('',(#237,#238,#239,#240,#241,#242));
#392=EDGE_LOOP('',(#243,#244,#245,#246,#247,#248));
#393=EDGE_LOOP('',(#249));
#394=EDGE_LOOP('',(#250));
#395=EDGE_LOOP('',(#251));
#396=EDGE_LOOP('',(#252));
#397=FACE_BOUND('',#361,.T.);
#398=FACE_BOUND('',#362,.T.);
#399=FACE_BOUND('',#363,.T.);
#400=FACE_BOUND('',#364,.T.);
#401=FACE_BOUND('',#365,.T.);
#402=FACE_BOUND('',#366,.T.);
#403=FACE_BOUND('',#367,.T.);
#404=FACE_BOUND('',#368,.T.);
#405=FACE_BOUND('',#369,.T.);
#406=FACE_BOUND('',#370,.T.);
#407=FACE_BOUND('',#371,.T.);
#408=FACE_BOUND('',#372,.T.);
#409=FACE_BOUND('',#373,.T.);
#410=FACE_BOUND('',#374,.T.);
#411=FACE_BOUND('',#375,.T.);
#412=FACE_BOUND('',#376,.T.);
#413=FACE_BOUND('',#377,.T.);
#414=FACE_BOUND('',#378,.T.);
#415=FACE_BOUND('',#379,.T.);
#416=FACE_BOUND('',#380,.T.);
#417=FACE_BOUND('',#381,.T.);
#418=FACE_BOUND('',#382,.T.);
#419=FACE_BOUND('',#383,.T.);
#420=FACE_BOUND('',#384,.T.);
#421=FACE_BOUND('',#385,.T.);
#422=FACE_BOUND('',#386,.T.);
#423=FACE_BOUND('',#387,.T.);
#424=FACE_BOUND('',#388,.T.);
#425=FACE_BOUND('',#389,.T.);
#426=FACE_BOUND('',#390,.T.);
#427=FACE_BOUND('',#391,.T.);
#428=FACE_BOUND('',#392,.T.);
#429=FACE_BOUND('',#393,.T.);
#430=FACE_BOUND('',#394,.T.);
#431=FACE_BOUND('',#395,.T.);
#432=FACE_BOUND('',#396,.T.);
#433=CYLINDRICAL_SURFACE('',#475,0.0021);
#434=CYLINDRICAL_SURFACE('',#505,0.0024);
#435=ADVANCED_FACE('',(#397,#398),#433,.F.);
#436=ADVANCED_FACE('',(#399,#400),#110,.T.);
#437=ADVANCED_FACE('',(#401),#111,.F.);
#438=ADVANCED_FACE('',(#402),#112,.F.);
#439=ADVANCED_FACE('',(#403),#113,.F.);
#440=ADVANCED_FACE('',(#404),#114,.F.);
#441=ADVANCED_FACE('',(#405),#115,.F.);
#442=ADVANCED_FACE('',(#406),#116,.F.);
#443=ADVANCED_FACE('',(#407,#408),#117,.F.);
#444=ADVANCED_FACE('',(#409,#410),#118,.T.);
#445=ADVANCED_FACE('',(#411,#412),#12,.T.);
#446=ADVANCED_FACE('',(#413,#414),#13,.T.);
#447=ADVANCED_FACE('',(#415),#119,.F.);
#448=ADVANCED_FACE('',(#416),#120,.F.);
#449=ADVANCED_FACE('',(#417),#121,.F.);
#450=ADVANCED_FACE('',(#418),#122,.F.);
#451=ADVANCED_FACE('',(#419),#123,.F.);
#452=ADVANCED_FACE('',(#420),#124,.T.);
#453=ADVANCED_FACE('',(#421),#125,.T.);
#454=ADVANCED_FACE('',(#422),#126,.T.);
#455=ADVANCED_FACE('',(#423),#127,.T.);
#456=ADVANCED_FACE('',(#424),#128,.T.);
#457=ADVANCED_FACE('',(#425),#129,.T.);
#458=ADVANCED_FACE('',(#426),#130,.F.);
#459=ADVANCED_FACE('',(#427,#428),#131,.T.);
#460=ADVANCED_FACE('',(#429,#430),#434,.F.);
#461=ADVANCED_FACE('',(#431,#432),#132,.T.);
#462=CLOSED_SHELL('',(#435,#436,#437,#438,#439,#440,#441,#442,#443,#444,
#445,#446,#447,#448,#449,#450,#451,#452,#453,#454,#455,#456,#457,#458,#459,
#460,#461));
#463=STYLED_ITEM('',(#464),#471);
#464=PRESENTATION_STYLE_ASSIGNMENT((#465));
#465=SURFACE_STYLE_USAGE(.BOTH.,#466);
#466=SURFACE_SIDE_STYLE('',(#467));
#467=SURFACE_STYLE_FILL_AREA(#468);
#468=FILL_AREA_STYLE('',(#469));
#469=FILL_AREA_STYLE_COLOUR('',#470);
#470=COLOUR_RGB('',0.654901960784314,0.823529411764706,0.576470588235294);
#471=MANIFOLD_SOLID_BREP('Part 1',#462);
#472=SHAPE_DEFINITION_REPRESENTATION(#802,#473);
#473=SHAPE_REPRESENTATION('Part 1',(#474),#797);
#474=AXIS2_PLACEMENT_3D('',#618,#508,#509);
#475=AXIS2_PLACEMENT_3D('',#619,#510,#511);
#476=AXIS2_PLACEMENT_3D('',#620,#512,#513);
#477=AXIS2_PLACEMENT_3D('',#622,#514,#515);
#478=AXIS2_PLACEMENT_3D('',#624,#516,#517);
#479=AXIS2_PLACEMENT_3D('',#637,#524,#525);
#480=AXIS2_PLACEMENT_3D('',#654,#528,#529);
#481=AXIS2_PLACEMENT_3D('',#668,#531,#532);
#482=AXIS2_PLACEMENT_3D('',#682,#534,#535);
#483=AXIS2_PLACEMENT_3D('',#696,#537,#538);
#484=AXIS2_PLACEMENT_3D('',#710,#540,#541);
#485=AXIS2_PLACEMENT_3D('',#721,#542,#543);
#486=AXIS2_PLACEMENT_3D('',#722,#544,#545);
#487=AXIS2_PLACEMENT_3D('',#724,#546,#547);
#488=AXIS2_PLACEMENT_3D('',#726,#548,#549);
#489=AXIS2_PLACEMENT_3D('',#739,#556,#557);
#490=AXIS2_PLACEMENT_3D('',#741,#558,#559);
#491=AXIS2_PLACEMENT_3D('',#742,#560,#561);
#492=AXIS2_PLACEMENT_3D('',#743,#562,#563);
#493=AXIS2_PLACEMENT_3D('',#749,#567,#568);
#494=AXIS2_PLACEMENT_3D('',#753,#571,#572);
#495=AXIS2_PLACEMENT_3D('',#757,#575,#576);
#496=AXIS2_PLACEMENT_3D('',#761,#579,#580);
#497=AXIS2_PLACEMENT_3D('',#765,#583,#584);
#498=AXIS2_PLACEMENT_3D('',#771,#588,#589);
#499=AXIS2_PLACEMENT_3D('',#775,#592,#593);
#500=AXIS2_PLACEMENT_3D('',#779,#596,#597);
#501=AXIS2_PLACEMENT_3D('',#783,#600,#601);
#502=AXIS2_PLACEMENT_3D('',#787,#604,#605);
#503=AXIS2_PLACEMENT_3D('',#789,#607,#608);
#504=AXIS2_PLACEMENT_3D('',#791,#610,#611);
#505=AXIS2_PLACEMENT_3D('',#792,#612,#613);
#506=AXIS2_PLACEMENT_3D('',#793,#614,#615);
#507=AXIS2_PLACEMENT_3D('',#795,#616,#617);
#508=DIRECTION('',(0.,0.,1.));
#509=DIRECTION('',(1.,0.,0.));
#510=DIRECTION('',(0.,0.,-1.));
#511=DIRECTION('',(-1.,0.,0.));
#512=DIRECTION('',(0.,0.,1.));
#513=DIRECTION('',(1.,0.,0.));
#514=DIRECTION('',(0.,0.,-1.));
#515=DIRECTION('',(-1.,0.,0.));
#516=DIRECTION('',(0.,0.,1.));
#517=DIRECTION('',(1.,0.,0.));
#518=DIRECTION('',(0.866025403784439,0.5,0.));
#519=DIRECTION('',(0.,1.,0.));
#520=DIRECTION('',(-0.866025403784439,0.5,0.));
#521=DIRECTION('',(-0.866025403784439,-0.5,0.));
#522=DIRECTION('',(0.,-1.,0.));
#523=DIRECTION('',(0.866025403784438,-0.5,0.));
#524=DIRECTION('',(-0.5,0.866025403784439,0.));
#525=DIRECTION('',(-0.866025403784439,-0.5,0.));
#526=DIRECTION('',(0.,0.,-1.));
#527=DIRECTION('',(0.,0.,-1.));
#528=DIRECTION('',(-1.,7.70417742942133E-16,0.));
#529=DIRECTION('',(-7.70417742942133E-16,-1.,0.));
#530=DIRECTION('',(0.,0.,-1.));
#531=DIRECTION('',(-0.5,-0.866025403784438,0.));
#532=DIRECTION('',(0.866025403784438,-0.5,0.));
#533=DIRECTION('',(0.,0.,-1.));
#534=DIRECTION('',(0.5,-0.866025403784439,0.));
#535=DIRECTION('',(0.866025403784439,0.5,0.));
#536=DIRECTION('',(0.,0.,-1.));
#537=DIRECTION('',(1.,-8.98820700099155E-16,0.));
#538=DIRECTION('',(8.98820700099155E-16,1.,0.));
#539=DIRECTION('',(0.,0.,-1.));
#540=DIRECTION('',(0.5,0.866025403784438,0.));
#541=DIRECTION('',(-0.866025403784438,0.5,0.));
#542=DIRECTION('',(0.,0.,1.));
#543=DIRECTION('',(1.,0.,0.));
#544=DIRECTION('',(0.,0.,-1.));
#545=DIRECTION('',(-1.,0.,0.));
#546=DIRECTION('',(0.,0.,-1.));
#547=DIRECTION('',(-1.,0.,0.));
#548=DIRECTION('',(0.,0.,1.));
#549=DIRECTION('',(1.,0.,0.));
#550=DIRECTION('',(0.866025403784439,0.5,0.));
#551=DIRECTION('',(0.866025403784439,-0.5,0.));
#552=DIRECTION('',(-1.66923844304129E-16,-1.,0.));
#553=DIRECTION('',(-0.866025403784439,-0.5,0.));
#554=DIRECTION('',(-0.866025403784439,0.5,0.));
#555=DIRECTION('',(0.,1.,0.));
#556=DIRECTION('',(0.,0.,-1.));
#557=DIRECTION('',(-1.,0.,0.));
#558=DIRECTION('',(0.,0.,-1.));
#559=DIRECTION('',(-1.,0.,0.));
#560=DIRECTION('',(0.,0.,1.));
#561=DIRECTION('',(-1.,0.,0.));
#562=DIRECTION('',(-0.5,0.866025403784438,0.));
#563=DIRECTION('',(-0.866025403784439,-0.5,0.));
#564=DIRECTION('',(0.,0.,-1.));
#565=DIRECTION('',(0.866025403784439,0.5,0.));
#566=DIRECTION('',(0.,0.,-1.));
#567=DIRECTION('',(-1.,0.,0.));
#568=DIRECTION('',(0.,0.,1.));
#569=DIRECTION('',(0.,0.,-1.));
#570=DIRECTION('',(0.,1.,0.));
#571=DIRECTION('',(-0.5,-0.866025403784439,0.));
#572=DIRECTION('',(0.866025403784439,-0.5,0.));
#573=DIRECTION('',(0.,0.,-1.));
#574=DIRECTION('',(-0.866025403784439,0.5,0.));
#575=DIRECTION('',(0.5,-0.866025403784439,0.));
#576=DIRECTION('',(0.866025403784439,0.5,0.));
#577=DIRECTION('',(0.,0.,-1.));
#578=DIRECTION('',(-0.866025403784439,-0.5,0.));
#579=DIRECTION('',(1.,-1.66923844304129E-16,0.));
#580=DIRECTION('',(1.66923844304129E-16,1.,0.));
#581=DIRECTION('',(0.,0.,-1.));
#582=DIRECTION('',(-1.66923844304129E-16,-1.,0.));
#583=DIRECTION('',(-1.,0.,0.));
#584=DIRECTION('',(0.,0.,1.));
#585=DIRECTION('',(0.,0.,-1.));
#586=DIRECTION('',(0.,1.,0.));
#587=DIRECTION('',(0.,0.,-1.));
#588=DIRECTION('',(-0.5,0.866025403784438,0.));
#589=DIRECTION('',(-0.866025403784439,-0.5,0.));
#590=DIRECTION('',(0.,0.,-1.));
#591=DIRECTION('',(0.866025403784439,0.5,0.));
#592=DIRECTION('',(0.5,0.866025403784439,0.));
#593=DIRECTION('',(-0.866025403784439,0.5,0.));
#594=DIRECTION('',(0.,0.,-1.));
#595=DIRECTION('',(0.866025403784438,-0.5,0.));
#596=DIRECTION('',(1.,0.,0.));
#597=DIRECTION('',(0.,0.,-1.));
#598=DIRECTION('',(0.,0.,-1.));
#599=DIRECTION('',(0.,-1.,0.));
#600=DIRECTION('',(0.5,-0.866025403784439,0.));
#601=DIRECTION('',(0.866025403784439,0.5,0.));
#602=DIRECTION('',(0.,0.,-1.));
#603=DIRECTION('',(-0.866025403784439,-0.5,0.));
#604=DIRECTION('',(-0.5,-0.866025403784438,0.));
#605=DIRECTION('',(0.866025403784439,-0.5,0.));
#606=DIRECTION('',(-0.866025403784439,0.5,0.));
#607=DIRECTION('',(0.5,0.866025403784438,0.));
#608=DIRECTION('',(-0.866025403784439,0.5,0.));
#609=DIRECTION('',(0.866025403784439,-0.5,0.));
#610=DIRECTION('',(0.,0.,1.));
#611=DIRECTION('',(1.,0.,0.));
#612=DIRECTION('',(0.,0.,-1.));
#613=DIRECTION('',(-1.,0.,0.));
#614=DIRECTION('',(0.,0.,-1.));
#615=DIRECTION('',(-1.,0.,0.));
#616=DIRECTION('',(0.,0.,-1.));
#617=DIRECTION('',(1.,0.,0.));
#618=CARTESIAN_POINT('',(0.,0.,0.));
#619=CARTESIAN_POINT('',(0.,1.28587913910472E-19,0.003));
#620=CARTESIAN_POINT('',(0.,1.28587913910472E-19,0.003));
#621=CARTESIAN_POINT('',(0.0021,1.28587913910472E-19,0.003));
#622=CARTESIAN_POINT('',(0.,1.28587913910472E-19,-0.002));
#623=CARTESIAN_POINT('',(-0.0021,1.28587913910472E-19,-0.002));
#624=CARTESIAN_POINT('',(-1.7347234759768E-18,0.,0.003));
#625=CARTESIAN_POINT('',(0.0017753520777581,-0.003075,0.003));
#626=CARTESIAN_POINT('',(1.0842021724855E-18,-0.0041,0.003));
#627=CARTESIAN_POINT('',(0.0035507041555162,-0.00205,0.003));
#628=CARTESIAN_POINT('',(0.0035507041555162,4.33680868994202E-19,0.003));
#629=CARTESIAN_POINT('',(0.0035507041555162,0.00205,0.003));
#630=CARTESIAN_POINT('',(0.0017753520777581,0.003075,0.003));
#631=CARTESIAN_POINT('',(2.16840434497101E-19,0.0041,0.003));
#632=CARTESIAN_POINT('',(-0.0017753520777581,0.003075,0.003));
#633=CARTESIAN_POINT('',(-0.0035507041555162,0.00205,0.003));
#634=CARTESIAN_POINT('',(-0.0035507041555162,0.,0.003));
#635=CARTESIAN_POINT('',(-0.0035507041555162,-0.00205,0.003));
#636=CARTESIAN_POINT('',(-0.0017753520777581,-0.003075,0.003));
#637=CARTESIAN_POINT('',(0.002925,-0.00506624861213897,0.003));
#638=CARTESIAN_POINT('',(0.00585,-0.00337749907475932,-0.00239999999999992));
#639=CARTESIAN_POINT('',(0.00488707672495923,-0.00393344308681306,-0.00266579035782653));
#640=CARTESIAN_POINT('',(0.0029501624912415,-0.00505172104104721,-0.00299903320965384));
#641=CARTESIAN_POINT('',(0.000966508403399487,-0.0061969842626419,-0.00266677994087435));
#642=CARTESIAN_POINT('',(-3.84734586236454E-18,-0.00675499814951863,-0.00239999999999994));
#643=CARTESIAN_POINT('',(0.00585,-0.00337749907475932,-0.00239999999999992));
#644=CARTESIAN_POINT('',(-5.20417042793042E-18,-0.00675499814951862,-0.00239999999999992));
#645=CARTESIAN_POINT('',(0.00585,-0.00337749907475932,0.003));
#646=CARTESIAN_POINT('',(0.00585,-0.00337749907475932,0.00239999999999992));
#647=CARTESIAN_POINT('',(-2.14444553996301E-18,-0.00675499814951863,0.00239999999999992));
#648=CARTESIAN_POINT('',(0.000962923275040766,-0.00619905413746488,0.00266579035782653));
#649=CARTESIAN_POINT('',(0.0028998375087585,-0.00508077618323073,0.00299903320965384));
#650=CARTESIAN_POINT('',(0.00488349159660051,-0.00393551296163605,0.00266677994087436));
#651=CARTESIAN_POINT('',(0.00585,-0.00337749907475931,0.00239999999999994));
#652=CARTESIAN_POINT('',(-6.07153216591882E-18,-0.00675499814951862,0.00239999999999992));
#653=CARTESIAN_POINT('',(-5.20417042793042E-18,-0.00675499814951862,0.003));
#654=CARTESIAN_POINT('',(0.00585,-5.20417042793042E-18,0.003));
#655=CARTESIAN_POINT('',(0.00585,0.00337749907475931,-0.00239999999999993));
#656=CARTESIAN_POINT('',(0.00585,0.00226388547353897,-0.00266620284698762));
#657=CARTESIAN_POINT('',(0.00585,4.29473591540669E-6,-0.00299925223246891));
#658=CARTESIAN_POINT('',(0.00585,-0.00226486623948764,-0.00266596840059843));
#659=CARTESIAN_POINT('',(0.00585,-0.00337749907475932,-0.00239999999999993));
#660=CARTESIAN_POINT('',(0.00585,0.00337749907475931,-0.00239999999999992));
#661=CARTESIAN_POINT('',(0.00585,0.00337749907475931,0.003));
#662=CARTESIAN_POINT('',(0.00585,0.00337749907475931,0.00239999999999992));
#663=CARTESIAN_POINT('',(0.00585,-0.00337749907475932,0.00239999999999993));
#664=CARTESIAN_POINT('',(0.00585,-0.00226388547353898,0.00266620284698762));
#665=CARTESIAN_POINT('',(0.00585,-4.29473591541342E-6,0.00299925223246891));
#666=CARTESIAN_POINT('',(0.00585,0.00226486623948763,0.00266596840059843));
#667=CARTESIAN_POINT('',(0.00585,0.00337749907475931,0.00239999999999993));
#668=CARTESIAN_POINT('',(0.002925,0.00506624861213896,0.003));
#669=CARTESIAN_POINT('',(5.56611324400134E-18,0.00675499814951861,-0.00239999999999993));
#670=CARTESIAN_POINT('',(0.000962923275040772,0.00619905413746487,-0.00266579035782654));
#671=CARTESIAN_POINT('',(0.0028998375087585,0.00508077618323072,-0.00299903320965384));
#672=CARTESIAN_POINT('',(0.00488349159660051,0.00393551296163603,-0.00266677994087436));
#673=CARTESIAN_POINT('',(0.00585,0.0033774990747593,-0.00239999999999994));
#674=CARTESIAN_POINT('',(9.54097911787244E-18,0.00675499814951862,-0.00239999999999992));
#675=CARTESIAN_POINT('',(8.67361737988404E-18,0.00675499814951862,0.003));
#676=CARTESIAN_POINT('',(9.54097911787244E-18,0.00675499814951862,0.00239999999999992));
#677=CARTESIAN_POINT('',(0.00585,0.0033774990747593,0.00239999999999993));
#678=CARTESIAN_POINT('',(0.00488707672495923,0.00393344308681305,0.00266579035782654));
#679=CARTESIAN_POINT('',(0.00295016249124151,0.0050517210410472,0.00299903320965384));
#680=CARTESIAN_POINT('',(0.000966508403399492,0.00619698426264189,0.00266677994087436));
#681=CARTESIAN_POINT('',(2.0201272570872E-18,0.00675499814951862,0.00239999999999994));
#682=CARTESIAN_POINT('',(-0.002925,0.00506624861213897,0.003));
#683=CARTESIAN_POINT('',(-0.00585,0.00337749907475932,-0.00239999999999992));
#684=CARTESIAN_POINT('',(-0.00488707672495923,0.00393344308681306,-0.00266579035782653));
#685=CARTESIAN_POINT('',(-0.0029501624912415,0.00505172104104721,-0.00299903320965384));
#686=CARTESIAN_POINT('',(-0.000966508403399485,0.0061969842626419,-0.00266677994087435));
#687=CARTESIAN_POINT('',(5.76945645616485E-18,0.00675499814951863,-0.00239999999999993));
#688=CARTESIAN_POINT('',(-0.00585,0.00337749907475932,-0.00239999999999992));
#689=CARTESIAN_POINT('',(-0.00585,0.00337749907475932,0.003));
#690=CARTESIAN_POINT('',(-0.00585,0.00337749907475932,0.00239999999999992));
#691=CARTESIAN_POINT('',(4.70126853750767E-18,0.00675499814951863,0.00239999999999992));
#692=CARTESIAN_POINT('',(-0.000962923275040764,0.00619905413746489,0.00266579035782653));
#693=CARTESIAN_POINT('',(-0.0028998375087585,0.00508077618323073,0.00299903320965384));
#694=CARTESIAN_POINT('',(-0.00488349159660051,0.00393551296163605,0.00266677994087436));
#695=CARTESIAN_POINT('',(-0.00585,0.00337749907475932,0.00239999999999994));
#696=CARTESIAN_POINT('',(-0.00585,6.07153216591882E-18,0.003));
#697=CARTESIAN_POINT('',(-0.00585,-0.00337749907475931,-0.00239999999999993));
#698=CARTESIAN_POINT('',(-0.00585,-0.00226388547353897,-0.00266620284698762));
#699=CARTESIAN_POINT('',(-0.00585,-4.29473591540149E-6,-0.00299925223246891));
#700=CARTESIAN_POINT('',(-0.00585,0.00226486623948764,-0.00266596840059843));
#701=CARTESIAN_POINT('',(-0.00585,0.00337749907475932,-0.00239999999999993));
#702=CARTESIAN_POINT('',(-0.00585,-0.00337749907475931,-0.00239999999999992));
#703=CARTESIAN_POINT('',(-0.00585,-0.00337749907475931,0.003));
#704=CARTESIAN_POINT('',(-0.00585,-0.00337749907475931,0.00239999999999992));
#705=CARTESIAN_POINT('',(-0.00585,0.00337749907475932,0.00239999999999993));
#706=CARTESIAN_POINT('',(-0.00585,0.00226388547353898,0.00266620284698762));
#707=CARTESIAN_POINT('',(-0.00585,4.29473591541949E-6,0.00299925223246891));
#708=CARTESIAN_POINT('',(-0.00585,-0.00226486623948763,0.00266596840059843));
#709=CARTESIAN_POINT('',(-0.00585,-0.00337749907475931,0.00239999999999993));
#710=CARTESIAN_POINT('',(-0.002925,-0.00506624861213896,0.003));
#711=CARTESIAN_POINT('',(-1.96259909369825E-18,-0.00675499814951862,-0.00239999999999993));
#712=CARTESIAN_POINT('',(-0.000962923275040769,-0.00619905413746487,-0.00266579035782654));
#713=CARTESIAN_POINT('',(-0.0028998375087585,-0.00508077618323072,-0.00299903320965384));
#714=CARTESIAN_POINT('',(-0.00488349159660051,-0.00393551296163603,-0.00266677994087436));
#715=CARTESIAN_POINT('',(-0.00585,-0.0033774990747593,-0.00239999999999994));
#716=CARTESIAN_POINT('',(-0.00585,-0.0033774990747593,0.00239999999999993));
#717=CARTESIAN_POINT('',(-0.00488707672495923,-0.00393344308681305,0.00266579035782654));
#718=CARTESIAN_POINT('',(-0.0029501624912415,-0.0050517210410472,0.00299903320965384));
#719=CARTESIAN_POINT('',(-0.000966508403399491,-0.00619698426264188,0.00266677994087436));
#720=CARTESIAN_POINT('',(-1.51138884649055E-18,-0.00675499814951862,0.00239999999999994));
#721=CARTESIAN_POINT('',(-1.7347234759768E-18,0.,-0.003));
#722=CARTESIAN_POINT('',(0.,-1.83697019872103E-20,-0.003));
#723=CARTESIAN_POINT('',(-0.0024,-1.83697019872103E-20,-0.003));
#724=CARTESIAN_POINT('',(0.,0.,-0.003));
#725=CARTESIAN_POINT('',(-0.0055,0.,-0.003));
#726=CARTESIAN_POINT('',(-1.7347234759768E-18,0.,0.003));
#727=CARTESIAN_POINT('',(0.00225,-0.00389711431702998,0.003));
#728=CARTESIAN_POINT('',(4.33680868994202E-19,-0.00519615242270663,0.003));
#729=CARTESIAN_POINT('',(0.0045,-0.00259807621135332,0.003));
#730=CARTESIAN_POINT('',(-0.00225,-0.00389711431702998,0.003));
#731=CARTESIAN_POINT('',(-0.0045,-0.00259807621135332,0.003));
#732=CARTESIAN_POINT('',(-0.0045,1.51788304147971E-18,0.003));
#733=CARTESIAN_POINT('',(-0.0045,0.00259807621135332,0.003));
#734=CARTESIAN_POINT('',(-0.00225,0.00389711431702998,0.003));
#735=CARTESIAN_POINT('',(1.7347234759768E-18,0.00519615242270663,0.003));
#736=CARTESIAN_POINT('',(0.00225,0.00389711431702998,0.003));
#737=CARTESIAN_POINT('',(0.0045,0.00259807621135332,0.003));
#738=CARTESIAN_POINT('',(0.0045,-8.67361737988404E-19,0.003));
#739=CARTESIAN_POINT('',(0.,0.,0.003));
#740=CARTESIAN_POINT('',(-0.0055,0.,0.003));
#741=CARTESIAN_POINT('',(0.,0.,0.00239999999999992));
#742=CARTESIAN_POINT('',(0.,0.,-0.00239999999999992));
#743=CARTESIAN_POINT('',(0.00225,-0.00389711431702998,0.015));
#744=CARTESIAN_POINT('',(0.0045,-0.00259807621135332,0.015));
#745=CARTESIAN_POINT('',(0.0045,-0.00259807621135332,0.015));
#746=CARTESIAN_POINT('',(0.00225,-0.00389711431702998,0.015));
#747=CARTESIAN_POINT('',(4.33680868994202E-19,-0.00519615242270663,0.015));
#748=CARTESIAN_POINT('',(4.33680868994202E-19,-0.00519615242270663,0.015));
#749=CARTESIAN_POINT('',(0.0045,-8.67361737988404E-19,0.015));
#750=CARTESIAN_POINT('',(0.0045,0.00259807621135332,0.015));
#751=CARTESIAN_POINT('',(0.0045,0.00259807621135332,0.015));
#752=CARTESIAN_POINT('',(0.0045,-8.67361737988404E-19,0.015));
#753=CARTESIAN_POINT('',(0.00225,0.00389711431702998,0.015));
#754=CARTESIAN_POINT('',(1.7347234759768E-18,0.00519615242270663,0.015));
#755=CARTESIAN_POINT('',(1.7347234759768E-18,0.00519615242270663,0.015));
#756=CARTESIAN_POINT('',(0.00225,0.00389711431702998,0.015));
#757=CARTESIAN_POINT('',(-0.00225,0.00389711431702998,0.015));
#758=CARTESIAN_POINT('',(-0.0045,0.00259807621135332,0.015));
#759=CARTESIAN_POINT('',(-0.0045,0.00259807621135332,0.015));
#760=CARTESIAN_POINT('',(-0.00225,0.00389711431702998,0.015));
#761=CARTESIAN_POINT('',(-0.0045,1.51788304147971E-18,0.015));
#762=CARTESIAN_POINT('',(-0.0045,-0.00259807621135332,0.015));
#763=CARTESIAN_POINT('',(-0.0045,-0.00259807621135332,0.015));
#764=CARTESIAN_POINT('',(-0.0045,1.51788304147971E-18,0.015));
#765=CARTESIAN_POINT('',(0.0035507041555162,4.33680868994202E-19,0.015));
#766=CARTESIAN_POINT('',(0.0035507041555162,-0.00205,0.015));
#767=CARTESIAN_POINT('',(0.0035507041555162,-0.00205,0.015));
#768=CARTESIAN_POINT('',(0.0035507041555162,4.33680868994202E-19,0.015));
#769=CARTESIAN_POINT('',(0.0035507041555162,0.00205,0.015));
#770=CARTESIAN_POINT('',(0.0035507041555162,0.00205,0.015));
#771=CARTESIAN_POINT('',(0.0017753520777581,-0.003075,0.015));
#772=CARTESIAN_POINT('',(1.0842021724855E-18,-0.0041,0.015));
#773=CARTESIAN_POINT('',(1.0842021724855E-18,-0.0041,0.015));
#774=CARTESIAN_POINT('',(0.0017753520777581,-0.003075,0.015));
#775=CARTESIAN_POINT('',(-0.0017753520777581,-0.003075,0.015));
#776=CARTESIAN_POINT('',(-0.0035507041555162,-0.00205,0.015));
#777=CARTESIAN_POINT('',(-0.0035507041555162,-0.00205,0.015));
#778=CARTESIAN_POINT('',(-0.0017753520777581,-0.003075,0.015));
#779=CARTESIAN_POINT('',(-0.0035507041555162,0.,0.015));
#780=CARTESIAN_POINT('',(-0.0035507041555162,0.00205,0.015));
#781=CARTESIAN_POINT('',(-0.0035507041555162,0.00205,0.015));
#782=CARTESIAN_POINT('',(-0.0035507041555162,0.,0.015));
#783=CARTESIAN_POINT('',(-0.0017753520777581,0.003075,0.015));
#784=CARTESIAN_POINT('',(2.16840434497101E-19,0.0041,0.015));
#785=CARTESIAN_POINT('',(2.16840434497101E-19,0.0041,0.015));
#786=CARTESIAN_POINT('',(-0.0017753520777581,0.003075,0.015));
#787=CARTESIAN_POINT('',(0.0017753520777581,0.003075,0.015));
#788=CARTESIAN_POINT('',(0.0017753520777581,0.003075,0.015));
#789=CARTESIAN_POINT('',(-0.00225,-0.00389711431702998,0.015));
#790=CARTESIAN_POINT('',(-0.00225,-0.00389711431702998,0.015));
#791=CARTESIAN_POINT('',(0.,0.,0.015));
#792=CARTESIAN_POINT('',(0.,-1.83697019872103E-20,-0.002));
#793=CARTESIAN_POINT('',(0.,-1.83697019872103E-20,-0.002));
#794=CARTESIAN_POINT('',(-0.0024,-1.83697019872103E-20,-0.002));
#795=CARTESIAN_POINT('',(0.,0.,-0.002));
#796=MECHANICAL_DESIGN_GEOMETRIC_PRESENTATION_REPRESENTATION('',(#463),
#797);
#797=(
GEOMETRIC_REPRESENTATION_CONTEXT(3)
GLOBAL_UNCERTAINTY_ASSIGNED_CONTEXT((#798))
GLOBAL_UNIT_ASSIGNED_CONTEXT((#801,#800,#799))
REPRESENTATION_CONTEXT('Part 1','TOP_LEVEL_ASSEMBLY_PART')
);
#798=UNCERTAINTY_MEASURE_WITH_UNIT(LENGTH_MEASURE(2.E-5),#801,
'DISTANCE_ACCURACY_VALUE','Maximum Tolerance applied to model');
#799=(
NAMED_UNIT(*)
SI_UNIT($,.STERADIAN.)
SOLID_ANGLE_UNIT()
);
#800=(
NAMED_UNIT(*)
PLANE_ANGLE_UNIT()
SI_UNIT($,.RADIAN.)
);
#801=(
LENGTH_UNIT()
NAMED_UNIT(*)
SI_UNIT($,.METRE.)
);
#802=PRODUCT_DEFINITION_SHAPE('','',#803);
#803=PRODUCT_DEFINITION('','',#805,#804);
#804=PRODUCT_DEFINITION_CONTEXT('',#811,'design');
#805=PRODUCT_DEFINITION_FORMATION_WITH_SPECIFIED_SOURCE('','',#807,
 .NOT_KNOWN.);
#806=PRODUCT_RELATED_PRODUCT_CATEGORY('','',(#807));
#807=PRODUCT('Part 1','Part 1','Part 1',(#809));
#808=PRODUCT_CATEGORY('','');
#809=PRODUCT_CONTEXT('',#811,'mechanical');
#810=APPLICATION_PROTOCOL_DEFINITION('international standard',
'ap242_managed_model_based_3d_engineering',2020,#811);
#811=APPLICATION_CONTEXT('managed model based 3d engineering');
ENDSEC;
END-ISO-10303-21;
